<?xml version="1.0" standalone="no"?>
<!DOCTYPE svg PUBLIC "-//W3C//DTD SVG 1.1//EN" "http://www.w3.org/Graphics/SVG/1.1/DTD/svg11.dtd" >
<svg>
<metadata>
Created by FontForge 20090914 at Tue Dec 27 14:37:31 2022
 By www-data
Digitized data copyright 2012-2016, The Mozilla Foundation and Telefonica S.A.
</metadata>
<defs>
<font id="FiraSansCondensed-ExtraLight" horiz-adv-x="504" >
  <font-face 
    font-family="Fira Sans Condensed ExtraLight"
    font-weight="275"
    font-stretch="condensed"
    units-per-em="1000"
    panose-1="2 11 4 3 5 0 0 2 0 4"
    ascent="800"
    descent="-200"
    x-height="522"
    cap-height="684"
    bbox="-658 -350 1360 1050"
    underline-thickness="50"
    underline-position="-50"
    unicode-range="U+000D-U+FEFF"
  />
<missing-glyph horiz-adv-x="666" 
d="M543 1050v-1400h-420v1400h420zM489 998h-311v-1296h311v1296zM409.5 419c17 -21.333 25.4961 -49.002 25.4961 -83.002c0 -35.333 -7.5 -62.666 -22.5 -81.999s-39.167 -31.333 -72.5 -36v-45c0 -7.33301 -2.5 -13.166 -7.5 -17.499s-10.833 -6.5 -17.5 -6.5
s-12.5 2.16699 -17.5 6.5s-7.5 10.166 -7.5 17.499v84c35.333 2 59.333 8.5 72 19.5s19 30.167 19 57.5c0 22 -4.33301 39 -13 51s-24.667 18 -48 18c-19.333 0 -36.666 -3.66699 -51.999 -11c-5.33301 -2 -9.66602 -3 -12.999 -3c-7.33301 0 -13.166 2.16699 -17.499 6.5
s-6.5 9.83301 -6.5 16.5c0 12.667 9.83301 22.334 29.5 29.001s40.834 10 63.501 10c40 0 68.5 -10.667 85.5 -32zM339.996 109.998c6.66699 -6.66699 10 -15 10 -25c0 -10.667 -3.33301 -19.5 -10 -26.5s-15 -10.5 -25 -10.5s-18.333 3.5 -25 10.5s-10 15.833 -10 26.5
c0 10 3.33301 18.333 10 25s15 10 25 10s18.333 -3.33301 25 -10z" />
    <glyph glyph-name="fi" unicode="fi" horiz-adv-x="505" 
d="M365 703l-17.002 -33c-40 20.667 -78.667 31 -116 31c-29.333 0 -51.166 -6.5 -65.499 -19.5s-21.5 -35.833 -21.5 -68.5v-91h262v-522h-45v484h-217v-484h-45v484h-78v38h78v95c0 40 11.333 70.667 34 92s55 32 97 32c44.667 0 89.334 -12.667 134.001 -38z" />
    <glyph glyph-name="fl" unicode="fl" horiz-adv-x="525" 
d="M494 2c-17.333 -8.66699 -34.3311 -13 -50.998 -13c-24.667 0 -44.167 7.5 -58.5 22.5s-21.5 36.833 -21.5 65.5v602c-22.667 8 -43.334 13.833 -62.001 17.5s-39 5.5 -61 5.5c-32.667 0 -56.667 -7 -72 -21s-23 -36 -23 -66v-93h126l-6 -38h-120v-484h-45v484h-78v38h78
v96c0 38 11.833 68 35.5 90s57.167 33 100.5 33c22.667 0 43.667 -2 63 -6s40.666 -10 63.999 -18l45 5v-644c0 -32.667 13.667 -49 41 -49c10.667 0 21.667 2.33301 33 7z" />
    <glyph glyph-name=".notdef" horiz-adv-x="666" 
d="M543 1050v-1400h-420v1400h420zM489 998h-311v-1296h311v1296zM409.5 419c17 -21.333 25.4961 -49.002 25.4961 -83.002c0 -35.333 -7.5 -62.666 -22.5 -81.999s-39.167 -31.333 -72.5 -36v-45c0 -7.33301 -2.5 -13.166 -7.5 -17.499s-10.833 -6.5 -17.5 -6.5
s-12.5 2.16699 -17.5 6.5s-7.5 10.166 -7.5 17.499v84c35.333 2 59.333 8.5 72 19.5s19 30.167 19 57.5c0 22 -4.33301 39 -13 51s-24.667 18 -48 18c-19.333 0 -36.666 -3.66699 -51.999 -11c-5.33301 -2 -9.66602 -3 -12.999 -3c-7.33301 0 -13.166 2.16699 -17.499 6.5
s-6.5 9.83301 -6.5 16.5c0 12.667 9.83301 22.334 29.5 29.001s40.834 10 63.501 10c40 0 68.5 -10.667 85.5 -32zM339.996 109.998c6.66699 -6.66699 10 -15 10 -25c0 -10.667 -3.33301 -19.5 -10 -26.5s-15 -10.5 -25 -10.5s-18.333 3.5 -25 10.5s-10 15.833 -10 26.5
c0 10 3.33301 18.333 10 25s15 10 25 10s18.333 -3.33301 25 -10z" />
    <glyph glyph-name="nonmarkingreturn" unicode="&#xd;" horiz-adv-x="254" 
 />
    <glyph glyph-name="space" unicode=" " horiz-adv-x="254" 
 />
    <glyph glyph-name="exclam" unicode="!" horiz-adv-x="228" 
d="M137 684l-3 -471h-41l-3 471h47zM142 55.5c7.33301 -7.66699 11 -16.834 11 -27.501s-3.66699 -19.834 -11 -27.501s-16.666 -11.5 -27.999 -11.5s-20.666 3.83301 -27.999 11.5s-11 16.834 -11 27.501s3.66699 19.834 11 27.501s16.666 11.5 27.999 11.5
s20.666 -3.83301 27.999 -11.5z" />
    <glyph glyph-name="quotedbl" unicode="&#x22;" horiz-adv-x="336" 
d="M76 436l-6 248h46l-6 -248h-34zM226 436l-6 248h46l-6 -248h-34z" />
    <glyph glyph-name="numbersign" unicode="#" horiz-adv-x="450" 
d="M436 454h-70l-30 -230h67v-37h-72l-25 -187h-41l25 187h-169l-25 -187h-41l25 187h-67v37h72l30 230h-69v38h74l23 172h41l-23 -172h169l23 172h41l-23 -172h65v-38zM295 224l30 230h-169l-30 -230h169z" />
    <glyph glyph-name="dollar" unicode="$" horiz-adv-x="472" 
d="M375.5 52c-30.333 -34.667 -70.5 -55.001 -120.5 -61.001v-140h-39v138c-68.667 2.66699 -128 30 -178 82l27 28c23.333 -22.667 47.5 -40 72.5 -52s54.167 -18 87.5 -18c45.333 0 81.666 13.667 108.999 41s41 63.333 41 108c0 28 -4.5 51.333 -13.5 70
s-23.833 34.667 -44.5 48s-49.667 26.666 -87 39.999c-60.667 21.333 -104 45.333 -130 72s-39 62 -39 106c0 42 14.5 77.833 43.5 107.5s66.167 46.5 111.5 50.5v144h39v-144c30.667 -2 57.334 -8.83301 80.001 -20.5s45 -28.5 67 -50.5l-27 -28
c-22 21.333 -44 36.833 -66 46.5s-47 14.5 -75 14.5c-38 0 -68.667 -11 -92 -33s-35 -50.667 -35 -86s10.333 -63.166 31 -83.499s57.667 -39.5 111 -57.5c60 -21.333 103.667 -46.166 131 -74.499s41 -68.5 41 -120.5c0 -50 -15.167 -92.333 -45.5 -127z" />
    <glyph glyph-name="percent" unicode="%" horiz-adv-x="714" 
d="M552 700l34 -20l-417 -701l-34 20zM280.5 632.5c24.333 -28.333 36.5 -67.166 36.5 -116.499c0 -50 -11.833 -89.333 -35.5 -118s-55.834 -43 -96.501 -43c-39.333 0 -71.166 14.167 -95.499 42.5s-36.5 67.166 -36.5 116.499c0 50 11.833 89.333 35.5 118
s55.834 43 96.501 43c39.333 0 71.166 -14.167 95.499 -42.5zM117 606.5c-14.667 -23 -22 -53.833 -22 -92.5c0 -37.333 7.33301 -67.5 22 -90.5s37.334 -34.5 68.001 -34.5s53.334 11.5 68.001 34.5s22 53.833 22 92.5c0 37.333 -7.33301 67.5 -22 90.5
s-37.334 34.5 -68.001 34.5s-53.334 -11.5 -68.001 -34.5zM624 267.5c24 -28.333 35.998 -67.167 35.998 -116.5c0 -50 -11.833 -89.5 -35.5 -118.5s-55.5 -43.5 -95.5 -43.5c-39.333 0 -71.166 14.333 -95.499 43s-36.5 67.667 -36.5 117c0 50 11.833 89.333 35.5 118
s55.834 43 96.501 43c39.333 0 71 -14.167 95 -42.5zM459.998 240.999c-14.667 -22.667 -22 -53.333 -22 -92c0 -37.333 7.33301 -67.5 22 -90.5s37.667 -34.5 69 -34.5c30.667 0 53.167 11.5 67.5 34.5s21.5 53.833 21.5 92.5c0 37.333 -7.16699 67.333 -21.5 90
s-36.833 34 -67.5 34c-31.333 0 -54.333 -11.333 -69 -34z" />
    <glyph glyph-name="ampersand" unicode="&#x26;" horiz-adv-x="648" 
d="M379.5 653.5c27 -27 40.501 -62.166 40.501 -105.499c0 -38 -11.333 -70.833 -34 -98.5s-58.334 -56.834 -107.001 -87.501l191 -201c27.333 64.667 47.666 130.334 60.999 197.001l42 -11c-16.667 -78.667 -41.667 -149.667 -75 -213l115 -118l-34 -27l-105 110
c-26 -35.333 -54.833 -62.5 -86.5 -81.5s-70.167 -28.5 -115.5 -28.5c-34.667 0 -66.167 7.5 -94.5 22.5s-50.666 36.167 -66.999 63.5s-24.5 59 -24.5 95c0 42.667 10.833 79.167 32.5 109.5s54.5 60.166 98.5 89.499c-34 35.333 -57.833 65 -71.5 89
s-20.5 52.333 -20.5 85c0 44.667 13.667 81 41 109s63.333 42 108 42c43.333 0 78.5 -13.5 105.5 -40.5zM198.001 625.501c-18.667 -21 -27.999 -48.1689 -27.999 -81.502c0 -25.333 5.16699 -48.166 15.5 -68.499s32.5 -49.166 66.5 -86.499c43.333 26 74.666 51 93.999 75
s29 51.333 29 82c0 36 -9.33301 63.5 -28 82.5s-43 28.5 -73 28.5c-32 0 -57.333 -10.5 -76 -31.5zM159.502 264.999c-18.333 -27.333 -27.501 -59 -27.501 -95c0 -42.667 13.333 -77 40 -103s60.667 -39 102 -39c38 0 70.333 8.16699 97 24.5s51.667 40.833 75 73.5
l-203 217c-37.333 -24.667 -65.166 -50.667 -83.499 -78z" />
    <glyph glyph-name="quotesingle" unicode="'" horiz-adv-x="186" 
d="M76 436l-6 248h46l-6 -248h-34z" />
    <glyph glyph-name="parenleft" unicode="(" horiz-adv-x="291" 
d="M241 815c-33.333 -53.333 -59.666 -100.172 -78.999 -140.505s-35 -87 -47 -140s-18 -114.5 -18 -184.5s6 -131.5 18 -184.5s27.667 -99.667 47 -140s45.666 -87.166 78.999 -140.499l-30 -19c-36 55.333 -64.833 103.833 -86.5 145.5s-39.334 90.334 -53.001 146.001
s-20.5 119.834 -20.5 192.501s6.83301 136.834 20.5 192.501s31.334 104.334 53.001 146.001s50.5 90.167 86.5 145.5z" />
    <glyph glyph-name="parenright" unicode=")" horiz-adv-x="291" 
d="M166.5 688.5c21.667 -41.667 39.332 -90.3301 52.999 -145.997s20.5 -119.834 20.5 -192.501s-6.83301 -136.834 -20.5 -192.501s-31.334 -104.334 -53.001 -146.001s-50.5 -90.167 -86.5 -145.5l-29 19c32.667 54 58.834 101.167 78.501 141.5s35.5 87 47.5 140
s18 114.167 18 183.5c0 70 -6 131.5 -18 184.5s-27.667 99.5 -47 139.5s-45.666 87 -78.999 141l29 19c36 -55.333 64.833 -103.833 86.5 -145.5z" />
    <glyph glyph-name="asterisk" unicode="*" horiz-adv-x="399" 
d="M361 590l-137 -42l89 -124l-36 -24l-78 128l-78 -128l-36 23l90 123l-138 44l14 38l132 -54l-5 161h43l-5 -160l131 53z" />
    <glyph glyph-name="plus" unicode="+" horiz-adv-x="443" 
d="M243 502v-151h136v-41h-136v-151h-43v151h-136v41h136v151h43z" />
    <glyph glyph-name="comma" unicode="," horiz-adv-x="188" 
d="M123.5 56c7 -7.33301 10.5 -16.665 10.5 -27.998c0 -6.66699 -1.33301 -14.167 -4 -22.5s-5.66699 -16.833 -9 -25.5l-48 -125h-32l37 139c-14 7.33301 -21 18.666 -21 33.999c0 11.333 3.66699 20.666 11 27.999s16.333 11 27 11c12 0 21.5 -3.66699 28.5 -11z" />
    <glyph glyph-name="hyphen" unicode="-" horiz-adv-x="361" 
d="M64 293v40h233v-40h-233z" />
    <glyph glyph-name="period" unicode="." horiz-adv-x="186" 
d="M121 55.5c7.33301 -7.66699 11 -16.834 11 -27.501s-3.66699 -19.834 -11 -27.501s-16.666 -11.5 -27.999 -11.5s-20.666 3.83301 -27.999 11.5s-11 16.834 -11 27.501s3.66699 19.834 11 27.501s16.666 11.5 27.999 11.5s20.666 -3.83301 27.999 -11.5z" />
    <glyph glyph-name="slash" unicode="/" horiz-adv-x="468" 
d="M319 801l39 -9l-210 -890l-39 9z" />
    <glyph glyph-name="zero" unicode="0" horiz-adv-x="501" 
d="M435 331c0 -114.667 -15.667 -200.334 -47 -257.001s-77 -85 -137 -85c-60.667 0 -106.667 28.667 -138 86s-47 143.333 -47 258s15.667 200.334 47 257.001s77.333 85 138 85c122.667 0 184 -114.667 184 -344zM147 563
c-23.333 -48.667 -34.999 -125.334 -34.999 -230.001c0 -105.333 11.833 -182.5 35.5 -231.5s58.167 -73.5 103.5 -73.5s79.666 24.333 102.999 73s35 125.334 35 230.001c0 105.333 -11.5 182.5 -34.5 231.5s-57.5 73.5 -103.5 73.5s-80.667 -24.333 -104 -73z" />
    <glyph glyph-name="one" unicode="1" horiz-adv-x="367" 
d="M253 664v-664h-45v612l-149 -103l-21 33l177 122h38z" />
    <glyph glyph-name="two" unicode="2" horiz-adv-x="421" 
d="M313.5 628c29 -31.333 43.5 -71.667 43.5 -121c0 -43.333 -8 -84.5 -24 -123.5s-41.667 -82.333 -77 -130s-92 -118.5 -170 -212.5h288l-8 -41h-332v40c80.667 96.667 139.5 170.167 176.5 220.5s63 93.5 78 129.5s22.5 74.333 22.5 115s-10.5 72.667 -31.5 96
s-49.5 35 -85.5 35c-28.667 0 -53.834 -6.5 -75.501 -19.5s-42.167 -32.167 -61.5 -57.5l-31 23c23.333 32 48.833 55.5 76.5 70.5s58.834 22.5 93.501 22.5c49.333 0 88.5 -15.667 117.5 -47z" />
    <glyph glyph-name="three" unicode="3" horiz-adv-x="435" 
d="M316 629c29.333 -30.667 44.001 -70.3359 44.001 -119.003c0 -44 -11.167 -79.167 -33.5 -105.5s-52.5 -43.166 -90.5 -50.499c41.333 -3.33301 75.166 -19.166 101.499 -47.499s39.5 -68.166 39.5 -119.499c0 -38.667 -7.66699 -73 -23 -103s-37 -53.333 -65 -70
s-60.667 -25 -98 -25c-36 0 -67.667 7 -95 21s-53 35.333 -77 64l30 24c22 -25.333 43.833 -43.333 65.5 -54s46.834 -16 75.501 -16c43.333 0 77.666 14.333 102.999 43s38 67 38 115c0 50 -12.833 86.833 -38.5 110.5s-61.167 35.5 -106.5 35.5h-39l5 38h31
c36 0 67.167 11.833 93.5 35.5s39.5 58.167 39.5 103.5c0 40 -10.833 71.333 -32.5 94s-51.167 34 -88.5 34c-25.333 0 -48.5 -4.83301 -69.5 -14.5s-42.167 -25.5 -63.5 -47.5l-26 26c23.333 24.667 48 43.167 74 55.5s55 18.5 87 18.5c50 0 89.667 -15.333 119 -46z" />
    <glyph glyph-name="four" unicode="4" horiz-adv-x="464" 
d="M431 217v-38h-82v-179h-43v179h-264v35l183 461l38 -15l-174 -443h217l5 201h38v-201h82z" />
    <glyph glyph-name="five" unicode="5" horiz-adv-x="436" 
d="M362 625h-245v-239c31.333 22 66.333 33 105 33c51.333 0 92 -18.167 122 -54.5s45 -86.5 45 -150.5c0 -44 -7.66699 -83 -23 -117s-37.333 -60.5 -66 -79.5s-62 -28.5 -100 -28.5c-34.667 0 -65.5 6.66699 -92.5 20s-52.167 33 -75.5 59l30 26
c19.333 -22 39.833 -38.333 61.5 -49s47.167 -16 76.5 -16c44 0 78.667 16.5 104 49.5s38 78.5 38 136.5c0 56 -11.5 97.667 -34.5 125s-54.5 41 -94.5 41c-20 0 -38 -2.66699 -54 -8s-33 -14 -51 -26h-34v317h296z" />
    <glyph glyph-name="six" unicode="6" horiz-adv-x="475" 
d="M380.5 378c29.667 -35.333 44.5 -87 44.5 -155c0 -74 -15.833 -131.5 -47.5 -172.5s-73.167 -61.5 -124.5 -61.5c-64.667 0 -112 27.5 -142 82.5s-45 129.5 -45 223.5c0 80 8.5 148.5 25.5 205.5s41.5 100.333 73.5 130s70 44.5 114 44.5
c21.333 0 40.666 -3.16699 57.999 -9.5s34.333 -15.833 51 -28.5l-22 -32c-25.333 20.667 -54.666 31 -87.999 31c-50.667 0 -90.5 -27.333 -119.5 -82s-44.833 -129 -47.5 -223c41.333 66.667 93.333 100 156 100c46 0 83.833 -17.667 113.5 -53zM347.5 80
c21.667 34.667 32.5 82.001 32.5 142.001c0 57.333 -10.667 100 -32 128s-49.666 42 -84.999 42c-31.333 0 -59.833 -10.167 -85.5 -30.5s-47.834 -48.5 -66.501 -84.5c1.33301 -80.667 13.333 -142.334 36 -185.001s58 -64 106 -64c41.333 0 72.833 17.333 94.5 52z" />
    <glyph glyph-name="seven" unicode="7" horiz-adv-x="392" 
d="M359 664v-36l-239 -635l-42 14l235 617h-284v40h330z" />
    <glyph glyph-name="eight" unicode="8" horiz-adv-x="483" 
d="M400 277.5c21.333 -27 31.999 -62.502 31.999 -106.502c0 -56 -17.667 -100.333 -53 -133s-81.666 -49 -138.999 -49c-58 0 -104 16.5 -138 49.5s-51 76.5 -51 130.5c0 44.667 11.5 83 34.5 115s56.5 57 100.5 75c-38.667 18 -66.5 38.667 -83.5 62
s-25.5 53.333 -25.5 90c0 34.667 7.5 64.334 22.5 89.001s35 43.334 60 56.001s52.5 19 82.5 19c46 0 85 -14.167 117 -42.5s48 -68.833 48 -121.5c0 -35.333 -8.83301 -65.5 -26.5 -90.5s-46.167 -48.5 -85.5 -70.5c48.667 -21.333 83.667 -45.5 105 -72.5z
M144.999 433.998c15.333 -18.667 44.002 -37.333 86.002 -56l32 -14c35.333 20 60.666 41.333 75.999 64s23 50 23 82c0 42 -10.833 73.833 -32.5 95.5s-50.834 32.5 -87.501 32.5c-36 0 -65 -10.833 -87 -32.5s-33 -53.5 -33 -95.5c0 -32 7.66699 -57.333 23 -76z
M347.001 63.999c26.667 24 40.001 59.334 40.001 106.001c0 28 -4.33301 51.167 -13 69.5s-22.334 34.166 -41.001 47.499s-45 27.333 -79 42l-33 14c-44 -18.667 -75.833 -41.667 -95.5 -69s-29.5 -62.333 -29.5 -105c0 -46 13.167 -81 39.5 -105s61.5 -36 105.5 -36
s79.333 12 106 36z" />
    <glyph glyph-name="nine" unicode="9" horiz-adv-x="467" 
d="M408 404c0 -84 -10.999 -152.998 -32.999 -206.998s-54.333 -97.5 -97 -130.5s-98.334 -61.167 -167.001 -84.5l-11 35c83.333 30 146.5 69.667 189.5 119s66.833 118.666 71.5 207.999c-38 -62 -87.333 -93 -148 -93c-31.333 0 -59.333 8.16699 -84 24.5
s-44 40.166 -58 71.499s-21 68.333 -21 111c0 68 16.5 121.167 49.5 159.5s76.167 57.5 129.5 57.5c119.333 0 179 -90.333 179 -271zM297.001 315.502c22.667 17.667 44.6689 44.166 66.002 79.499c-0.666992 83.333 -11.334 144.5 -32.001 183.5
s-54.334 58.5 -101.001 58.5c-42 0 -74.833 -15.167 -98.5 -45.5s-35.5 -75.166 -35.5 -134.499c0 -54 11 -95.5 33 -124.5s52 -43.5 90 -43.5c29.333 0 55.333 8.83301 78 26.5z" />
    <glyph glyph-name="colon" unicode=":" horiz-adv-x="186" 
d="M121 55.5c7.33301 -7.66699 11 -16.834 11 -27.501s-3.66699 -19.834 -11 -27.501s-16.666 -11.5 -27.999 -11.5s-20.666 3.83301 -27.999 11.5s-11 16.834 -11 27.501s3.66699 19.834 11 27.501s16.666 11.5 27.999 11.5s20.666 -3.83301 27.999 -11.5zM121 454.5
c7.33301 -7.66699 11 -16.834 11 -27.501s-3.66699 -19.834 -11 -27.501s-16.666 -11.5 -27.999 -11.5s-20.666 3.83301 -27.999 11.5s-11 16.834 -11 27.501s3.66699 19.834 11 27.501s16.666 11.5 27.999 11.5s20.666 -3.83301 27.999 -11.5z" />
    <glyph glyph-name="semicolon" unicode=";" horiz-adv-x="188" 
d="M123.5 56c7 -7.33301 10.5 -16.665 10.5 -27.998c0 -6.66699 -1.33301 -14.167 -4 -22.5s-5.66699 -16.833 -9 -25.5l-48 -125h-32l37 139c-14 7.33301 -21 18.666 -21 33.999c0 11.333 3.66699 20.666 11 27.999s16.333 11 27 11c12 0 21.5 -3.66699 28.5 -11z
M121 454.501c7.33301 -7.66699 11 -16.834 11 -27.501s-3.66699 -19.834 -11 -27.501s-16.666 -11.5 -27.999 -11.5s-20.666 3.83301 -27.999 11.5s-11 16.834 -11 27.501s3.66699 19.834 11 27.501s16.666 11.5 27.999 11.5s20.666 -3.83301 27.999 -11.5z" />
    <glyph glyph-name="less" unicode="&#x3c;" horiz-adv-x="446" 
d="M368 518l19 -36l-286 -149l286 -153l-19 -36l-309 169v40z" />
    <glyph glyph-name="equal" unicode="=" horiz-adv-x="442" 
d="M64 395v40h315v-40h-315zM64 226v40h315v-40h-315z" />
    <glyph glyph-name="greater" unicode="&#x3e;" horiz-adv-x="446" 
d="M78 518l309 -165v-40l-309 -169l-19 36l287 153l-287 149z" />
    <glyph glyph-name="question" unicode="?" horiz-adv-x="407" 
d="M323 653c27.333 -27.333 41.0029 -60.999 41.0029 -100.999c0 -23.333 -3.66699 -43.333 -11 -60s-16.5 -30.5 -27.5 -41.5s-25.5 -23.833 -43.5 -38.5c-18.667 -14.667 -33.5 -27.5 -44.5 -38.5s-20.167 -24.833 -27.5 -41.5s-11 -36.667 -11 -60v-59h-43v63
c0 27.333 4.16699 50.666 12.5 69.999s18.166 35 29.499 47s26.666 25.333 45.999 40c24.667 18.667 43.167 36.167 55.5 52.5s18.5 38.166 18.5 65.499c0 31.333 -9.83301 56.5 -29.5 75.5s-45.834 28.5 -78.501 28.5c-28 0 -52.333 -6 -73 -18s-41.667 -31 -63 -57l-31 24
c24 30.667 49.5 53.334 76.5 68.001s57.833 22 92.5 22c46.667 0 83.667 -13.667 111 -41zM207.003 55.501c7.33301 -7.66699 11 -16.834 11 -27.501s-3.66699 -19.834 -11 -27.501s-16.666 -11.5 -27.999 -11.5s-20.666 3.83301 -27.999 11.5s-11 16.834 -11 27.501
s3.66699 19.834 11 27.501s16.666 11.5 27.999 11.5s20.666 -3.83301 27.999 -11.5z" />
    <glyph glyph-name="at" unicode="@" horiz-adv-x="923" 
d="M675 642.5c54.667 -34.333 95.998 -80.668 123.998 -139.001s42 -123.5 42 -195.5c0 -100 -14.833 -174.167 -44.5 -222.5s-67.834 -72.5 -114.501 -72.5c-29.333 0 -53.166 9.83301 -71.499 29.5s-30.5 45.167 -36.5 76.5c-30 -69.333 -74.667 -104 -134 -104
c-44.667 0 -81 19 -109 57s-42 91.333 -42 160c0 82 17.167 144 51.5 186s79.166 63 134.499 63c43.333 0 86 -11.667 128 -35v-257c0 -92.667 26.333 -139 79 -139c34 0 61.5 19.833 82.5 59.5s31.5 105.167 31.5 196.5c0 67.333 -12.5 127.5 -37.5 180.5
s-61.333 94.333 -109 124s-105.167 44.5 -172.5 44.5c-68.667 0 -129.5 -18 -182.5 -54s-94 -85.5 -123 -148.5s-43.5 -133.5 -43.5 -211.5c0 -84 14.333 -156.333 43 -217s69 -107 121 -139s113 -48 183 -48c32.667 0 62.334 2.83301 89.001 8.5
s53.334 13.834 80.001 24.501l12 -37c-30 -11.333 -58.667 -20 -86 -26s-59 -9 -95 -9c-76.667 0 -144.667 17.5 -204 52.5s-105.666 85.833 -138.999 152.5s-50 146 -50 238c0 84.667 16.667 161.5 50 230.5s79.833 123.333 139.5 163s128.167 59.5 205.5 59.5
s143.333 -17.167 198 -51.5zM515.998 83.998c20.667 20.667 35.667 46 45 76v264c-30 13.333 -58.333 20 -85 20c-44.667 0 -79.5 -18.333 -104.5 -55s-37.5 -89 -37.5 -157c0 -59.333 9.66699 -104 29 -134s46.333 -45 81 -45c27.333 0 51.333 10.333 72 31z" />
    <glyph glyph-name="A" unicode="A" horiz-adv-x="514" 
d="M445 0l-56 193h-266l-57 -193h-45l207 684h58l207 -684h-48zM135 233h242l-121 413z" />
    <glyph glyph-name="B" unicode="B" horiz-adv-x="536" 
d="M445 313c27.333 -28 40.999 -69.667 40.999 -125c0 -61.333 -19.167 -108 -57.5 -140s-92.166 -48 -161.499 -48h-165v684h132c71.333 0 126.333 -14.5 165 -43.5s58 -71.167 58 -126.5c0 -42.667 -10.667 -76.5 -32 -101.5s-51.333 -41.5 -90 -49.5
c46 -5.33301 82.667 -22 110 -50zM148.999 644v-264h121c43.333 0 77.333 11.833 102 35.5s37 55.5 37 95.5c0 88.667 -56.333 133 -169 133h-91zM393.499 76.5c29.667 24.333 44.499 61.501 44.499 111.501c0 51.333 -14.333 89.666 -43 114.999s-68.667 38 -120 38h-126
v-301h118c54.667 0 96.834 12.167 126.501 36.5z" />
    <glyph glyph-name="C" unicode="C" horiz-adv-x="493" 
d="M395.5 679c23.667 -10 47.166 -25.334 70.499 -46.001l-26 -30c-21.333 18 -41.5 30.833 -60.5 38.5s-41.167 11.5 -66.5 11.5c-60.667 0 -109.5 -25 -146.5 -75s-55.5 -128.667 -55.5 -236c0 -104 18.333 -181.667 55 -233s85 -77 145 -77c29.333 0 54 4.66699 74 14
s40.333 23 61 41l27 -30c-46.667 -45.333 -101 -68 -163 -68c-48 0 -90.667 13.167 -128 39.5s-66.666 66 -87.999 119s-32 117.833 -32 194.5c0 78 11 143.333 33 196s51.667 91.834 89 117.501s79.333 38.5 126 38.5c33.333 0 61.833 -5 85.5 -15z" />
    <glyph glyph-name="D" unicode="D" horiz-adv-x="567" 
d="M427 612c52 -48 78 -135.999 78 -263.999c0 -128.667 -26.5 -218.834 -79.5 -270.501s-117.833 -77.5 -194.5 -77.5h-129v684h122c83.333 0 151 -24 203 -72zM149 643.001v-603h84c148.667 0 223 102.667 223 308c0 80.667 -10.833 142.667 -32.5 186s-49 72.333 -82 87
s-71.167 22 -114.5 22h-78z" />
    <glyph glyph-name="E" unicode="E" horiz-adv-x="454" 
d="M410 684l-6 -41h-255v-266h221v-40h-221v-297h266v-40h-313v684h308z" />
    <glyph glyph-name="F" unicode="F" horiz-adv-x="430" 
d="M102 0v684h303l-6 -41h-250v-279h216v-40h-216v-324h-47z" />
    <glyph glyph-name="G" unicode="G" horiz-adv-x="555" 
d="M405.5 678.5c25 -10.333 50.498 -26.834 76.498 -49.501l-27 -29c-22 18.667 -43.667 32.167 -65 40.5s-45.333 12.5 -72 12.5c-36.667 0 -70.667 -10 -102 -30s-56.666 -53 -75.999 -99s-29 -105.667 -29 -179c0 -107.333 18 -186.666 54 -237.999s86.333 -77 151 -77
c26 0 49.5 3 70.5 9s41.5 15.333 61.5 28v257h-123l-5 41h174v-321c-55.333 -36.667 -114.333 -55 -177 -55c-79.333 0 -141.666 29.667 -186.999 89s-68 148.333 -68 267c0 78 11.833 143.167 35.5 195.5s55 91 94 116s81.167 37.5 126.5 37.5
c33.333 0 62.5 -5.16699 87.5 -15.5z" />
    <glyph glyph-name="H" unicode="H" horiz-adv-x="601" 
d="M452 0v340h-303v-340h-47v684h47v-304h303v304h47v-684h-47z" />
    <glyph glyph-name="I" unicode="I" horiz-adv-x="251" 
d="M149 684v-684h-47v684h47z" />
    <glyph glyph-name="J" unicode="J" horiz-adv-x="258" 
d="M161 90c0 -38 -4.16797 -68.832 -12.501 -92.499s-22.166 -43.834 -41.499 -60.501s-46.333 -33 -81 -49l-13 33c28 15.333 49.167 30 63.5 44s24.333 30.667 30 50s8.5 45 8.5 77v592h46v-594z" />
    <glyph glyph-name="K" unicode="K" horiz-adv-x="488" 
d="M149 684v-684h-47v684h47zM468 684l-262 -315l278 -369h-55l-277 367l264 317h52z" />
    <glyph glyph-name="L" unicode="L" horiz-adv-x="424" 
d="M149 684v-641h258l-7 -43h-298v684h47z" />
    <glyph glyph-name="M" unicode="M" horiz-adv-x="696" 
d="M630 0l-44 0.000976562l-30 335c-10.667 109.333 -19 210.666 -25 303.999l-161 -557h-44l-166 557c-1.33301 -39.333 -7.33301 -119.333 -18 -240l-5 -59l-28 -340h-44l61 684h64l159 -546l154 546h66z" />
    <glyph glyph-name="N" unicode="N" horiz-adv-x="603" 
d="M501 0h-61l-300 631c4 -57.333 6 -131.333 6 -222v-409h-44v684h60l301 -632c-4.66699 79.333 -7 146 -7 200v432h45v-684z" />
    <glyph glyph-name="O" unicode="O" horiz-adv-x="623" 
d="M493 604.5c44.667 -59.667 66.998 -147.501 66.998 -263.501c0 -113.333 -22.167 -200.333 -66.5 -261s-105.166 -91 -182.499 -91c-49.333 0 -92.833 13.333 -130.5 40s-66.834 66.334 -87.501 119.001s-31 116.667 -31 192c0 76 10.333 140.5 31 193.5
s49.834 93 87.501 120s81.167 40.5 130.5 40.5c76.667 0 137.334 -29.833 182.001 -89.5zM164.498 574.999c-35.667 -52 -53.501 -130.332 -53.501 -234.999c0 -102.667 18 -180 54 -232s84.667 -78 146 -78c64 0 113.5 25.667 148.5 77s52.5 129.333 52.5 234
c0 105.333 -17.667 183.666 -53 234.999s-84.666 77 -147.999 77c-62 0 -110.833 -26 -146.5 -78z" />
    <glyph glyph-name="P" unicode="P" horiz-adv-x="508" 
d="M407.5 634c40.333 -33.333 60.5 -84.333 60.5 -153c0 -72 -21.333 -124.833 -64 -158.5s-102.667 -50.5 -180 -50.5h-75v-272h-47v684h125c80 0 140.167 -16.667 180.5 -50zM370 350c32.667 25.333 48.999 68.667 48.999 130c0 58.667 -15.667 100.667 -47 126
s-79.666 38 -144.999 38h-78v-332h77c63.333 0 111.333 12.667 144 38z" />
    <glyph glyph-name="Q" unicode="Q" horiz-adv-x="622" 
d="M582 -52l-31.001 -36.9971c-32 31.333 -65.833 52.666 -101.5 63.999s-81.834 17 -138.501 17c-50 0 -93.667 13 -131 39s-66.333 65.167 -87 117.5s-31 116.166 -31 191.499c0 76 10.333 140.5 31 193.5s49.834 93 87.501 120s81.167 40.5 130.5 40.5
c76.667 0 137.334 -30 182.001 -90s67 -147.667 67 -263c0 -176.667 -53.333 -284.334 -160 -323.001c76 -2 136.667 -25.333 182 -70zM164.999 108.003c36 -52 84.666 -77.999 145.999 -77.999c64 0 113.5 25.667 148.5 77s52.5 129.333 52.5 234
c0 105.333 -17.667 183.666 -53 234.999s-84.666 77 -147.999 77c-62 0 -110.833 -26 -146.5 -78s-53.5 -130.333 -53.5 -235c0 -102.667 18 -180 54 -232z" />
    <glyph glyph-name="R" unicode="R" horiz-adv-x="527" 
d="M443 0l-164 314l-17 -1h-113v-313h-47v684h136c150.667 0 226 -61 226 -183c0 -48 -12 -86.833 -36 -116.5s-58 -50.167 -102 -61.5l170 -323h-53zM372.5 389c28.333 24 42.502 61.333 42.502 112c0 48 -13.833 83.833 -41.5 107.5s-73.834 35.5 -138.501 35.5h-86v-291
h95c57.333 0 100.166 12 128.499 36z" />
    <glyph glyph-name="S" unicode="S" horiz-adv-x="484" 
d="M335.5 675.5c26.333 -12.333 52.1631 -30.834 77.4961 -55.501l-27 -29c-23.333 22 -46 37.833 -68 47.5s-47.667 14.5 -77 14.5c-39.333 0 -71.166 -11.333 -95.499 -34s-36.5 -52 -36.5 -88s10.667 -64.5 32 -85.5s59.333 -41.167 114 -60.5
c62 -21.333 107 -46.5 135 -75.5s42 -70.5 42 -124.5c0 -37.333 -8.33301 -70.833 -25 -100.5s-40.167 -53 -70.5 -70s-65.166 -25.5 -104.499 -25.5c-40 0 -75.667 7.33301 -107 22s-60.333 35.667 -87 63l27 28c25.333 -23.333 50.833 -41.166 76.5 -53.499
s55.5 -18.5 89.5 -18.5c46 0 83.167 14 111.5 42s42.5 65.333 42.5 112c0 28.667 -4.66699 52.5 -14 71.5s-24.666 35.5 -45.999 49.5s-51 27.667 -89 41c-63.333 22 -108.166 46.833 -134.499 74.5s-39.5 64.167 -39.5 109.5c0 30 7.5 57.5 22.5 82.5
s36.167 44.833 63.5 59.5s58.333 22 93 22c36.667 0 68.167 -6.16699 94.5 -18.5z" />
    <glyph glyph-name="T" unicode="T" horiz-adv-x="440" 
d="M431 684l-5 -42h-183v-642h-46v642h-184v42h418z" />
    <glyph glyph-name="U" unicode="U" horiz-adv-x="582" 
d="M490 192c0 -60.667 -17 -109.666 -51 -146.999s-83.333 -56 -148 -56c-65.333 0 -114.833 18.667 -148.5 56s-50.5 86.333 -50.5 147v492h47v-488c0 -52 12.5 -92.5 37.5 -121.5s63.167 -43.5 114.5 -43.5c52 0 90.333 14.667 115 44s37 69.666 37 120.999v488h47v-492z
" />
    <glyph glyph-name="V" unicode="V" horiz-adv-x="496" 
d="M476 684l-201 -684h-54l-200 684h48l180 -637l180 637h47z" />
    <glyph glyph-name="W" unicode="W" horiz-adv-x="730" 
d="M699 684l-138 -684h-58l-138 633l-139 -633h-58l-137 684h46l122 -639l139 639h54l140 -639l122 639h45z" />
    <glyph glyph-name="X" unicode="X" horiz-adv-x="456" 
d="M253 371l193 -371h-51l-170 339l-166 -339h-49l188 368l-169 316h51l146 -286l145 286h49z" />
    <glyph glyph-name="Y" unicode="Y" horiz-adv-x="464" 
d="M450 684l-194 -415v-269h-46v268l-196 416h50l170 -373l167 373h49z" />
    <glyph glyph-name="Z" unicode="Z" horiz-adv-x="463" 
d="M420 684v-39l-336 -603h329l-6 -42h-374v40l337 602h-303v42h353z" />
    <glyph glyph-name="bracketleft" unicode="[" horiz-adv-x="284" 
d="M221 803v-37h-99v-840h99v-37h-141v914h141z" />
    <glyph glyph-name="backslash" unicode="\" horiz-adv-x="468" 
d="M148 800l210 -889l-39 -9l-210 890z" />
    <glyph glyph-name="bracketright" unicode="]" horiz-adv-x="284" 
d="M204 803v-914h-140v37h98v840h-98v37h140z" />
    <glyph glyph-name="asciicircum" unicode="^" horiz-adv-x="476" 
d="M256 829l165 -302h-52l-131 254l-132 -254h-51l165 302h36z" />
    <glyph glyph-name="underscore" unicode="_" horiz-adv-x="471" 
d="M30 -114v40h411v-40h-411z" />
    <glyph glyph-name="grave" unicode="`" horiz-adv-x="247" 
d="M55 773l166 -99l-16 -26l-172 84z" />
    <glyph glyph-name="a" unicode="a" horiz-adv-x="482" 
d="M394 48c6 -12 16 -20.999 30 -26.999l-10 -32c-21.333 5.33301 -37.5 15 -48.5 29s-17.5 34.333 -19.5 61c-34 -60 -83 -90 -147 -90c-45.333 0 -81 14.167 -107 42.5s-39 66.166 -39 113.499c0 53.333 17.5 94.5 52.5 123.5s83.5 43.5 145.5 43.5h89v60
c0 41.333 -8.5 71.833 -25.5 91.5s-44.833 29.5 -83.5 29.5c-38 0 -81.333 -10 -130 -30l-13 35c54 22.667 103 34 147 34c100 0 150 -52.333 150 -157v-272c0 -24.667 3 -43 9 -55zM340 127.001v150h-84c-103.333 0 -155 -43.667 -155 -131c0 -38 9.16699 -67.333 27.5 -88
s43.5 -31 75.5 -31c60 0 105.333 33.333 136 100z" />
    <glyph glyph-name="b" unicode="b" horiz-adv-x="518" 
d="M412.5 464c29.667 -45.333 44.5 -112 44.5 -200c0 -87.333 -15.5 -155 -46.5 -203s-74.833 -72 -131.5 -72c-28.667 0 -54.667 7.33301 -78 22s-43.333 33.667 -60 57l-4 -68h-39v735l45 6v-293c38 56 86 84 144 84c54 0 95.833 -22.667 125.5 -68zM374 86.5
c23.333 39 35.002 98.167 35.002 177.5c0 78.667 -11 136.5 -33 173.5s-54 55.5 -96 55.5c-29.333 0 -54.833 -7.83301 -76.5 -23.5s-41.834 -38.5 -60.501 -68.5v-286c35.333 -58 78.666 -87 129.999 -87c44 0 77.667 19.5 101 58.5z" />
    <glyph glyph-name="c" unicode="c" horiz-adv-x="417" 
d="M327 520c20.667 -8 40.665 -21 59.998 -39l-23 -30c-16 14 -32.167 24.5 -48.5 31.5s-35.166 10.5 -56.499 10.5c-46.667 0 -83.667 -19.5 -111 -58.5s-41 -97.833 -41 -176.5c0 -77.333 13.5 -134.833 40.5 -172.5s63.833 -56.5 110.5 -56.5c39.333 0 76 14.667 110 44
l23 -28c-39.333 -37.333 -83.666 -56 -132.999 -56c-61.333 0 -109.833 23 -145.5 69s-53.5 112.667 -53.5 200c0 86.667 18 154 54 202s84.333 72 145 72c25.333 0 48.333 -4 69 -12z" />
    <glyph glyph-name="d" unicode="d" horiz-adv-x="522" 
d="M424 735l0.00195312 -735h-39l-4 81c-32.667 -61.333 -80.334 -92 -143.001 -92c-54.667 0 -97.834 23.833 -129.501 71.5s-47.5 113.834 -47.5 198.501c0 54.667 7.5 102.667 22.5 144s36.5 73.166 64.5 95.499s61 33.5 99 33.5c54 0 98 -23.667 132 -71v280z
M321.502 53.5c21.667 17 40.832 42.5 57.499 76.5v281c-16 25.333 -34.167 45.333 -54.5 60s-44.5 22 -72.5 22c-43.333 0 -78 -19.833 -104 -59.5s-39 -96.5 -39 -170.5c0 -76.667 11.833 -135 35.5 -175s56.5 -60 98.5 -60c30.667 0 56.834 8.5 78.501 25.5z" />
    <glyph glyph-name="e" unicode="e" horiz-adv-x="481" 
d="M425 241l-319.003 0.000976562c2.66699 -73.333 17.5 -127 44.5 -161s62.833 -51 107.5 -51c25.333 0 47.5 4 66.5 12s39.167 21 60.5 39l23 -28c-22.667 -20.667 -46.167 -36.334 -70.5 -47.001s-51.166 -16 -80.499 -16c-61.333 0 -109.666 23.167 -144.999 69.5
s-53 112.5 -53 198.5c0 86.667 16.833 154.167 50.5 202.5s79.5 72.5 137.5 72.5c58.667 0 103.334 -21.833 134.001 -65.5s46 -105.167 46 -184.5c0 -14 -0.666992 -27.667 -2 -41zM381.997 297.001c0 62.667 -11.001 111.001 -33.001 145.001s-55.667 51 -101 51
c-41.333 0 -74.666 -17.333 -99.999 -52s-39.333 -89.334 -42 -164.001h276v20z" />
    <glyph glyph-name="f" unicode="f" horiz-adv-x="287" 
d="M147 615l0.00195312 -93h127l-6 -38h-121v-484h-45v484h-80v38h80v96c0 38 11.333 68 34 90s53.667 33 93 33c37.333 0 73.666 -9.66699 108.999 -29l-17 -33c-30.667 15.333 -60.334 23 -89.001 23c-56.667 0 -85 -29 -85 -87z" />
    <glyph glyph-name="g" unicode="g" horiz-adv-x="449" 
d="M439 516c-26 -8.66699 -68.3311 -13.6689 -126.998 -15.002c52.667 -27.333 79 -76 79 -146c0 -52 -15 -93.167 -45 -123.5s-71 -45.5 -123 -45.5c-23.333 0 -43.666 3.33301 -60.999 10c-12.667 -7.33301 -22.5 -16.666 -29.5 -27.999s-10.5 -23.333 -10.5 -36
c0 -39.333 27.667 -59 83 -59h67c48 0 85.667 -11.833 113 -35.5s41 -54.5 41 -92.5c0 -46 -16.833 -82 -50.5 -108s-83.5 -39 -149.5 -39c-68.667 0 -118.167 11.667 -148.5 35s-45.5 60.333 -45.5 111h41c1.33301 -39.333 13.166 -67.166 35.499 -83.499
s61.5 -24.5 117.5 -24.5c102.667 0 154 35.333 154 106c0 29.333 -9.83301 52 -29.5 68s-47.834 24 -84.501 24h-64c-40 0 -70.5 8.16699 -91.5 24.5s-31.5 37.833 -31.5 64.5c0 34 17.333 63 52 87c-52.667 30 -79 79.333 -79 148c0 52.667 15.5 94.834 46.5 126.501
s72.5 47.5 124.5 47.5c57.333 -0.666992 98.666 1.16602 123.999 5.49902s51.333 11.833 78 22.5zM129.502 459.498c-21 -24.333 -31.5 -58.168 -31.5 -101.501s11.167 -77 33.5 -101s52.5 -36 90.5 -36c40 0 70.5 11.333 91.5 34s31.5 56.334 31.5 101.001
c0 43.333 -10.167 77.5 -30.5 102.5s-50.833 37.5 -91.5 37.5c-41.333 0 -72.5 -12.167 -93.5 -36.5z" />
    <glyph glyph-name="h" unicode="h" horiz-adv-x="525" 
d="M398.5 491c22.333 -27.333 33.501 -65.333 33.501 -114v-377h-45v371c0 82 -30.333 123 -91 123c-30.667 0 -58.5 -10 -83.5 -30s-48.167 -48.333 -69.5 -85v-379h-45v735l45 6v-312c21.333 32.667 44.833 58 70.5 76s55.5 27 89.5 27
c41.333 0 73.166 -13.667 95.499 -41z" />
    <glyph glyph-name="i" unicode="i" horiz-adv-x="241" 
d="M143 522v-522h-45v522h45zM144.5 733c6.33301 -6.66699 9.5 -14.667 9.5 -24c0 -10 -3.16699 -18.167 -9.5 -24.5s-14.833 -9.5 -25.5 -9.5c-10 0 -18.167 3.33301 -24.5 10s-9.5 14.667 -9.5 24s3.16699 17.333 9.5 24s14.5 10 24.5 10
c10.667 0 19.167 -3.33301 25.5 -10z" />
    <glyph glyph-name="j" unicode="j" horiz-adv-x="241" 
d="M143 -2c0 -38.667 -4.33105 -69.999 -12.998 -93.999s-21.334 -43.5 -38.001 -58.5s-39.667 -30.167 -69 -45.5l-15 32c23.333 13.333 41.166 26.166 53.499 38.499s21.5 28.333 27.5 48s9 46.167 9 79.5v524h45v-524zM144.502 733.001
c6.33301 -6.66699 9.5 -14.667 9.5 -24c0 -10 -3.16699 -18.167 -9.5 -24.5s-14.833 -9.5 -25.5 -9.5c-10 0 -18.167 3.33301 -24.5 10s-9.5 14.667 -9.5 24s3.16699 17.333 9.5 24s14.5 10 24.5 10c10.667 0 19.167 -3.33301 25.5 -10z" />
    <glyph glyph-name="k" unicode="k" horiz-adv-x="434" 
d="M143 741v-741h-45v735zM405 522l-205 -235l226 -287h-53l-225 285l205 237h52z" />
    <glyph glyph-name="l" unicode="l" horiz-adv-x="254" 
d="M114.5 11.5c-14.333 15 -21.5 36.5 -21.5 64.5v659l45 6v-663c0 -32.667 13.333 -49 40 -49c10.667 0 21.667 2.33301 33 7l12 -34c-16 -8.66699 -33 -13 -51 -13c-24 0 -43.167 7.5 -57.5 22.5z" />
    <glyph glyph-name="m" unicode="m" horiz-adv-x="766" 
d="M641 490.5c21.333 -27.667 32 -65.502 32 -113.502v-377h-44v371c0 40.667 -7.16699 71.334 -21.5 92.001s-34.833 31 -61.5 31c-50.667 0 -96.667 -37.667 -138 -113v-381h-45v371c0 40.667 -7.16699 71.334 -21.5 92.001s-34.833 31 -61.5 31
c-50.667 0 -96.334 -37.667 -137.001 -113v-381h-45v522h39l4 -91c18.667 31.333 40.334 56 65.001 74s51.667 27 81 27c30.667 0 56 -9.33301 76 -28s33.333 -44.667 40 -78c19.333 32.667 41.5 58.5 66.5 77.5s52.5 28.5 82.5 28.5c38 0 67.667 -13.833 89 -41.5z" />
    <glyph glyph-name="n" unicode="n" horiz-adv-x="525" 
d="M399 491.5c22 -27 33 -65.167 33 -114.5v-377h-45v371c0 82 -30.333 123 -91 123c-30.667 0 -58.5 -10 -83.5 -30s-48.167 -48.333 -69.5 -85v-379h-45v522h39l4 -94c43.333 69.333 97.333 104 162 104c42 0 74 -13.5 96 -40.5z" />
    <glyph glyph-name="o" unicode="o" horiz-adv-x="511" 
d="M400.5 463.5c34.333 -45.667 51.5 -112.5 51.5 -200.5c0 -87.333 -17.5 -154.833 -52.5 -202.5s-83.167 -71.5 -144.5 -71.5s-109.333 23.833 -144 71.5s-52 114.167 -52 199.5c0 86.667 17.667 153.667 53 201s83.333 71 144 71c62 0 110.167 -22.833 144.5 -68.5z
M145.5 435c-26.333 -38.667 -39.501 -97 -39.501 -175c0 -76 13 -133.5 39 -172.5s62.667 -58.5 110 -58.5c48 0 85 19.5 111 58.5s39 97.5 39 175.5c0 76.667 -12.833 134.167 -38.5 172.5s-62.5 57.5 -110.5 57.5c-47.333 0 -84.166 -19.333 -110.499 -58z" />
    <glyph glyph-name="p" unicode="p" horiz-adv-x="518" 
d="M413 464c29.333 -45.333 44.001 -112.001 44.001 -200.001c0 -86.667 -15.5 -154.167 -46.5 -202.5s-74.833 -72.5 -131.5 -72.5c-28.667 0 -54.5 6.83301 -77.5 20.5s-42.5 31.834 -58.5 54.501v-259l-45 -7v724h39l3 -77c39.333 58 88 87 146 87
c55.333 0 97.666 -22.667 126.999 -68zM374.001 87.499c23.333 39 35 97.833 35 176.5c0 152.667 -42.667 229 -128 229c-29.333 0 -54.833 -8 -76.5 -24s-42.167 -38.667 -61.5 -68v-288c36 -56 79.333 -84 130 -84c44 0 77.667 19.5 101 58.5z" />
    <glyph glyph-name="q" unicode="q" horiz-adv-x="522" 
d="M424 522v-723.999l-45 7v271c-33.333 -58 -79.666 -87 -138.999 -87c-55.333 0 -99 23.833 -131 71.5s-48 113.834 -48 198.501c0 54.667 7.5 102.667 22.5 144s36.5 73.166 64.5 95.499s61 33.5 99 33.5c31.333 0 57.666 -6.83301 78.999 -20.5s40 -31.834 56 -54.501
l4 65h38zM321.5 53.501c21 17 40.166 41.833 57.499 74.5v284c-33.333 54 -75.666 81 -126.999 81c-42.667 0 -77.167 -20 -103.5 -60s-39.5 -96.667 -39.5 -170c0 -76 12 -134.167 36 -174.5s57.333 -60.5 100 -60.5c30 0 55.5 8.5 76.5 25.5z" />
    <glyph glyph-name="r" unicode="r" horiz-adv-x="334" 
d="M322 526l-9.00195 -40.999c-13.333 3.33301 -26.666 5 -39.999 5c-32.667 0 -59.167 -13 -79.5 -39s-37.166 -66.333 -50.499 -121v-330h-45v522h39l3 -113c13.333 41.333 31 72.166 53 92.499s49.667 30.5 83 30.5c14.667 0 30 -2 46 -6z" />
    <glyph glyph-name="s" unicode="s" horiz-adv-x="418" 
d="M288.5 518c23.667 -9.33301 46.834 -23.6689 69.501 -43.002l-23 -29c-20.667 16.667 -40.5 28.834 -59.5 36.501s-40.167 11.5 -63.5 11.5c-32.667 0 -59.167 -8.66699 -79.5 -26s-30.5 -40.666 -30.5 -69.999c0 -25.333 8.83301 -45.666 26.5 -60.999
s48.5 -30 92.5 -44c54 -17.333 92.333 -37.333 115 -60s34 -54.334 34 -95.001c0 -44.667 -15.5 -80.667 -46.5 -108s-70.5 -41 -118.5 -41c-35.333 0 -66.333 5.83301 -93 17.5s-51.334 28.167 -74.001 49.5l26 28c22 -19.333 43.667 -33.5 65 -42.5s46.333 -13.5 75 -13.5
c35.333 0 64.166 9.5 86.499 28.5s33.5 45.833 33.5 80.5c0 22 -3.66699 40 -11 54s-20 26 -38 36s-44 20.667 -78 32c-50.667 16 -86.667 34.667 -108 56s-32 49 -32 83c0 38.667 14.5 70.667 43.5 96s65.5 38 109.5 38c28.667 0 54.834 -4.66699 78.501 -14z" />
    <glyph glyph-name="t" unicode="t" horiz-adv-x="303" 
d="M306 21c-28.667 -21.333 -61 -31.999 -97 -31.999c-35.333 0 -63 10.667 -83 32s-30 51.666 -30 90.999v372h-77v38h77v127l45 5v-132h124l-6 -38h-118v-370c0 -56.667 24 -85 72 -85c25.333 0 50 7.66699 74 23z" />
    <glyph glyph-name="u" unicode="u" horiz-adv-x="521" 
d="M423 0h-38.999l-2 94c-38 -70 -89.333 -105 -154 -105c-42.667 0 -75.834 13.333 -99.501 40s-35.5 63.667 -35.5 111v382h45v-378c0 -77.333 32.333 -116 97 -116c30.667 0 57.5 9.83301 80.5 29.5s43.833 47.5 62.5 83.5v381h45v-522z" />
    <glyph glyph-name="v" unicode="v" horiz-adv-x="423" 
d="M405 522l-162 -522h-56l-170 522h49l149 -483l143 483h47z" />
    <glyph glyph-name="w" unicode="w" horiz-adv-x="632" 
d="M604 522l-117 -522h-60l-110 479l-110 -479h-60l-120 522h47l104 -483l113 483h54l112 -484l103 484h44z" />
    <glyph glyph-name="x" unicode="x" horiz-adv-x="411" 
d="M231 280l167 -280h-52l-142 252l-142 -252h-50l166 278l-144 244h50l121 -217l122 217h50z" />
    <glyph glyph-name="y" unicode="y" horiz-adv-x="420" 
d="M240 -2c-12.667 -40 -26.1689 -72.668 -40.502 -98.001s-33 -46.166 -56 -62.499s-52.5 -29.166 -88.5 -38.499l-5 35c30.667 9.33301 54.834 20.666 72.501 33.999s31.834 29.833 42.501 49.5s21.667 47.167 33 82.5h-16l-165 522h48l147 -487l143 487h48z" />
    <glyph glyph-name="z" unicode="z" horiz-adv-x="377" 
d="M346 522v-36l-270 -446h267l-5 -40h-313v36l270 446h-248v40h299z" />
    <glyph glyph-name="braceleft" unicode="{" horiz-adv-x="294" 
d="M231 790c-27.333 0 -46.667 -6.33301 -58 -19s-17 -33 -17 -61v-265c0 -31.333 -5.5 -53.5 -16.5 -66.5s-28.833 -22.833 -53.5 -29.5c25.333 -6.66699 43.333 -16.5 54 -29.5s16 -34.833 16 -65.5v-266c0 -27.333 5.83301 -47.333 17.5 -60s31.167 -19 58.5 -19v-36
c-40 0 -69.667 9.16699 -89 27.5s-29 47.833 -29 88.5v268c0 26 -5.66699 44.5 -17 55.5s-29 16.5 -53 16.5v40c24 0 41.667 5.66699 53 17s17 30 17 56v267c0 40.667 9.66699 70.167 29 88.5s49 27.5 89 27.5z" />
    <glyph glyph-name="bar" unicode="|" horiz-adv-x="366" 
d="M204 803v-903h-42v903h42z" />
    <glyph glyph-name="braceright" unicode="}" horiz-adv-x="294" 
d="M151.5 797.5c19 -18.333 28.499 -47.833 28.499 -88.5v-267c0 -26 5.66699 -44.667 17 -56s29 -17 53 -17v-40c-24 0 -41.667 -5.5 -53 -16.5s-17 -29.5 -17 -55.5v-268c0 -40.667 -9.66699 -70.167 -29 -88.5s-48.666 -27.5 -87.999 -27.5v36
c27.333 0 46.666 6.33301 57.999 19s17 32.667 17 60v266c0 30.667 5.33301 52.5 16 65.5s29 22.833 55 29.5c-25.333 6.66699 -43.5 16.5 -54.5 29.5s-16.5 35.167 -16.5 66.5v265c0 28 -5.66699 48.333 -17 61s-30.666 19 -57.999 19v35c40 0 69.5 -9.16699 88.5 -27.5z
" />
    <glyph glyph-name="asciitilde" unicode="~" horiz-adv-x="421" 
d="M244 278c-12 5.33301 -25.9971 12.999 -41.9971 22.999c-15.333 8.66699 -27.166 15 -35.499 19s-16.833 6 -25.5 6c-13.333 0 -24.333 -3.5 -33 -10.5s-18.334 -18.167 -29.001 -33.5l-29 16c12.667 21.333 26.167 37.833 40.5 49.5s31.833 17.5 52.5 17.5
c13.333 0 25.666 -2.66699 36.999 -8s25.333 -13 42 -23c13.333 -8 24.666 -14.167 33.999 -18.5s18.333 -6.5 27 -6.5c12.667 0 23.167 3.5 31.5 10.5s17.5 17.833 27.5 32.5l29 -16c-12.667 -21.333 -25.834 -37.666 -39.501 -48.999s-30.5 -17 -50.5 -17
c-12.667 0 -25 2.66699 -37 8z" />
    <glyph glyph-name="uni00A0" unicode="&#xa0;" horiz-adv-x="255" 
 />
    <glyph glyph-name="exclamdown" unicode="&#xa1;" horiz-adv-x="228" 
d="M142 455.5c7.33301 -7.66699 11 -16.834 11 -27.501s-3.66699 -19.834 -11 -27.501s-16.666 -11.5 -27.999 -11.5s-20.666 3.83301 -27.999 11.5s-11 16.834 -11 27.501s3.66699 19.834 11 27.501s16.666 11.5 27.999 11.5s20.666 -3.83301 27.999 -11.5zM135 251l3 -446
h-47l3 446h41z" />
    <glyph glyph-name="cent" unicode="&#xa2;" horiz-adv-x="417" 
d="M276 -10l-0.00292969 -138.999h-40v139c-55.333 5.33301 -98.666 30.833 -129.999 76.5s-47 109.5 -47 191.5c0 81.333 16 145.833 48 193.5s75.333 74.167 130 79.5v148h39v-148c42 -2.66699 79 -19.334 111 -50.001l-23 -30c-16 14 -32.167 24.5 -48.5 31.5
s-35.166 10.5 -56.499 10.5c-46.667 0 -83.667 -19.5 -111 -58.5s-41 -97.833 -41 -176.5c0 -77.333 13.5 -134.833 40.5 -172.5s63.833 -56.5 110.5 -56.5c39.333 0 76 14.667 110 44l23 -28c-35.333 -32.667 -73.666 -51 -114.999 -55z" />
    <glyph glyph-name="sterling" unicode="&#xa3;" horiz-adv-x="458" 
d="M153.5 84.5c-9.66699 -17 -26.165 -31.5 -49.498 -43.5h300l-6 -41h-350v39c29.333 15.333 49.333 30.833 60 46.5s16 39.5 16 71.5v178h-60v36h60v137c0 49.333 13.333 89.5 40 120.5s63.667 46.5 111 46.5c29.333 0 55.333 -6 78 -18s43.667 -30 63 -54l-29 -25
c-16.667 20 -33.334 34.667 -50.001 44s-37 14 -61 14c-34.667 0 -61.334 -11.5 -80.001 -34.5s-28 -54.167 -28 -93.5v-137h194v-36h-194v-177c0 -32 -4.83301 -56.5 -14.5 -73.5z" />
    <glyph glyph-name="currency" unicode="&#xa4;" 
d="M428 108l-71 78.001c-30 -23.333 -65.333 -35 -106 -35s-75 12 -103 36l-72 -79l-28 26l74 81c-24.667 32.667 -37 74.667 -37 126c0 49.333 12 90.666 36 123.999l-74 82l29 26l71 -79c29.333 24 64 36 104 36c40.667 0 76 -11.667 106 -35l70 78l28 -26l-72 -80
c24.667 -32.667 37 -74.667 37 -126s-12.333 -93.333 -37 -126l74 -81zM345.5 229.001c21 26.667 31.5 64 31.5 112c0 48.667 -10.5 86.167 -31.5 112.5s-52.167 39.5 -93.5 39.5c-40.667 0 -71.5 -13.333 -92.5 -40s-31.5 -64 -31.5 -112s10.5 -85.333 31.5 -112
s51.833 -40 92.5 -40c41.333 0 72.5 13.333 93.5 40z" />
    <glyph glyph-name="yen" unicode="&#xa5;" horiz-adv-x="455" 
d="M441 664l-176 -329h108v-36h-122v-107h122v-37h-122v-155h-46v155h-120v37h120v107h-120v36h106l-177 329h50l165 -320l164 320h48z" />
    <glyph glyph-name="brokenbar" unicode="&#xa6;" horiz-adv-x="366" 
d="M204 803v-360h-42v360h42zM204 262v-362h-42v362h42z" />
    <glyph glyph-name="section" unicode="&#xa7;" horiz-adv-x="480" 
d="M368 122c8 -15.333 11.9971 -34 11.9971 -56c0 -40.667 -14.167 -73 -42.5 -97s-64.833 -36 -109.5 -36c-55.333 0 -104 15.333 -146 46l21 32c36.667 -26.667 78.334 -40 125.001 -40c33.333 0 59.5 8.5 78.5 25.5s28.5 39.167 28.5 66.5c0 17.333 -3 31.833 -9 43.5
s-16.833 22.5 -32.5 32.5s-39.167 21 -70.5 33c-36 14 -64 27 -84 39s-35 26.5 -45 43.5s-15 38.5 -15 64.5c0 48 24.333 90 73 126c-18 12.667 -30.833 26.5 -38.5 41.5s-11.5 33.5 -11.5 55.5c0 40 13.833 72 41.5 96s62.834 36 105.501 36c28 0 52.667 -4 74 -12
s42.666 -19.667 63.999 -35l-20 -31c-20 13.333 -39.167 23.333 -57.5 30s-38.166 10 -59.499 10c-32 0 -57 -8.5 -75 -25.5s-27 -39.167 -27 -66.5c0 -18 3 -32.833 9 -44.5s17.333 -22.5 34 -32.5s41.334 -21.333 74.001 -34c48.667 -18 83.5 -38 104.5 -60
s31.5 -50 31.5 -84c0 -25.333 -5.83301 -48.333 -17.5 -69s-29.5 -39.667 -53.5 -57c17.333 -12 30 -25.667 38 -41zM132.497 275c6.33301 -12.667 17.5 -24 33.5 -34s40 -21 72 -33c26.667 -10.667 48 -20 64 -28c20 15.333 34.167 31.166 42.5 47.499s12.5 35.5 12.5 57.5
c0 26 -7.33301 47.333 -22 64s-43.667 33.334 -87 50.001c-28 10.667 -50.667 20.667 -68 30c-38 -30.667 -57 -66 -57 -106c0 -19.333 3.16699 -35.333 9.5 -48z" />
    <glyph glyph-name="dieresis" unicode="&#xa8;" horiz-adv-x="290" 
d="M89 722.5c6 -6.33301 9 -14.166 9 -23.499s-3 -17.166 -9 -23.499s-14 -9.5 -24 -9.5c-9.33301 0 -17 3.16699 -23 9.5s-9 14.166 -9 23.499s3 17.166 9 23.499s13.667 9.5 23 9.5c10 0 18 -3.16699 24 -9.5zM254 722.5c6 -6.33301 9 -14.166 9 -23.499
s-3 -17.166 -9 -23.499s-13.667 -9.5 -23 -9.5s-17.166 3.16699 -23.499 9.5s-9.5 14.166 -9.5 23.499s3.16699 17.166 9.5 23.499s14.166 9.5 23.499 9.5s17 -3.16699 23 -9.5z" />
    <glyph glyph-name="copyright" unicode="&#xa9;" horiz-adv-x="728" 
d="M499.5 694.5c39.667 -24.333 70.833 -58.833 93.5 -103.5s34 -96.667 34 -156s-11.333 -111.5 -34 -156.5s-54 -79.667 -94 -104s-84.667 -36.5 -134 -36.5c-50 0 -95 12.167 -135 36.5s-71.5 58.833 -94.5 103.5s-34.5 97 -34.5 157c0 59.333 11.5 111.333 34.5 156
s54.5 79.167 94.5 103.5s85 36.5 135 36.5s94.833 -12.167 134.5 -36.5zM247.499 665.5c-34.333 -21 -61.166 -51.333 -80.499 -91s-29 -86.167 -29 -139.5c0 -54 9.66699 -100.667 29 -140s46.166 -69.5 80.499 -90.5s73.5 -31.5 117.5 -31.5
c43.333 0 82.166 10.5 116.499 31.5s61.166 51.333 80.499 91s29 86.167 29 139.5c0 54 -9.66699 100.667 -29 140s-46.166 69.5 -80.499 90.5s-73.166 31.5 -116.499 31.5c-44 0 -83.167 -10.5 -117.5 -31.5zM412.999 604c14 -5.33301 27.333 -13.333 40 -24l-19 -27
c-10.667 8 -21.167 13.833 -31.5 17.5s-22.833 5.5 -37.5 5.5c-24 0 -44.667 -10.833 -62 -32.5s-26 -57.5 -26 -107.5c0 -49.333 8.16699 -85.333 24.5 -108s38.5 -34 66.5 -34c14.667 0 27.667 2.33301 39 7s23 11.667 35 21l18 -27
c-27.333 -24.667 -58.666 -37 -93.999 -37c-39.333 0 -70.833 15.167 -94.5 45.5s-35.5 74.5 -35.5 132.5s12.667 101.833 38 131.5s55.666 44.5 90.999 44.5c18 0 34 -2.66699 48 -8z" />
    <glyph glyph-name="ordfeminine" unicode="&#xaa;" horiz-adv-x="457" 
d="M302 520l-0.000976562 43.0029c0 28.667 -6.5 49.667 -19.5 63s-35.167 20 -66.5 20c-26.667 0 -60.334 -7.33301 -101.001 -22l-12 34c43.333 17.333 82.333 26 117 26c84 0 126 -39.333 126 -118v-205c0 -16.667 2.33301 -28.834 7 -36.501
s12.334 -13.834 23.001 -18.501l-10 -31c-17.333 4 -30.666 11 -39.999 21s-15 24.333 -17 43c-28 -42.667 -67 -64 -117 -64c-36 0 -64.667 10.667 -86 32s-32 49.666 -32 84.999c0 40.667 13.833 72.167 41.5 94.5s65.5 33.5 113.5 33.5h73zM301.999 381.003v104h-69
c-74.667 0 -112 -30.333 -112 -91c0 -26.667 6.83301 -47 20.5 -61s32.5 -21 56.5 -21c44 0 78.667 23 104 69zM74.999 40.0029h315v-40h-315v40z" />
    <glyph glyph-name="guillemotleft" unicode="&#xab;" horiz-adv-x="510" 
d="M217 514l29 -19l-126 -207l126 -207l-29 -18l-144 209v31zM409 514l29 -19l-126 -207l126 -207l-29 -18l-144 209v31z" />
    <glyph glyph-name="logicalnot" unicode="&#xac;" horiz-adv-x="449" 
d="M386 341v-162h-44v122h-278v40h322z" />
    <glyph glyph-name="uni00AD" unicode="&#xad;" horiz-adv-x="361" 
d="M64 293v40h233v-40h-233z" />
    <glyph glyph-name="registered" unicode="&#xae;" horiz-adv-x="575" 
d="M396 703c32.667 -19.333 58.333 -46.667 77 -82s28 -76 28 -122c0 -44.667 -9.5 -85 -28.5 -121s-44.833 -64 -77.5 -84s-68.667 -30 -108 -30s-75.166 9.66699 -107.499 29s-57.833 46.5 -76.5 81.5s-28 75.5 -28 121.5c0 45.333 9.33301 85.833 28 121.5
s44.167 63.667 76.5 84s68.166 30.5 107.499 30.5c40 0 76.333 -9.66699 109 -29zM378.499 320.499c27.667 17 49.5 40.998 65.5 71.998s24 66.5 24 106.5c0 40.667 -7.83301 76.334 -23.5 107.001s-37.167 54.167 -64.5 70.5s-58.333 24.5 -93 24.5
c-33.333 0 -63.666 -8.66699 -90.999 -26s-49 -41.5 -65 -72.5s-24 -66.5 -24 -106.5c0 -40.667 8 -76.167 24 -106.5s37.667 -53.666 65 -69.999s57.666 -24.5 90.999 -24.5s63.833 8.5 91.5 25.5zM317.999 484.997l67 -119.001h-41l-59 113h-36v-113h-34v270h59
c33.333 0 58.5 -6.66699 75.5 -20s25.5 -32.666 25.5 -57.999c0 -38.667 -19 -63 -57 -73zM248.999 508.996h37c36 0 54 16.333 54 49c0 32 -20 48 -60 48h-31v-97z" />
    <glyph glyph-name="macron" unicode="&#xaf;" horiz-adv-x="269" 
d="M242 680h-209v37h209v-37z" />
    <glyph glyph-name="degree" unicode="&#xb0;" horiz-adv-x="461" 
d="M131.5 418c-20.333 11.333 -36.666 28.167 -48.999 50.5s-18.5 48.833 -18.5 79.5c0 29.333 6.16699 55.166 18.5 77.499s28.666 39.333 48.999 51s42.166 17.5 65.499 17.5c38 0 69.667 -13.167 95 -39.5s38 -62.166 38 -107.499c0 -44.667 -12.667 -80.167 -38 -106.5
s-57 -39.5 -95 -39.5c-23.333 0 -45.166 5.66699 -65.499 17zM264 465.501c16.667 19.667 25 46.833 25 81.5c0 36 -8.33301 63.5 -25 82.5s-39 28.5 -67 28.5c-26.667 0 -48.667 -9.66699 -66 -29s-26 -46.333 -26 -81s8.66699 -62 26 -82s39.333 -30 66 -30
c28 0 50.333 9.83301 67 29.5z" />
    <glyph glyph-name="plusminus" unicode="&#xb1;" horiz-adv-x="443" 
d="M64 0v40h315v-40h-315zM243 508v-151h136v-41h-136v-151h-43v151h-136v41h136v151h43z" />
    <glyph glyph-name="uni00B2" unicode="&#xb2;" horiz-adv-x="360" 
d="M257.5 710.5c19.667 -20.333 29.502 -46.5 29.502 -78.5c0 -27.333 -5 -52.333 -15 -75s-25.833 -47.334 -47.5 -74.001s-57.834 -68 -108.501 -124h182l-6 -36h-222v35c51.333 56.667 88.666 99.667 111.999 129s39.666 54.5 48.999 75.5s14 43.5 14 67.5
s-6.33301 42.667 -19 56s-29.667 20 -51 20c-32.667 0 -61 -15.333 -85 -46l-28 21c16.667 20.667 34.334 35.834 53.001 45.501s39.667 14.5 63 14.5c33.333 0 59.833 -10.167 79.5 -30.5z" />
    <glyph glyph-name="uni00B3" unicode="&#xb3;" horiz-adv-x="360" 
d="M260 714c20 -19.333 30 -44.332 30 -74.999c0 -26.667 -7.33301 -48.334 -22 -65.001s-34.334 -27 -59.001 -31c26.667 -1.33301 48.5 -11 65.5 -29s25.5 -43 25.5 -75c0 -36 -11.667 -65.667 -35 -89s-54.333 -35 -93 -35c-44.667 0 -82.334 18.333 -113.001 55l25 22
c24.667 -28 53.667 -42 87 -42c28 0 49.667 8 65 24s23 37.667 23 65c0 56.667 -28.333 85 -85 85h-26l5 33h18c22 0 40.667 6.66699 56 20s23 33 23 59c0 22.667 -6.66699 40.5 -20 53.5s-30.666 19.5 -51.999 19.5c-16.667 0 -31.667 -2.83301 -45 -8.5
s-27.666 -15.167 -42.999 -28.5l-21 24c16.667 16 33.667 27.833 51 35.5s37.333 11.5 60 11.5c33.333 0 60 -9.66699 80 -29z" />
    <glyph glyph-name="acute" unicode="&#xb4;" horiz-adv-x="247" 
d="M199 773l21 -41l-172 -84l-15 26z" />
    <glyph glyph-name="uni00B5" unicode="&#xb5;" horiz-adv-x="526" 
d="M406 -8c-8 21.333 -13.6699 39.833 -17.0029 55.5s-5.66602 35.5 -6.99902 59.5c-18.667 -36 -39.667 -64.667 -63 -86s-51.666 -32 -84.999 -32c-47.333 0 -80.666 21.667 -99.999 65c5.33301 -37.333 8 -80 8 -128v-121l-44 -4v721h45v-374
c0 -41.333 8.66699 -71.333 26 -90s39.333 -28 66 -28c56.667 0 103.667 41.333 141 124v368h45v-346c0 -36 2.16699 -68 6.5 -96s10.833 -55.667 19.5 -83z" />
    <glyph glyph-name="paragraph" unicode="&#xb6;" horiz-adv-x="632" 
d="M494 684l0.000976562 -879l-43 -8v848h-118v-840l-42 -8v502c-68.667 2.66699 -118.834 21.334 -150.501 56.001s-47.5 80 -47.5 136c0 61.333 17.833 108.666 53.5 141.999s86.167 50 151.5 50z" />
    <glyph glyph-name="periodcentered" unicode="&#xb7;" horiz-adv-x="186" 
d="M121 348.5c7.33301 -7.66699 11 -16.834 11 -27.501s-3.66699 -19.834 -11 -27.501s-16.666 -11.5 -27.999 -11.5s-20.666 3.83301 -27.999 11.5s-11 16.834 -11 27.501s3.66699 19.834 11 27.501s16.666 11.5 27.999 11.5s20.666 -3.83301 27.999 -11.5z" />
    <glyph glyph-name="cedilla" unicode="&#xb8;" horiz-adv-x="220" 
d="M111 -68c54.667 -4.66699 81.9971 -29.001 81.9971 -73.001c0 -25.333 -8.66699 -45.166 -26 -59.499s-38.666 -21.5 -63.999 -21.5c-27.333 0 -50.666 6.66699 -69.999 20l16 29c16 -10 33.667 -15 53 -15c14.667 0 26.834 4 36.501 12s14.5 19.667 14.5 35
s-6.5 26.833 -19.5 34.5s-33.5 11.5 -61.5 11.5l8 111h31v-84z" />
    <glyph glyph-name="uni00B9" unicode="&#xb9;" horiz-adv-x="360" 
d="M229 736v-413h-40v368l-93 -61l-19 28l118 78h34z" />
    <glyph glyph-name="ordmasculine" unicode="&#xba;" horiz-adv-x="452" 
d="M344 632.5c28 -34.333 42 -84.833 42 -151.5c0 -66 -14.333 -116.833 -43 -152.5s-68 -53.5 -118 -53.5s-89.167 17.5 -117.5 52.5s-42.5 85.5 -42.5 151.5c0 65.333 14.333 115.833 43 151.5s68 53.5 118 53.5c50.667 0 90 -17.167 118 -51.5zM111 479
c0 -56 9.83203 -97.833 29.499 -125.5s47.834 -41.5 84.501 -41.5c37.333 0 66 13.833 86 41.5s30 70.167 30 127.5c0 110 -38.333 165 -115 165s-115 -55.667 -115 -167zM67.999 0v40h315v-40h-315z" />
    <glyph glyph-name="guillemotright" unicode="&#xbb;" horiz-adv-x="506" 
d="M101 514l145 -211v-31l-145 -209l-28 18l125 207l-125 207zM289 514l145 -211v-31l-145 -209l-28 18l125 207l-125 207z" />
    <glyph glyph-name="onequarter" unicode="&#xbc;" horiz-adv-x="819" 
d="M229 684v-413h-40v368l-93 -61l-19 28l118 78h34zM577 746l33 -15l-367 -799l-33 15zM768 141v-35h-50v-106h-40v106h-170v30l117 284l34 -13l-110 -266h129l5 119h35v-119h50z" />
    <glyph glyph-name="onehalf" unicode="&#xbd;" horiz-adv-x="819" 
d="M229 684v-413h-40v368l-93 -61l-19 28l118 78h34zM577 746l33 -15l-367 -799l-33 15zM716.5 387.5c19.667 -20.333 29.502 -46.5 29.502 -78.5c0 -27.333 -5 -52.333 -15 -75s-25.833 -47.334 -47.5 -74.001s-57.834 -68 -108.501 -124h182l-6 -36h-222v35
c51.333 56.667 88.666 99.667 111.999 129s39.666 54.5 48.999 75.5s14 43.5 14 67.5s-6.33301 42.667 -19 56s-29.667 20 -51 20c-32.667 0 -61 -15.333 -85 -46l-28 21c16.667 20.667 34.334 35.834 53.001 45.501s39.667 14.5 63 14.5
c33.333 0 59.833 -10.167 79.5 -30.5z" />
    <glyph glyph-name="threequarters" unicode="&#xbe;" horiz-adv-x="819" 
d="M260 662c20 -19.333 30 -44.332 30 -74.999c0 -26.667 -7.33301 -48.334 -22 -65.001s-34.334 -27 -59.001 -31c26.667 -1.33301 48.5 -11 65.5 -29s25.5 -43 25.5 -75c0 -36 -11.667 -65.667 -35 -89s-54.333 -35 -93 -35c-44.667 0 -82.334 18.333 -113.001 55l25 22
c24.667 -28 53.667 -42 87 -42c28 0 49.667 8 65 24s23 37.667 23 65c0 56.667 -28.333 85 -85 85h-26l5 33h18c22 0 40.667 6.66699 56 20s23 33 23 59c0 22.667 -6.66699 40.5 -20 53.5s-30.666 19.5 -51.999 19.5c-16.667 0 -31.667 -2.83301 -45 -8.5
s-27.666 -15.167 -42.999 -28.5l-21 24c16.667 16 33.667 27.833 51 35.5s37.333 11.5 60 11.5c33.333 0 60 -9.66699 80 -29zM577 746.001l33 -15l-367 -799l-33 15zM768 141.001v-35h-50v-106h-40v106h-170v30l117 284l34 -13l-110 -266h129l5 119h35v-119h50z" />
    <glyph glyph-name="questiondown" unicode="&#xbf;" horiz-adv-x="407" 
d="M199.5 400.5c-7 7.66699 -10.5 16.834 -10.5 27.501s3.5 19.834 10.5 27.501s16.167 11.5 27.5 11.5s20.666 -3.83301 27.999 -11.5s11 -16.834 11 -27.501s-3.66699 -19.834 -11 -27.501s-16.666 -11.5 -27.999 -11.5s-20.5 3.83301 -27.5 11.5zM113.5 -184
c-23 12.667 -40.502 29.6709 -52.502 51.0039s-18 44.666 -18 69.999c0 33.333 7 59.833 21 79.5s34.667 40.167 62 61.5c26.667 21.333 46.834 41.166 60.501 59.499s20.5 43.166 20.5 74.499v38h43v-42c0 -26 -4 -48.167 -12 -66.5s-17.667 -33.5 -29 -45.5
s-26.666 -25.333 -45.999 -40c-25.333 -20 -44 -38 -56 -54s-18 -37.667 -18 -65c0 -30 9.83301 -54.333 29.5 -73s45.5 -28 77.5 -28c28 0 52.5 6 73.5 18s42.167 31 63.5 57l31 -24c-24 -30.667 -49.667 -53.334 -77 -68.001s-58 -22 -92 -22
c-31.333 0 -58.5 6.33301 -81.5 19z" />
    <glyph glyph-name="Agrave" unicode="&#xc0;" horiz-adv-x="514" 
d="M445 0l-56 193h-266l-57 -193h-45l207 684h58l207 -684h-48zM135 233h242l-121 413zM183 877l165 -91l-14 -27l-173 76z" />
    <glyph glyph-name="Aacute" unicode="&#xc1;" horiz-adv-x="514" 
d="M445 0l-56 193h-266l-57 -193h-45l207 684h58l207 -684h-48zM135 233h242l-121 413zM329 877l21 -42l-174 -76l-13 28z" />
    <glyph glyph-name="Acircumflex" unicode="&#xc2;" horiz-adv-x="514" 
d="M445 0l-56 193h-266l-57 -193h-45l207 684h58l207 -684h-48zM135 233h242l-121 413zM149 764l-21 23l115 99h27l115 -99l-20 -23l-108 80z" />
    <glyph glyph-name="Atilde" unicode="&#xc3;" horiz-adv-x="514" 
d="M445 0l-56 193h-266l-57 -193h-45l207 684h58l207 -684h-48zM135 233h242l-121 413zM279 803.5c-9.33301 4.33301 -20.001 10.499 -32.001 18.499c-9.33301 6.66699 -17.333 11.5 -24 14.5s-13 4.5 -19 4.5c-10 0 -19 -3 -27 -9s-16.333 -15.667 -25 -29l-27 15
c22 39.333 48 59 78 59c9.33301 0 18.333 -2 27 -6s18.667 -9.66699 30 -17s20.5 -12.666 27.5 -15.999s14.167 -5 21.5 -5c9.33301 0 17.833 3.33301 25.5 10s16.167 17.667 25.5 33l28 -14c-20 -43.333 -46 -65 -78 -65c-11.333 0 -21.666 2.16699 -30.999 6.5z" />
    <glyph glyph-name="Adieresis" unicode="&#xc4;" horiz-adv-x="514" 
d="M445 0l-56 193h-266l-57 -193h-45l207 684h58l207 -684h-48zM135 233h242l-121 413zM201 848.5c6 -6.33301 9 -14.166 9 -23.499s-3 -17.166 -9 -23.499s-14 -9.5 -24 -9.5c-9.33301 0 -17 3.16699 -23 9.5s-9 14.166 -9 23.499s3 17.166 9 23.499s13.667 9.5 23 9.5
c10 0 18 -3.16699 24 -9.5zM366 848.5c6 -6.33301 9 -14.166 9 -23.499s-3 -17.166 -9 -23.499s-13.667 -9.5 -23 -9.5s-17.166 3.16699 -23.499 9.5s-9.5 14.166 -9.5 23.499s3.16699 17.166 9.5 23.499s14.166 9.5 23.499 9.5s17 -3.16699 23 -9.5z" />
    <glyph glyph-name="Aring" unicode="&#xc5;" horiz-adv-x="514" 
d="M445 0l-56 193h-266l-57 -193h-45l207 684h58l207 -684h-48zM135 233h242l-121 413zM319.5 917c15.667 -16 23.5 -37.667 23.5 -65c0 -28 -7.83301 -50 -23.5 -66s-36.5 -24 -62.5 -24c-25.333 0 -45.833 8 -61.5 24s-23.5 38 -23.5 66c0 27.333 7.83301 49 23.5 65
s36.167 24 61.5 24c26 0 46.833 -8 62.5 -24zM207 852c0 -40 16.667 -60 50 -60s50 20 50 60c0 39.333 -16.667 59 -50 59s-50 -19.667 -50 -59z" />
    <glyph glyph-name="AE" unicode="&#xc6;" horiz-adv-x="698" 
d="M452 40h207v-40h-243l-43 188h-260l-64 -188h-46l239 684h372l-5 -41h-295l61 -267h232v-39h-223zM127 229h237l-95 417z" />
    <glyph glyph-name="Ccedilla" unicode="&#xc7;" horiz-adv-x="493" 
d="M401 -141c0 -25.333 -8.66992 -45.167 -26.0029 -59.5s-38.666 -21.5 -63.999 -21.5c-27.333 0 -50.666 6.66699 -69.999 20l16 29c16 -10 33.667 -15 53 -15c14.667 0 26.834 4 36.501 12s14.5 19.667 14.5 35s-6.5 26.833 -19.5 34.5s-33.5 11.5 -61.5 11.5l6 85
c-68 6.66699 -122.333 40 -163 100s-61 144 -61 252c0 78 11 143.333 33 196s51.667 91.834 89 117.501s79.333 38.5 126 38.5c33.333 0 61.833 -5 85.5 -15s47.167 -25.333 70.5 -46l-26 -30c-21.333 18 -41.5 30.833 -60.5 38.5s-41.167 11.5 -66.5 11.5
c-60.667 0 -109.5 -25 -146.5 -75s-55.5 -128.667 -55.5 -236c0 -104 18.333 -181.667 55 -233s85 -77 145 -77c29.333 0 54 4.66699 74 14s40.333 23 61 41l27 -30c-44 -42.667 -95.333 -65.334 -154 -68.001v-57c54.667 -4.66699 82 -29 82 -73z" />
    <glyph glyph-name="Egrave" unicode="&#xc8;" horiz-adv-x="454" 
d="M410 684l-6 -41h-255v-266h221v-40h-221v-297h266v-40h-313v684h308zM186 877l165 -91l-14 -27l-173 76z" />
    <glyph glyph-name="Eacute" unicode="&#xc9;" horiz-adv-x="454" 
d="M410 684l-6 -41h-255v-266h221v-40h-221v-297h266v-40h-313v684h308zM332 877l21 -42l-174 -76l-13 28z" />
    <glyph glyph-name="Ecircumflex" unicode="&#xca;" horiz-adv-x="454" 
d="M410 684l-6 -41h-255v-266h221v-40h-221v-297h266v-40h-313v684h308zM152 764l-21 23l115 99h27l115 -99l-20 -23l-108 80z" />
    <glyph glyph-name="Edieresis" unicode="&#xcb;" horiz-adv-x="454" 
d="M410 684l-6 -41h-255v-266h221v-40h-221v-297h266v-40h-313v684h308zM204 848.5c6 -6.33301 9 -14.166 9 -23.499s-3 -17.166 -9 -23.499s-14 -9.5 -24 -9.5c-9.33301 0 -17 3.16699 -23 9.5s-9 14.166 -9 23.499s3 17.166 9 23.499s13.667 9.5 23 9.5
c10 0 18 -3.16699 24 -9.5zM369 848.5c6 -6.33301 9 -14.166 9 -23.499s-3 -17.166 -9 -23.499s-13.667 -9.5 -23 -9.5s-17.166 3.16699 -23.499 9.5s-9.5 14.166 -9.5 23.499s3.16699 17.166 9.5 23.499s14.166 9.5 23.499 9.5s17 -3.16699 23 -9.5z" />
    <glyph glyph-name="Igrave" unicode="&#xcc;" horiz-adv-x="251" 
d="M149 684v-684h-47v684h47zM51 877l165 -91l-14 -27l-173 76z" />
    <glyph glyph-name="Iacute" unicode="&#xcd;" horiz-adv-x="251" 
d="M149 684v-684h-47v684h47zM197 877l21 -42l-174 -76l-13 28z" />
    <glyph glyph-name="Icircumflex" unicode="&#xce;" horiz-adv-x="251" 
d="M149 684v-684h-47v684h47zM17 764l-21 23l115 99h27l115 -99l-20 -23l-108 80z" />
    <glyph glyph-name="Idieresis" unicode="&#xcf;" horiz-adv-x="251" 
d="M149 684v-684h-47v684h47zM69 848.5c6 -6.33301 9 -14.166 9 -23.499s-3 -17.166 -9 -23.499s-14 -9.5 -24 -9.5c-9.33301 0 -17 3.16699 -23 9.5s-9 14.166 -9 23.499s3 17.166 9 23.499s13.667 9.5 23 9.5c10 0 18 -3.16699 24 -9.5zM234 848.5
c6 -6.33301 9 -14.166 9 -23.499s-3 -17.166 -9 -23.499s-13.667 -9.5 -23 -9.5s-17.166 3.16699 -23.499 9.5s-9.5 14.166 -9.5 23.499s3.16699 17.166 9.5 23.499s14.166 9.5 23.499 9.5s17 -3.16699 23 -9.5z" />
    <glyph glyph-name="Eth" unicode="&#xd0;" horiz-adv-x="570" 
d="M430 612c52 -48 78 -135.999 78 -263.999c0 -128.667 -26.5 -218.834 -79.5 -270.501s-117.833 -77.5 -194.5 -77.5h-129v332h-83v40h83v312h122c83.333 0 151 -24 203 -72zM459 348.001c0 80.667 -10.833 142.667 -32.5 186s-49 72.333 -82 87s-71.167 22 -114.5 22h-78
v-271h160v-40h-160v-292h84c148.667 0 223 102.667 223 308z" />
    <glyph glyph-name="Ntilde" unicode="&#xd1;" horiz-adv-x="603" 
d="M501 0h-61l-300 631c4 -57.333 6 -131.333 6 -222v-409h-44v684h60l301 -632c-4.66699 79.333 -7 146 -7 200v432h45v-684zM331 803.5c-9.33301 4.33301 -20.001 10.499 -32.001 18.499c-9.33301 6.66699 -17.333 11.5 -24 14.5s-13 4.5 -19 4.5c-10 0 -19 -3 -27 -9
s-16.333 -15.667 -25 -29l-27 15c22 39.333 48 59 78 59c9.33301 0 18.333 -2 27 -6s18.667 -9.66699 30 -17s20.5 -12.666 27.5 -15.999s14.167 -5 21.5 -5c9.33301 0 17.833 3.33301 25.5 10s16.167 17.667 25.5 33l28 -14c-20 -43.333 -46 -65 -78 -65
c-11.333 0 -21.666 2.16699 -30.999 6.5z" />
    <glyph glyph-name="Ograve" unicode="&#xd2;" horiz-adv-x="623" 
d="M493 604.5c44.667 -59.667 66.998 -147.501 66.998 -263.501c0 -113.333 -22.167 -200.333 -66.5 -261s-105.166 -91 -182.499 -91c-49.333 0 -92.833 13.333 -130.5 40s-66.834 66.334 -87.501 119.001s-31 116.667 -31 192c0 76 10.333 140.5 31 193.5
s49.834 93 87.501 120s81.167 40.5 130.5 40.5c76.667 0 137.334 -29.833 182.001 -89.5zM164.498 574.999c-35.667 -52 -53.501 -130.332 -53.501 -234.999c0 -102.667 18 -180 54 -232s84.667 -78 146 -78c64 0 113.5 25.667 148.5 77s52.5 129.333 52.5 234
c0 105.333 -17.667 183.666 -53 234.999s-84.666 77 -147.999 77c-62 0 -110.833 -26 -146.5 -78zM236.997 877l165 -91l-14 -27l-173 76z" />
    <glyph glyph-name="Oacute" unicode="&#xd3;" horiz-adv-x="623" 
d="M493 604.5c44.667 -59.667 66.998 -147.501 66.998 -263.501c0 -113.333 -22.167 -200.333 -66.5 -261s-105.166 -91 -182.499 -91c-49.333 0 -92.833 13.333 -130.5 40s-66.834 66.334 -87.501 119.001s-31 116.667 -31 192c0 76 10.333 140.5 31 193.5
s49.834 93 87.501 120s81.167 40.5 130.5 40.5c76.667 0 137.334 -29.833 182.001 -89.5zM164.498 574.999c-35.667 -52 -53.501 -130.332 -53.501 -234.999c0 -102.667 18 -180 54 -232s84.667 -78 146 -78c64 0 113.5 25.667 148.5 77s52.5 129.333 52.5 234
c0 105.333 -17.667 183.666 -53 234.999s-84.666 77 -147.999 77c-62 0 -110.833 -26 -146.5 -78zM382.997 877l21 -42l-174 -76l-13 28z" />
    <glyph glyph-name="Ocircumflex" unicode="&#xd4;" horiz-adv-x="623" 
d="M493 604.5c44.667 -59.667 66.998 -147.501 66.998 -263.501c0 -113.333 -22.167 -200.333 -66.5 -261s-105.166 -91 -182.499 -91c-49.333 0 -92.833 13.333 -130.5 40s-66.834 66.334 -87.501 119.001s-31 116.667 -31 192c0 76 10.333 140.5 31 193.5
s49.834 93 87.501 120s81.167 40.5 130.5 40.5c76.667 0 137.334 -29.833 182.001 -89.5zM164.498 574.999c-35.667 -52 -53.501 -130.332 -53.501 -234.999c0 -102.667 18 -180 54 -232s84.667 -78 146 -78c64 0 113.5 25.667 148.5 77s52.5 129.333 52.5 234
c0 105.333 -17.667 183.666 -53 234.999s-84.666 77 -147.999 77c-62 0 -110.833 -26 -146.5 -78zM202.997 764l-21 23l115 99h27l115 -99l-20 -23l-108 80z" />
    <glyph glyph-name="Otilde" unicode="&#xd5;" horiz-adv-x="623" 
d="M493 604.5c44.667 -59.667 66.998 -147.501 66.998 -263.501c0 -113.333 -22.167 -200.333 -66.5 -261s-105.166 -91 -182.499 -91c-49.333 0 -92.833 13.333 -130.5 40s-66.834 66.334 -87.501 119.001s-31 116.667 -31 192c0 76 10.333 140.5 31 193.5
s49.834 93 87.501 120s81.167 40.5 130.5 40.5c76.667 0 137.334 -29.833 182.001 -89.5zM164.498 574.999c-35.667 -52 -53.501 -130.332 -53.501 -234.999c0 -102.667 18 -180 54 -232s84.667 -78 146 -78c64 0 113.5 25.667 148.5 77s52.5 129.333 52.5 234
c0 105.333 -17.667 183.666 -53 234.999s-84.666 77 -147.999 77c-62 0 -110.833 -26 -146.5 -78zM332.997 803.5c-9.33301 4.33301 -20.001 10.499 -32.001 18.499c-9.33301 6.66699 -17.333 11.5 -24 14.5s-13 4.5 -19 4.5c-10 0 -19 -3 -27 -9s-16.333 -15.667 -25 -29
l-27 15c22 39.333 48 59 78 59c9.33301 0 18.333 -2 27 -6s18.667 -9.66699 30 -17s20.5 -12.666 27.5 -15.999s14.167 -5 21.5 -5c9.33301 0 17.833 3.33301 25.5 10s16.167 17.667 25.5 33l28 -14c-20 -43.333 -46 -65 -78 -65c-11.333 0 -21.666 2.16699 -30.999 6.5z
" />
    <glyph glyph-name="Odieresis" unicode="&#xd6;" horiz-adv-x="623" 
d="M493 604.5c44.667 -59.667 66.998 -147.501 66.998 -263.501c0 -113.333 -22.167 -200.333 -66.5 -261s-105.166 -91 -182.499 -91c-49.333 0 -92.833 13.333 -130.5 40s-66.834 66.334 -87.501 119.001s-31 116.667 -31 192c0 76 10.333 140.5 31 193.5
s49.834 93 87.501 120s81.167 40.5 130.5 40.5c76.667 0 137.334 -29.833 182.001 -89.5zM164.498 574.999c-35.667 -52 -53.501 -130.332 -53.501 -234.999c0 -102.667 18 -180 54 -232s84.667 -78 146 -78c64 0 113.5 25.667 148.5 77s52.5 129.333 52.5 234
c0 105.333 -17.667 183.666 -53 234.999s-84.666 77 -147.999 77c-62 0 -110.833 -26 -146.5 -78zM254.997 848.5c6 -6.33301 9 -14.166 9 -23.499s-3 -17.166 -9 -23.499s-14 -9.5 -24 -9.5c-9.33301 0 -17 3.16699 -23 9.5s-9 14.166 -9 23.499s3 17.166 9 23.499
s13.667 9.5 23 9.5c10 0 18 -3.16699 24 -9.5zM419.997 848.5c6 -6.33301 9 -14.166 9 -23.499s-3 -17.166 -9 -23.499s-13.667 -9.5 -23 -9.5s-17.166 3.16699 -23.499 9.5s-9.5 14.166 -9.5 23.499s3.16699 17.166 9.5 23.499s14.166 9.5 23.499 9.5s17 -3.16699 23 -9.5z
" />
    <glyph glyph-name="multiply" unicode="&#xd7;" horiz-adv-x="443" 
d="M335 465l30 -26l-115 -131l115 -132l-31 -26l-113 130l-113 -130l-30 26l114 130l-114 133l31 26l111 -132z" />
    <glyph glyph-name="Oslash" unicode="&#xd8;" horiz-adv-x="623" 
d="M523 551c24.667 -55.333 36.9961 -125.334 36.9961 -210.001c0 -112.667 -22.167 -199.5 -66.5 -260.5s-105.166 -91.5 -182.499 -91.5c-24.667 0 -49 3.66699 -73 11l-29 -117l-42 12l35 121c-44 23.333 -78.333 62.5 -103 117.5s-37 123.833 -37 206.5
c0 76 10.333 140.5 31 193.5s49.834 93 87.501 120s81.167 40.5 130.5 40.5c26.667 0 50.334 -3.33301 71.001 -10l32 123l41 -12l-36 -126c44.667 -23.333 79.334 -62.666 104.001 -117.999zM138.996 156.999c18.667 -47.333 45 -81.333 79 -102l156 588
c-19.333 6.66699 -40.333 10 -63 10c-62 0 -110.833 -26 -146.5 -78s-53.5 -130.333 -53.5 -235c0 -74.667 9.33301 -135.667 28 -183zM458.996 106.999c34.667 51.333 52.333 129.334 53 234.001c0 151.333 -36 247.666 -108 288.999l-156 -590
c19.333 -6.66699 40.333 -10 63 -10c64 0 113.333 25.667 148 77z" />
    <glyph glyph-name="Ugrave" unicode="&#xd9;" horiz-adv-x="582" 
d="M490 192c0 -60.667 -17 -109.666 -51 -146.999s-83.333 -56 -148 -56c-65.333 0 -114.833 18.667 -148.5 56s-50.5 86.333 -50.5 147v492h47v-488c0 -52 12.5 -92.5 37.5 -121.5s63.167 -43.5 114.5 -43.5c52 0 90.333 14.667 115 44s37 69.666 37 120.999v488h47v-492z
M217 877.001l165 -91l-14 -27l-173 76z" />
    <glyph glyph-name="Uacute" unicode="&#xda;" horiz-adv-x="582" 
d="M490 192c0 -60.667 -17 -109.666 -51 -146.999s-83.333 -56 -148 -56c-65.333 0 -114.833 18.667 -148.5 56s-50.5 86.333 -50.5 147v492h47v-488c0 -52 12.5 -92.5 37.5 -121.5s63.167 -43.5 114.5 -43.5c52 0 90.333 14.667 115 44s37 69.666 37 120.999v488h47v-492z
M363 877.001l21 -42l-174 -76l-13 28z" />
    <glyph glyph-name="Ucircumflex" unicode="&#xdb;" horiz-adv-x="582" 
d="M490 192c0 -60.667 -17 -109.666 -51 -146.999s-83.333 -56 -148 -56c-65.333 0 -114.833 18.667 -148.5 56s-50.5 86.333 -50.5 147v492h47v-488c0 -52 12.5 -92.5 37.5 -121.5s63.167 -43.5 114.5 -43.5c52 0 90.333 14.667 115 44s37 69.666 37 120.999v488h47v-492z
M183 764.001l-21 23l115 99h27l115 -99l-20 -23l-108 80z" />
    <glyph glyph-name="Udieresis" unicode="&#xdc;" horiz-adv-x="582" 
d="M490 192c0 -60.667 -17 -109.666 -51 -146.999s-83.333 -56 -148 -56c-65.333 0 -114.833 18.667 -148.5 56s-50.5 86.333 -50.5 147v492h47v-488c0 -52 12.5 -92.5 37.5 -121.5s63.167 -43.5 114.5 -43.5c52 0 90.333 14.667 115 44s37 69.666 37 120.999v488h47v-492z
M235 848.501c6 -6.33301 9 -14.166 9 -23.499s-3 -17.166 -9 -23.499s-14 -9.5 -24 -9.5c-9.33301 0 -17 3.16699 -23 9.5s-9 14.166 -9 23.499s3 17.166 9 23.499s13.667 9.5 23 9.5c10 0 18 -3.16699 24 -9.5zM400 848.501c6 -6.33301 9 -14.166 9 -23.499
s-3 -17.166 -9 -23.499s-13.667 -9.5 -23 -9.5s-17.166 3.16699 -23.499 9.5s-9.5 14.166 -9.5 23.499s3.16699 17.166 9.5 23.499s14.166 9.5 23.499 9.5s17 -3.16699 23 -9.5z" />
    <glyph glyph-name="Yacute" unicode="&#xdd;" horiz-adv-x="464" 
d="M450 684l-194 -415v-269h-46v268l-196 416h50l170 -373l167 373h49zM304 877l21 -42l-174 -76l-13 28z" />
    <glyph glyph-name="Thorn" unicode="&#xde;" horiz-adv-x="508" 
d="M408 510c40 -33.333 60 -84.667 60 -154c0 -144 -80.333 -216 -241 -216h-78v-140h-47v684h47v-124h80c79.333 0 139 -16.667 179 -50zM370.5 219.499c32.333 26.333 48.501 71.499 48.501 135.499c0 58.667 -15.5 100.834 -46.5 126.501s-78.833 38.5 -143.5 38.5h-80
v-340h78c63.333 0 111.166 13.167 143.499 39.5z" />
    <glyph glyph-name="germandbls" unicode="&#xdf;" horiz-adv-x="522" 
d="M368.5 704.5c27 -24.333 40.5 -55.8301 40.5 -94.4971c0 -26.667 -5.33301 -48.334 -16 -65.001s-26.334 -34.334 -47.001 -53.001c-15.333 -14 -26.5 -25.833 -33.5 -35.5s-10.5 -20.834 -10.5 -33.501c0 -16 5 -29.667 15 -41s26.667 -26 50 -44
c22.667 -16.667 41.334 -32.334 56.001 -47.001s27.334 -33.5 38.001 -56.5s16 -50.167 16 -81.5c0 -48.667 -13.167 -88.167 -39.5 -118.5s-60.833 -45.5 -103.5 -45.5c-30.667 0 -59.334 7.33301 -86.001 22l15 33c20 -10 42.333 -15 67 -15
c30.667 0 55.167 10.833 73.5 32.5s27.5 52.167 27.5 91.5c0 26.667 -4.5 49.834 -13.5 69.501s-20 35.834 -33 48.501s-29.833 27 -50.5 43c-25.333 19.333 -44 36.5 -56 51.5s-18 33.5 -18 55.5c0 17.333 4 31.833 12 43.5s20 25.167 36 40.5
c18.667 18 32.667 34.167 42 48.5s14 32.833 14 55.5c0 29.333 -9.16699 52.166 -27.5 68.499s-42.5 24.5 -72.5 24.5c-36.667 0 -66 -12.5 -88 -37.5s-33 -61.833 -33 -110.5v-554h-45v557c0 57.333 15.167 102.333 45.5 135s70.5 49 120.5 49
c42.667 0 77.5 -12.167 104.5 -36.5z" />
    <glyph glyph-name="agrave" unicode="&#xe0;" horiz-adv-x="482" 
d="M394 48c6 -12 16 -20.999 30 -26.999l-10 -32c-21.333 5.33301 -37.5 15 -48.5 29s-17.5 34.333 -19.5 61c-34 -60 -83 -90 -147 -90c-45.333 0 -81 14.167 -107 42.5s-39 66.166 -39 113.499c0 53.333 17.5 94.5 52.5 123.5s83.5 43.5 145.5 43.5h89v60
c0 41.333 -8.5 71.833 -25.5 91.5s-44.833 29.5 -83.5 29.5c-38 0 -81.333 -10 -130 -30l-13 35c54 22.667 103 34 147 34c100 0 150 -52.333 150 -157v-272c0 -24.667 3 -43 9 -55zM340 127.001v150h-84c-103.333 0 -155 -43.667 -155 -131c0 -38 9.16699 -67.333 27.5 -88
s43.5 -31 75.5 -31c60 0 105.333 33.333 136 100zM165 773.001l166 -99l-16 -26l-172 84z" />
    <glyph glyph-name="aacute" unicode="&#xe1;" horiz-adv-x="482" 
d="M394 48c6 -12 16 -20.999 30 -26.999l-10 -32c-21.333 5.33301 -37.5 15 -48.5 29s-17.5 34.333 -19.5 61c-34 -60 -83 -90 -147 -90c-45.333 0 -81 14.167 -107 42.5s-39 66.166 -39 113.499c0 53.333 17.5 94.5 52.5 123.5s83.5 43.5 145.5 43.5h89v60
c0 41.333 -8.5 71.833 -25.5 91.5s-44.833 29.5 -83.5 29.5c-38 0 -81.333 -10 -130 -30l-13 35c54 22.667 103 34 147 34c100 0 150 -52.333 150 -157v-272c0 -24.667 3 -43 9 -55zM340 127.001v150h-84c-103.333 0 -155 -43.667 -155 -131c0 -38 9.16699 -67.333 27.5 -88
s43.5 -31 75.5 -31c60 0 105.333 33.333 136 100zM299 773.001l21 -41l-172 -84l-15 26z" />
    <glyph glyph-name="acircumflex" unicode="&#xe2;" horiz-adv-x="482" 
d="M394 48c6 -12 16 -20.999 30 -26.999l-10 -32c-21.333 5.33301 -37.5 15 -48.5 29s-17.5 34.333 -19.5 61c-34 -60 -83 -90 -147 -90c-45.333 0 -81 14.167 -107 42.5s-39 66.166 -39 113.499c0 53.333 17.5 94.5 52.5 123.5s83.5 43.5 145.5 43.5h89v60
c0 41.333 -8.5 71.833 -25.5 91.5s-44.833 29.5 -83.5 29.5c-38 0 -81.333 -10 -130 -30l-13 35c54 22.667 103 34 147 34c100 0 150 -52.333 150 -157v-272c0 -24.667 3 -43 9 -55zM340 127.001v150h-84c-103.333 0 -155 -43.667 -155 -131c0 -38 9.16699 -67.333 27.5 -88
s43.5 -31 75.5 -31c60 0 105.333 33.333 136 100zM125 648.001l-20 22l115 105h27l115 -105l-21 -22l-108 85z" />
    <glyph glyph-name="atilde" unicode="&#xe3;" horiz-adv-x="482" 
d="M394 48c6 -12 16 -20.999 30 -26.999l-10 -32c-21.333 5.33301 -37.5 15 -48.5 29s-17.5 34.333 -19.5 61c-34 -60 -83 -90 -147 -90c-45.333 0 -81 14.167 -107 42.5s-39 66.166 -39 113.499c0 53.333 17.5 94.5 52.5 123.5s83.5 43.5 145.5 43.5h89v60
c0 41.333 -8.5 71.833 -25.5 91.5s-44.833 29.5 -83.5 29.5c-38 0 -81.333 -10 -130 -30l-13 35c54 22.667 103 34 147 34c100 0 150 -52.333 150 -157v-272c0 -24.667 3 -43 9 -55zM340 127.001v150h-84c-103.333 0 -155 -43.667 -155 -131c0 -38 9.16699 -67.333 27.5 -88
s43.5 -31 75.5 -31c60 0 105.333 33.333 136 100zM256 677.501c-9.33301 4.33301 -20.001 10.499 -32.001 18.499c-9.33301 6.66699 -17.333 11.5 -24 14.5s-13 4.5 -19 4.5c-10 0 -19 -3 -27 -9s-16.333 -15.667 -25 -29l-27 15c22 39.333 48 59 78 59
c9.33301 0 18.333 -2 27 -6s18.667 -9.66699 30 -17s20.5 -12.666 27.5 -15.999s14.167 -5 21.5 -5c9.33301 0 17.833 3.33301 25.5 10s16.167 17.667 25.5 33l28 -14c-20 -43.333 -46 -65 -78 -65c-11.333 0 -21.666 2.16699 -30.999 6.5z" />
    <glyph glyph-name="adieresis" unicode="&#xe4;" horiz-adv-x="482" 
d="M394 48c6 -12 16 -20.999 30 -26.999l-10 -32c-21.333 5.33301 -37.5 15 -48.5 29s-17.5 34.333 -19.5 61c-34 -60 -83 -90 -147 -90c-45.333 0 -81 14.167 -107 42.5s-39 66.166 -39 113.499c0 53.333 17.5 94.5 52.5 123.5s83.5 43.5 145.5 43.5h89v60
c0 41.333 -8.5 71.833 -25.5 91.5s-44.833 29.5 -83.5 29.5c-38 0 -81.333 -10 -130 -30l-13 35c54 22.667 103 34 147 34c100 0 150 -52.333 150 -157v-272c0 -24.667 3 -43 9 -55zM340 127.001v150h-84c-103.333 0 -155 -43.667 -155 -131c0 -38 9.16699 -67.333 27.5 -88
s43.5 -31 75.5 -31c60 0 105.333 33.333 136 100zM174 722.501c6 -6.33301 9 -14.166 9 -23.499s-3 -17.166 -9 -23.499s-14 -9.5 -24 -9.5c-9.33301 0 -17 3.16699 -23 9.5s-9 14.166 -9 23.499s3 17.166 9 23.499s13.667 9.5 23 9.5c10 0 18 -3.16699 24 -9.5z
M339 722.501c6 -6.33301 9 -14.166 9 -23.499s-3 -17.166 -9 -23.499s-13.667 -9.5 -23 -9.5s-17.166 3.16699 -23.499 9.5s-9.5 14.166 -9.5 23.499s3.16699 17.166 9.5 23.499s14.166 9.5 23.499 9.5s17 -3.16699 23 -9.5z" />
    <glyph glyph-name="aring" unicode="&#xe5;" horiz-adv-x="482" 
d="M394 48c6 -12 16 -20.999 30 -26.999l-10 -32c-21.333 5.33301 -37.5 15 -48.5 29s-17.5 34.333 -19.5 61c-34 -60 -83 -90 -147 -90c-45.333 0 -81 14.167 -107 42.5s-39 66.166 -39 113.499c0 53.333 17.5 94.5 52.5 123.5s83.5 43.5 145.5 43.5h89v60
c0 41.333 -8.5 71.833 -25.5 91.5s-44.833 29.5 -83.5 29.5c-38 0 -81.333 -10 -130 -30l-13 35c54 22.667 103 34 147 34c100 0 150 -52.333 150 -157v-272c0 -24.667 3 -43 9 -55zM340 127.001v150h-84c-103.333 0 -155 -43.667 -155 -131c0 -38 9.16699 -67.333 27.5 -88
s43.5 -31 75.5 -31c60 0 105.333 33.333 136 100zM296.5 791.001c15.667 -16 23.5 -37.667 23.5 -65c0 -28 -7.83301 -50 -23.5 -66s-36.5 -24 -62.5 -24c-25.333 0 -45.833 8 -61.5 24s-23.5 38 -23.5 66c0 27.333 7.83301 49 23.5 65s36.167 24 61.5 24
c26 0 46.833 -8 62.5 -24zM184 726.001c0 -40 16.667 -60 50 -60s50 20 50 60c0 39.333 -16.667 59 -50 59s-50 -19.667 -50 -59z" />
    <glyph glyph-name="ae" unicode="&#xe6;" horiz-adv-x="762" 
d="M706 241l-319 0.00195312c3.33301 -72 18.5 -125.333 45.5 -160s62.833 -52 107.5 -52c24.667 0 46.667 4.16699 66 12.5s39.666 21.5 60.999 39.5l22 -28c-22.667 -21.333 -46 -37.333 -70 -48s-51 -16 -81 -16c-38.667 0 -72.167 9.5 -100.5 28.5
s-50.5 46.167 -66.5 81.5c-25.333 -38.667 -51.666 -66.667 -78.999 -84s-58 -26 -92 -26c-45.333 0 -81.166 14.167 -107.499 42.5s-39.5 66.166 -39.5 113.499c0 53.333 17.5 94.5 52.5 123.5s83.167 43.5 144.5 43.5h91v55c0 43.333 -8.66699 75.166 -26 95.499
s-46 30.5 -86 30.5c-36 0 -78.333 -10 -127 -30l-12 35c54 22.667 102 34 144 34c41.333 0 73.5 -9.16699 96.5 -27.5s38.5 -45.5 46.5 -81.5c32.667 72.667 84 109 154 109c57.333 0 101.166 -21.833 131.499 -65.5s45.5 -105.167 45.5 -184.5
c0 -14 -0.666992 -27.667 -2 -41zM663 297.002c0 62.667 -11 111.001 -33 145.001s-55 51 -99 51c-41.333 0 -75 -17.833 -101 -53.5s-40.333 -89.834 -43 -162.501h276v20zM286 53.5029c23.333 17.667 46.668 46.167 70.001 85.5c-10 34 -15 73 -15 117v21h-87
c-48.667 0 -86.334 -11 -113.001 -33s-40 -54.667 -40 -98c0 -37.333 9.33301 -66.5 28 -87.5s44 -31.5 76 -31.5c30.667 0 57.667 8.83301 81 26.5z" />
    <glyph glyph-name="ccedilla" unicode="&#xe7;" horiz-adv-x="417" 
d="M349 -141c0 -25.333 -8.6709 -45.166 -26.0039 -59.499s-38.666 -21.5 -63.999 -21.5c-27.333 0 -50.666 6.66699 -69.999 20l16 29c16 -10 33.667 -15 53 -15c14.667 0 26.834 4 36.501 12s14.5 19.667 14.5 35s-6.5 26.833 -19.5 34.5s-33.5 11.5 -61.5 11.5l6 85
c-54.667 6 -97.5 31.833 -128.5 77.5s-46.5 109.167 -46.5 190.5c0 86.667 18 154 54 202s84.333 72 145 72c25.333 0 48.333 -4 69 -12s40.667 -21 60 -39l-23 -30c-16 14 -32.167 24.5 -48.5 31.5s-35.166 10.5 -56.499 10.5c-46.667 0 -83.667 -19.5 -111 -58.5
s-41 -97.833 -41 -176.5c0 -77.333 13.5 -134.833 40.5 -172.5s63.833 -56.5 110.5 -56.5c39.333 0 76 14.667 110 44l23 -28c-36.667 -34.667 -78 -53.334 -124 -56.001v-57c54.667 -4.66699 82 -29 82 -73z" />
    <glyph glyph-name="egrave" unicode="&#xe8;" horiz-adv-x="481" 
d="M425 241l-319.003 0.000976562c2.66699 -73.333 17.5 -127 44.5 -161s62.833 -51 107.5 -51c25.333 0 47.5 4 66.5 12s39.167 21 60.5 39l23 -28c-22.667 -20.667 -46.167 -36.334 -70.5 -47.001s-51.166 -16 -80.499 -16c-61.333 0 -109.666 23.167 -144.999 69.5
s-53 112.5 -53 198.5c0 86.667 16.833 154.167 50.5 202.5s79.5 72.5 137.5 72.5c58.667 0 103.334 -21.833 134.001 -65.5s46 -105.167 46 -184.5c0 -14 -0.666992 -27.667 -2 -41zM381.997 297.001c0 62.667 -11.001 111.001 -33.001 145.001s-55.667 51 -101 51
c-41.333 0 -74.666 -17.333 -99.999 -52s-39.333 -89.334 -42 -164.001h276v20zM178.996 773.002l166 -99l-16 -26l-172 84z" />
    <glyph glyph-name="eacute" unicode="&#xe9;" horiz-adv-x="481" 
d="M425 241l-319.003 0.000976562c2.66699 -73.333 17.5 -127 44.5 -161s62.833 -51 107.5 -51c25.333 0 47.5 4 66.5 12s39.167 21 60.5 39l23 -28c-22.667 -20.667 -46.167 -36.334 -70.5 -47.001s-51.166 -16 -80.499 -16c-61.333 0 -109.666 23.167 -144.999 69.5
s-53 112.5 -53 198.5c0 86.667 16.833 154.167 50.5 202.5s79.5 72.5 137.5 72.5c58.667 0 103.334 -21.833 134.001 -65.5s46 -105.167 46 -184.5c0 -14 -0.666992 -27.667 -2 -41zM381.997 297.001c0 62.667 -11.001 111.001 -33.001 145.001s-55.667 51 -101 51
c-41.333 0 -74.666 -17.333 -99.999 -52s-39.333 -89.334 -42 -164.001h276v20zM312.996 773.002l21 -41l-172 -84l-15 26z" />
    <glyph glyph-name="ecircumflex" unicode="&#xea;" horiz-adv-x="481" 
d="M425 241l-319.003 0.000976562c2.66699 -73.333 17.5 -127 44.5 -161s62.833 -51 107.5 -51c25.333 0 47.5 4 66.5 12s39.167 21 60.5 39l23 -28c-22.667 -20.667 -46.167 -36.334 -70.5 -47.001s-51.166 -16 -80.499 -16c-61.333 0 -109.666 23.167 -144.999 69.5
s-53 112.5 -53 198.5c0 86.667 16.833 154.167 50.5 202.5s79.5 72.5 137.5 72.5c58.667 0 103.334 -21.833 134.001 -65.5s46 -105.167 46 -184.5c0 -14 -0.666992 -27.667 -2 -41zM381.997 297.001c0 62.667 -11.001 111.001 -33.001 145.001s-55.667 51 -101 51
c-41.333 0 -74.666 -17.333 -99.999 -52s-39.333 -89.334 -42 -164.001h276v20zM138.996 648.002l-20 22l115 105h27l115 -105l-21 -22l-108 85z" />
    <glyph glyph-name="edieresis" unicode="&#xeb;" horiz-adv-x="481" 
d="M425 241l-319.003 0.000976562c2.66699 -73.333 17.5 -127 44.5 -161s62.833 -51 107.5 -51c25.333 0 47.5 4 66.5 12s39.167 21 60.5 39l23 -28c-22.667 -20.667 -46.167 -36.334 -70.5 -47.001s-51.166 -16 -80.499 -16c-61.333 0 -109.666 23.167 -144.999 69.5
s-53 112.5 -53 198.5c0 86.667 16.833 154.167 50.5 202.5s79.5 72.5 137.5 72.5c58.667 0 103.334 -21.833 134.001 -65.5s46 -105.167 46 -184.5c0 -14 -0.666992 -27.667 -2 -41zM381.997 297.001c0 62.667 -11.001 111.001 -33.001 145.001s-55.667 51 -101 51
c-41.333 0 -74.666 -17.333 -99.999 -52s-39.333 -89.334 -42 -164.001h276v20zM187.996 722.502c6 -6.33301 9 -14.166 9 -23.499s-3 -17.166 -9 -23.499s-14 -9.5 -24 -9.5c-9.33301 0 -17 3.16699 -23 9.5s-9 14.166 -9 23.499s3 17.166 9 23.499s13.667 9.5 23 9.5
c10 0 18 -3.16699 24 -9.5zM352.996 722.502c6 -6.33301 9 -14.166 9 -23.499s-3 -17.166 -9 -23.499s-13.667 -9.5 -23 -9.5s-17.166 3.16699 -23.499 9.5s-9.5 14.166 -9.5 23.499s3.16699 17.166 9.5 23.499s14.166 9.5 23.499 9.5s17 -3.16699 23 -9.5z" />
    <glyph glyph-name="igrave" unicode="&#xec;" horiz-adv-x="241" 
d="M143 522v-522h-45v522h45zM51 773l166 -99l-16 -26l-172 84z" />
    <glyph glyph-name="iacute" unicode="&#xed;" horiz-adv-x="241" 
d="M143 522v-522h-45v522h45zM185 773l21 -41l-172 -84l-15 26z" />
    <glyph glyph-name="icircumflex" unicode="&#xee;" horiz-adv-x="241" 
d="M143 522v-522h-45v522h45zM11 648l-20 22l115 105h27l115 -105l-21 -22l-108 85z" />
    <glyph glyph-name="idieresis" unicode="&#xef;" horiz-adv-x="241" 
d="M143 522v-522h-45v522h45zM60 722.5c6 -6.33301 9 -14.166 9 -23.499s-3 -17.166 -9 -23.499s-14 -9.5 -24 -9.5c-9.33301 0 -17 3.16699 -23 9.5s-9 14.166 -9 23.499s3 17.166 9 23.499s13.667 9.5 23 9.5c10 0 18 -3.16699 24 -9.5zM225 722.5
c6 -6.33301 9 -14.166 9 -23.499s-3 -17.166 -9 -23.499s-13.667 -9.5 -23 -9.5s-17.166 3.16699 -23.499 9.5s-9.5 14.166 -9.5 23.499s3.16699 17.166 9.5 23.499s14.166 9.5 23.499 9.5s17 -3.16699 23 -9.5z" />
    <glyph glyph-name="eth" unicode="&#xf0;" horiz-adv-x="498" 
d="M398 511.5c24 -59.667 35.998 -134.829 35.998 -225.496c0 -96.667 -17 -170.334 -51 -221.001s-80 -76 -138 -76c-57.333 0 -102.666 21.667 -135.999 65s-50 102.666 -50 177.999c0 42 6.83301 80.833 20.5 116.5s33.834 64.167 60.501 85.5s58 32 94 32
c30.667 0 58 -6.83301 82 -20.5s46.333 -34.167 67 -61.5c-6 53.333 -18.667 100.166 -38 140.499s-47.333 77.166 -84 110.499l-72 -79l-33 14l77 86c-36.667 24 -74.667 40.333 -114 49l10 37c41.333 -9.33301 84.333 -28.333 129 -57l63 71l28 -22l-62 -71
c50 -41.333 87 -91.833 111 -151.5zM350.498 94.5049c25 44.333 37.5 108.833 37.5 193.5l-1 44c-42.667 63.333 -92 95 -148 95c-42.667 0 -75.5 -18.167 -98.5 -54.5s-34.5 -83.5 -34.5 -141.5c0 -64.667 12.167 -114.667 36.5 -150s58.5 -53 102.5 -53
c45.333 0 80.5 22.167 105.5 66.5z" />
    <glyph glyph-name="ntilde" unicode="&#xf1;" horiz-adv-x="525" 
d="M399 491.5c22 -27 33 -65.167 33 -114.5v-377h-45v371c0 82 -30.333 123 -91 123c-30.667 0 -58.5 -10 -83.5 -30s-48.167 -48.333 -69.5 -85v-379h-45v522h39l4 -94c43.333 69.333 97.333 104 162 104c42 0 74 -13.5 96 -40.5zM290 677.5
c-9.33301 4.33301 -20.001 10.499 -32.001 18.499c-9.33301 6.66699 -17.333 11.5 -24 14.5s-13 4.5 -19 4.5c-10 0 -19 -3 -27 -9s-16.333 -15.667 -25 -29l-27 15c22 39.333 48 59 78 59c9.33301 0 18.333 -2 27 -6s18.667 -9.66699 30 -17s20.5 -12.666 27.5 -15.999
s14.167 -5 21.5 -5c9.33301 0 17.833 3.33301 25.5 10s16.167 17.667 25.5 33l28 -14c-20 -43.333 -46 -65 -78 -65c-11.333 0 -21.666 2.16699 -30.999 6.5z" />
    <glyph glyph-name="ograve" unicode="&#xf2;" horiz-adv-x="511" 
d="M400.5 463.5c34.333 -45.667 51.5 -112.5 51.5 -200.5c0 -87.333 -17.5 -154.833 -52.5 -202.5s-83.167 -71.5 -144.5 -71.5s-109.333 23.833 -144 71.5s-52 114.167 -52 199.5c0 86.667 17.667 153.667 53 201s83.333 71 144 71c62 0 110.167 -22.833 144.5 -68.5z
M145.5 435c-26.333 -38.667 -39.501 -97 -39.501 -175c0 -76 13 -133.5 39 -172.5s62.667 -58.5 110 -58.5c48 0 85 19.5 111 58.5s39 97.5 39 175.5c0 76.667 -12.833 134.167 -38.5 172.5s-62.5 57.5 -110.5 57.5c-47.333 0 -84.166 -19.333 -110.499 -58zM186.999 773
l166 -99l-16 -26l-172 84z" />
    <glyph glyph-name="oacute" unicode="&#xf3;" horiz-adv-x="511" 
d="M400.5 463.5c34.333 -45.667 51.5 -112.5 51.5 -200.5c0 -87.333 -17.5 -154.833 -52.5 -202.5s-83.167 -71.5 -144.5 -71.5s-109.333 23.833 -144 71.5s-52 114.167 -52 199.5c0 86.667 17.667 153.667 53 201s83.333 71 144 71c62 0 110.167 -22.833 144.5 -68.5z
M145.5 435c-26.333 -38.667 -39.501 -97 -39.501 -175c0 -76 13 -133.5 39 -172.5s62.667 -58.5 110 -58.5c48 0 85 19.5 111 58.5s39 97.5 39 175.5c0 76.667 -12.833 134.167 -38.5 172.5s-62.5 57.5 -110.5 57.5c-47.333 0 -84.166 -19.333 -110.499 -58zM320.999 773
l21 -41l-172 -84l-15 26z" />
    <glyph glyph-name="ocircumflex" unicode="&#xf4;" horiz-adv-x="511" 
d="M400.5 463.5c34.333 -45.667 51.5 -112.5 51.5 -200.5c0 -87.333 -17.5 -154.833 -52.5 -202.5s-83.167 -71.5 -144.5 -71.5s-109.333 23.833 -144 71.5s-52 114.167 -52 199.5c0 86.667 17.667 153.667 53 201s83.333 71 144 71c62 0 110.167 -22.833 144.5 -68.5z
M145.5 435c-26.333 -38.667 -39.501 -97 -39.501 -175c0 -76 13 -133.5 39 -172.5s62.667 -58.5 110 -58.5c48 0 85 19.5 111 58.5s39 97.5 39 175.5c0 76.667 -12.833 134.167 -38.5 172.5s-62.5 57.5 -110.5 57.5c-47.333 0 -84.166 -19.333 -110.499 -58zM146.999 648
l-20 22l115 105h27l115 -105l-21 -22l-108 85z" />
    <glyph glyph-name="otilde" unicode="&#xf5;" horiz-adv-x="511" 
d="M400.5 463.5c34.333 -45.667 51.5 -112.5 51.5 -200.5c0 -87.333 -17.5 -154.833 -52.5 -202.5s-83.167 -71.5 -144.5 -71.5s-109.333 23.833 -144 71.5s-52 114.167 -52 199.5c0 86.667 17.667 153.667 53 201s83.333 71 144 71c62 0 110.167 -22.833 144.5 -68.5z
M145.5 435c-26.333 -38.667 -39.501 -97 -39.501 -175c0 -76 13 -133.5 39 -172.5s62.667 -58.5 110 -58.5c48 0 85 19.5 111 58.5s39 97.5 39 175.5c0 76.667 -12.833 134.167 -38.5 172.5s-62.5 57.5 -110.5 57.5c-47.333 0 -84.166 -19.333 -110.499 -58zM277.999 677.5
c-9.33301 4.33301 -20.001 10.499 -32.001 18.499c-9.33301 6.66699 -17.333 11.5 -24 14.5s-13 4.5 -19 4.5c-10 0 -19 -3 -27 -9s-16.333 -15.667 -25 -29l-27 15c22 39.333 48 59 78 59c9.33301 0 18.333 -2 27 -6s18.667 -9.66699 30 -17s20.5 -12.666 27.5 -15.999
s14.167 -5 21.5 -5c9.33301 0 17.833 3.33301 25.5 10s16.167 17.667 25.5 33l28 -14c-20 -43.333 -46 -65 -78 -65c-11.333 0 -21.666 2.16699 -30.999 6.5z" />
    <glyph glyph-name="odieresis" unicode="&#xf6;" horiz-adv-x="511" 
d="M400.5 463.5c34.333 -45.667 51.5 -112.5 51.5 -200.5c0 -87.333 -17.5 -154.833 -52.5 -202.5s-83.167 -71.5 -144.5 -71.5s-109.333 23.833 -144 71.5s-52 114.167 -52 199.5c0 86.667 17.667 153.667 53 201s83.333 71 144 71c62 0 110.167 -22.833 144.5 -68.5z
M145.5 435c-26.333 -38.667 -39.501 -97 -39.501 -175c0 -76 13 -133.5 39 -172.5s62.667 -58.5 110 -58.5c48 0 85 19.5 111 58.5s39 97.5 39 175.5c0 76.667 -12.833 134.167 -38.5 172.5s-62.5 57.5 -110.5 57.5c-47.333 0 -84.166 -19.333 -110.499 -58zM195.999 722.5
c6 -6.33301 9 -14.166 9 -23.499s-3 -17.166 -9 -23.499s-14 -9.5 -24 -9.5c-9.33301 0 -17 3.16699 -23 9.5s-9 14.166 -9 23.499s3 17.166 9 23.499s13.667 9.5 23 9.5c10 0 18 -3.16699 24 -9.5zM360.999 722.5c6 -6.33301 9 -14.166 9 -23.499s-3 -17.166 -9 -23.499
s-13.667 -9.5 -23 -9.5s-17.166 3.16699 -23.499 9.5s-9.5 14.166 -9.5 23.499s3.16699 17.166 9.5 23.499s14.166 9.5 23.499 9.5s17 -3.16699 23 -9.5z" />
    <glyph glyph-name="divide" unicode="&#xf7;" horiz-adv-x="442" 
d="M249 142.5c7.33301 -7.66699 11 -16.834 11 -27.501s-3.66699 -19.834 -11 -27.501s-16.666 -11.5 -27.999 -11.5s-20.666 3.83301 -27.999 11.5s-11 16.834 -11 27.501s3.66699 19.834 11 27.501s16.666 11.5 27.999 11.5s20.666 -3.83301 27.999 -11.5zM249 572.5
c7.33301 -7.66699 11 -16.834 11 -27.501s-3.66699 -19.834 -11 -27.501s-16.666 -11.5 -27.999 -11.5s-20.666 3.83301 -27.999 11.5s-11 16.834 -11 27.501s3.66699 19.834 11 27.501s16.666 11.5 27.999 11.5s20.666 -3.83301 27.999 -11.5zM64 311v40h315v-40h-315z" />
    <glyph glyph-name="oslash" unicode="&#xf8;" horiz-adv-x="511" 
d="M426 417c17.333 -41.333 25.999 -92.667 25.999 -154c0 -87.333 -17.5 -154.833 -52.5 -202.5s-83.167 -71.5 -144.5 -71.5c-19.333 0 -38.666 2.66699 -57.999 8l-37 -120l-38 11l40 125c-33.333 19.333 -58.833 50.166 -76.5 92.499s-26.5 93.833 -26.5 154.5
c0 86.667 17.667 153.667 53 201s83.333 71 144 71c20 0 39.667 -2.66699 59 -8l37 121l37 -10l-38 -127c32.667 -19.333 57.667 -49.666 75 -90.999zM176.999 50.999l127.999 435c-14 4.66699 -30.333 7 -49 7c-47.333 0 -84.166 -19.333 -110.499 -58
s-39.5 -97 -39.5 -175c0 -106 23.667 -175.667 71 -209zM365.998 86.499c26 39 39 97.833 39 176.5c0 104.667 -23.333 173.667 -70 207l-128 -435c14 -4.66699 30 -7 48 -7c48 0 85 19.5 111 58.5z" />
    <glyph glyph-name="ugrave" unicode="&#xf9;" horiz-adv-x="521" 
d="M423 0h-38.999l-2 94c-38 -70 -89.333 -105 -154 -105c-42.667 0 -75.834 13.333 -99.501 40s-35.5 63.667 -35.5 111v382h45v-378c0 -77.333 32.333 -116 97 -116c30.667 0 57.5 9.83301 80.5 29.5s43.833 47.5 62.5 83.5v381h45v-522zM189.001 773l166 -99l-16 -26
l-172 84z" />
    <glyph glyph-name="uacute" unicode="&#xfa;" horiz-adv-x="521" 
d="M423 0h-38.999l-2 94c-38 -70 -89.333 -105 -154 -105c-42.667 0 -75.834 13.333 -99.501 40s-35.5 63.667 -35.5 111v382h45v-378c0 -77.333 32.333 -116 97 -116c30.667 0 57.5 9.83301 80.5 29.5s43.833 47.5 62.5 83.5v381h45v-522zM323.001 773l21 -41l-172 -84
l-15 26z" />
    <glyph glyph-name="ucircumflex" unicode="&#xfb;" horiz-adv-x="521" 
d="M423 0h-38.999l-2 94c-38 -70 -89.333 -105 -154 -105c-42.667 0 -75.834 13.333 -99.501 40s-35.5 63.667 -35.5 111v382h45v-378c0 -77.333 32.333 -116 97 -116c30.667 0 57.5 9.83301 80.5 29.5s43.833 47.5 62.5 83.5v381h45v-522zM149.001 648l-20 22l115 105h27
l115 -105l-21 -22l-108 85z" />
    <glyph glyph-name="udieresis" unicode="&#xfc;" horiz-adv-x="521" 
d="M423 0h-38.999l-2 94c-38 -70 -89.333 -105 -154 -105c-42.667 0 -75.834 13.333 -99.501 40s-35.5 63.667 -35.5 111v382h45v-378c0 -77.333 32.333 -116 97 -116c30.667 0 57.5 9.83301 80.5 29.5s43.833 47.5 62.5 83.5v381h45v-522zM198.001 722.5
c6 -6.33301 9 -14.166 9 -23.499s-3 -17.166 -9 -23.499s-14 -9.5 -24 -9.5c-9.33301 0 -17 3.16699 -23 9.5s-9 14.166 -9 23.499s3 17.166 9 23.499s13.667 9.5 23 9.5c10 0 18 -3.16699 24 -9.5zM363.001 722.5c6 -6.33301 9 -14.166 9 -23.499s-3 -17.166 -9 -23.499
s-13.667 -9.5 -23 -9.5s-17.166 3.16699 -23.499 9.5s-9.5 14.166 -9.5 23.499s3.16699 17.166 9.5 23.499s14.166 9.5 23.499 9.5s17 -3.16699 23 -9.5z" />
    <glyph glyph-name="yacute" unicode="&#xfd;" horiz-adv-x="420" 
d="M240 -2c-12.667 -40 -26.1689 -72.668 -40.502 -98.001s-33 -46.166 -56 -62.499s-52.5 -29.166 -88.5 -38.499l-5 35c30.667 9.33301 54.834 20.666 72.501 33.999s31.834 29.833 42.501 49.5s21.667 47.167 33 82.5h-16l-165 522h48l147 -487l143 487h48z
M275.998 772.999l21 -41l-172 -84l-15 26z" />
    <glyph glyph-name="thorn" unicode="&#xfe;" horiz-adv-x="518" 
d="M413 464c29.333 -45.333 44.001 -112.001 44.001 -200.001c0 -86.667 -15.5 -154.167 -46.5 -202.5s-74.833 -72.5 -131.5 -72.5c-28.667 0 -54.5 7 -77.5 21s-42.5 32.333 -58.5 55v-259l-45 -8v937l45 6v-293c18 26.667 39 47.334 63 62.001s50.667 22 80 22
c55.333 0 97.666 -22.667 126.999 -68zM374.001 87.499c23.333 39 35 97.833 35 176.5c0 152.667 -42.667 229 -128 229c-29.333 0 -54.833 -8 -76.5 -24s-42.167 -38.667 -61.5 -68v-288c36 -56 79.333 -84 130 -84c44 0 77.667 19.5 101 58.5z" />
    <glyph glyph-name="ydieresis" unicode="&#xff;" horiz-adv-x="420" 
d="M240 -2c-12.667 -40 -26.1689 -72.668 -40.502 -98.001s-33 -46.166 -56 -62.499s-52.5 -29.166 -88.5 -38.499l-5 35c30.667 9.33301 54.834 20.666 72.501 33.999s31.834 29.833 42.501 49.5s21.667 47.167 33 82.5h-16l-165 522h48l147 -487l143 487h48z
M150.998 722.499c6 -6.33301 9 -14.166 9 -23.499s-3 -17.166 -9 -23.499s-14 -9.5 -24 -9.5c-9.33301 0 -17 3.16699 -23 9.5s-9 14.166 -9 23.499s3 17.166 9 23.499s13.667 9.5 23 9.5c10 0 18 -3.16699 24 -9.5zM315.998 722.499c6 -6.33301 9 -14.166 9 -23.499
s-3 -17.166 -9 -23.499s-13.667 -9.5 -23 -9.5s-17.166 3.16699 -23.499 9.5s-9.5 14.166 -9.5 23.499s3.16699 17.166 9.5 23.499s14.166 9.5 23.499 9.5s17 -3.16699 23 -9.5z" />
    <glyph glyph-name="Amacron" unicode="&#x100;" horiz-adv-x="514" 
d="M445 0l-56 193h-266l-57 -193h-45l207 684h58l207 -684h-48zM135 233h242l-121 413zM362 806h-209v37h209v-37z" />
    <glyph glyph-name="amacron" unicode="&#x101;" horiz-adv-x="482" 
d="M394 48c6 -12 16 -20.999 30 -26.999l-10 -32c-21.333 5.33301 -37.5 15 -48.5 29s-17.5 34.333 -19.5 61c-34 -60 -83 -90 -147 -90c-45.333 0 -81 14.167 -107 42.5s-39 66.166 -39 113.499c0 53.333 17.5 94.5 52.5 123.5s83.5 43.5 145.5 43.5h89v60
c0 41.333 -8.5 71.833 -25.5 91.5s-44.833 29.5 -83.5 29.5c-38 0 -81.333 -10 -130 -30l-13 35c54 22.667 103 34 147 34c100 0 150 -52.333 150 -157v-272c0 -24.667 3 -43 9 -55zM340 127.001v150h-84c-103.333 0 -155 -43.667 -155 -131c0 -38 9.16699 -67.333 27.5 -88
s43.5 -31 75.5 -31c60 0 105.333 33.333 136 100zM339 680.001h-209v37h209v-37z" />
    <glyph glyph-name="Abreve" unicode="&#x102;" horiz-adv-x="514" 
d="M445 0l-56 193h-266l-57 -193h-45l207 684h58l207 -684h-48zM135 233h242l-121 413zM181.5 792.5c-20.333 17 -32.499 39.167 -36.499 66.5l30 7c6 -18.667 16 -33.334 30 -44.001s31.333 -16 52 -16s38.167 5.33301 52.5 16s24.166 25.334 29.499 44.001l30 -7
c-3.33301 -27.333 -15.333 -49.5 -36 -66.5s-46 -25.5 -76 -25.5s-55.167 8.5 -75.5 25.5z" />
    <glyph glyph-name="abreve" unicode="&#x103;" horiz-adv-x="482" 
d="M394 48c6 -12 16 -20.999 30 -26.999l-10 -32c-21.333 5.33301 -37.5 15 -48.5 29s-17.5 34.333 -19.5 61c-34 -60 -83 -90 -147 -90c-45.333 0 -81 14.167 -107 42.5s-39 66.166 -39 113.499c0 53.333 17.5 94.5 52.5 123.5s83.5 43.5 145.5 43.5h89v60
c0 41.333 -8.5 71.833 -25.5 91.5s-44.833 29.5 -83.5 29.5c-38 0 -81.333 -10 -130 -30l-13 35c54 22.667 103 34 147 34c100 0 150 -52.333 150 -157v-272c0 -24.667 3 -43 9 -55zM340 127.001v150h-84c-103.333 0 -155 -43.667 -155 -131c0 -38 9.16699 -67.333 27.5 -88
s43.5 -31 75.5 -31c60 0 105.333 33.333 136 100zM158.5 684.001c-20.333 18 -32.501 42.999 -36.501 74.999l31 7c10.667 -47.333 37.667 -71 81 -71c42.667 0 70 23.667 82 71l30 -7c-3.33301 -31.333 -15.166 -56.166 -35.499 -74.499s-45.833 -27.5 -76.5 -27.5
c-30 0 -55.167 9 -75.5 27z" />
    <glyph glyph-name="Aogonek" unicode="&#x104;" horiz-adv-x="514" 
d="M399 -56c-16.667 -17.333 -25 -38.668 -25 -64.001c0 -35.333 19.333 -53 58 -53c15.333 0 32.333 2 51 6l-4 -39c-18 -4 -35 -6 -51 -6c-31.333 0 -55.333 8 -72 24s-25 37.333 -25 64c0 28 9.16699 52.333 27.5 73s46.5 40.334 84.5 59.001l-54 185h-266l-57 -193h-45
l207 684h58l207 -684h-10c-39.333 -20 -67.333 -38.667 -84 -56zM135 232.998h242l-121 413z" />
    <glyph glyph-name="aogonek" unicode="&#x105;" horiz-adv-x="482" 
d="M330 -67c-16.667 -17.333 -25 -38.666 -25 -63.999c0 -35.333 19.333 -53 58 -53c14.667 0 31.667 2 51 6l-4 -39c-18 -4 -35 -6 -51 -6c-31.333 0 -55.333 8 -72 24s-25 37.333 -25 64c0 28.667 9.83301 54 29.5 76s50.167 42.333 91.5 61c-22 14 -34.333 39.667 -37 77
c-34 -60 -83 -90 -147 -90c-45.333 0 -81 14.167 -107 42.5s-39 66.166 -39 113.499c0 53.333 17.5 94.5 52.5 123.5s83.5 43.5 145.5 43.5h89v60c0 41.333 -8.5 71.833 -25.5 91.5s-44.833 29.5 -83.5 29.5c-38 0 -81.333 -10 -130 -30l-13 35c54 22.667 103 34 147 34
c100 0 150 -52.333 150 -157v-272c0 -24.667 3 -43 9 -55s16 -21 30 -27l-10 -32c-39.333 -20 -67.333 -38.667 -84 -56zM340 127v150h-84c-103.333 0 -155 -43.667 -155 -131c0 -38 9.16699 -67.333 27.5 -88s43.5 -31 75.5 -31c60 0 105.333 33.333 136 100z" />
    <glyph glyph-name="Cacute" unicode="&#x106;" horiz-adv-x="493" 
d="M395.5 679c23.667 -10 47.166 -25.334 70.499 -46.001l-26 -30c-21.333 18 -41.5 30.833 -60.5 38.5s-41.167 11.5 -66.5 11.5c-60.667 0 -109.5 -25 -146.5 -75s-55.5 -128.667 -55.5 -236c0 -104 18.333 -181.667 55 -233s85 -77 145 -77c29.333 0 54 4.66699 74 14
s40.333 23 61 41l27 -30c-46.667 -45.333 -101 -68 -163 -68c-48 0 -90.667 13.167 -128 39.5s-66.666 66 -87.999 119s-32 117.833 -32 194.5c0 78 11 143.333 33 196s51.667 91.834 89 117.501s79.333 38.5 126 38.5c33.333 0 61.833 -5 85.5 -15zM381.999 876.999l21 -42
l-174 -76l-13 28z" />
    <glyph glyph-name="cacute" unicode="&#x107;" horiz-adv-x="417" 
d="M327 520c20.667 -8 40.665 -21 59.998 -39l-23 -30c-16 14 -32.167 24.5 -48.5 31.5s-35.166 10.5 -56.499 10.5c-46.667 0 -83.667 -19.5 -111 -58.5s-41 -97.833 -41 -176.5c0 -77.333 13.5 -134.833 40.5 -172.5s63.833 -56.5 110.5 -56.5c39.333 0 76 14.667 110 44
l23 -28c-39.333 -37.333 -83.666 -56 -132.999 -56c-61.333 0 -109.833 23 -145.5 69s-53.5 112.667 -53.5 200c0 86.667 18 154 54 202s84.333 72 145 72c25.333 0 48.333 -4 69 -12zM321.998 773l21 -41l-172 -84l-15 26z" />
    <glyph glyph-name="Ccircumflex" unicode="&#x108;" horiz-adv-x="493" 
d="M395.5 679c23.667 -10 47.166 -25.334 70.499 -46.001l-26 -30c-21.333 18 -41.5 30.833 -60.5 38.5s-41.167 11.5 -66.5 11.5c-60.667 0 -109.5 -25 -146.5 -75s-55.5 -128.667 -55.5 -236c0 -104 18.333 -181.667 55 -233s85 -77 145 -77c29.333 0 54 4.66699 74 14
s40.333 23 61 41l27 -30c-46.667 -45.333 -101 -68 -163 -68c-48 0 -90.667 13.167 -128 39.5s-66.666 66 -87.999 119s-32 117.833 -32 194.5c0 78 11 143.333 33 196s51.667 91.834 89 117.501s79.333 38.5 126 38.5c33.333 0 61.833 -5 85.5 -15zM201.999 763.999l-21 23
l115 99h27l115 -99l-20 -23l-108 80z" />
    <glyph glyph-name="ccircumflex" unicode="&#x109;" horiz-adv-x="417" 
d="M327 520c20.667 -8 40.665 -21 59.998 -39l-23 -30c-16 14 -32.167 24.5 -48.5 31.5s-35.166 10.5 -56.499 10.5c-46.667 0 -83.667 -19.5 -111 -58.5s-41 -97.833 -41 -176.5c0 -77.333 13.5 -134.833 40.5 -172.5s63.833 -56.5 110.5 -56.5c39.333 0 76 14.667 110 44
l23 -28c-39.333 -37.333 -83.666 -56 -132.999 -56c-61.333 0 -109.833 23 -145.5 69s-53.5 112.667 -53.5 200c0 86.667 18 154 54 202s84.333 72 145 72c25.333 0 48.333 -4 69 -12zM147.998 648l-20 22l115 105h27l115 -105l-21 -22l-108 85z" />
    <glyph glyph-name="Cdotaccent" unicode="&#x10a;" horiz-adv-x="493" 
d="M395.5 679c23.667 -10 47.166 -25.334 70.499 -46.001l-26 -30c-21.333 18 -41.5 30.833 -60.5 38.5s-41.167 11.5 -66.5 11.5c-60.667 0 -109.5 -25 -146.5 -75s-55.5 -128.667 -55.5 -236c0 -104 18.333 -181.667 55 -233s85 -77 145 -77c29.333 0 54 4.66699 74 14
s40.333 23 61 41l27 -30c-46.667 -45.333 -101 -68 -163 -68c-48 0 -90.667 13.167 -128 39.5s-66.666 66 -87.999 119s-32 117.833 -32 194.5c0 78 11 143.333 33 196s51.667 91.834 89 117.501s79.333 38.5 126 38.5c33.333 0 61.833 -5 85.5 -15zM335.499 858.999
c6.33301 -6.66699 9.5 -14.667 9.5 -24c0 -10 -3.16699 -18.167 -9.5 -24.5s-14.833 -9.5 -25.5 -9.5c-10 0 -18.167 3.33301 -24.5 10s-9.5 14.667 -9.5 24s3.16699 17.333 9.5 24s14.5 10 24.5 10c10.667 0 19.167 -3.33301 25.5 -10z" />
    <glyph glyph-name="cdotaccent" unicode="&#x10b;" horiz-adv-x="417" 
d="M327 520c20.667 -8 40.665 -21 59.998 -39l-23 -30c-16 14 -32.167 24.5 -48.5 31.5s-35.166 10.5 -56.499 10.5c-46.667 0 -83.667 -19.5 -111 -58.5s-41 -97.833 -41 -176.5c0 -77.333 13.5 -134.833 40.5 -172.5s63.833 -56.5 110.5 -56.5c39.333 0 76 14.667 110 44
l23 -28c-39.333 -37.333 -83.666 -56 -132.999 -56c-61.333 0 -109.833 23 -145.5 69s-53.5 112.667 -53.5 200c0 86.667 18 154 54 202s84.333 72 145 72c25.333 0 48.333 -4 69 -12zM281.498 733c6.33301 -6.66699 9.5 -14.667 9.5 -24c0 -10 -3.16699 -18.167 -9.5 -24.5
s-14.833 -9.5 -25.5 -9.5c-10 0 -18.167 3.33301 -24.5 10s-9.5 14.667 -9.5 24s3.16699 17.333 9.5 24s14.5 10 24.5 10c10.667 0 19.167 -3.33301 25.5 -10z" />
    <glyph glyph-name="Ccaron" unicode="&#x10c;" horiz-adv-x="493" 
d="M395.5 679c23.667 -10 47.166 -25.334 70.499 -46.001l-26 -30c-21.333 18 -41.5 30.833 -60.5 38.5s-41.167 11.5 -66.5 11.5c-60.667 0 -109.5 -25 -146.5 -75s-55.5 -128.667 -55.5 -236c0 -104 18.333 -181.667 55 -233s85 -77 145 -77c29.333 0 54 4.66699 74 14
s40.333 23 61 41l27 -30c-46.667 -45.333 -101 -68 -163 -68c-48 0 -90.667 13.167 -128 39.5s-66.666 66 -87.999 119s-32 117.833 -32 194.5c0 78 11 143.333 33 196s51.667 91.834 89 117.501s79.333 38.5 126 38.5c33.333 0 61.833 -5 85.5 -15zM418.999 878.999l19 -22
l-115 -100h-27l-115 100l20 22l109 -80z" />
    <glyph glyph-name="ccaron" unicode="&#x10d;" horiz-adv-x="417" 
d="M327 520c20.667 -8 40.665 -21 59.998 -39l-23 -30c-16 14 -32.167 24.5 -48.5 31.5s-35.166 10.5 -56.499 10.5c-46.667 0 -83.667 -19.5 -111 -58.5s-41 -97.833 -41 -176.5c0 -77.333 13.5 -134.833 40.5 -172.5s63.833 -56.5 110.5 -56.5c39.333 0 76 14.667 110 44
l23 -28c-39.333 -37.333 -83.666 -56 -132.999 -56c-61.333 0 -109.833 23 -145.5 69s-53.5 112.667 -53.5 200c0 86.667 18 154 54 202s84.333 72 145 72c25.333 0 48.333 -4 69 -12zM364.998 762l20 -22l-115 -105h-27l-115 105l21 22l108 -85z" />
    <glyph glyph-name="Dcaron" unicode="&#x10e;" horiz-adv-x="567" 
d="M427 612c52 -48 78 -135.999 78 -263.999c0 -128.667 -26.5 -218.834 -79.5 -270.501s-117.833 -77.5 -194.5 -77.5h-129v684h122c83.333 0 151 -24 203 -72zM149 643.001v-603h84c148.667 0 223 102.667 223 308c0 80.667 -10.833 142.667 -32.5 186s-49 72.333 -82 87
s-71.167 22 -114.5 22h-78zM378 879.001l19 -22l-115 -100h-27l-115 100l20 22l109 -80z" />
    <glyph glyph-name="dcaron" unicode="&#x10f;" horiz-adv-x="525" 
d="M424 735l0.00195312 -735h-39l-4 81c-32.667 -61.333 -80.334 -92 -143.001 -92c-54.667 0 -97.834 23.833 -129.501 71.5s-47.5 113.834 -47.5 198.501c0 54.667 7.5 102.667 22.5 144s36.5 73.166 64.5 95.499s61 33.5 99 33.5c54 0 98 -23.667 132 -71v280z
M321.502 53.5c21.667 17 40.832 42.5 57.499 76.5v281c-16 25.333 -34.167 45.333 -54.5 60s-44.5 22 -72.5 22c-43.333 0 -78 -19.833 -104 -59.5s-39 -96.5 -39 -170.5c0 -76.667 11.833 -135 35.5 -175s56.5 -60 98.5 -60c30.667 0 56.834 8.5 78.501 25.5zM509 578
l33 156l-44 5l-17 -157z" />
    <glyph glyph-name="Dcroat" unicode="&#x110;" horiz-adv-x="570" 
d="M430 612c52 -48 78 -135.999 78 -263.999c0 -128.667 -26.5 -218.834 -79.5 -270.501s-117.833 -77.5 -194.5 -77.5h-129v332h-83v40h83v312h122c83.333 0 151 -24 203 -72zM459 348.001c0 80.667 -10.833 142.667 -32.5 186s-49 72.333 -82 87s-71.167 22 -114.5 22h-78
v-271h160v-40h-160v-292h84c148.667 0 223 102.667 223 308z" />
    <glyph glyph-name="dcroat" unicode="&#x111;" horiz-adv-x="527" 
d="M492 658l0.00195312 -38h-68v-620h-39l-4 81c-32.667 -61.333 -80.334 -92 -143.001 -92c-54.667 0 -97.834 23.833 -129.501 71.5s-47.5 113.834 -47.5 198.501c0 54.667 7.5 102.667 22.5 144s36.5 73.166 64.5 95.499s61 33.5 99 33.5c54 0 98 -23.667 132 -71v159
h-149v38h149v83l45 -6v-77h68zM321.502 53.5c21.667 17 40.832 42.5 57.499 76.5v281c-16 25.333 -34.167 45.333 -54.5 60s-44.5 22 -72.5 22c-43.333 0 -78 -19.833 -104 -59.5s-39 -96.5 -39 -170.5c0 -76.667 11.833 -135 35.5 -175s56.5 -60 98.5 -60
c30.667 0 56.834 8.5 78.501 25.5z" />
    <glyph glyph-name="Emacron" unicode="&#x112;" horiz-adv-x="454" 
d="M410 684l-6 -41h-255v-266h221v-40h-221v-297h266v-40h-313v684h308zM365 806h-209v37h209v-37z" />
    <glyph glyph-name="emacron" unicode="&#x113;" horiz-adv-x="481" 
d="M425 241l-319.003 0.000976562c2.66699 -73.333 17.5 -127 44.5 -161s62.833 -51 107.5 -51c25.333 0 47.5 4 66.5 12s39.167 21 60.5 39l23 -28c-22.667 -20.667 -46.167 -36.334 -70.5 -47.001s-51.166 -16 -80.499 -16c-61.333 0 -109.666 23.167 -144.999 69.5
s-53 112.5 -53 198.5c0 86.667 16.833 154.167 50.5 202.5s79.5 72.5 137.5 72.5c58.667 0 103.334 -21.833 134.001 -65.5s46 -105.167 46 -184.5c0 -14 -0.666992 -27.667 -2 -41zM381.997 297.001c0 62.667 -11.001 111.001 -33.001 145.001s-55.667 51 -101 51
c-41.333 0 -74.666 -17.333 -99.999 -52s-39.333 -89.334 -42 -164.001h276v20zM352.996 680.002h-209v37h209v-37z" />
    <glyph glyph-name="Ebreve" unicode="&#x114;" horiz-adv-x="454" 
d="M410 684l-6 -41h-255v-266h221v-40h-221v-297h266v-40h-313v684h308zM184.5 792.5c-20.333 17 -32.499 39.167 -36.499 66.5l30 7c6 -18.667 16 -33.334 30 -44.001s31.333 -16 52 -16s38.167 5.33301 52.5 16s24.166 25.334 29.499 44.001l30 -7
c-3.33301 -27.333 -15.333 -49.5 -36 -66.5s-46 -25.5 -76 -25.5s-55.167 8.5 -75.5 25.5z" />
    <glyph glyph-name="ebreve" unicode="&#x115;" horiz-adv-x="481" 
d="M425 241l-319.003 0.000976562c2.66699 -73.333 17.5 -127 44.5 -161s62.833 -51 107.5 -51c25.333 0 47.5 4 66.5 12s39.167 21 60.5 39l23 -28c-22.667 -20.667 -46.167 -36.334 -70.5 -47.001s-51.166 -16 -80.499 -16c-61.333 0 -109.666 23.167 -144.999 69.5
s-53 112.5 -53 198.5c0 86.667 16.833 154.167 50.5 202.5s79.5 72.5 137.5 72.5c58.667 0 103.334 -21.833 134.001 -65.5s46 -105.167 46 -184.5c0 -14 -0.666992 -27.667 -2 -41zM381.997 297.001c0 62.667 -11.001 111.001 -33.001 145.001s-55.667 51 -101 51
c-41.333 0 -74.666 -17.333 -99.999 -52s-39.333 -89.334 -42 -164.001h276v20zM172.496 684.002c-20.333 18 -32.501 42.999 -36.501 74.999l31 7c10.667 -47.333 37.667 -71 81 -71c42.667 0 70 23.667 82 71l30 -7c-3.33301 -31.333 -15.166 -56.166 -35.499 -74.499
s-45.833 -27.5 -76.5 -27.5c-30 0 -55.167 9 -75.5 27z" />
    <glyph glyph-name="Edotaccent" unicode="&#x116;" horiz-adv-x="454" 
d="M410 684l-6 -41h-255v-266h221v-40h-221v-297h266v-40h-313v684h308zM285.5 859c6.33301 -6.66699 9.5 -14.667 9.5 -24c0 -10 -3.16699 -18.167 -9.5 -24.5s-14.833 -9.5 -25.5 -9.5c-10 0 -18.167 3.33301 -24.5 10s-9.5 14.667 -9.5 24s3.16699 17.333 9.5 24
s14.5 10 24.5 10c10.667 0 19.167 -3.33301 25.5 -10z" />
    <glyph glyph-name="edotaccent" unicode="&#x117;" horiz-adv-x="481" 
d="M425 241l-319.003 0.000976562c2.66699 -73.333 17.5 -127 44.5 -161s62.833 -51 107.5 -51c25.333 0 47.5 4 66.5 12s39.167 21 60.5 39l23 -28c-22.667 -20.667 -46.167 -36.334 -70.5 -47.001s-51.166 -16 -80.499 -16c-61.333 0 -109.666 23.167 -144.999 69.5
s-53 112.5 -53 198.5c0 86.667 16.833 154.167 50.5 202.5s79.5 72.5 137.5 72.5c58.667 0 103.334 -21.833 134.001 -65.5s46 -105.167 46 -184.5c0 -14 -0.666992 -27.667 -2 -41zM381.997 297.001c0 62.667 -11.001 111.001 -33.001 145.001s-55.667 51 -101 51
c-41.333 0 -74.666 -17.333 -99.999 -52s-39.333 -89.334 -42 -164.001h276v20zM272.496 733.002c6.33301 -6.66699 9.5 -14.667 9.5 -24c0 -10 -3.16699 -18.167 -9.5 -24.5s-14.833 -9.5 -25.5 -9.5c-10 0 -18.167 3.33301 -24.5 10s-9.5 14.667 -9.5 24
s3.16699 17.333 9.5 24s14.5 10 24.5 10c10.667 0 19.167 -3.33301 25.5 -10z" />
    <glyph glyph-name="Eogonek" unicode="&#x118;" horiz-adv-x="454" 
d="M415 40v-40.001h-26c-39.333 -20 -67.333 -38.667 -84 -56s-25 -38.666 -25 -63.999c0 -35.333 19.333 -53 58 -53c15.333 0 32.333 2 51 6l-4 -39c-18 -4 -35 -6 -51 -6c-31.333 0 -55.333 8 -72 24s-25 37.333 -25 64c0 25.333 7.83301 48 23.5 68s39.5 38.667 71.5 56
h-230v684h308l-6 -41h-255v-266h221v-40h-221v-297h266z" />
    <glyph glyph-name="eogonek" unicode="&#x119;" horiz-adv-x="481" 
d="M425 241l-319.001 0.00195312c2.66699 -73.333 17.5 -127 44.5 -161s62.833 -51 107.5 -51c25.333 0 47.5 4 66.5 12s39.167 21 60.5 39l23 -28c-24.667 -22.667 -50.667 -39.334 -78 -50.001c-37.333 -19.333 -64 -37.5 -80 -54.5s-24 -37.5 -24 -61.5
c0 -16.667 5.16699 -29.834 15.5 -39.501s25.166 -14.5 44.499 -14.5c14.667 0 31.334 2.33301 50.001 7l-4 -40c-18 -4 -35.333 -6 -52 -6c-30.667 0 -54.334 8.16699 -71.001 24.5s-25 37.5 -25 63.5c0 44 24.667 80 74 108h-1c-61.333 0 -109.666 23.167 -144.999 69.5
s-53 112.5 -53 198.5c0 86.667 16.833 154.167 50.5 202.5s79.5 72.5 137.5 72.5c58.667 0 103.334 -21.833 134.001 -65.5s46 -105.167 46 -184.5c0 -14 -0.666992 -27.667 -2 -41zM381.999 297.002c0 62.667 -11.001 111.001 -33.001 145.001s-55.667 51 -101 51
c-41.333 0 -74.666 -17.333 -99.999 -52s-39.333 -89.334 -42 -164.001h276v20z" />
    <glyph glyph-name="Ecaron" unicode="&#x11a;" horiz-adv-x="454" 
d="M410 684l-6 -41h-255v-266h221v-40h-221v-297h266v-40h-313v684h308zM369 879l19 -22l-115 -100h-27l-115 100l20 22l109 -80z" />
    <glyph glyph-name="ecaron" unicode="&#x11b;" horiz-adv-x="481" 
d="M425 241l-319.003 0.000976562c2.66699 -73.333 17.5 -127 44.5 -161s62.833 -51 107.5 -51c25.333 0 47.5 4 66.5 12s39.167 21 60.5 39l23 -28c-22.667 -20.667 -46.167 -36.334 -70.5 -47.001s-51.166 -16 -80.499 -16c-61.333 0 -109.666 23.167 -144.999 69.5
s-53 112.5 -53 198.5c0 86.667 16.833 154.167 50.5 202.5s79.5 72.5 137.5 72.5c58.667 0 103.334 -21.833 134.001 -65.5s46 -105.167 46 -184.5c0 -14 -0.666992 -27.667 -2 -41zM381.997 297.001c0 62.667 -11.001 111.001 -33.001 145.001s-55.667 51 -101 51
c-41.333 0 -74.666 -17.333 -99.999 -52s-39.333 -89.334 -42 -164.001h276v20zM355.996 762.002l20 -22l-115 -105h-27l-115 105l21 22l108 -85z" />
    <glyph glyph-name="Gcircumflex" unicode="&#x11c;" horiz-adv-x="555" 
d="M405.5 678.5c25 -10.333 50.498 -26.834 76.498 -49.501l-27 -29c-22 18.667 -43.667 32.167 -65 40.5s-45.333 12.5 -72 12.5c-36.667 0 -70.667 -10 -102 -30s-56.666 -53 -75.999 -99s-29 -105.667 -29 -179c0 -107.333 18 -186.666 54 -237.999s86.333 -77 151 -77
c26 0 49.5 3 70.5 9s41.5 15.333 61.5 28v257h-123l-5 41h174v-321c-55.333 -36.667 -114.333 -55 -177 -55c-79.333 0 -141.666 29.667 -186.999 89s-68 148.333 -68 267c0 78 11.833 143.167 35.5 195.5s55 91 94 116s81.167 37.5 126.5 37.5
c33.333 0 62.5 -5.16699 87.5 -15.5zM207.998 763.999l-21 23l115 99h27l115 -99l-20 -23l-108 80z" />
    <glyph glyph-name="gcircumflex" unicode="&#x11d;" horiz-adv-x="449" 
d="M439 516c-26 -8.66699 -68.3311 -13.6689 -126.998 -15.002c52.667 -27.333 79 -76 79 -146c0 -52 -15 -93.167 -45 -123.5s-71 -45.5 -123 -45.5c-23.333 0 -43.666 3.33301 -60.999 10c-12.667 -7.33301 -22.5 -16.666 -29.5 -27.999s-10.5 -23.333 -10.5 -36
c0 -39.333 27.667 -59 83 -59h67c48 0 85.667 -11.833 113 -35.5s41 -54.5 41 -92.5c0 -46 -16.833 -82 -50.5 -108s-83.5 -39 -149.5 -39c-68.667 0 -118.167 11.667 -148.5 35s-45.5 60.333 -45.5 111h41c1.33301 -39.333 13.166 -67.166 35.499 -83.499
s61.5 -24.5 117.5 -24.5c102.667 0 154 35.333 154 106c0 29.333 -9.83301 52 -29.5 68s-47.834 24 -84.501 24h-64c-40 0 -70.5 8.16699 -91.5 24.5s-31.5 37.833 -31.5 64.5c0 34 17.333 63 52 87c-52.667 30 -79 79.333 -79 148c0 52.667 15.5 94.834 46.5 126.501
s72.5 47.5 124.5 47.5c57.333 -0.666992 98.666 1.16602 123.999 5.49902s51.333 11.833 78 22.5zM129.502 459.498c-21 -24.333 -31.5 -58.168 -31.5 -101.501s11.167 -77 33.5 -101s52.5 -36 90.5 -36c40 0 70.5 11.333 91.5 34s31.5 56.334 31.5 101.001
c0 43.333 -10.167 77.5 -30.5 102.5s-50.833 37.5 -91.5 37.5c-41.333 0 -72.5 -12.167 -93.5 -36.5zM116.002 647.996l-20 22l115 105h27l115 -105l-21 -22l-108 85z" />
    <glyph glyph-name="Gbreve" unicode="&#x11e;" horiz-adv-x="555" 
d="M405.5 678.5c25 -10.333 50.498 -26.834 76.498 -49.501l-27 -29c-22 18.667 -43.667 32.167 -65 40.5s-45.333 12.5 -72 12.5c-36.667 0 -70.667 -10 -102 -30s-56.666 -53 -75.999 -99s-29 -105.667 -29 -179c0 -107.333 18 -186.666 54 -237.999s86.333 -77 151 -77
c26 0 49.5 3 70.5 9s41.5 15.333 61.5 28v257h-123l-5 41h174v-321c-55.333 -36.667 -114.333 -55 -177 -55c-79.333 0 -141.666 29.667 -186.999 89s-68 148.333 -68 267c0 78 11.833 143.167 35.5 195.5s55 91 94 116s81.167 37.5 126.5 37.5
c33.333 0 62.5 -5.16699 87.5 -15.5zM240.498 792.499c-20.333 17 -32.499 39.167 -36.499 66.5l30 7c6 -18.667 16 -33.334 30 -44.001s31.333 -16 52 -16s38.167 5.33301 52.5 16s24.166 25.334 29.499 44.001l30 -7c-3.33301 -27.333 -15.333 -49.5 -36 -66.5
s-46 -25.5 -76 -25.5s-55.167 8.5 -75.5 25.5z" />
    <glyph glyph-name="gbreve" unicode="&#x11f;" horiz-adv-x="449" 
d="M439 516c-26 -8.66699 -68.3311 -13.6689 -126.998 -15.002c52.667 -27.333 79 -76 79 -146c0 -52 -15 -93.167 -45 -123.5s-71 -45.5 -123 -45.5c-23.333 0 -43.666 3.33301 -60.999 10c-12.667 -7.33301 -22.5 -16.666 -29.5 -27.999s-10.5 -23.333 -10.5 -36
c0 -39.333 27.667 -59 83 -59h67c48 0 85.667 -11.833 113 -35.5s41 -54.5 41 -92.5c0 -46 -16.833 -82 -50.5 -108s-83.5 -39 -149.5 -39c-68.667 0 -118.167 11.667 -148.5 35s-45.5 60.333 -45.5 111h41c1.33301 -39.333 13.166 -67.166 35.499 -83.499
s61.5 -24.5 117.5 -24.5c102.667 0 154 35.333 154 106c0 29.333 -9.83301 52 -29.5 68s-47.834 24 -84.501 24h-64c-40 0 -70.5 8.16699 -91.5 24.5s-31.5 37.833 -31.5 64.5c0 34 17.333 63 52 87c-52.667 30 -79 79.333 -79 148c0 52.667 15.5 94.834 46.5 126.501
s72.5 47.5 124.5 47.5c57.333 -0.666992 98.666 1.16602 123.999 5.49902s51.333 11.833 78 22.5zM129.502 459.498c-21 -24.333 -31.5 -58.168 -31.5 -101.501s11.167 -77 33.5 -101s52.5 -36 90.5 -36c40 0 70.5 11.333 91.5 34s31.5 56.334 31.5 101.001
c0 43.333 -10.167 77.5 -30.5 102.5s-50.833 37.5 -91.5 37.5c-41.333 0 -72.5 -12.167 -93.5 -36.5zM149.502 683.996c-20.333 18 -32.501 42.999 -36.501 74.999l31 7c10.667 -47.333 37.667 -71 81 -71c42.667 0 70 23.667 82 71l30 -7
c-3.33301 -31.333 -15.166 -56.166 -35.499 -74.499s-45.833 -27.5 -76.5 -27.5c-30 0 -55.167 9 -75.5 27z" />
    <glyph glyph-name="Gdotaccent" unicode="&#x120;" horiz-adv-x="555" 
d="M405.5 678.5c25 -10.333 50.498 -26.834 76.498 -49.501l-27 -29c-22 18.667 -43.667 32.167 -65 40.5s-45.333 12.5 -72 12.5c-36.667 0 -70.667 -10 -102 -30s-56.666 -53 -75.999 -99s-29 -105.667 -29 -179c0 -107.333 18 -186.666 54 -237.999s86.333 -77 151 -77
c26 0 49.5 3 70.5 9s41.5 15.333 61.5 28v257h-123l-5 41h174v-321c-55.333 -36.667 -114.333 -55 -177 -55c-79.333 0 -141.666 29.667 -186.999 89s-68 148.333 -68 267c0 78 11.833 143.167 35.5 195.5s55 91 94 116s81.167 37.5 126.5 37.5
c33.333 0 62.5 -5.16699 87.5 -15.5zM341.498 858.999c6.33301 -6.66699 9.5 -14.667 9.5 -24c0 -10 -3.16699 -18.167 -9.5 -24.5s-14.833 -9.5 -25.5 -9.5c-10 0 -18.167 3.33301 -24.5 10s-9.5 14.667 -9.5 24s3.16699 17.333 9.5 24s14.5 10 24.5 10
c10.667 0 19.167 -3.33301 25.5 -10z" />
    <glyph glyph-name="gdotaccent" unicode="&#x121;" horiz-adv-x="449" 
d="M439 516c-26 -8.66699 -68.3311 -13.6689 -126.998 -15.002c52.667 -27.333 79 -76 79 -146c0 -52 -15 -93.167 -45 -123.5s-71 -45.5 -123 -45.5c-23.333 0 -43.666 3.33301 -60.999 10c-12.667 -7.33301 -22.5 -16.666 -29.5 -27.999s-10.5 -23.333 -10.5 -36
c0 -39.333 27.667 -59 83 -59h67c48 0 85.667 -11.833 113 -35.5s41 -54.5 41 -92.5c0 -46 -16.833 -82 -50.5 -108s-83.5 -39 -149.5 -39c-68.667 0 -118.167 11.667 -148.5 35s-45.5 60.333 -45.5 111h41c1.33301 -39.333 13.166 -67.166 35.499 -83.499
s61.5 -24.5 117.5 -24.5c102.667 0 154 35.333 154 106c0 29.333 -9.83301 52 -29.5 68s-47.834 24 -84.501 24h-64c-40 0 -70.5 8.16699 -91.5 24.5s-31.5 37.833 -31.5 64.5c0 34 17.333 63 52 87c-52.667 30 -79 79.333 -79 148c0 52.667 15.5 94.834 46.5 126.501
s72.5 47.5 124.5 47.5c57.333 -0.666992 98.666 1.16602 123.999 5.49902s51.333 11.833 78 22.5zM129.502 459.498c-21 -24.333 -31.5 -58.168 -31.5 -101.501s11.167 -77 33.5 -101s52.5 -36 90.5 -36c40 0 70.5 11.333 91.5 34s31.5 56.334 31.5 101.001
c0 43.333 -10.167 77.5 -30.5 102.5s-50.833 37.5 -91.5 37.5c-41.333 0 -72.5 -12.167 -93.5 -36.5zM249.502 732.996c6.33301 -6.66699 9.5 -14.667 9.5 -24c0 -10 -3.16699 -18.167 -9.5 -24.5s-14.833 -9.5 -25.5 -9.5c-10 0 -18.167 3.33301 -24.5 10
s-9.5 14.667 -9.5 24s3.16699 17.333 9.5 24s14.5 10 24.5 10c10.667 0 19.167 -3.33301 25.5 -10z" />
    <glyph glyph-name="Gcommaaccent" unicode="&#x122;" horiz-adv-x="555" 
d="M405.5 678.5c25 -10.333 50.498 -26.834 76.498 -49.501l-27 -29c-22 18.667 -43.667 32.167 -65 40.5s-45.333 12.5 -72 12.5c-36.667 0 -70.667 -10 -102 -30s-56.666 -53 -75.999 -99s-29 -105.667 -29 -179c0 -107.333 18 -186.666 54 -237.999s86.333 -77 151 -77
c26 0 49.5 3 70.5 9s41.5 15.333 61.5 28v257h-123l-5 41h174v-321c-55.333 -36.667 -114.333 -55 -177 -55c-79.333 0 -141.666 29.667 -186.999 89s-68 148.333 -68 267c0 78 11.833 143.167 35.5 195.5s55 91 94 116s81.167 37.5 126.5 37.5
c33.333 0 62.5 -5.16699 87.5 -15.5zM330.998 -98.501c6.66699 -7 10 -15.8311 10 -26.498c0 -7.33301 -1.66699 -15.833 -5 -25.5s-8 -21.834 -14 -36.501l-36 -86h-28l30 114c-14 7.33301 -21 18.666 -21 33.999c0 10.667 3.33301 19.5 10 26.5s15.667 10.5 27 10.5
s20.333 -3.5 27 -10.5z" />
    <glyph glyph-name="gcommaaccent" unicode="&#x123;" horiz-adv-x="449" 
d="M439 516c-26 -8.66699 -68.3311 -13.6689 -126.998 -15.002c52.667 -27.333 79 -76 79 -146c0 -52 -15 -93.167 -45 -123.5s-71 -45.5 -123 -45.5c-23.333 0 -43.666 3.33301 -60.999 10c-12.667 -7.33301 -22.5 -16.666 -29.5 -27.999s-10.5 -23.333 -10.5 -36
c0 -39.333 27.667 -59 83 -59h67c48 0 85.667 -11.833 113 -35.5s41 -54.5 41 -92.5c0 -46 -16.833 -82 -50.5 -108s-83.5 -39 -149.5 -39c-68.667 0 -118.167 11.667 -148.5 35s-45.5 60.333 -45.5 111h41c1.33301 -39.333 13.166 -67.166 35.499 -83.499
s61.5 -24.5 117.5 -24.5c102.667 0 154 35.333 154 106c0 29.333 -9.83301 52 -29.5 68s-47.834 24 -84.501 24h-64c-40 0 -70.5 8.16699 -91.5 24.5s-31.5 37.833 -31.5 64.5c0 34 17.333 63 52 87c-52.667 30 -79 79.333 -79 148c0 52.667 15.5 94.834 46.5 126.501
s72.5 47.5 124.5 47.5c57.333 -0.666992 98.666 1.16602 123.999 5.49902s51.333 11.833 78 22.5zM129.502 459.498c-21 -24.333 -31.5 -58.168 -31.5 -101.501s11.167 -77 33.5 -101s52.5 -36 90.5 -36c40 0 70.5 11.333 91.5 34s31.5 56.334 31.5 101.001
c0 43.333 -10.167 77.5 -30.5 102.5s-50.833 37.5 -91.5 37.5c-41.333 0 -72.5 -12.167 -93.5 -36.5zM196.002 601.496c-6.66699 7 -10 15.8311 -10 26.498c0 7.33301 1.66699 15.833 5 25.5s8 21.834 14 36.501l36 86h28l-30 -114c14 -7.33301 21 -18.666 21 -33.999
c0 -10.667 -3.33301 -19.5 -10 -26.5s-15.667 -10.5 -27 -10.5s-20.333 3.5 -27 10.5z" />
    <glyph glyph-name="Hcircumflex" unicode="&#x124;" horiz-adv-x="601" 
d="M452 0v340h-303v-340h-47v684h47v-304h303v304h47v-684h-47zM191 764l-21 23l115 99h27l115 -99l-20 -23l-108 80z" />
    <glyph glyph-name="hcircumflex" unicode="&#x125;" horiz-adv-x="525" 
d="M398.5 491c22.333 -27.333 33.501 -65.333 33.501 -114v-377h-45v371c0 82 -30.333 123 -91 123c-30.667 0 -58.5 -10 -83.5 -30s-48.167 -48.333 -69.5 -85v-379h-45v735l45 6v-312c21.333 32.667 44.833 58 70.5 76s55.5 27 89.5 27
c41.333 0 73.166 -13.667 95.499 -41zM158.001 815l-21 23l115 99h27l115 -99l-20 -23l-108 80z" />
    <glyph glyph-name="Hbar" unicode="&#x126;" horiz-adv-x="602" 
d="M557 551v-35h-57v-516h-47v340h-303v-340h-47v516h-58v35h58v133h47v-133h303v133h47v-133h57zM453 380v136h-303v-136h303z" />
    <glyph glyph-name="hbar" unicode="&#x127;" horiz-adv-x="530" 
d="M403.5 491c22.333 -27.333 33.501 -65.333 33.501 -114v-377h-45v371c0 82 -30.333 123 -91 123c-30.667 0 -58.5 -10 -83.5 -30s-48.167 -48.333 -69.5 -85v-379h-45v621h-69v37h69v77l45 6v-83h152v-37h-152v-192c21.333 32.667 44.833 58 70.5 76s55.5 27 89.5 27
c41.333 0 73.166 -13.667 95.499 -41z" />
    <glyph glyph-name="Itilde" unicode="&#x128;" horiz-adv-x="251" 
d="M149 684v-684h-47v684h47zM147 803.5c-9.33301 4.33301 -20.001 10.499 -32.001 18.499c-9.33301 6.66699 -17.333 11.5 -24 14.5s-13 4.5 -19 4.5c-10 0 -19 -3 -27 -9s-16.333 -15.667 -25 -29l-27 15c22 39.333 48 59 78 59c9.33301 0 18.333 -2 27 -6
s18.667 -9.66699 30 -17s20.5 -12.666 27.5 -15.999s14.167 -5 21.5 -5c9.33301 0 17.833 3.33301 25.5 10s16.167 17.667 25.5 33l28 -14c-20 -43.333 -46 -65 -78 -65c-11.333 0 -21.666 2.16699 -30.999 6.5z" />
    <glyph glyph-name="itilde" unicode="&#x129;" horiz-adv-x="241" 
d="M143 522v-522h-45v522h45zM142 677.5c-9.33301 4.33301 -20.001 10.499 -32.001 18.499c-9.33301 6.66699 -17.333 11.5 -24 14.5s-13 4.5 -19 4.5c-10 0 -19 -3 -27 -9s-16.333 -15.667 -25 -29l-27 15c22 39.333 48 59 78 59c9.33301 0 18.333 -2 27 -6
s18.667 -9.66699 30 -17s20.5 -12.666 27.5 -15.999s14.167 -5 21.5 -5c9.33301 0 17.833 3.33301 25.5 10s16.167 17.667 25.5 33l28 -14c-20 -43.333 -46 -65 -78 -65c-11.333 0 -21.666 2.16699 -30.999 6.5z" />
    <glyph glyph-name="Imacron" unicode="&#x12a;" horiz-adv-x="251" 
d="M149 684v-684h-47v684h47zM230 806h-209v37h209v-37z" />
    <glyph glyph-name="imacron" unicode="&#x12b;" horiz-adv-x="241" 
d="M143 522v-522h-45v522h45zM225 680h-209v37h209v-37z" />
    <glyph glyph-name="Ibreve" unicode="&#x12c;" horiz-adv-x="251" 
d="M149 684v-684h-47v684h47zM49.5 792.5c-20.333 17 -32.499 39.167 -36.499 66.5l30 7c6 -18.667 16 -33.334 30 -44.001s31.333 -16 52 -16s38.167 5.33301 52.5 16s24.166 25.334 29.499 44.001l30 -7c-3.33301 -27.333 -15.333 -49.5 -36 -66.5s-46 -25.5 -76 -25.5
s-55.167 8.5 -75.5 25.5z" />
    <glyph glyph-name="ibreve" unicode="&#x12d;" horiz-adv-x="241" 
d="M143 522v-522h-45v522h45zM44.5 684c-20.333 18 -32.501 42.999 -36.501 74.999l31 7c10.667 -47.333 37.667 -71 81 -71c42.667 0 70 23.667 82 71l30 -7c-3.33301 -31.333 -15.166 -56.166 -35.499 -74.499s-45.833 -27.5 -76.5 -27.5c-30 0 -55.167 9 -75.5 27z" />
    <glyph glyph-name="Iogonek" unicode="&#x12e;" horiz-adv-x="251" 
d="M149 684l-0.000976562 -684.002h-3c-39.333 -20 -67.333 -38.667 -84 -56s-25 -38.666 -25 -63.999c0 -35.333 19.333 -53 58 -53c14.667 0 31.667 2 51 6l-4 -39c-18 -4 -35 -6 -51 -6c-31.333 0 -55.333 8 -72 24s-25 37.333 -25 64c0 27.333 8.83301 51.333 26.5 72
s44.834 40.334 81.501 59.001v677h47z" />
    <glyph glyph-name="iogonek" unicode="&#x12f;" horiz-adv-x="241" 
d="M144.5 733c6.33301 -6.66699 9.5 -14.667 9.5 -24c0 -10 -3.16699 -18.167 -9.5 -24.5s-14.833 -9.5 -25.5 -9.5c-10 0 -18.167 3.33301 -24.5 10s-9.5 14.667 -9.5 24s3.16699 17.333 9.5 24s14.5 10 24.5 10c10.667 0 19.167 -3.33301 25.5 -10zM98 522
l44.999 -0.00195312v-522h-1c-39.333 -20 -67.333 -38.667 -84 -56s-25 -38.666 -25 -63.999c0 -35.333 19.333 -53 58 -53c14.667 0 31.667 2 51 6l-4 -39c-18 -4 -35 -6 -51 -6c-31.333 0 -55.333 8 -72 24s-25 37.333 -25 64c0 27.333 8.83301 51.333 26.5 72
s44.834 40.334 81.501 59.001v515z" />
    <glyph glyph-name="Idotaccent" unicode="&#x130;" horiz-adv-x="251" 
d="M149 684v-684h-47v684h47zM150.5 859c6.33301 -6.66699 9.5 -14.667 9.5 -24c0 -10 -3.16699 -18.167 -9.5 -24.5s-14.833 -9.5 -25.5 -9.5c-10 0 -18.167 3.33301 -24.5 10s-9.5 14.667 -9.5 24s3.16699 17.333 9.5 24s14.5 10 24.5 10
c10.667 0 19.167 -3.33301 25.5 -10z" />
    <glyph glyph-name="dotlessi" unicode="&#x131;" horiz-adv-x="241" 
d="M143 522v-522h-45v522h45z" />
    <glyph glyph-name="IJ" unicode="&#x132;" horiz-adv-x="509" 
d="M149 684v-684h-47v684h47zM412 90c0 -38 -4.16797 -68.832 -12.501 -92.499s-22.166 -43.834 -41.499 -60.501s-46.333 -33 -81 -49l-13 33c28 15.333 49.167 30 63.5 44s24.333 30.667 30 50s8.5 45 8.5 77v592h46v-594z" />
    <glyph glyph-name="ij" unicode="&#x133;" horiz-adv-x="482" 
d="M143 522v-522h-45v522h45zM144.5 733c6.33301 -6.66699 9.5 -14.667 9.5 -24c0 -10 -3.16699 -18.167 -9.5 -24.5s-14.833 -9.5 -25.5 -9.5c-10 0 -18.167 3.33301 -24.5 10s-9.5 14.667 -9.5 24s3.16699 17.333 9.5 24s14.5 10 24.5 10
c10.667 0 19.167 -3.33301 25.5 -10zM384 -2c0 -38.667 -4.33105 -69.999 -12.998 -93.999s-21.334 -43.5 -38.001 -58.5s-39.667 -30.167 -69 -45.5l-15 32c23.333 13.333 41.166 26.166 53.499 38.499s21.5 28.333 27.5 48s9 46.167 9 79.5v524h45v-524zM385.502 733.001
c6.33301 -6.66699 9.5 -14.667 9.5 -24c0 -10 -3.16699 -18.167 -9.5 -24.5s-14.833 -9.5 -25.5 -9.5c-10 0 -18.167 3.33301 -24.5 10s-9.5 14.667 -9.5 24s3.16699 17.333 9.5 24s14.5 10 24.5 10c10.667 0 19.167 -3.33301 25.5 -10z" />
    <glyph glyph-name="Jcircumflex" unicode="&#x134;" horiz-adv-x="258" 
d="M161 90c0 -38 -4.16797 -68.832 -12.501 -92.499s-22.166 -43.834 -41.499 -60.501s-46.333 -33 -81 -49l-13 33c28 15.333 49.167 30 63.5 44s24.333 30.667 30 50s8.5 45 8.5 77v592h46v-594zM28.999 764.001l-21 23l115 99h27l115 -99l-20 -23l-108 80z" />
    <glyph glyph-name="jcircumflex" unicode="&#x135;" horiz-adv-x="241" 
d="M143 -2c0 -38.667 -4.33105 -69.999 -12.998 -93.999s-21.334 -43.5 -38.001 -58.5s-39.667 -30.167 -69 -45.5l-15 32c23.333 13.333 41.166 26.166 53.499 38.499s21.5 28.333 27.5 48s9 46.167 9 79.5v524h45v-524zM11.002 648.001l-20 22l115 105h27l115 -105
l-21 -22l-108 85z" />
    <glyph glyph-name="Kcommaaccent" unicode="&#x136;" horiz-adv-x="488" 
d="M149 684v-684h-47v684h47zM468 684l-262 -315l278 -369h-55l-277 367l264 317h52zM300 -98.5c6.66699 -7 10 -15.8311 10 -26.498c0 -7.33301 -1.66699 -15.833 -5 -25.5s-8 -21.834 -14 -36.501l-36 -86h-28l30 114c-14 7.33301 -21 18.666 -21 33.999
c0 10.667 3.33301 19.5 10 26.5s15.667 10.5 27 10.5s20.333 -3.5 27 -10.5z" />
    <glyph glyph-name="kcommaaccent" unicode="&#x137;" horiz-adv-x="434" 
d="M143 741v-741h-45v735zM405 522l-205 -235l226 -287h-53l-225 285l205 237h52zM266 -98.5c6.66699 -7 10 -15.8311 10 -26.498c0 -7.33301 -1.66699 -15.833 -5 -25.5s-8 -21.834 -14 -36.501l-36 -86h-28l30 114c-14 7.33301 -21 18.666 -21 33.999
c0 10.667 3.33301 19.5 10 26.5s15.667 10.5 27 10.5s20.333 -3.5 27 -10.5z" />
    <glyph glyph-name="kgreenlandic" unicode="&#x138;" horiz-adv-x="434" 
d="M143 522v-522h-45v522h45zM404 522l-205 -245l226 -277h-53l-224 275l205 247h51z" />
    <glyph glyph-name="Lacute" unicode="&#x139;" horiz-adv-x="424" 
d="M149 684v-641h258l-7 -43h-298v684h47zM198 877l21 -42l-174 -76l-13 28z" />
    <glyph glyph-name="lacute" unicode="&#x13a;" horiz-adv-x="254" 
d="M114.5 11.5c-14.333 15 -21.5 36.5 -21.5 64.5v659l45 6v-663c0 -32.667 13.333 -49 40 -49c10.667 0 21.667 2.33301 33 7l12 -34c-16 -8.66699 -33 -13 -51 -13c-24 0 -43.167 7.5 -57.5 22.5zM187 928l21 -42l-174 -76l-13 28z" />
    <glyph glyph-name="Lcommaaccent" unicode="&#x13b;" horiz-adv-x="424" 
d="M149 684v-641h258l-7 -43h-298v684h47zM279 -98.5c6.66699 -7 10 -15.8311 10 -26.498c0 -7.33301 -1.66699 -15.833 -5 -25.5s-8 -21.834 -14 -36.501l-36 -86h-28l30 114c-14 7.33301 -21 18.666 -21 33.999c0 10.667 3.33301 19.5 10 26.5s15.667 10.5 27 10.5
s20.333 -3.5 27 -10.5z" />
    <glyph glyph-name="lcommaaccent" unicode="&#x13c;" horiz-adv-x="254" 
d="M114.5 11.5c-14.333 15 -21.5 36.5 -21.5 64.5v659l45 6v-663c0 -32.667 13.333 -49 40 -49c10.667 0 21.667 2.33301 33 7l12 -34c-16 -8.66699 -33 -13 -51 -13c-24 0 -43.167 7.5 -57.5 22.5zM188 -98.5c6.66699 -7 10 -15.8311 10 -26.498
c0 -7.33301 -1.66699 -15.833 -5 -25.5s-8 -21.834 -14 -36.501l-36 -86h-28l30 114c-14 7.33301 -21 18.666 -21 33.999c0 10.667 3.33301 19.5 10 26.5s15.667 10.5 27 10.5s20.333 -3.5 27 -10.5z" />
    <glyph glyph-name="Lcaron" unicode="&#x13d;" horiz-adv-x="424" 
d="M149 684v-641h258l-7 -43h-298v684h47zM236 527l33 156l-44 5l-17 -157z" />
    <glyph glyph-name="lcaron" unicode="&#x13e;" horiz-adv-x="254" 
d="M114.5 11.5c-14.333 15 -21.5 36.5 -21.5 64.5v659l45 6v-663c0 -32.667 13.333 -49 40 -49c10.667 0 21.667 2.33301 33 7l12 -34c-16 -8.66699 -33 -13 -51 -13c-24 0 -43.167 7.5 -57.5 22.5zM223 578l33 156l-44 5l-17 -157z" />
    <glyph glyph-name="Ldot" unicode="&#x13f;" horiz-adv-x="424" 
d="M149 684v-641h258l-7 -43h-298v684h47zM352.5 387c6.33301 -6.66699 9.5 -14.667 9.5 -24c0 -10 -3.16699 -18.167 -9.5 -24.5s-14.833 -9.5 -25.5 -9.5c-10 0 -18.167 3.33301 -24.5 10s-9.5 14.667 -9.5 24s3.16699 17.333 9.5 24s14.5 10 24.5 10
c10.667 0 19.167 -3.33301 25.5 -10z" />
    <glyph glyph-name="ldot" unicode="&#x140;" horiz-adv-x="264" 
d="M114.5 11.5c-14.333 15 -21.5 36.5 -21.5 64.5v659l45 6v-663c0 -32.667 13.333 -49 40 -49c10.667 0 21.667 2.33301 33 7l12 -34c-16 -8.66699 -33 -13 -51 -13c-24 0 -43.167 7.5 -57.5 22.5zM271.5 400c6.33301 -6.66699 9.5 -14.667 9.5 -24
c0 -10 -3.16699 -18.167 -9.5 -24.5s-14.833 -9.5 -25.5 -9.5c-10 0 -18.167 3.33301 -24.5 10s-9.5 14.667 -9.5 24s3.16699 17.333 9.5 24s14.5 10 24.5 10c10.667 0 19.167 -3.33301 25.5 -10z" />
    <glyph glyph-name="Lslash" unicode="&#x141;" horiz-adv-x="432" 
d="M158 43h258l-7 -43h-298v289l-60 -41l-19 32l79 53v351h47v-318l167 115l18 -32l-185 -127v-279z" />
    <glyph glyph-name="lslash" unicode="&#x142;" horiz-adv-x="268" 
d="M218 36l12 -34c-16 -8.66699 -33 -13 -51 -13c-24 0 -43.167 7.5 -57.5 22.5s-21.5 36.5 -21.5 64.5v254l-54 -36l-18 30l72 49v362l45 6v-338l89 59l17 -30l-106 -71v-283c0 -32.667 13.333 -49 40 -49c10.667 0 21.667 2.33301 33 7z" />
    <glyph glyph-name="Nacute" unicode="&#x143;" horiz-adv-x="603" 
d="M501 0h-61l-300 631c4 -57.333 6 -131.333 6 -222v-409h-44v684h60l301 -632c-4.66699 79.333 -7 146 -7 200v432h45v-684zM381 877l21 -42l-174 -76l-13 28z" />
    <glyph glyph-name="nacute" unicode="&#x144;" horiz-adv-x="525" 
d="M399 491.5c22 -27 33 -65.167 33 -114.5v-377h-45v371c0 82 -30.333 123 -91 123c-30.667 0 -58.5 -10 -83.5 -30s-48.167 -48.333 -69.5 -85v-379h-45v522h39l4 -94c43.333 69.333 97.333 104 162 104c42 0 74 -13.5 96 -40.5zM333 773l21 -41l-172 -84l-15 26z" />
    <glyph glyph-name="Ncommaaccent" unicode="&#x145;" horiz-adv-x="603" 
d="M501 0h-61l-300 631c4 -57.333 6 -131.333 6 -222v-409h-44v684h60l301 -632c-4.66699 79.333 -7 146 -7 200v432h45v-684zM327 -98.5c6.66699 -7 10 -15.8311 10 -26.498c0 -7.33301 -1.66699 -15.833 -5 -25.5s-8 -21.834 -14 -36.501l-36 -86h-28l30 114
c-14 7.33301 -21 18.666 -21 33.999c0 10.667 3.33301 19.5 10 26.5s15.667 10.5 27 10.5s20.333 -3.5 27 -10.5z" />
    <glyph glyph-name="ncommaaccent" unicode="&#x146;" horiz-adv-x="525" 
d="M399 491.5c22 -27 33 -65.167 33 -114.5v-377h-45v371c0 82 -30.333 123 -91 123c-30.667 0 -58.5 -10 -83.5 -30s-48.167 -48.333 -69.5 -85v-379h-45v522h39l4 -94c43.333 69.333 97.333 104 162 104c42 0 74 -13.5 96 -40.5zM289 -98.5
c6.66699 -7 10 -15.8311 10 -26.498c0 -7.33301 -1.66699 -15.833 -5 -25.5s-8 -21.834 -14 -36.501l-36 -86h-28l30 114c-14 7.33301 -21 18.666 -21 33.999c0 10.667 3.33301 19.5 10 26.5s15.667 10.5 27 10.5s20.333 -3.5 27 -10.5z" />
    <glyph glyph-name="Ncaron" unicode="&#x147;" horiz-adv-x="603" 
d="M501 0h-61l-300 631c4 -57.333 6 -131.333 6 -222v-409h-44v684h60l301 -632c-4.66699 79.333 -7 146 -7 200v432h45v-684zM418 879l19 -22l-115 -100h-27l-115 100l20 22l109 -80z" />
    <glyph glyph-name="ncaron" unicode="&#x148;" horiz-adv-x="525" 
d="M399 491.5c22 -27 33 -65.167 33 -114.5v-377h-45v371c0 82 -30.333 123 -91 123c-30.667 0 -58.5 -10 -83.5 -30s-48.167 -48.333 -69.5 -85v-379h-45v522h39l4 -94c43.333 69.333 97.333 104 162 104c42 0 74 -13.5 96 -40.5zM376 762l20 -22l-115 -105h-27l-115 105
l21 22l108 -85z" />
    <glyph glyph-name="napostrophe" unicode="&#x149;" horiz-adv-x="596" 
d="M117 731.5c6.66699 -7 10 -15.833 10 -26.5c0 -7.33301 -1.66699 -15.666 -5 -24.999s-5.33301 -15 -6 -17c-1.33301 -2.66699 -4 -9.33398 -8 -20.001l-31 -91h-28l25 119c-14.667 6 -22 17.333 -22 34c0 10 3.5 18.667 10.5 26s16.167 11 27.5 11s20.333 -3.5 27 -10.5
zM470 491.5c22 -27 33 -65.167 33 -114.5v-377h-45v371c0 82 -30.333 123 -91 123c-30.667 0 -58.5 -10 -83.5 -30s-48.167 -48.333 -69.5 -85v-379h-45v522h39l4 -94c43.333 69.333 97.333 104 162 104c42 0 74 -13.5 96 -40.5z" />
    <glyph glyph-name="Eng" unicode="&#x14a;" horiz-adv-x="603" 
d="M501 684v-769c0 -38 -9.66699 -67 -29 -87s-45 -30 -77 -30c-34.667 0 -64.667 10.667 -90 32l21 30c10.667 -7.33301 21 -13 31 -17s22 -6 36 -6c18.667 0 33.5 6.16699 44.5 18.5s16.5 31.833 16.5 58.5v86h-14l-300 631c4 -57.333 6 -131.333 6 -222v-409h-44v684h60
l301 -632c-4.66699 79.333 -7 146 -7 200v432h45z" />
    <glyph glyph-name="eng" unicode="&#x14b;" horiz-adv-x="525" 
d="M433 1v-87c0 -38 -9.66699 -66.833 -29 -86.5s-45 -29.5 -77 -29.5c-34.667 0 -64.667 10.667 -90 32l20 29c11.333 -7.33301 22 -13 32 -17s22 -6 36 -6c42 0 63 25.667 63 77v87h-1v371c0 82 -30.333 123 -91 123c-30.667 0 -58.5 -10 -83.5 -30
s-48.167 -48.333 -69.5 -85v-379h-45v522h39l4 -94c43.333 69.333 97.333 104 162 104c42 0 74 -13.5 96 -40.5s33 -65.167 33 -114.5v-376h1z" />
    <glyph glyph-name="Omacron" unicode="&#x14c;" horiz-adv-x="623" 
d="M493 604.5c44.667 -59.667 66.998 -147.501 66.998 -263.501c0 -113.333 -22.167 -200.333 -66.5 -261s-105.166 -91 -182.499 -91c-49.333 0 -92.833 13.333 -130.5 40s-66.834 66.334 -87.501 119.001s-31 116.667 -31 192c0 76 10.333 140.5 31 193.5
s49.834 93 87.501 120s81.167 40.5 130.5 40.5c76.667 0 137.334 -29.833 182.001 -89.5zM164.498 574.999c-35.667 -52 -53.501 -130.332 -53.501 -234.999c0 -102.667 18 -180 54 -232s84.667 -78 146 -78c64 0 113.5 25.667 148.5 77s52.5 129.333 52.5 234
c0 105.333 -17.667 183.666 -53 234.999s-84.666 77 -147.999 77c-62 0 -110.833 -26 -146.5 -78zM415.997 806h-209v37h209v-37z" />
    <glyph glyph-name="omacron" unicode="&#x14d;" horiz-adv-x="511" 
d="M400.5 463.5c34.333 -45.667 51.5 -112.5 51.5 -200.5c0 -87.333 -17.5 -154.833 -52.5 -202.5s-83.167 -71.5 -144.5 -71.5s-109.333 23.833 -144 71.5s-52 114.167 -52 199.5c0 86.667 17.667 153.667 53 201s83.333 71 144 71c62 0 110.167 -22.833 144.5 -68.5z
M145.5 435c-26.333 -38.667 -39.501 -97 -39.501 -175c0 -76 13 -133.5 39 -172.5s62.667 -58.5 110 -58.5c48 0 85 19.5 111 58.5s39 97.5 39 175.5c0 76.667 -12.833 134.167 -38.5 172.5s-62.5 57.5 -110.5 57.5c-47.333 0 -84.166 -19.333 -110.499 -58zM360.999 680
h-209v37h209v-37z" />
    <glyph glyph-name="Obreve" unicode="&#x14e;" horiz-adv-x="623" 
d="M493 604.5c44.667 -59.667 66.998 -147.501 66.998 -263.501c0 -113.333 -22.167 -200.333 -66.5 -261s-105.166 -91 -182.499 -91c-49.333 0 -92.833 13.333 -130.5 40s-66.834 66.334 -87.501 119.001s-31 116.667 -31 192c0 76 10.333 140.5 31 193.5
s49.834 93 87.501 120s81.167 40.5 130.5 40.5c76.667 0 137.334 -29.833 182.001 -89.5zM164.498 574.999c-35.667 -52 -53.501 -130.332 -53.501 -234.999c0 -102.667 18 -180 54 -232s84.667 -78 146 -78c64 0 113.5 25.667 148.5 77s52.5 129.333 52.5 234
c0 105.333 -17.667 183.666 -53 234.999s-84.666 77 -147.999 77c-62 0 -110.833 -26 -146.5 -78zM235.497 792.5c-20.333 17 -32.499 39.167 -36.499 66.5l30 7c6 -18.667 16 -33.334 30 -44.001s31.333 -16 52 -16s38.167 5.33301 52.5 16s24.166 25.334 29.499 44.001
l30 -7c-3.33301 -27.333 -15.333 -49.5 -36 -66.5s-46 -25.5 -76 -25.5s-55.167 8.5 -75.5 25.5z" />
    <glyph glyph-name="obreve" unicode="&#x14f;" horiz-adv-x="511" 
d="M400.5 463.5c34.333 -45.667 51.5 -112.5 51.5 -200.5c0 -87.333 -17.5 -154.833 -52.5 -202.5s-83.167 -71.5 -144.5 -71.5s-109.333 23.833 -144 71.5s-52 114.167 -52 199.5c0 86.667 17.667 153.667 53 201s83.333 71 144 71c62 0 110.167 -22.833 144.5 -68.5z
M145.5 435c-26.333 -38.667 -39.501 -97 -39.501 -175c0 -76 13 -133.5 39 -172.5s62.667 -58.5 110 -58.5c48 0 85 19.5 111 58.5s39 97.5 39 175.5c0 76.667 -12.833 134.167 -38.5 172.5s-62.5 57.5 -110.5 57.5c-47.333 0 -84.166 -19.333 -110.499 -58zM180.499 684
c-20.333 18 -32.501 42.999 -36.501 74.999l31 7c10.667 -47.333 37.667 -71 81 -71c42.667 0 70 23.667 82 71l30 -7c-3.33301 -31.333 -15.166 -56.166 -35.499 -74.499s-45.833 -27.5 -76.5 -27.5c-30 0 -55.167 9 -75.5 27z" />
    <glyph glyph-name="Ohungarumlaut" unicode="&#x150;" horiz-adv-x="623" 
d="M493 604.5c44.667 -59.667 66.998 -147.501 66.998 -263.501c0 -113.333 -22.167 -200.333 -66.5 -261s-105.166 -91 -182.499 -91c-49.333 0 -92.833 13.333 -130.5 40s-66.834 66.334 -87.501 119.001s-31 116.667 -31 192c0 76 10.333 140.5 31 193.5
s49.834 93 87.501 120s81.167 40.5 130.5 40.5c76.667 0 137.334 -29.833 182.001 -89.5zM164.498 574.999c-35.667 -52 -53.501 -130.332 -53.501 -234.999c0 -102.667 18 -180 54 -232s84.667 -78 146 -78c64 0 113.5 25.667 148.5 77s52.5 129.333 52.5 234
c0 105.333 -17.667 183.666 -53 234.999s-84.666 77 -147.999 77c-62 0 -110.833 -26 -146.5 -78zM407.997 929l41 -21l-81 -137l-29 14zM297.997 928l40 -21l-74 -131l-29 13z" />
    <glyph glyph-name="ohungarumlaut" unicode="&#x151;" horiz-adv-x="511" 
d="M400.5 463.5c34.333 -45.667 51.5 -112.5 51.5 -200.5c0 -87.333 -17.5 -154.833 -52.5 -202.5s-83.167 -71.5 -144.5 -71.5s-109.333 23.833 -144 71.5s-52 114.167 -52 199.5c0 86.667 17.667 153.667 53 201s83.333 71 144 71c62 0 110.167 -22.833 144.5 -68.5z
M145.5 435c-26.333 -38.667 -39.501 -97 -39.501 -175c0 -76 13 -133.5 39 -172.5s62.667 -58.5 110 -58.5c48 0 85 19.5 111 58.5s39 97.5 39 175.5c0 76.667 -12.833 134.167 -38.5 172.5s-62.5 57.5 -110.5 57.5c-47.333 0 -84.166 -19.333 -110.499 -58zM356.999 803
l41 -21l-81 -137l-29 14zM246.999 802l40 -21l-74 -131l-29 13z" />
    <glyph glyph-name="OE" unicode="&#x152;" horiz-adv-x="777" 
d="M738 0l-374 0.00195312c-20 -7.33301 -40.667 -11 -62 -11c-46.667 0 -88 13.667 -124 41s-64.333 67.333 -85 120s-31 116 -31 190s10.333 137.667 31 191s49 93.833 85 121.5s77.333 41.5 124 41.5c22.667 0 43.667 -3.33301 63 -10h367l-6 -41h-291
c32.667 -25.333 58 -60.333 76 -105s28 -98.334 30 -161.001h151v-41h-150c-0.666992 -71.333 -10.5 -131.833 -29.5 -181.5s-46.167 -87.834 -81.5 -114.501h307v-40zM135.5 169.502c16.333 -46.333 38.834 -81.167 67.501 -104.5s61.667 -35 99 -35
c60 0 107 26.667 141 80s51 132.666 51 237.999c0 99.333 -17.333 175 -52 227s-81.334 78 -140.001 78c-57.333 0 -103.5 -26.667 -138.5 -80s-52.5 -131 -52.5 -233c0 -67.333 8.16699 -124.166 24.5 -170.499z" />
    <glyph glyph-name="oe" unicode="&#x153;" horiz-adv-x="826" 
d="M770 241h-317.997c3.33301 -71.333 18.5 -124.5 45.5 -159.5s62.167 -52.5 105.5 -52.5c25.333 0 47.666 4.16699 66.999 12.5s39.666 21.5 60.999 39.5l22 -28c-22.667 -21.333 -46 -37.333 -70 -48s-51 -16 -81 -16c-41.333 0 -76.833 12.333 -106.5 37
s-52.167 59 -67.5 103c-16 -44 -38.667 -78.333 -68 -103s-64.333 -37 -105 -37c-61.333 0 -109.333 23.833 -144 71.5s-52 114.167 -52 199.5c0 86 17.667 152.833 53 200.5s83.333 71.5 144 71.5c42 0 77.5 -11.833 106.5 -35.5s51.167 -57.5 66.5 -101.5
c15.333 43.333 37 77 65 101s61.667 36 101 36c57.333 0 101.166 -22 131.499 -66s45.5 -105.333 45.5 -184c0 -14 -0.666992 -27.667 -2 -41zM728.003 297c0 62 -11.167 110.333 -33.5 145s-55.5 52 -99.5 52c-41.333 0 -75 -18 -101 -54s-40.333 -90.333 -43 -163h277v20z
M365.503 89c26.333 40 39.5 98 39.5 174c0 74.667 -13 131.667 -39 171s-62.667 59 -110 59s-84.166 -19.333 -110.499 -58s-39.5 -97 -39.5 -175c0 -76 13 -133.5 39 -172.5s62.667 -58.5 110 -58.5s84.166 20 110.499 60z" />
    <glyph glyph-name="Racute" unicode="&#x154;" horiz-adv-x="527" 
d="M443 0l-164 314l-17 -1h-113v-313h-47v684h136c150.667 0 226 -61 226 -183c0 -48 -12 -86.833 -36 -116.5s-58 -50.167 -102 -61.5l170 -323h-53zM372.5 389c28.333 24 42.502 61.333 42.502 112c0 48 -13.833 83.833 -41.5 107.5s-73.834 35.5 -138.501 35.5h-86v-291
h95c57.333 0 100.166 12 128.499 36zM332.002 877l21 -42l-174 -76l-13 28z" />
    <glyph glyph-name="racute" unicode="&#x155;" horiz-adv-x="334" 
d="M322 526l-9.00195 -40.999c-13.333 3.33301 -26.666 5 -39.999 5c-32.667 0 -59.167 -13 -79.5 -39s-37.166 -66.333 -50.499 -121v-330h-45v522h39l3 -113c13.333 41.333 31 72.166 53 92.499s49.667 30.5 83 30.5c14.667 0 30 -2 46 -6zM273.998 773.001l21 -41
l-172 -84l-15 26z" />
    <glyph glyph-name="Rcommaaccent" unicode="&#x156;" horiz-adv-x="527" 
d="M443 0l-164 314l-17 -1h-113v-313h-47v684h136c150.667 0 226 -61 226 -183c0 -48 -12 -86.833 -36 -116.5s-58 -50.167 -102 -61.5l170 -323h-53zM372.5 389c28.333 24 42.502 61.333 42.502 112c0 48 -13.833 83.833 -41.5 107.5s-73.834 35.5 -138.501 35.5h-86v-291
h95c57.333 0 100.166 12 128.499 36zM301.002 -98.5c6.66699 -7 10 -15.8311 10 -26.498c0 -7.33301 -1.66699 -15.833 -5 -25.5s-8 -21.834 -14 -36.501l-36 -86h-28l30 114c-14 7.33301 -21 18.666 -21 33.999c0 10.667 3.33301 19.5 10 26.5s15.667 10.5 27 10.5
s20.333 -3.5 27 -10.5z" />
    <glyph glyph-name="rcommaaccent" unicode="&#x157;" horiz-adv-x="334" 
d="M322 526l-9.00195 -40.999c-13.333 3.33301 -26.666 5 -39.999 5c-32.667 0 -59.167 -13 -79.5 -39s-37.166 -66.333 -50.499 -121v-330h-45v522h39l3 -113c13.333 41.333 31 72.166 53 92.499s49.667 30.5 83 30.5c14.667 0 30 -2 46 -6zM146.998 -98.499
c6.66699 -7 10 -15.8311 10 -26.498c0 -7.33301 -1.66699 -15.833 -5 -25.5s-8 -21.834 -14 -36.501l-36 -86h-28l30 114c-14 7.33301 -21 18.666 -21 33.999c0 10.667 3.33301 19.5 10 26.5s15.667 10.5 27 10.5s20.333 -3.5 27 -10.5z" />
    <glyph glyph-name="Rcaron" unicode="&#x158;" horiz-adv-x="527" 
d="M443 0l-164 314l-17 -1h-113v-313h-47v684h136c150.667 0 226 -61 226 -183c0 -48 -12 -86.833 -36 -116.5s-58 -50.167 -102 -61.5l170 -323h-53zM372.5 389c28.333 24 42.502 61.333 42.502 112c0 48 -13.833 83.833 -41.5 107.5s-73.834 35.5 -138.501 35.5h-86v-291
h95c57.333 0 100.166 12 128.499 36zM369.002 879l19 -22l-115 -100h-27l-115 100l20 22l109 -80z" />
    <glyph glyph-name="rcaron" unicode="&#x159;" horiz-adv-x="334" 
d="M322 526l-9.00195 -40.999c-13.333 3.33301 -26.666 5 -39.999 5c-32.667 0 -59.167 -13 -79.5 -39s-37.166 -66.333 -50.499 -121v-330h-45v522h39l3 -113c13.333 41.333 31 72.166 53 92.499s49.667 30.5 83 30.5c14.667 0 30 -2 46 -6zM316.998 762.001l20 -22
l-115 -105h-27l-115 105l21 22l108 -85z" />
    <glyph glyph-name="Sacute" unicode="&#x15a;" horiz-adv-x="484" 
d="M335.5 675.5c26.333 -12.333 52.1631 -30.834 77.4961 -55.501l-27 -29c-23.333 22 -46 37.833 -68 47.5s-47.667 14.5 -77 14.5c-39.333 0 -71.166 -11.333 -95.499 -34s-36.5 -52 -36.5 -88s10.667 -64.5 32 -85.5s59.333 -41.167 114 -60.5
c62 -21.333 107 -46.5 135 -75.5s42 -70.5 42 -124.5c0 -37.333 -8.33301 -70.833 -25 -100.5s-40.167 -53 -70.5 -70s-65.166 -25.5 -104.499 -25.5c-40 0 -75.667 7.33301 -107 22s-60.333 35.667 -87 63l27 28c25.333 -23.333 50.833 -41.166 76.5 -53.499
s55.5 -18.5 89.5 -18.5c46 0 83.167 14 111.5 42s42.5 65.333 42.5 112c0 28.667 -4.66699 52.5 -14 71.5s-24.666 35.5 -45.999 49.5s-51 27.667 -89 41c-63.333 22 -108.166 46.833 -134.499 74.5s-39.5 64.167 -39.5 109.5c0 30 7.5 57.5 22.5 82.5
s36.167 44.833 63.5 59.5s58.333 22 93 22c36.667 0 68.167 -6.16699 94.5 -18.5zM315.997 876.999l21 -42l-174 -76l-13 28z" />
    <glyph glyph-name="sacute" unicode="&#x15b;" horiz-adv-x="418" 
d="M288.5 518c23.667 -9.33301 46.834 -23.6689 69.501 -43.002l-23 -29c-20.667 16.667 -40.5 28.834 -59.5 36.501s-40.167 11.5 -63.5 11.5c-32.667 0 -59.167 -8.66699 -79.5 -26s-30.5 -40.666 -30.5 -69.999c0 -25.333 8.83301 -45.666 26.5 -60.999
s48.5 -30 92.5 -44c54 -17.333 92.333 -37.333 115 -60s34 -54.334 34 -95.001c0 -44.667 -15.5 -80.667 -46.5 -108s-70.5 -41 -118.5 -41c-35.333 0 -66.333 5.83301 -93 17.5s-51.334 28.167 -74.001 49.5l26 28c22 -19.333 43.667 -33.5 65 -42.5s46.333 -13.5 75 -13.5
c35.333 0 64.166 9.5 86.499 28.5s33.5 45.833 33.5 80.5c0 22 -3.66699 40 -11 54s-20 26 -38 36s-44 20.667 -78 32c-50.667 16 -86.667 34.667 -108 56s-32 49 -32 83c0 38.667 14.5 70.667 43.5 96s65.5 38 109.5 38c28.667 0 54.834 -4.66699 78.501 -14zM280 772.997
l21 -41l-172 -84l-15 26z" />
    <glyph glyph-name="Scircumflex" unicode="&#x15c;" horiz-adv-x="484" 
d="M335.5 675.5c26.333 -12.333 52.1631 -30.834 77.4961 -55.501l-27 -29c-23.333 22 -46 37.833 -68 47.5s-47.667 14.5 -77 14.5c-39.333 0 -71.166 -11.333 -95.499 -34s-36.5 -52 -36.5 -88s10.667 -64.5 32 -85.5s59.333 -41.167 114 -60.5
c62 -21.333 107 -46.5 135 -75.5s42 -70.5 42 -124.5c0 -37.333 -8.33301 -70.833 -25 -100.5s-40.167 -53 -70.5 -70s-65.166 -25.5 -104.499 -25.5c-40 0 -75.667 7.33301 -107 22s-60.333 35.667 -87 63l27 28c25.333 -23.333 50.833 -41.166 76.5 -53.499
s55.5 -18.5 89.5 -18.5c46 0 83.167 14 111.5 42s42.5 65.333 42.5 112c0 28.667 -4.66699 52.5 -14 71.5s-24.666 35.5 -45.999 49.5s-51 27.667 -89 41c-63.333 22 -108.166 46.833 -134.499 74.5s-39.5 64.167 -39.5 109.5c0 30 7.5 57.5 22.5 82.5
s36.167 44.833 63.5 59.5s58.333 22 93 22c36.667 0 68.167 -6.16699 94.5 -18.5zM135.997 763.999l-21 23l115 99h27l115 -99l-20 -23l-108 80z" />
    <glyph glyph-name="scircumflex" unicode="&#x15d;" horiz-adv-x="418" 
d="M288.5 518c23.667 -9.33301 46.834 -23.6689 69.501 -43.002l-23 -29c-20.667 16.667 -40.5 28.834 -59.5 36.501s-40.167 11.5 -63.5 11.5c-32.667 0 -59.167 -8.66699 -79.5 -26s-30.5 -40.666 -30.5 -69.999c0 -25.333 8.83301 -45.666 26.5 -60.999
s48.5 -30 92.5 -44c54 -17.333 92.333 -37.333 115 -60s34 -54.334 34 -95.001c0 -44.667 -15.5 -80.667 -46.5 -108s-70.5 -41 -118.5 -41c-35.333 0 -66.333 5.83301 -93 17.5s-51.334 28.167 -74.001 49.5l26 28c22 -19.333 43.667 -33.5 65 -42.5s46.333 -13.5 75 -13.5
c35.333 0 64.166 9.5 86.499 28.5s33.5 45.833 33.5 80.5c0 22 -3.66699 40 -11 54s-20 26 -38 36s-44 20.667 -78 32c-50.667 16 -86.667 34.667 -108 56s-32 49 -32 83c0 38.667 14.5 70.667 43.5 96s65.5 38 109.5 38c28.667 0 54.834 -4.66699 78.501 -14zM106 647.997
l-20 22l115 105h27l115 -105l-21 -22l-108 85z" />
    <glyph glyph-name="Scedilla" unicode="&#x15e;" horiz-adv-x="484" 
d="M381 49.5c-34 -36.333 -78.3369 -56.168 -133.004 -59.501v-58c54.667 -4.66699 82 -29 82 -73c0 -25.333 -8.66699 -45.166 -26 -59.499s-38.666 -21.5 -63.999 -21.5c-27.333 0 -50.666 6.66699 -69.999 20l16 29c16 -10 33.667 -15 53 -15
c14.667 0 26.834 4 36.501 12s14.5 19.667 14.5 35s-6.5 26.833 -19.5 34.5s-33.5 11.5 -61.5 11.5l6 84c-36 2.66699 -68.333 11.167 -97 25.5s-55.334 34.166 -80.001 59.499l27 28c25.333 -23.333 50.833 -41.166 76.5 -53.499s55.5 -18.5 89.5 -18.5
c46 0 83.167 14 111.5 42s42.5 65.333 42.5 112c0 28.667 -4.66699 52.5 -14 71.5s-24.666 35.5 -45.999 49.5s-51 27.667 -89 41c-63.333 22 -108.166 46.833 -134.499 74.5s-39.5 64.167 -39.5 109.5c0 30 7.5 57.5 22.5 82.5s36.167 44.833 63.5 59.5s58.333 22 93 22
c36.667 0 68.167 -6.16699 94.5 -18.5s52.166 -30.833 77.499 -55.5l-27 -29c-23.333 22 -46 37.833 -68 47.5s-47.667 14.5 -77 14.5c-39.333 0 -71.166 -11.333 -95.499 -34s-36.5 -52 -36.5 -88s10.667 -64.5 32 -85.5s59.333 -41.167 114 -60.5
c62 -21.333 107 -46.5 135 -75.5s42 -70.5 42 -124.5s-17 -99.167 -51 -135.5z" />
    <glyph glyph-name="scedilla" unicode="&#x15f;" horiz-adv-x="418" 
d="M328.5 35c-27.667 -26.667 -63.5039 -41.6709 -107.504 -45.0039v-58c54.667 -4.66699 82 -29 82 -73c0 -25.333 -8.66699 -45.166 -26 -59.499s-38.666 -21.5 -63.999 -21.5c-27.333 0 -50.666 6.66699 -69.999 20l16 29c16 -10 33.667 -15 53 -15
c14.667 0 26.834 4 36.501 12s14.5 19.667 14.5 35s-6.5 26.833 -19.5 34.5s-33.5 11.5 -61.5 11.5l6 84c-31.333 2 -58.833 8.83301 -82.5 20.5s-46.167 27.167 -67.5 46.5l26 28c22 -19.333 43.667 -33.5 65 -42.5s46.333 -13.5 75 -13.5c35.333 0 64.166 9.5 86.499 28.5
s33.5 45.833 33.5 80.5c0 22 -3.66699 40 -11 54s-20 26 -38 36s-44 20.667 -78 32c-50.667 16 -86.667 34.667 -108 56s-32 49 -32 83c0 38.667 14.5 70.667 43.5 96s65.5 38 109.5 38c28.667 0 54.834 -4.66699 78.501 -14s46.834 -23.666 69.501 -42.999l-23 -29
c-20.667 16.667 -40.5 28.834 -59.5 36.501s-40.167 11.5 -63.5 11.5c-32.667 0 -59.167 -8.66699 -79.5 -26s-30.5 -40.666 -30.5 -69.999c0 -25.333 8.83301 -45.666 26.5 -60.999s48.5 -30 92.5 -44c54 -17.333 92.333 -37.333 115 -60s34 -54.334 34 -95.001
c0 -42 -13.833 -76.333 -41.5 -103z" />
    <glyph glyph-name="Scaron" unicode="&#x160;" horiz-adv-x="484" 
d="M335.5 675.5c26.333 -12.333 52.1631 -30.834 77.4961 -55.501l-27 -29c-23.333 22 -46 37.833 -68 47.5s-47.667 14.5 -77 14.5c-39.333 0 -71.166 -11.333 -95.499 -34s-36.5 -52 -36.5 -88s10.667 -64.5 32 -85.5s59.333 -41.167 114 -60.5
c62 -21.333 107 -46.5 135 -75.5s42 -70.5 42 -124.5c0 -37.333 -8.33301 -70.833 -25 -100.5s-40.167 -53 -70.5 -70s-65.166 -25.5 -104.499 -25.5c-40 0 -75.667 7.33301 -107 22s-60.333 35.667 -87 63l27 28c25.333 -23.333 50.833 -41.166 76.5 -53.499
s55.5 -18.5 89.5 -18.5c46 0 83.167 14 111.5 42s42.5 65.333 42.5 112c0 28.667 -4.66699 52.5 -14 71.5s-24.666 35.5 -45.999 49.5s-51 27.667 -89 41c-63.333 22 -108.166 46.833 -134.499 74.5s-39.5 64.167 -39.5 109.5c0 30 7.5 57.5 22.5 82.5
s36.167 44.833 63.5 59.5s58.333 22 93 22c36.667 0 68.167 -6.16699 94.5 -18.5zM352.997 878.999l19 -22l-115 -100h-27l-115 100l20 22l109 -80z" />
    <glyph glyph-name="scaron" unicode="&#x161;" horiz-adv-x="418" 
d="M288.5 518c23.667 -9.33301 46.834 -23.6689 69.501 -43.002l-23 -29c-20.667 16.667 -40.5 28.834 -59.5 36.501s-40.167 11.5 -63.5 11.5c-32.667 0 -59.167 -8.66699 -79.5 -26s-30.5 -40.666 -30.5 -69.999c0 -25.333 8.83301 -45.666 26.5 -60.999
s48.5 -30 92.5 -44c54 -17.333 92.333 -37.333 115 -60s34 -54.334 34 -95.001c0 -44.667 -15.5 -80.667 -46.5 -108s-70.5 -41 -118.5 -41c-35.333 0 -66.333 5.83301 -93 17.5s-51.334 28.167 -74.001 49.5l26 28c22 -19.333 43.667 -33.5 65 -42.5s46.333 -13.5 75 -13.5
c35.333 0 64.166 9.5 86.499 28.5s33.5 45.833 33.5 80.5c0 22 -3.66699 40 -11 54s-20 26 -38 36s-44 20.667 -78 32c-50.667 16 -86.667 34.667 -108 56s-32 49 -32 83c0 38.667 14.5 70.667 43.5 96s65.5 38 109.5 38c28.667 0 54.834 -4.66699 78.501 -14zM323 761.997
l20 -22l-115 -105h-27l-115 105l21 22l108 -85z" />
    <glyph glyph-name="uni0162" unicode="&#x162;" horiz-adv-x="440" 
d="M243 642l-0.000976562 -626h1v-83c28 -2.66699 48.833 -10.167 62.5 -22.5s20.5 -29.166 20.5 -50.499c0 -25.333 -8.66699 -45.333 -26 -60s-39 -22 -65 -22c-26.667 0 -49.667 6.66699 -69 20l16 30c16 -10 33.333 -15 52 -15c14.667 0 26.834 4 36.501 12
s14.5 19.667 14.5 35s-6.33301 26.666 -19 33.999s-33 11 -61 11l8 95h-17v642h-184v42h418l-5 -42h-183z" />
    <glyph glyph-name="uni0163" unicode="&#x163;" horiz-adv-x="303" 
d="M297 -141c0 -25.333 -8.66992 -45.166 -26.0029 -59.499s-38.666 -21.5 -63.999 -21.5c-27.333 0 -50.666 6.66699 -69.999 20l16 29c16 -10 33.667 -15 53 -15c14.667 0 26.834 4 36.501 12s14.5 19.667 14.5 35s-6.5 26.833 -19.5 34.5s-33.5 11.5 -61.5 11.5l6 86
c-27.333 5.33301 -48.5 18.333 -63.5 39s-22.5 48 -22.5 82v372h-77v38h77v127l45 5v-132h124l-6 -38h-118v-370c0 -56.667 24 -85 72 -85c25.333 0 50 7.66699 74 23l19 -31c-28 -20.667 -58.333 -31.334 -91 -32.001v-57c54.667 -4.66699 82 -29 82 -73z" />
    <glyph glyph-name="Tcaron" unicode="&#x164;" horiz-adv-x="440" 
d="M431 684l-5 -42h-183v-642h-46v642h-184v42h418zM329 879l19 -22l-115 -100h-27l-115 100l20 22l109 -80z" />
    <glyph glyph-name="tcaron" unicode="&#x165;" horiz-adv-x="303" 
d="M247 737l-33 -156l-28 4l17 157zM306 21c-28.667 -21.333 -61 -31.999 -97 -31.999c-35.333 0 -63 10.667 -83 32s-30 51.666 -30 90.999v372h-77v38h77v127l45 5v-132h124l-6 -38h-118v-370c0 -56.667 24 -85 72 -85c25.333 0 50 7.66699 74 23z" />
    <glyph glyph-name="Tbar" unicode="&#x166;" horiz-adv-x="440" 
d="M426 641h-183v-258h112v-38h-112v-346h-46v346h-111v38h111v258h-184v42h418z" />
    <glyph glyph-name="tbar" unicode="&#x167;" horiz-adv-x="303" 
d="M306 21c-28.667 -21.333 -61 -31.999 -97 -31.999c-35.333 0 -63 10.667 -83 32s-30 51.666 -30 90.999v198h-75v37h75v137h-77v38h77v127l45 5v-132h124l-6 -38h-118v-137h115v-37h-115v-196c0 -56.667 24 -85 72 -85c25.333 0 50 7.66699 74 23z" />
    <glyph glyph-name="Utilde" unicode="&#x168;" horiz-adv-x="582" 
d="M490 192c0 -60.667 -17 -109.666 -51 -146.999s-83.333 -56 -148 -56c-65.333 0 -114.833 18.667 -148.5 56s-50.5 86.333 -50.5 147v492h47v-488c0 -52 12.5 -92.5 37.5 -121.5s63.167 -43.5 114.5 -43.5c52 0 90.333 14.667 115 44s37 69.666 37 120.999v488h47v-492z
M313 803.501c-9.33301 4.33301 -20.001 10.499 -32.001 18.499c-9.33301 6.66699 -17.333 11.5 -24 14.5s-13 4.5 -19 4.5c-10 0 -19 -3 -27 -9s-16.333 -15.667 -25 -29l-27 15c22 39.333 48 59 78 59c9.33301 0 18.333 -2 27 -6s18.667 -9.66699 30 -17
s20.5 -12.666 27.5 -15.999s14.167 -5 21.5 -5c9.33301 0 17.833 3.33301 25.5 10s16.167 17.667 25.5 33l28 -14c-20 -43.333 -46 -65 -78 -65c-11.333 0 -21.666 2.16699 -30.999 6.5z" />
    <glyph glyph-name="utilde" unicode="&#x169;" horiz-adv-x="521" 
d="M423 0h-38.999l-2 94c-38 -70 -89.333 -105 -154 -105c-42.667 0 -75.834 13.333 -99.501 40s-35.5 63.667 -35.5 111v382h45v-378c0 -77.333 32.333 -116 97 -116c30.667 0 57.5 9.83301 80.5 29.5s43.833 47.5 62.5 83.5v381h45v-522zM280.001 677.5
c-9.33301 4.33301 -20.001 10.499 -32.001 18.499c-9.33301 6.66699 -17.333 11.5 -24 14.5s-13 4.5 -19 4.5c-10 0 -19 -3 -27 -9s-16.333 -15.667 -25 -29l-27 15c22 39.333 48 59 78 59c9.33301 0 18.333 -2 27 -6s18.667 -9.66699 30 -17s20.5 -12.666 27.5 -15.999
s14.167 -5 21.5 -5c9.33301 0 17.833 3.33301 25.5 10s16.167 17.667 25.5 33l28 -14c-20 -43.333 -46 -65 -78 -65c-11.333 0 -21.666 2.16699 -30.999 6.5z" />
    <glyph glyph-name="Umacron" unicode="&#x16a;" horiz-adv-x="582" 
d="M490 192c0 -60.667 -17 -109.666 -51 -146.999s-83.333 -56 -148 -56c-65.333 0 -114.833 18.667 -148.5 56s-50.5 86.333 -50.5 147v492h47v-488c0 -52 12.5 -92.5 37.5 -121.5s63.167 -43.5 114.5 -43.5c52 0 90.333 14.667 115 44s37 69.666 37 120.999v488h47v-492z
M396 806.001h-209v37h209v-37z" />
    <glyph glyph-name="umacron" unicode="&#x16b;" horiz-adv-x="521" 
d="M423 0h-38.999l-2 94c-38 -70 -89.333 -105 -154 -105c-42.667 0 -75.834 13.333 -99.501 40s-35.5 63.667 -35.5 111v382h45v-378c0 -77.333 32.333 -116 97 -116c30.667 0 57.5 9.83301 80.5 29.5s43.833 47.5 62.5 83.5v381h45v-522zM363.001 680h-209v37h209v-37z
" />
    <glyph glyph-name="Ubreve" unicode="&#x16c;" horiz-adv-x="582" 
d="M490 192c0 -60.667 -17 -109.666 -51 -146.999s-83.333 -56 -148 -56c-65.333 0 -114.833 18.667 -148.5 56s-50.5 86.333 -50.5 147v492h47v-488c0 -52 12.5 -92.5 37.5 -121.5s63.167 -43.5 114.5 -43.5c52 0 90.333 14.667 115 44s37 69.666 37 120.999v488h47v-492z
M215.5 792.501c-20.333 17 -32.499 39.167 -36.499 66.5l30 7c6 -18.667 16 -33.334 30 -44.001s31.333 -16 52 -16s38.167 5.33301 52.5 16s24.166 25.334 29.499 44.001l30 -7c-3.33301 -27.333 -15.333 -49.5 -36 -66.5s-46 -25.5 -76 -25.5s-55.167 8.5 -75.5 25.5z" />
    <glyph glyph-name="ubreve" unicode="&#x16d;" horiz-adv-x="521" 
d="M423 0h-38.999l-2 94c-38 -70 -89.333 -105 -154 -105c-42.667 0 -75.834 13.333 -99.501 40s-35.5 63.667 -35.5 111v382h45v-378c0 -77.333 32.333 -116 97 -116c30.667 0 57.5 9.83301 80.5 29.5s43.833 47.5 62.5 83.5v381h45v-522zM182.501 684
c-20.333 18 -32.501 42.999 -36.501 74.999l31 7c10.667 -47.333 37.667 -71 81 -71c42.667 0 70 23.667 82 71l30 -7c-3.33301 -31.333 -15.166 -56.166 -35.499 -74.499s-45.833 -27.5 -76.5 -27.5c-30 0 -55.167 9 -75.5 27z" />
    <glyph glyph-name="Uring" unicode="&#x16e;" horiz-adv-x="582" 
d="M490 192c0 -60.667 -17 -109.666 -51 -146.999s-83.333 -56 -148 -56c-65.333 0 -114.833 18.667 -148.5 56s-50.5 86.333 -50.5 147v492h47v-488c0 -52 12.5 -92.5 37.5 -121.5s63.167 -43.5 114.5 -43.5c52 0 90.333 14.667 115 44s37 69.666 37 120.999v488h47v-492z
M353.5 917.001c15.667 -16 23.5 -37.667 23.5 -65c0 -28 -7.83301 -50 -23.5 -66s-36.5 -24 -62.5 -24c-25.333 0 -45.833 8 -61.5 24s-23.5 38 -23.5 66c0 27.333 7.83301 49 23.5 65s36.167 24 61.5 24c26 0 46.833 -8 62.5 -24zM241 852.001c0 -40 16.667 -60 50 -60
s50 20 50 60c0 39.333 -16.667 59 -50 59s-50 -19.667 -50 -59z" />
    <glyph glyph-name="uring" unicode="&#x16f;" horiz-adv-x="521" 
d="M423 0h-38.999l-2 94c-38 -70 -89.333 -105 -154 -105c-42.667 0 -75.834 13.333 -99.501 40s-35.5 63.667 -35.5 111v382h45v-378c0 -77.333 32.333 -116 97 -116c30.667 0 57.5 9.83301 80.5 29.5s43.833 47.5 62.5 83.5v381h45v-522zM320.501 791
c15.667 -16 23.5 -37.667 23.5 -65c0 -28 -7.83301 -50 -23.5 -66s-36.5 -24 -62.5 -24c-25.333 0 -45.833 8 -61.5 24s-23.5 38 -23.5 66c0 27.333 7.83301 49 23.5 65s36.167 24 61.5 24c26 0 46.833 -8 62.5 -24zM208.001 726c0 -40 16.667 -60 50 -60s50 20 50 60
c0 39.333 -16.667 59 -50 59s-50 -19.667 -50 -59z" />
    <glyph glyph-name="Uhungarumlaut" unicode="&#x170;" horiz-adv-x="582" 
d="M490 192c0 -60.667 -17 -109.666 -51 -146.999s-83.333 -56 -148 -56c-65.333 0 -114.833 18.667 -148.5 56s-50.5 86.333 -50.5 147v492h47v-488c0 -52 12.5 -92.5 37.5 -121.5s63.167 -43.5 114.5 -43.5c52 0 90.333 14.667 115 44s37 69.666 37 120.999v488h47v-492z
M388 929.001l41 -21l-81 -137l-29 14zM278 928.001l40 -21l-74 -131l-29 13z" />
    <glyph glyph-name="uhungarumlaut" unicode="&#x171;" horiz-adv-x="521" 
d="M423 0h-38.999l-2 94c-38 -70 -89.333 -105 -154 -105c-42.667 0 -75.834 13.333 -99.501 40s-35.5 63.667 -35.5 111v382h45v-378c0 -77.333 32.333 -116 97 -116c30.667 0 57.5 9.83301 80.5 29.5s43.833 47.5 62.5 83.5v381h45v-522zM359.001 803l41 -21l-81 -137
l-29 14zM249.001 802l40 -21l-74 -131l-29 13z" />
    <glyph glyph-name="Uogonek" unicode="&#x172;" horiz-adv-x="582" 
d="M490 684v-491.997c0 -48.667 -11.167 -90.334 -33.5 -125.001s-55.166 -58 -98.499 -70c-38 -18.667 -65 -36.667 -81 -54s-24 -38 -24 -62c0 -16.667 5.16699 -29.834 15.5 -39.501s25.166 -14.5 44.499 -14.5c14.667 0 31.334 2.33301 50.001 7l-4 -40
c-18 -4 -35.333 -6 -52 -6c-30.667 0 -54.334 8.16699 -71.001 24.5s-25 37.5 -25 63.5c0 46 28 83.667 84 113h-4c-65.333 0 -114.833 18.667 -148.5 56s-50.5 86.333 -50.5 147v492h47v-488c0 -52 12.5 -92.5 37.5 -121.5s63.167 -43.5 114.5 -43.5
c52 0 90.333 14.667 115 44s37 69.666 37 120.999v488h47z" />
    <glyph glyph-name="uogonek" unicode="&#x173;" horiz-adv-x="521" 
d="M339 -56c-16.667 -17.333 -24.999 -38.667 -24.999 -64c0 -35.333 19.333 -53 58 -53c15.333 0 32.333 2 51 6l-4 -39c-18 -4 -35 -6 -51 -6c-31.333 0 -55.333 8 -72 24s-25 37.333 -25 64c0 28 9.16699 52.5 27.5 73.5s46.833 40.833 85.5 59.5l-2 85
c-38 -70 -89.333 -105 -154 -105c-42.667 0 -75.834 13.333 -99.501 40s-35.5 63.667 -35.5 111v382h45v-378c0 -77.333 32.333 -116 97 -116c30.667 0 57.5 9.83301 80.5 29.5s43.833 47.5 62.5 83.5v381h45v-522c-39.333 -20 -67.333 -38.667 -84 -56z" />
    <glyph glyph-name="Wcircumflex" unicode="&#x174;" horiz-adv-x="730" 
d="M699 684l-138 -684h-58l-138 633l-139 -633h-58l-137 684h46l122 -639l139 639h54l140 -639l122 639h45zM257 764l-21 23l115 99h27l115 -99l-20 -23l-108 80z" />
    <glyph glyph-name="wcircumflex" unicode="&#x175;" horiz-adv-x="632" 
d="M604 522l-117 -522h-60l-110 479l-110 -479h-60l-120 522h47l104 -483l113 483h54l112 -484l103 484h44zM207 648l-20 22l115 105h27l115 -105l-21 -22l-108 85z" />
    <glyph glyph-name="Ycircumflex" unicode="&#x176;" horiz-adv-x="464" 
d="M450 684l-194 -415v-269h-46v268l-196 416h50l170 -373l167 373h49zM124 764l-21 23l115 99h27l115 -99l-20 -23l-108 80z" />
    <glyph glyph-name="ycircumflex" unicode="&#x177;" horiz-adv-x="420" 
d="M240 -2c-12.667 -40 -26.1689 -72.668 -40.502 -98.001s-33 -46.166 -56 -62.499s-52.5 -29.166 -88.5 -38.499l-5 35c30.667 9.33301 54.834 20.666 72.501 33.999s31.834 29.833 42.501 49.5s21.667 47.167 33 82.5h-16l-165 522h48l147 -487l143 487h48z
M101.998 647.999l-20 22l115 105h27l115 -105l-21 -22l-108 85z" />
    <glyph glyph-name="Ydieresis" unicode="&#x178;" horiz-adv-x="464" 
d="M450 684l-194 -415v-269h-46v268l-196 416h50l170 -373l167 373h49zM176 848.5c6 -6.33301 9 -14.166 9 -23.499s-3 -17.166 -9 -23.499s-14 -9.5 -24 -9.5c-9.33301 0 -17 3.16699 -23 9.5s-9 14.166 -9 23.499s3 17.166 9 23.499s13.667 9.5 23 9.5
c10 0 18 -3.16699 24 -9.5zM341 848.5c6 -6.33301 9 -14.166 9 -23.499s-3 -17.166 -9 -23.499s-13.667 -9.5 -23 -9.5s-17.166 3.16699 -23.499 9.5s-9.5 14.166 -9.5 23.499s3.16699 17.166 9.5 23.499s14.166 9.5 23.499 9.5s17 -3.16699 23 -9.5z" />
    <glyph glyph-name="Zacute" unicode="&#x179;" horiz-adv-x="463" 
d="M420 684v-39l-336 -603h329l-6 -42h-374v40l337 602h-303v42h353zM306 877l21 -42l-174 -76l-13 28z" />
    <glyph glyph-name="zacute" unicode="&#x17a;" horiz-adv-x="377" 
d="M346 522v-36l-270 -446h267l-5 -40h-313v36l270 446h-248v40h299zM259 773l21 -41l-172 -84l-15 26z" />
    <glyph glyph-name="Zdotaccent" unicode="&#x17b;" horiz-adv-x="463" 
d="M420 684v-39l-336 -603h329l-6 -42h-374v40l337 602h-303v42h353zM259.5 859c6.33301 -6.66699 9.5 -14.667 9.5 -24c0 -10 -3.16699 -18.167 -9.5 -24.5s-14.833 -9.5 -25.5 -9.5c-10 0 -18.167 3.33301 -24.5 10s-9.5 14.667 -9.5 24s3.16699 17.333 9.5 24
s14.5 10 24.5 10c10.667 0 19.167 -3.33301 25.5 -10z" />
    <glyph glyph-name="zdotaccent" unicode="&#x17c;" horiz-adv-x="377" 
d="M346 522v-36l-270 -446h267l-5 -40h-313v36l270 446h-248v40h299zM218.5 733c6.33301 -6.66699 9.5 -14.667 9.5 -24c0 -10 -3.16699 -18.167 -9.5 -24.5s-14.833 -9.5 -25.5 -9.5c-10 0 -18.167 3.33301 -24.5 10s-9.5 14.667 -9.5 24s3.16699 17.333 9.5 24
s14.5 10 24.5 10c10.667 0 19.167 -3.33301 25.5 -10z" />
    <glyph glyph-name="Zcaron" unicode="&#x17d;" horiz-adv-x="463" 
d="M420 684v-39l-336 -603h329l-6 -42h-374v40l337 602h-303v42h353zM343 879l19 -22l-115 -100h-27l-115 100l20 22l109 -80z" />
    <glyph glyph-name="zcaron" unicode="&#x17e;" horiz-adv-x="377" 
d="M346 522v-36l-270 -446h267l-5 -40h-313v36l270 446h-248v40h299zM302 762l20 -22l-115 -105h-27l-115 105l21 22l108 -85z" />
    <glyph glyph-name="longs" unicode="&#x17f;" horiz-adv-x="287" 
d="M338 712l-16.998 -33c-30.667 15.333 -60.334 23 -89.001 23c-56.667 0 -85 -29 -85 -87v-615h-45v484h-80v38h80v96c0 38 11.333 68 34 90s53.667 33 93 33c37.333 0 73.666 -9.66699 108.999 -29z" />
    <glyph glyph-name="uni0180" unicode="&#x180;" horiz-adv-x="523" 
d="M417.5 464c29.667 -45.333 44.5 -112 44.5 -200c0 -87.333 -15.5 -155 -46.5 -203s-74.833 -72 -131.5 -72c-28.667 0 -54.667 7.33301 -78 22s-43.333 33.667 -60 57l-4 -68h-39v620h-69v38h69v77l45 6v-83h152v-38h-152v-172c38 56 86 84 144 84
c54 0 95.833 -22.667 125.5 -68zM379 86.5c23.333 39 35.002 98.167 35.002 177.5c0 78.667 -11 136.5 -33 173.5s-54 55.5 -96 55.5c-29.333 0 -54.833 -7.83301 -76.5 -23.5s-41.834 -38.5 -60.501 -68.5v-286c35.333 -58 78.666 -87 129.999 -87
c44 0 77.667 19.5 101 58.5z" />
    <glyph glyph-name="uni0181" unicode="&#x181;" horiz-adv-x="585" 
d="M494 313c27.333 -28 40.998 -69.667 40.998 -125c0 -61.333 -19.167 -108 -57.5 -140s-92.166 -48 -161.499 -48h-165v644h-23c-24 0 -41.5 -6 -52.5 -18s-16.5 -28.333 -16.5 -49c0 -14.667 1.83301 -27.834 5.5 -39.501s8.83398 -24.167 15.501 -37.5l-33 -17
c-10.667 16.667 -18.667 31.834 -24 45.501s-8 30.167 -8 49.5c0 32 9.83301 57.667 29.5 77s48.5 29 86.5 29h152c71.333 0 126.333 -14.5 165 -43.5s58 -71.167 58 -126.5c0 -42.667 -10.667 -76.5 -32 -101.5s-51.333 -41.5 -90 -49.5c46 -5.33301 82.667 -22 110 -50z
M197.998 644v-264h121c43.333 0 77.333 11.833 102 35.5s37 55.5 37 95.5c0 88.667 -56.333 133 -169 133h-91zM442.498 76.5c29.667 24.333 44.499 61.501 44.499 111.501c0 51.333 -14.333 89.666 -43 114.999s-68.667 38 -120 38h-126v-301h118
c54.667 0 96.834 12.167 126.501 36.5z" />
    <glyph glyph-name="uni0182" unicode="&#x182;" horiz-adv-x="511" 
d="M410.5 363c38.333 -33.333 57.5 -83.333 57.5 -150c0 -72 -19.833 -125.5 -59.5 -160.5s-94.167 -52.5 -163.5 -52.5h-143v684h306l-7 -41h-252v-230h98c70.667 0 125.167 -16.667 163.5 -50zM376 81.5c28.667 27.667 43 71.833 43 132.5c0 106 -56.667 159 -170 159
h-100v-333h103c54 0 95.333 13.833 124 41.5z" />
    <glyph glyph-name="uni0183" unicode="&#x183;" horiz-adv-x="518" 
d="M412.5 464c29.667 -45.333 44.5 -112 44.5 -200c0 -87.333 -15.5 -155 -46.5 -203s-74.833 -72 -131.5 -72c-28.667 0 -54.667 7.33301 -78 22s-43.333 33.667 -60 57l-4 -68h-39v735h260l-7 -38h-208v-249c38 56 86 84 144 84c54 0 95.833 -22.667 125.5 -68zM374 86.5
c23.333 39 35.002 98.167 35.002 177.5c0 78.667 -11 136.5 -33 173.5s-54 55.5 -96 55.5c-29.333 0 -54.833 -7.83301 -76.5 -23.5s-41.834 -38.5 -60.501 -68.5v-286c35.333 -58 78.666 -87 129.999 -87c44 0 77.667 19.5 101 58.5z" />
    <glyph glyph-name="uni0184" unicode="&#x184;" horiz-adv-x="503" 
d="M410 367.5c38.667 -33.667 58.001 -84.5 58.001 -152.5c0 -73.333 -19.833 -127.5 -59.5 -162.5s-94.834 -52.5 -165.501 -52.5h-141v559l-43 32c22.667 24.667 39 55.667 49 93h40v-266h96c72 0 127.333 -16.833 166 -50.5zM375.501 82c29 28 43.5 72.667 43.5 134
c0 56 -14.667 97 -44 123s-72.333 39 -129 39h-98v-338h102c54.667 0 96.5 14 125.5 42z" />
    <glyph glyph-name="uni0185" unicode="&#x185;" horiz-adv-x="451" 
d="M417 176c0 -58 -16.5 -101.833 -49.5 -131.5s-76.833 -44.5 -131.5 -44.5h-137v407l-43 32c21.333 22 38 49.667 50 83h38v-179h83c126.667 0 190 -55.667 190 -167zM334.5 71.5c23.667 21.667 35.5 56.5 35.5 104.5c0 42.667 -10.833 74.667 -32.5 96
s-58.167 32 -109.5 32h-84v-265h87c45.333 0 79.833 10.833 103.5 32.5z" />
    <glyph glyph-name="uni0186" unicode="&#x186;" horiz-adv-x="493" 
d="M368.5 605.5c41.667 -59 62.502 -146.833 62.502 -263.5c0 -76 -10.5 -140.5 -31.5 -193.5s-49.833 -92.833 -86.5 -119.5s-78.667 -40 -126 -40c-35.333 0 -66.333 6.16699 -93 18.5s-51 28.833 -73 49.5l26 30c22.667 -18.667 44.167 -32.5 64.5 -41.5
s45.166 -13.5 74.499 -13.5c37.333 0 70.833 11 100.5 33s53.167 56.333 70.5 103s26 104.667 26 174c0 108 -16.833 186.833 -50.5 236.5s-78.834 74.5 -135.501 74.5c-28 0 -53.5 -4.16699 -76.5 -12.5s-45.833 -20.833 -68.5 -37.5l-24 30
c50.667 40.667 107.667 61 171 61c71.333 0 127.833 -29.5 169.5 -88.5z" />
    <glyph glyph-name="uni0187" unicode="&#x187;" horiz-adv-x="493" 
d="M616 789l-20 -29.001c-11.333 7.33301 -22 13 -32 17s-22 6 -36 6c-41.333 0 -62 -27 -62 -81v-69l-25 -27c-21.333 16.667 -41.833 28.667 -61.5 36s-41.834 11 -66.501 11c-60.667 0 -109.5 -25 -146.5 -75s-55.5 -128.667 -55.5 -236c0 -104 18.333 -181.667 55 -233
s85 -77 145 -77c29.333 0 54 4.66699 74 14s40.333 23.333 61 42l27 -31c-46.667 -45.333 -101 -68 -163 -68c-48 0 -90.667 13.167 -128 39.5s-66.666 66 -87.999 119s-32 117.833 -32 194.5c0 78 11 143.333 33 196s51.667 91.834 89 117.501s79.333 38.5 126 38.5
c43.333 0 80.333 -10.667 111 -32v39c0 39.333 9.5 69.333 28.5 90s44.833 31 77.5 31c33.333 0 63 -11 89 -33z" />
    <glyph glyph-name="uni0188" unicode="&#x188;" horiz-adv-x="417" 
d="M537 708l-20 -29.001c-11.333 7.33301 -22 13 -32 17s-21.667 6 -35 6c-42 0 -63 -26.667 -63 -80v-141l-21 -26c-17.333 12.667 -34.333 22.167 -51 28.5s-35.334 9.5 -56.001 9.5c-46.667 0 -83.667 -19.5 -111 -58.5s-41 -97.833 -41 -176.5
c0 -77.333 13.5 -134.833 40.5 -172.5s63.833 -56.5 110.5 -56.5c39.333 0 76 14.667 110 44l23 -28c-39.333 -37.333 -83.666 -56 -132.999 -56c-61.333 0 -109.833 23 -145.5 69s-53.5 112.667 -53.5 200c0 86.667 18 154 54 202s84.333 72 145 72
c32 0 60.333 -7.66699 85 -23v112c0 38.667 9.5 68.334 28.5 89.001s44.5 31 76.5 31c33.333 0 63 -11 89 -33z" />
    <glyph glyph-name="uni0189" unicode="&#x189;" horiz-adv-x="570" 
d="M430 612c52 -48 78 -135.999 78 -263.999c0 -128.667 -26.5 -218.834 -79.5 -270.501s-117.833 -77.5 -194.5 -77.5h-129v332h-83v40h83v312h122c83.333 0 151 -24 203 -72zM459 348.001c0 80.667 -10.833 142.667 -32.5 186s-49 72.333 -82 87s-71.167 22 -114.5 22h-78
v-271h160v-40h-160v-292h84c148.667 0 223 102.667 223 308z" />
    <glyph glyph-name="uni018A" unicode="&#x18a;" horiz-adv-x="616" 
d="M476 612c52 -48 77.999 -135.999 77.999 -263.999c0 -128.667 -26.5 -218.834 -79.5 -270.501s-117.833 -77.5 -194.5 -77.5h-129v644h-23c-24 0 -41.5 -6 -52.5 -18s-16.5 -28.333 -16.5 -49c0 -14.667 1.83301 -27.834 5.5 -39.501s8.83398 -24.167 15.501 -37.5
l-33 -17c-10.667 16.667 -18.667 31.834 -24 45.501s-8 30.167 -8 49.5c0 32 9.83301 57.667 29.5 77s48.5 29 86.5 29h142c83.333 0 151 -24 203 -72zM504.999 348.001c0 80.667 -10.833 142.667 -32.5 186s-49 72.333 -82 87s-71.167 22 -114.5 22h-78v-603h84
c148.667 0 223 102.667 223 308z" />
    <glyph glyph-name="uni018B" unicode="&#x18b;" horiz-adv-x="511" 
d="M410 0l-146.999 -0.000976562c-68 0 -121.5 16.833 -160.5 50.5s-58.5 84.834 -58.5 153.501c0 67.333 19.667 119 59 155s95.666 54 168.999 54h91v230h-256v41h303v-684zM363.001 39.999v333h-91c-119.333 0 -179 -56.333 -179 -169c0 -58 14.5 -99.833 43.5 -125.5
s71.833 -38.5 128.5 -38.5h98z" />
    <glyph glyph-name="uni018C" unicode="&#x18c;" horiz-adv-x="522" 
d="M424 0h-38.998l-4 81c-32.667 -61.333 -80.334 -92 -143.001 -92c-54.667 0 -97.834 23.833 -129.501 71.5s-47.5 113.834 -47.5 198.501c0 54.667 7.5 102.667 22.5 144s36.5 73.166 64.5 95.499s61 33.5 99 33.5c54 0 98 -23.667 132 -71v236h-212v38h257v-735z
M321.502 53.5c21.667 17 40.832 42.5 57.499 76.5v281c-16 25.333 -34.167 45.333 -54.5 60s-44.5 22 -72.5 22c-43.333 0 -78 -19.833 -104 -59.5s-39 -96.5 -39 -170.5c0 -76.667 11.833 -135 35.5 -175s56.5 -60 98.5 -60c30.667 0 56.834 8.5 78.501 25.5z" />
    <glyph glyph-name="uni018D" unicode="&#x18d;" horiz-adv-x="508" 
d="M377 -4c15.333 -20.667 22.9971 -45.665 22.9971 -74.998c0.666992 -36.667 -12.666 -67.334 -39.999 -92.001s-63.666 -37 -108.999 -37c-28 0 -53.333 3.83301 -76 11.5s-45 19.5 -67 35.5l24 30c20.667 -13.333 39.5 -23 56.5 -29s36.833 -9 59.5 -9
c33.333 0 59.333 8.33301 78 25s28 38.667 28 66c0 18 -3.33301 33.167 -10 45.5s-18.667 24.333 -36 36s-42.666 24.5 -75.999 38.5c-60.667 26 -104.667 58 -132 96s-41 90 -41 156c0 73.333 17.333 131.333 52 174s83 64 145 64c60 0 107.167 -20.667 141.5 -62
s51.5 -99.666 51.5 -174.999c0 -58.667 -12.833 -108.334 -38.5 -149.001s-61.5 -72 -107.5 -94c34 -16.667 58.667 -35.334 74 -56.001zM120.997 192.502c10 -27 26.501 -50.333 49.501 -70s55.5 -38.167 97.5 -55.5c41.333 20 74 48.667 98 86s36 84.666 36 141.999
c0 64.667 -12.667 113.834 -38 147.501s-61.333 50.5 -108 50.5c-48.667 0 -85.834 -17.167 -111.501 -51.5s-38.5 -83.5 -38.5 -147.5c0 -40.667 5 -74.5 15 -101.5z" />
    <glyph glyph-name="uni018E" unicode="&#x18e;" horiz-adv-x="454" 
d="M45 684h307v-684h-313v40h267v297h-221v40h221v266h-261v41z" />
    <glyph glyph-name="uni018F" unicode="&#x18f;" horiz-adv-x="583" 
d="M459.5 610.5c40.333 -55.667 60.5029 -145.168 60.5029 -268.501c0 -120 -21 -208.833 -63 -266.5s-99.333 -86.5 -172 -86.5c-74 0 -131.333 28.333 -172 85s-61 142.334 -61 257.001c0 5.33301 0.666992 18 2 38h418c-2.66699 101.333 -19.834 174 -51.501 218
s-76.5 66 -134.5 66c-32.667 0 -62.334 -5.5 -89.001 -16.5s-53.334 -28.5 -80.001 -52.5l-26 29c29.333 28 59.5 48.5 90.5 61.5s66.167 19.5 105.5 19.5c74.667 0 132.167 -27.833 172.5 -83.5zM420.003 100.999c33.333 47.333 50.667 123.333 52 228h-372
c0 -103.333 16.167 -179 48.5 -227s77.833 -72 136.5 -72c56.667 0 101.667 23.667 135 71z" />
    <glyph glyph-name="uni0190" unicode="&#x190;" horiz-adv-x="468" 
d="M344 673c29.333 -14 57.668 -34.666 85.001 -61.999l-27 -28c-23.333 22.667 -47.333 40 -72 52s-51.667 18 -81 18c-40.667 0 -72.834 -11.667 -96.501 -35s-35.5 -54.333 -35.5 -93c0 -44 12.833 -77.833 38.5 -101.5s60.167 -35.5 103.5 -35.5h53l-6 -41l-50 1
c-50.667 0.666992 -89.667 -12.333 -117 -39s-41 -64.667 -41 -114c0 -52 14.5 -92.333 43.5 -121s67.167 -43 114.5 -43c32.667 0 62 6.5 88 19.5s50.333 32.167 73 57.5l30 -26c-54 -62 -117.667 -93 -191 -93c-40 0 -75.5 8.16699 -106.5 24.5s-55.333 40.166 -73 71.499
s-26.5 68.333 -26.5 111c0 52 13 92.667 39 122s59 46.666 99 51.999c-36.667 8.66699 -65.667 25.834 -87 51.501s-32 60.167 -32 103.5c0 50 16 90.667 48 122s75 47 129 47c36 0 68.667 -7 98 -21z" />
    <glyph glyph-name="uni0191" unicode="&#x191;" horiz-adv-x="430" 
d="M149 643v-279h216v-40h-216v-409c0 -38 -9.66699 -67 -29 -87s-45 -30 -77 -30c-34.667 0 -64.667 10.667 -90 32l21 30c10.667 -7.33301 21 -13 31 -17s22 -6 36 -6c18.667 0 33.5 6.16699 44.5 18.5s16.5 31.833 16.5 58.5v770h303l-6 -41h-250z" />
    <glyph glyph-name="florin" unicode="&#x192;" horiz-adv-x="288" 
d="M148 615l0.000976562 -93h127l-6 -38h-121v-470c0 -44 -4.33301 -79 -13 -105s-21.167 -46.667 -37.5 -62s-39.5 -31 -69.5 -47l-13 33c22.667 12.667 40 25.5 52 38.5s21 30.333 27 52s9 51.5 9 89.5v471h-79v38h79v96c0 38 11.333 68 34 90s53.667 33 93 33
c37.333 0 73.666 -9.66699 108.999 -29l-16 -33c-32 15.333 -62 23 -90 23c-56.667 0 -85 -29 -85 -87z" />
    <glyph glyph-name="uni0193" unicode="&#x193;" horiz-adv-x="510" 
d="M633 789l-21.0029 -28.999c-11.333 7.33301 -22 13 -32 17s-21.667 6 -35 6c-42 0 -63 -27 -63 -81v-73l-24 -26c-23.333 17.333 -46 30 -68 38s-46.333 12 -73 12c-36 0 -69.5 -10.167 -100.5 -30.5s-56.333 -53.5 -76 -99.5s-29.5 -105.333 -29.5 -178
c0 -107.333 18 -186.666 54 -237.999s86.333 -77 151 -77c26 0 49.5 3 70.5 9s41.5 15.333 61.5 28v257h-123l-5 41h174v-321c-55.333 -36.667 -114.666 -55 -177.999 -55c-78.667 0 -140.667 29.833 -186 89.5s-68 148.5 -68 266.5c0 77.333 11.833 142.166 35.5 194.499
s54.834 91.166 93.501 116.499s80 38 124 38c48 0 89 -11.667 123 -35v42c0 39.333 9.33301 69.333 28 90s44.334 31 77.001 31s62.667 -11 90 -33z" />
    <glyph glyph-name="uni0194" unicode="&#x194;" horiz-adv-x="496" 
d="M276 56c20 -47.333 33.667 -82.5 41 -105.5s11 -46.167 11 -69.5c0 -25.333 -7 -45.5 -21 -60.5s-33.667 -22.5 -59 -22.5c-24.667 0 -44.167 7.33301 -58.5 22s-21.5 34.667 -21.5 60c0 21.333 3.66699 43 11 65s21.333 59 42 111l-200 628h48l180 -594l180 594h46z
M277 -61.5c-5.33301 19 -15.001 47.5 -29.001 85.5c-13.333 -36.667 -22.666 -64.667 -27.999 -84s-8 -38.333 -8 -57c0 -31.333 12 -47 36 -47c24.667 0 37 15.667 37 47c0 18 -2.66699 36.5 -8 55.5z" />
    <glyph glyph-name="uni0195" unicode="&#x195;" horiz-adv-x="801" 
d="M725 259c0 -60.667 -8.5 -111.168 -25.5 -151.501s-39.667 -70.166 -68 -89.499s-60.166 -29 -95.499 -29c-44 0 -79.833 13.833 -107.5 41.5s-41.5 66.5 -41.5 116.5v224c0 82 -30.333 123 -91 123c-30.667 0 -58.5 -10 -83.5 -30s-48.167 -48.333 -69.5 -85v-379h-45
v735l45 6v-312c21.333 32.667 44.833 58 70.5 76s55.5 27 89.5 27c41.333 0 73.166 -13.667 95.499 -41s33.5 -65.333 33.5 -114v-228c0 -40 9.5 -70 28.5 -90s44.5 -30 76.5 -30c40.667 0 74.5 18 101.5 54s40.5 95 40.5 177c0 78 -7.66699 165.333 -23 262h45
c16 -97.333 24 -185 24 -263z" />
    <glyph glyph-name="uni0196" unicode="&#x196;" horiz-adv-x="303" 
d="M288 22c-25.333 -21.333 -55.333 -32 -90 -32c-32 0 -57.667 10 -77 30s-29 49 -29 87v577h47v-578c0 -26.667 5.5 -46.167 16.5 -58.5s25.833 -18.5 44.5 -18.5c14 0 26 2 36 6s20.333 9.66699 31 17z" />
    <glyph glyph-name="uni0197" unicode="&#x197;" horiz-adv-x="284" 
d="M259 380v-40h-93v-340h-47v340h-93v40h93v304h47v-304h93z" />
    <glyph glyph-name="uni0198" unicode="&#x198;" horiz-adv-x="514" 
d="M152 367l166 254c16.667 26 33.5 44.667 50.5 56s36.833 17 59.5 17c30.667 0 58 -12 82 -36l-20 -27c-11.333 8.66699 -21 15 -29 19s-18 6 -30 6c-14.667 0 -27.667 -3.83301 -39 -11.5s-24.333 -22.5 -39 -44.5l-147 -231l278 -369h-55zM149 684v-684h-47v684h47z" />
    <glyph glyph-name="uni0199" unicode="&#x199;" horiz-adv-x="434" 
d="M164 680.5c-14 -14.333 -20.998 -37.167 -20.998 -68.5v-612h-45v614c0 40 11.167 71.167 33.5 93.5s53.166 33.5 92.499 33.5c37.333 0 73.666 -9.66699 108.999 -29l-16 -33c-30.667 15.333 -60.667 23 -90 23c-28 0 -49 -7.16699 -63 -21.5zM200.002 286.999l226 -287
h-53l-225 285l205 237h52z" />
    <glyph glyph-name="uni019A" unicode="&#x19a;" horiz-adv-x="262" 
d="M154 354v-276c0 -32.667 13.333 -49 40 -49c10.667 0 21.667 2.33301 33 7l12 -34c-16 -8.66699 -33 -13 -51 -13c-24 0 -43.167 7.5 -57.5 22.5s-21.5 36.5 -21.5 64.5v278h-95v39h95v342l45 6v-348h93v-39h-93z" />
    <glyph glyph-name="uni019B" unicode="&#x19b;" horiz-adv-x="418" 
d="M311.5 257c18.333 -62 35.667 -109.166 52 -141.499s37.166 -67.833 62.499 -106.5l-42 -17c-24.667 39.333 -45.334 75.666 -62.001 108.999s-33.667 80.166 -51 140.499s-34.666 138.833 -51.999 235.5l-146 -485l-43 11l161 513h20
c-9.33301 48.667 -20.333 85.667 -33 111l-65 -72l-31 15l76 87c-19.333 23.333 -48.666 40 -87.999 50l7 34c47.333 -10.667 83 -29 107 -55l62 70l27 -22l-67 -77c10.667 -17.333 20 -38.166 28 -62.499s15.333 -54.5 22 -90.5c18.667 -102.667 37.167 -185 55.5 -247z
" />
    <glyph glyph-name="uni019C" unicode="&#x19c;" horiz-adv-x="834" 
d="M731 684l-0.00195312 -684.001h-40l-4 95c-19.333 -32.667 -42.166 -58.5 -68.499 -77.5s-55.5 -28.5 -87.5 -28.5c-34 0 -62.5 9.83301 -85.5 29.5s-39.167 46.834 -48.5 81.501c-20.667 -34 -44.667 -61 -72 -81s-57.333 -30 -90 -30c-45.333 0 -80.5 16.333 -105.5 49
s-37.5 76.667 -37.5 132v514h47v-516c0 -44 8.66699 -78 26 -102s42.333 -36 75 -36c31.333 0 59 10.5 83 31.5s46.333 50.5 67 88.5c-0.666992 4.66699 -1 11.667 -1 21v513h46v-516c0 -43.333 8.83301 -77.166 26.5 -101.499s42.834 -36.5 75.501 -36.5
c31.333 0 59 10.667 83 32s45.667 50.666 65 87.999v534h46z" />
    <glyph glyph-name="uni019D" unicode="&#x19d;" horiz-adv-x="603" 
d="M501 684l-0.000976562 -684h-61l-300 631c4 -57.333 6 -131.333 6 -222v-495c0 -37.333 -9.66699 -66 -29 -86s-44.666 -30 -75.999 -30c-33.333 0 -63.333 10.667 -90 32l21 29c10 -7.33301 20.333 -13 31 -17s23 -6 37 -6c41.333 0 62 25.667 62 77v771h60l301 -632
c-4.66699 79.333 -7 146 -7 200v432h45z" />
    <glyph glyph-name="uni019E" unicode="&#x19e;" horiz-adv-x="525" 
d="M399 491.5c22 -27 33 -65.167 33 -114.5v-579l-45 7v566c0 82 -30.333 123 -91 123c-30.667 0 -58.5 -10 -83.5 -30s-48.167 -48.333 -69.5 -85v-379h-45v522h39l4 -94c43.333 69.333 97.333 104 162 104c42 0 74 -13.5 96 -40.5z" />
    <glyph glyph-name="uni019F" unicode="&#x19f;" horiz-adv-x="623" 
d="M493 604c44.667 -60 66.998 -147.998 66.998 -263.998c0 -112.667 -22.167 -199.334 -66.5 -260.001s-105.166 -91 -182.499 -91c-49.333 0 -92.833 13.333 -130.5 40s-66.834 66.167 -87.501 118.5s-31 116.166 -31 191.499c0 76 10.333 140.667 31 194
s49.834 93.5 87.501 120.5s81.167 40.5 130.5 40.5c76.667 0 137.334 -30 182.001 -90zM168.998 582.502c-35.333 -47 -54.668 -118.167 -58.001 -213.5h402c-3.33301 95.333 -22.833 166.5 -58.5 213.5s-83.5 70.5 -143.5 70.5c-59.333 0 -106.666 -23.5 -141.999 -70.5z
M458.996 104.502c35.333 49.667 53.334 124.832 54.001 225.499h-403c0.666992 -99.333 19.167 -174.166 55.5 -224.499s84.833 -75.5 145.5 -75.5c63.333 0 112.666 24.833 147.999 74.5z" />
    <glyph glyph-name="Ohorn" unicode="&#x1a0;" horiz-adv-x="627" 
d="M496 600c42.667 -61.333 63.998 -147.668 63.998 -259.001c0 -113.333 -22.167 -200.333 -66.5 -261s-105.166 -91 -182.499 -91c-49.333 0 -92.833 13.333 -130.5 40s-66.834 66.334 -87.501 119.001s-31 116.667 -31 192c0 76 10.333 140.5 31 193.5
s49.834 93 87.501 120s81.167 40.5 130.5 40.5c66.667 0 121.334 -22.333 164.001 -67c18 3.33301 31 9.5 39 18.5s12 22.5 12 40.5c0 24 -4 48 -12 72l34 11c11.333 -28 17 -55.333 17 -82c0 -48.667 -23 -77.667 -69 -87zM459.498 106.998
c35 51.333 52.499 129.334 52.499 234.001c0 105.333 -17.667 183.666 -53 234.999s-84.666 77 -147.999 77c-62 0 -110.833 -26 -146.5 -78s-53.5 -130.333 -53.5 -235c0 -102.667 18 -180 54 -232s84.667 -78 146 -78c64 0 113.5 25.667 148.5 77z" />
    <glyph glyph-name="ohorn" unicode="&#x1a1;" horiz-adv-x="521" 
d="M474.5 462.5c-12.333 -14.333 -31.167 -23.502 -56.5 -27.502c22.667 -45.333 34 -102.666 34 -171.999c0 -87.333 -17.5 -154.833 -52.5 -202.5s-83.167 -71.5 -144.5 -71.5s-109.333 23.833 -144 71.5s-52 114.167 -52 199.5c0 86.667 17.667 153.667 53 201
s83.333 71 144 71c63.333 0 111.333 -23 144 -69c19.333 2.66699 33.333 8.5 42 17.5s13 22.833 13 41.5c0 22 -4.33301 46 -13 72l34 11c11.333 -25.333 17 -52.666 17 -81.999c0 -26 -6.16699 -46.167 -18.5 -60.5zM365.999 87.498c26 39 38.999 97.5 38.999 175.5
c0 76.667 -12.833 134.167 -38.5 172.5s-62.5 57.5 -110.5 57.5c-47.333 0 -84.166 -19.333 -110.499 -58s-39.5 -97 -39.5 -175c0 -76 13 -133.5 39 -172.5s62.667 -58.5 110 -58.5c48 0 85 19.5 111 58.5z" />
    <glyph glyph-name="uni01A2" unicode="&#x1a2;" horiz-adv-x="808" 
d="M674 661.5c21.333 -22.333 31.9961 -55.5 31.9961 -99.5v-757h-47v757c0 33.333 -6.66699 57.333 -20 72s-32.333 22 -57 22c-19.333 0 -37.166 -2.83301 -53.499 -8.5s-33.166 -13.834 -50.499 -24.501c54.667 -60.667 82 -154.667 82 -282
c0 -113.333 -22.167 -200.333 -66.5 -261s-105.166 -91 -182.499 -91c-49.333 0 -92.833 13.333 -130.5 40s-66.834 66.334 -87.501 119.001s-31 116.667 -31 192c0 76 10.333 140.5 31 193.5s49.834 93 87.501 120s81.167 40.5 130.5 40.5
c54.667 0 101.334 -15.333 140.001 -46c21.333 14.667 42.833 26.167 64.5 34.5s44.5 12.5 68.5 12.5c38.667 0 68.667 -11.167 90 -33.5zM459.496 107c35 51.333 52.499 129.334 52.499 234.001c0 105.333 -17.667 183.666 -53 234.999s-84.666 77 -147.999 77
c-62 0 -110.833 -26 -146.5 -78s-53.5 -130.333 -53.5 -235c0 -102.667 18 -180 54 -232s84.667 -78 146 -78c64 0 113.5 25.667 148.5 77z" />
    <glyph glyph-name="uni01A3" unicode="&#x1a3;" horiz-adv-x="685" 
d="M555 497.5c21.333 -23 32 -56.167 32 -99.5v-600l-45 7v593c0 64 -26.667 96 -80 96c-26 0 -50.667 -5.33301 -74 -16c42.667 -46 64 -117.667 64 -215c0 -87.333 -17.5 -154.833 -52.5 -202.5s-83.167 -71.5 -144.5 -71.5s-109.333 23.833 -144 71.5
s-52 114.167 -52 199.5c0 86.667 17.667 153.667 53 201s83.333 71 144 71c39.333 0 73.333 -9.66699 102 -29c33.333 19.333 69 29 107 29c38.667 0 68.667 -11.5 90 -34.5zM366 87.5c26 39 38.999 97.5 38.999 175.5c0 76.667 -12.833 134.167 -38.5 172.5
s-62.5 57.5 -110.5 57.5c-47.333 0 -84.166 -19.333 -110.499 -58s-39.5 -97 -39.5 -175c0 -76 13 -133.5 39 -172.5s62.667 -58.5 110 -58.5c48 0 85 19.5 111 58.5z" />
    <glyph glyph-name="uni01A4" unicode="&#x1a4;" horiz-adv-x="557" 
d="M456.5 634c40.333 -33.333 60.499 -84.333 60.499 -153c0 -72 -21.333 -124.833 -64 -158.5s-102.667 -50.5 -180 -50.5h-75v-272h-47v644h-23c-24 0 -41.5 -6 -52.5 -18s-16.5 -28.333 -16.5 -49c0 -14.667 1.83301 -27.834 5.5 -39.501s8.83398 -24.167 15.501 -37.5
l-33 -17c-10.667 16.667 -18.667 31.834 -24 45.501s-8 30.167 -8 49.5c0 32 9.83301 57.667 29.5 77s48.5 29 86.5 29h145c80 0 140.167 -16.667 180.5 -50zM418.999 350c32.667 25.333 48.999 68.667 48.999 130c0 58.667 -15.667 100.667 -47 126s-79.666 38 -144.999 38
h-78v-332h77c63.333 0 111.333 12.667 144 38z" />
    <glyph glyph-name="uni01A5" unicode="&#x1a5;" horiz-adv-x="518" 
d="M413 464c29.333 -45.333 44.0029 -112.003 44.0029 -200.003c0 -86.667 -15.5 -154.167 -46.5 -202.5s-74.833 -72.5 -131.5 -72.5c-28.667 0 -54.5 6.83301 -77.5 20.5s-42.5 31.834 -58.5 54.501v-259l-45 -7v816c0 40 11.167 71.167 33.5 93.5
s53.166 33.5 92.499 33.5c37.333 0 73.666 -9.66699 108.999 -29l-16 -33c-30.667 15.333 -60.667 23 -90 23c-28 0 -49 -7.16699 -63 -21.5s-21 -37.166 -21 -68.499v-164c18 26.667 39 47.334 63 62.001s50.667 22 80 22c55.333 0 97.666 -22.667 126.999 -68z
M374.003 87.4971c23.333 39 35 97.833 35 176.5c0 152.667 -42.667 229 -128 229c-29.333 0 -54.833 -8 -76.5 -24s-42.167 -38.667 -61.5 -68v-288c36 -56 79.333 -84 130 -84c44 0 77.667 19.5 101 58.5z" />
    <glyph glyph-name="uni01A6" unicode="&#x1a6;" horiz-adv-x="527" 
d="M443 -128l-164 315l-17 -1h-113v-186h-47v684h47v-128h89c150.667 0 226 -61 226 -183c0 -48 -12 -86.833 -36 -116.5s-58 -50.167 -102 -61.5l170 -323h-53zM372.5 261c28.333 24 42.5 61.332 42.5 111.999c0 48.667 -13.833 84.834 -41.5 108.501
s-73.5 35.167 -137.5 34.5h-87v-291h96c56.667 0 99.167 12 127.5 36z" />
    <glyph glyph-name="uni01A7" unicode="&#x1a7;" horiz-adv-x="476" 
d="M376.5 650c30.333 -29.333 45.502 -67.334 45.502 -114.001c0 -32 -5.83301 -59.167 -17.5 -81.5s-30 -41.666 -55 -57.999s-58.833 -32.5 -101.5 -48.5c-38 -14 -67.667 -28.333 -89 -43s-36.5 -32 -45.5 -52s-13.5 -45 -13.5 -75c0 -46 13.333 -82.167 40 -108.5
s61.334 -39.5 104.001 -39.5c34.667 0 65 6.16699 91 18.5s51.333 30.5 76 54.5l27 -29c-26.667 -27.333 -55.834 -48.333 -87.501 -63s-67.5 -22 -107.5 -22c-36.667 0 -69.5 8 -98.5 24s-51.667 38.333 -68 67s-24.5 61.667 -24.5 99c0 54 14.167 96.167 42.5 126.5
s73.166 56.5 134.499 78.5c38 14 67.167 27.5 87.5 40.5s35 28.167 44 45.5s13.5 39.333 13.5 66c0 36 -10.833 64.5 -32.5 85.5s-51.5 31.5 -89.5 31.5c-30.667 0 -57.834 -4.83301 -81.501 -14.5s-48.167 -25.5 -73.5 -47.5l-26 29c28 24.667 55.833 43.167 83.5 55.5
s60.5 18.5 98.5 18.5c52 0 93.167 -14.667 123.5 -44z" />
    <glyph glyph-name="uni01A8" unicode="&#x1a8;" horiz-adv-x="409" 
d="M319.5 496c27.667 -24 41.501 -54.999 41.501 -92.999c0 -36 -10.833 -64.833 -32.5 -86.5s-57.5 -40.5 -107.5 -56.5c-34.667 -10.667 -60.834 -21.5 -78.501 -32.5s-30 -23.667 -37 -38s-10.5 -33.166 -10.5 -56.499c0 -33.333 10.333 -59 31 -77s47.667 -27 81 -27
c26.667 0 51 4.66699 73 14s43.667 23 65 41l25 -28c-47.333 -44.667 -102.333 -67 -165 -67c-45.333 0 -82.833 13.167 -112.5 39.5s-44.5 61.166 -44.5 104.499c0 42 11.333 74.667 34 98s61 43.666 115 60.999c44.667 14 75.5 29 92.5 45s25.5 38.333 25.5 67
c0 28 -9.5 49.833 -28.5 65.5s-44.5 23.5 -76.5 23.5c-24 0 -46 -3.66699 -66 -11s-40.333 -19 -61 -35l-23 28c46 38 96.667 57 152 57c44 0 79.833 -12 107.5 -36z" />
    <glyph glyph-name="uni01A9" unicode="&#x1a9;" horiz-adv-x="442" 
d="M400 684v-41h-300l196 -292v-24l-196 -286h300v-41h-358v31l210 308l-210 314v31h358z" />
    <glyph glyph-name="uni01AA" unicode="&#x1aa;" horiz-adv-x="253" 
d="M306 -170c-25.333 -21.333 -55.335 -32.001 -90.002 -32.001c-32 0 -57.667 9.83301 -77 29.5s-29 48.5 -29 86.5v608c-17.333 -8.66699 -35.666 -13 -54.999 -13c-30 0 -54.167 9.83301 -72.5 29.5s-27.5 47.834 -27.5 84.501s9.33301 65.5 28 86.5s43 31.5 73 31.5
c30.667 0 54.834 -9.83301 72.501 -29.5s26.5 -46.5 26.5 -80.5v-718c0 -51.333 21 -77 63 -77c14 0 26 2 36 6s20.667 9.66699 32 17zM109.998 558.999l-0.000976562 73c0 23.333 -4.66699 41 -14 53s-22.666 18 -39.999 18c-18 0 -32 -6.83301 -42 -20.5
s-15 -33.167 -15 -58.5c0 -51.333 20 -77 60 -77c16.667 0 33.667 4 51 12z" />
    <glyph glyph-name="uni01AB" unicode="&#x1ab;" horiz-adv-x="303" 
d="M306 21v-106.999c0 -38 -9.66699 -66.833 -29 -86.5s-45 -29.5 -77 -29.5c-33.333 0 -63.333 10.667 -90 32l21 29c11.333 -7.33301 22 -13 32 -17s21.667 -6 35 -6c42.667 0 64 25.667 64 77v88c-18 -8 -36.667 -12 -56 -12c-34 0 -60.833 10.667 -80.5 32
s-29.5 51.666 -29.5 90.999v372h-77v38h77v127l45 5v-132h124l-6 -38h-118v-371c0 -56.667 24 -85 72 -85c24.667 0 50.667 6 78 18z" />
    <glyph glyph-name="uni01AC" unicode="&#x1ac;" horiz-adv-x="464" 
d="M449 641h-182v-641h-47v641h-92c-46 0 -69 -21.667 -69 -65c0 -14.667 1.83301 -27.667 5.5 -39s9.16699 -23.333 16.5 -36l-34 -19c-10.667 16 -18.667 31 -24 45s-8 30.667 -8 50c0 32.667 10.333 58.667 31 78s50.667 29 90 29h319z" />
    <glyph glyph-name="uni01AD" unicode="&#x1ad;" horiz-adv-x="303" 
d="M287 52l18.999 -31c-28.667 -21.333 -61 -32 -97 -32c-35.333 0 -63 10.667 -83 32s-30 51.666 -30 90.999v372h-77v38h77v95c0 39.333 10.333 69.833 31 91.5s48.667 32.5 84 32.5c34 0 65.667 -10.667 95 -32l-19 -30c-24 15.333 -48.667 23 -74 23
c-23.333 0 -41.166 -7.16699 -53.499 -21.5s-18.5 -35.166 -18.5 -62.499v-96h124l-6 -38h-118v-370c0 -56.667 24.333 -85 73 -85c24.667 0 49 7.66699 73 23z" />
    <glyph glyph-name="uni01AE" unicode="&#x1ae;" horiz-adv-x="440" 
d="M243 642v-641h1v-87c0 -26.667 5.5 -46.167 16.5 -58.5s25.833 -18.5 44.5 -18.5c14 0 26 2 36 6s20.333 9.66699 31 17l21 -30c-25.333 -21.333 -55.333 -32 -90 -32c-32 0 -57.667 10 -77 30s-29 49 -29 87v727h-184v42h418l-5 -42h-183z" />
    <glyph glyph-name="Uhorn" unicode="&#x1af;" horiz-adv-x="587" 
d="M490 597l0.000976562 -404.997c0 -60.667 -17 -109.667 -51 -147s-83.333 -56 -148 -56c-65.333 0 -114.833 18.667 -148.5 56s-50.5 86.333 -50.5 147v492h47v-488c0 -52 12.5 -92.5 37.5 -121.5s63.167 -43.5 114.5 -43.5c52 0 90.333 14.667 115 44
s37 69.666 37 120.999v488h47v-57c17.333 3.33301 29.666 9.66602 36.999 18.999s11 22.666 11 39.999c0 24 -4 48 -12 72l34 11c11.333 -28 17 -55.333 17 -82c0 -54.667 -29 -84.667 -87 -90z" />
    <glyph glyph-name="uhorn" unicode="&#x1b0;" horiz-adv-x="537" 
d="M423 433l0.000976562 -433h-39l-2 94c-38 -70 -89.333 -105 -154 -105c-42.667 0 -75.834 13.333 -99.501 40s-35.5 63.667 -35.5 111v382h45v-378c0 -77.333 32.333 -116 97 -116c30.667 0 57.5 9.83301 80.5 29.5s43.833 47.5 62.5 83.5v381h45v-58
c17.333 2.66699 29.833 8.66699 37.5 18s11.5 22.666 11.5 39.999c0 22 -4.33301 46 -13 72l34 11c11.333 -25.333 17 -52.666 17 -81.999c0 -54.667 -29 -84.667 -87 -90z" />
    <glyph glyph-name="uni01B1" unicode="&#x1b1;" horiz-adv-x="621" 
d="M179 27c-37.333 25.333 -66.167 62.3291 -86.5 110.996s-30.5 107.667 -30.5 177c0 82.667 11.5 149.334 34.5 200.001s53.167 93.334 90.5 128.001h-105v41h162v-40c-41.333 -31.333 -74 -73.166 -98 -125.499s-36 -120.166 -36 -203.499c0 -94 17.833 -165 53.5 -213
s84.834 -72 147.501 -72c62 0 110.833 24 146.5 72s53.5 119 53.5 213c0 83.333 -11.833 151 -35.5 203s-56.167 94 -97.5 126v40h163v-41h-106c38.667 -32.667 69.167 -74.5 91.5 -125.5s33.5 -118.5 33.5 -202.5c0 -68.667 -10.333 -127.5 -31 -176.5
s-49.834 -86.167 -87.501 -111.5s-81.167 -38 -130.5 -38c-50.667 0 -94.667 12.667 -132 38z" />
    <glyph glyph-name="uni01B2" unicode="&#x1b2;" horiz-adv-x="582" 
d="M468 670c14.667 -16 21.998 -39.667 21.998 -71v-325c0 -60 -9.33301 -111.333 -28 -154s-44.667 -75.167 -78 -97.5s-71.666 -33.5 -114.999 -33.5c-54 0 -97 16.667 -129 50s-48 77.333 -48 132v513h47v-509c0 -45.333 11.5 -80.666 34.5 -105.999s54.833 -38 95.5 -38
c52.667 0 94.834 21.167 126.501 63.5s47.5 103.5 47.5 183.5v320c0 19.333 -3.33301 33.666 -10 42.999s-17.334 14 -32.001 14c-14 0 -26.667 -3 -38 -9l-14 33c18 10 37 15 57 15c26.667 0 47.334 -8 62.001 -24z" />
    <glyph glyph-name="uni01B3" unicode="&#x1b3;" horiz-adv-x="484" 
d="M210 268l-195.999 416h50l170 -374l123 302c12 28.667 25.5 49.5 40.5 62.5s34.5 19.5 58.5 19.5c28.667 0 55.667 -12 81 -36l-21 -27c-10.667 9.33301 -20 16 -28 20s-18 6 -30 6c-14.667 0 -26.334 -4.33301 -35.001 -13s-18 -24.667 -28 -48l-139 -327v-269h-46v268z
" />
    <glyph glyph-name="uni01B4" unicode="&#x1b4;" horiz-adv-x="421" 
d="M50 -166c30.667 9.33301 55.002 20.665 73.002 33.998s32.167 30 42.5 50s21.166 47.333 32.499 82h-17l-164 522h48l147 -488l124 456c7.33301 28 17.5 48.333 30.5 61s30.5 19 52.5 19c16 0 32.667 -4.33301 50 -13l-12 -32c-12.667 4.66699 -24 7 -34 7
c-12 0 -21.167 -3.5 -27.5 -10.5s-11.833 -18.833 -16.5 -35.5l-139 -487c-16.667 -59.333 -38.334 -104.166 -65.001 -134.499s-66.667 -52.166 -120 -65.499z" />
    <glyph glyph-name="uni01B5" unicode="&#x1b5;" horiz-adv-x="463" 
d="M420 684v-39l-157 -281h98v-40h-120l-158 -282h330l-6 -42h-374v40l159 284h-93v40h115l156 278h-303v42h353z" />
    <glyph glyph-name="uni01B6" unicode="&#x1b6;" horiz-adv-x="377" 
d="M346 522v-36l-120 -198h82v-39h-105l-127 -209h267l-5 -40h-313v36l129 213h-84v39h108l118 194h-249v40h299z" />
    <glyph glyph-name="uni01B7" unicode="&#x1b7;" horiz-adv-x="438" 
d="M343.5 332c34.333 -32.667 51.4971 -80.998 51.4971 -144.998c0 -58.667 -17.5 -106.334 -52.5 -143.001s-82.833 -55 -143.5 -55c-40.667 0 -75.667 7 -105 21s-55.666 35.333 -78.999 64l29 26c22 -24.667 44.833 -42.5 68.5 -53.5s51.834 -16.5 84.501 -16.5
c48.667 0 85.834 14.167 111.501 42.5s38.5 66.166 38.5 113.499c0 55.333 -13.5 95.333 -40.5 120s-66.833 37 -119.5 37h-73v38l205 263h-285v40h339v-39l-209 -264h28c66.667 0 117.167 -16.333 151.5 -49z" />
    <glyph glyph-name="uni01B8" unicode="&#x1b8;" horiz-adv-x="438" 
d="M423 74c-24.667 -28.667 -51.835 -50 -81.502 -64s-65.167 -21 -106.5 -21c-59.333 0 -106.166 17.5 -140.499 52.5s-51.5 81.833 -51.5 140.5c0 64 17.333 113.167 52 147.5s85.334 51.5 152.001 51.5h27l-209 264v39h339v-40h-285l205 -263v-38h-73
c-106.667 0 -160 -53.667 -160 -161c0 -48 12.5 -85.333 37.5 -112s60.833 -40 107.5 -40c34 0 62.833 5.33301 86.5 16s47.5 28.667 71.5 54z" />
    <glyph glyph-name="uni01B9" unicode="&#x1b9;" horiz-adv-x="411" 
d="M398 -118c-23.333 -28 -49.165 -49.001 -77.498 -63.001s-61.5 -21 -99.5 -21c-58.667 0 -105.167 18 -139.5 54s-51.5 83.333 -51.5 142c0 63.333 17.667 113.166 53 149.499s88.333 54.5 159 54.5h10l-200 288v36h327v-40h-275l195 -285v-37h-54
c-56.667 0 -98.834 -13.667 -126.501 -41s-41.5 -68.666 -41.5 -123.999c0 -49.333 12.333 -88 37 -116s60.334 -42 107.001 -42c31.333 0 58.666 5.33301 81.999 16s45.666 28.334 66.999 53.001z" />
    <glyph glyph-name="uni01BA" unicode="&#x1ba;" horiz-adv-x="407" 
d="M55 -150.5c-16.667 19 -25 41.5 -25 67.5c0 30.667 12.5 54.5 37.5 71.5s64.167 29.5 117.5 37.5c36 6 64.333 13 85 21s36 19.667 46 35s15 36 15 62c0 30.667 -8.83301 53 -26.5 67s-43.834 21 -78.501 21h-123v38l192 212h-266v40h322v-36l-198 -216h75
c48.667 0 85.834 -11 111.501 -33s38.5 -53.333 38.5 -94c0 -47.333 -14.167 -82.333 -42.5 -105s-72.5 -39 -132.5 -49c-46.667 -7.33301 -79.5 -16 -98.5 -26s-28.5 -26 -28.5 -48c0 -18 5.33301 -33.167 16 -45.5s28.667 -25.833 54 -40.5l-15 -32
c-34 16 -59.333 33.5 -76 52.5z" />
    <glyph glyph-name="uni01BB" unicode="&#x1bb;" horiz-adv-x="422" 
d="M264 265c-32 -44.667 -91.333 -119.334 -178 -224.001h288l-8 -41h-332v40c86.667 104 146.667 179 180 225h-139v40h167c26 39.333 44 74 54 104s15 62 15 96c0 40.667 -10.5 72.667 -31.5 96s-49.5 35 -85.5 35c-28.667 0 -53.834 -6.5 -75.501 -19.5
s-42.167 -32.167 -61.5 -57.5l-31 23c23.333 32 48.833 55.5 76.5 70.5s58.834 22.5 93.501 22.5c49.333 0 88.5 -15.667 117.5 -47s43.5 -71.666 43.5 -120.999c0 -35.333 -5 -68.5 -15 -99.5s-27 -65.167 -51 -102.5h87v-40h-114z" />
    <glyph glyph-name="uni01BC" unicode="&#x1bc;" horiz-adv-x="444" 
d="M371 645l-254.003 0.00195312v-250c16.667 10.667 33.667 19 51 25s37 9 59 9c52.667 0 94.334 -18.333 125.001 -55s46 -88.334 46 -155.001c0 -46 -7.83301 -86.333 -23.5 -121s-38.167 -61.5 -67.5 -80.5s-63.333 -28.5 -102 -28.5c-36 0 -67.667 6.66699 -95 20
s-53 33.333 -77 60l30 26c20 -22.667 41.167 -39.334 63.5 -50.001s48.5 -16 78.5 -16c45.333 0 81 16.833 107 50.5s39 80.5 39 140.5c0 58 -11.833 101 -35.5 129s-56.167 42 -97.5 42c-21.333 0 -40.166 -2.66699 -56.499 -8s-34.166 -14 -53.499 -26h-34v327h305z" />
    <glyph glyph-name="uni01BD" unicode="&#x1bd;" horiz-adv-x="387" 
d="M315 482h-200v-175c25.333 16.667 55 25 89 25c41.333 0 74.666 -14.333 99.999 -43s38 -69 38 -121c0 -54.667 -14.667 -98.167 -44 -130.5s-69.333 -48.5 -120 -48.5c-29.333 0 -55.333 5.5 -78 16.5s-44 26.833 -64 47.5l28 27c18.667 -17.333 36.334 -30 53.001 -38
s37 -12 61 -12c36 0 64.333 12 85 36s31 58.333 31 103c0 42.667 -8.66699 74 -26 94s-41.333 30 -72 30c-18 0 -33.833 -2 -47.5 -6s-28.5 -10.667 -44.5 -20h-33v255h252z" />
    <glyph glyph-name="uni01BE" unicode="&#x1be;" horiz-adv-x="445" 
d="M340 351c30.667 -31.333 45.999 -79.334 45.999 -144.001c0 -65.333 -17 -117.166 -51 -155.499s-80 -57.5 -138 -57.5c-34.667 0 -65.167 6.5 -91.5 19.5s-52.833 33.167 -79.5 60.5l27 26c22.667 -22 45 -38.5 67 -49.5s47 -16.5 75 -16.5c46 0 81.333 15 106 45
s37 72.667 37 128c0 54 -12 94 -36 120s-56 44.333 -96 55l-60 16v164h-61v38h61v135l45 6v-141h108v-38h-108v-137l30 -8c48.667 -12.667 88.334 -34.667 119.001 -66z" />
    <glyph glyph-name="uni01BF" unicode="&#x1bf;" horiz-adv-x="516" 
d="M414.5 486c28.333 -30.667 42.5 -73 42.5 -127c0 -72.667 -20.833 -134.5 -62.5 -185.5s-106.167 -101.5 -193.5 -151.5l-58 -32v-185l-45 -7v724h39l3 -79c23.333 28.667 47.833 50.667 73.5 66s55.5 23 89.5 23c46 0 83.167 -15.333 111.5 -46zM357.5 195.5
c34.333 45 51.502 99.168 51.502 162.501c0 44 -9.83301 77.5 -29.5 100.5s-47.167 34.5 -82.5 34.5c-30.667 0 -58.334 -7.83301 -83.001 -23.5s-48.334 -37.834 -71.001 -66.501v-373l48 28c76.667 46.667 132.167 92.5 166.5 137.5z" />
    <glyph glyph-name="uni01C0" unicode="&#x1c0;" horiz-adv-x="247" 
d="M145 741v-741h-43v735z" />
    <glyph glyph-name="uni01C1" unicode="&#x1c1;" horiz-adv-x="389" 
d="M145 741v-741h-43v735zM288 741v-741h-43v735z" />
    <glyph glyph-name="uni01C2" unicode="&#x1c2;" horiz-adv-x="284" 
d="M259 423h-95v-115h95v-35h-95v-273h-43v273h-95v35h95v115h-95v35h95v277l43 6v-283h95v-35z" />
    <glyph glyph-name="uni01C3" unicode="&#x1c3;" horiz-adv-x="282" 
d="M162 741v-544h-42v538zM169 55.5c7.33301 -7.66699 11 -16.834 11 -27.501s-3.66699 -19.834 -11 -27.501s-16.666 -11.5 -27.999 -11.5s-20.666 3.83301 -27.999 11.5s-11 16.834 -11 27.501s3.66699 19.834 11 27.501s16.666 11.5 27.999 11.5
s20.666 -3.83301 27.999 -11.5z" />
    <glyph glyph-name="uni01C4" unicode="&#x1c4;" horiz-adv-x="1005" 
d="M427 612c52 -48 78 -135.999 78 -263.999c0 -128.667 -26.5 -218.834 -79.5 -270.501s-117.833 -77.5 -194.5 -77.5h-129v684h122c83.333 0 151 -24 203 -72zM149 643.001v-603h84c148.667 0 223 102.667 223 308c0 80.667 -10.833 142.667 -32.5 186s-49 72.333 -82 87
s-71.167 22 -114.5 22h-78zM962 684.001v-39l-336 -603h329l-6 -42h-374v40l337 602h-303v42h353zM885 879.001l19 -22l-115 -100h-27l-115 100l20 22l109 -80z" />
    <glyph glyph-name="uni01C5" unicode="&#x1c5;" horiz-adv-x="934" 
d="M427 612c52 -48 78 -135.999 78 -263.999c0 -128.667 -26.5 -218.834 -79.5 -270.501s-117.833 -77.5 -194.5 -77.5h-129v684h122c83.333 0 151 -24 203 -72zM149 643.001v-603h84c148.667 0 223 102.667 223 308c0 80.667 -10.833 142.667 -32.5 186s-49 72.333 -82 87
s-71.167 22 -114.5 22h-78zM903 522.001v-36l-270 -446h267l-5 -40h-313v36l270 446h-248v40h299zM859 762.001l20 -22l-115 -105h-27l-115 105l21 22l108 -85z" />
    <glyph glyph-name="uni01C6" unicode="&#x1c6;" horiz-adv-x="899" 
d="M424 735l0.00195312 -735h-39l-4 81c-32.667 -61.333 -80.334 -92 -143.001 -92c-54.667 0 -97.834 23.833 -129.501 71.5s-47.5 113.834 -47.5 198.501c0 54.667 7.5 102.667 22.5 144s36.5 73.166 64.5 95.499s61 33.5 99 33.5c54 0 98 -23.667 132 -71v280z
M321.502 53.5c21.667 17 40.832 42.5 57.499 76.5v281c-16 25.333 -34.167 45.333 -54.5 60s-44.5 22 -72.5 22c-43.333 0 -78 -19.833 -104 -59.5s-39 -96.5 -39 -170.5c0 -76.667 11.833 -135 35.5 -175s56.5 -60 98.5 -60c30.667 0 56.834 8.5 78.501 25.5zM868 522v-36
l-270 -446h267l-5 -40h-313v36l270 446h-248v40h299zM824 762l20 -22l-115 -105h-27l-115 105l21 22l108 -85z" />
    <glyph glyph-name="uni01C7" unicode="&#x1c7;" horiz-adv-x="666" 
d="M149 684v-641h258l-7 -43h-298v684h47zM569 90c0 -38 -4.16797 -68.832 -12.501 -92.499s-22.166 -43.834 -41.499 -60.501s-46.333 -33 -81 -49l-13 33c28 15.333 49.167 30 63.5 44s24.333 30.667 30 50s8.5 45 8.5 77v592h46v-594z" />
    <glyph glyph-name="uni01C8" unicode="&#x1c8;" horiz-adv-x="650" 
d="M149 684v-641h258l-7 -43h-298v684h47zM552 -2c0 -38.667 -4.33105 -69.999 -12.998 -93.999s-21.334 -43.5 -38.001 -58.5s-39.667 -30.167 -69 -45.5l-15 32c23.333 13.333 41.166 26.166 53.499 38.499s21.5 28.333 27.5 48s9 46.167 9 79.5v524h45v-524z
M553.502 733.001c6.33301 -6.66699 9.5 -14.667 9.5 -24c0 -10 -3.16699 -18.167 -9.5 -24.5s-14.833 -9.5 -25.5 -9.5c-10 0 -18.167 3.33301 -24.5 10s-9.5 14.667 -9.5 24s3.16699 17.333 9.5 24s14.5 10 24.5 10c10.667 0 19.167 -3.33301 25.5 -10z" />
    <glyph glyph-name="uni01C9" unicode="&#x1c9;" horiz-adv-x="495" 
d="M114.5 11.5c-14.333 15 -21.5 36.5 -21.5 64.5v659l45 6v-663c0 -32.667 13.333 -49 40 -49c10.667 0 21.667 2.33301 33 7l12 -34c-16 -8.66699 -33 -13 -51 -13c-24 0 -43.167 7.5 -57.5 22.5zM397 -2c0 -38.667 -4.33105 -69.999 -12.998 -93.999
s-21.334 -43.5 -38.001 -58.5s-39.667 -30.167 -69 -45.5l-15 32c23.333 13.333 41.166 26.166 53.499 38.499s21.5 28.333 27.5 48s9 46.167 9 79.5v524h45v-524zM398.502 733.001c6.33301 -6.66699 9.5 -14.667 9.5 -24c0 -10 -3.16699 -18.167 -9.5 -24.5
s-14.833 -9.5 -25.5 -9.5c-10 0 -18.167 3.33301 -24.5 10s-9.5 14.667 -9.5 24s3.16699 17.333 9.5 24s14.5 10 24.5 10c10.667 0 19.167 -3.33301 25.5 -10z" />
    <glyph glyph-name="uni01CA" unicode="&#x1ca;" horiz-adv-x="861" 
d="M501 0h-61l-300 631c4 -57.333 6 -131.333 6 -222v-409h-44v684h60l301 -632c-4.66699 79.333 -7 146 -7 200v432h45v-684zM764 90c0 -38 -4.16797 -68.832 -12.501 -92.499s-22.166 -43.834 -41.499 -60.501s-46.333 -33 -81 -49l-13 33c28 15.333 49.167 30 63.5 44
s24.333 30.667 30 50s8.5 45 8.5 77v592h46v-594z" />
    <glyph glyph-name="uni01CB" unicode="&#x1cb;" horiz-adv-x="844" 
d="M501 0h-61l-300 631c4 -57.333 6 -131.333 6 -222v-409h-44v684h60l301 -632c-4.66699 79.333 -7 146 -7 200v432h45v-684zM746 -2c0 -38.667 -4.33105 -69.999 -12.998 -93.999s-21.334 -43.5 -38.001 -58.5s-39.667 -30.167 -69 -45.5l-15 32
c23.333 13.333 41.166 26.166 53.499 38.499s21.5 28.333 27.5 48s9 46.167 9 79.5v524h45v-524zM747.502 733.001c6.33301 -6.66699 9.5 -14.667 9.5 -24c0 -10 -3.16699 -18.167 -9.5 -24.5s-14.833 -9.5 -25.5 -9.5c-10 0 -18.167 3.33301 -24.5 10s-9.5 14.667 -9.5 24
s3.16699 17.333 9.5 24s14.5 10 24.5 10c10.667 0 19.167 -3.33301 25.5 -10z" />
    <glyph glyph-name="uni01CC" unicode="&#x1cc;" horiz-adv-x="766" 
d="M399 491.5c22 -27 33 -65.167 33 -114.5v-377h-45v371c0 82 -30.333 123 -91 123c-30.667 0 -58.5 -10 -83.5 -30s-48.167 -48.333 -69.5 -85v-379h-45v522h39l4 -94c43.333 69.333 97.333 104 162 104c42 0 74 -13.5 96 -40.5zM668 -2
c0 -38.667 -4.33105 -69.999 -12.998 -93.999s-21.334 -43.5 -38.001 -58.5s-39.667 -30.167 -69 -45.5l-15 32c23.333 13.333 41.166 26.166 53.499 38.499s21.5 28.333 27.5 48s9 46.167 9 79.5v524h45v-524zM669.502 733.001c6.33301 -6.66699 9.5 -14.667 9.5 -24
c0 -10 -3.16699 -18.167 -9.5 -24.5s-14.833 -9.5 -25.5 -9.5c-10 0 -18.167 3.33301 -24.5 10s-9.5 14.667 -9.5 24s3.16699 17.333 9.5 24s14.5 10 24.5 10c10.667 0 19.167 -3.33301 25.5 -10z" />
    <glyph glyph-name="uni01CD" unicode="&#x1cd;" horiz-adv-x="514" 
d="M445 0l-56 193h-266l-57 -193h-45l207 684h58l207 -684h-48zM135 233h242l-121 413zM366 879l19 -22l-115 -100h-27l-115 100l20 22l109 -80z" />
    <glyph glyph-name="uni01CE" unicode="&#x1ce;" horiz-adv-x="482" 
d="M394 48c6 -12 16 -20.999 30 -26.999l-10 -32c-21.333 5.33301 -37.5 15 -48.5 29s-17.5 34.333 -19.5 61c-34 -60 -83 -90 -147 -90c-45.333 0 -81 14.167 -107 42.5s-39 66.166 -39 113.499c0 53.333 17.5 94.5 52.5 123.5s83.5 43.5 145.5 43.5h89v60
c0 41.333 -8.5 71.833 -25.5 91.5s-44.833 29.5 -83.5 29.5c-38 0 -81.333 -10 -130 -30l-13 35c54 22.667 103 34 147 34c100 0 150 -52.333 150 -157v-272c0 -24.667 3 -43 9 -55zM340 127.001v150h-84c-103.333 0 -155 -43.667 -155 -131c0 -38 9.16699 -67.333 27.5 -88
s43.5 -31 75.5 -31c60 0 105.333 33.333 136 100zM342 762.001l20 -22l-115 -105h-27l-115 105l21 22l108 -85z" />
    <glyph glyph-name="uni01CF" unicode="&#x1cf;" horiz-adv-x="251" 
d="M149 684v-684h-47v684h47zM234 879l19 -22l-115 -100h-27l-115 100l20 22l109 -80z" />
    <glyph glyph-name="uni01D0" unicode="&#x1d0;" horiz-adv-x="241" 
d="M143 522v-522h-45v522h45zM228 762l20 -22l-115 -105h-27l-115 105l21 22l108 -85z" />
    <glyph glyph-name="uni01D1" unicode="&#x1d1;" horiz-adv-x="623" 
d="M493 604.5c44.667 -59.667 66.998 -147.501 66.998 -263.501c0 -113.333 -22.167 -200.333 -66.5 -261s-105.166 -91 -182.499 -91c-49.333 0 -92.833 13.333 -130.5 40s-66.834 66.334 -87.501 119.001s-31 116.667 -31 192c0 76 10.333 140.5 31 193.5
s49.834 93 87.501 120s81.167 40.5 130.5 40.5c76.667 0 137.334 -29.833 182.001 -89.5zM164.498 574.999c-35.667 -52 -53.501 -130.332 -53.501 -234.999c0 -102.667 18 -180 54 -232s84.667 -78 146 -78c64 0 113.5 25.667 148.5 77s52.5 129.333 52.5 234
c0 105.333 -17.667 183.666 -53 234.999s-84.666 77 -147.999 77c-62 0 -110.833 -26 -146.5 -78zM419.997 879l19 -22l-115 -100h-27l-115 100l20 22l109 -80z" />
    <glyph glyph-name="uni01D2" unicode="&#x1d2;" horiz-adv-x="511" 
d="M400.5 463.5c34.333 -45.667 51.5 -112.5 51.5 -200.5c0 -87.333 -17.5 -154.833 -52.5 -202.5s-83.167 -71.5 -144.5 -71.5s-109.333 23.833 -144 71.5s-52 114.167 -52 199.5c0 86.667 17.667 153.667 53 201s83.333 71 144 71c62 0 110.167 -22.833 144.5 -68.5z
M145.5 435c-26.333 -38.667 -39.501 -97 -39.501 -175c0 -76 13 -133.5 39 -172.5s62.667 -58.5 110 -58.5c48 0 85 19.5 111 58.5s39 97.5 39 175.5c0 76.667 -12.833 134.167 -38.5 172.5s-62.5 57.5 -110.5 57.5c-47.333 0 -84.166 -19.333 -110.499 -58zM363.999 762
l20 -22l-115 -105h-27l-115 105l21 22l108 -85z" />
    <glyph glyph-name="uni01D3" unicode="&#x1d3;" horiz-adv-x="582" 
d="M490 192c0 -60.667 -17 -109.666 -51 -146.999s-83.333 -56 -148 -56c-65.333 0 -114.833 18.667 -148.5 56s-50.5 86.333 -50.5 147v492h47v-488c0 -52 12.5 -92.5 37.5 -121.5s63.167 -43.5 114.5 -43.5c52 0 90.333 14.667 115 44s37 69.666 37 120.999v488h47v-492z
M400 879.001l19 -22l-115 -100h-27l-115 100l20 22l109 -80z" />
    <glyph glyph-name="uni01D4" unicode="&#x1d4;" horiz-adv-x="521" 
d="M423 0h-38.999l-2 94c-38 -70 -89.333 -105 -154 -105c-42.667 0 -75.834 13.333 -99.501 40s-35.5 63.667 -35.5 111v382h45v-378c0 -77.333 32.333 -116 97 -116c30.667 0 57.5 9.83301 80.5 29.5s43.833 47.5 62.5 83.5v381h45v-522zM366.001 762l20 -22l-115 -105
h-27l-115 105l21 22l108 -85z" />
    <glyph glyph-name="uni01D5" unicode="&#x1d5;" horiz-adv-x="582" 
d="M490 192c0 -60.667 -17 -109.666 -51 -146.999s-83.333 -56 -148 -56c-65.333 0 -114.833 18.667 -148.5 56s-50.5 86.333 -50.5 147v492h47v-488c0 -52 12.5 -92.5 37.5 -121.5s63.167 -43.5 114.5 -43.5c52 0 90.333 14.667 115 44s37 69.666 37 120.999v488h47v-492z
M232 799.501c6 -6.33301 9 -14.166 9 -23.499s-3 -17.166 -9 -23.499s-14 -9.5 -24 -9.5c-9.33301 0 -17 3.16699 -23 9.5s-9 14.166 -9 23.499s3 17.166 9 23.499s13.667 9.5 23 9.5c10 0 18 -3.16699 24 -9.5zM397 799.501c6 -6.33301 9 -14.166 9 -23.499
s-3 -17.166 -9 -23.499s-13.667 -9.5 -23 -9.5s-17.166 3.16699 -23.499 9.5s-9.5 14.166 -9.5 23.499s3.16699 17.166 9.5 23.499s14.166 9.5 23.499 9.5s17 -3.16699 23 -9.5zM397 870.001h-209v37h209v-37z" />
    <glyph glyph-name="uni01D6" unicode="&#x1d6;" horiz-adv-x="521" 
d="M423 0h-38.999l-2 94c-38 -70 -89.333 -105 -154 -105c-42.667 0 -75.834 13.333 -99.501 40s-35.5 63.667 -35.5 111v382h45v-378c0 -77.333 32.333 -116 97 -116c30.667 0 57.5 9.83301 80.5 29.5s43.833 47.5 62.5 83.5v381h45v-522zM199.001 692.5
c6 -6.33301 9 -14.166 9 -23.499s-3 -17.166 -9 -23.499s-14 -9.5 -24 -9.5c-9.33301 0 -17 3.16699 -23 9.5s-9 14.166 -9 23.499s3 17.166 9 23.499s13.667 9.5 23 9.5c10 0 18 -3.16699 24 -9.5zM364.001 692.5c6 -6.33301 9 -14.166 9 -23.499s-3 -17.166 -9 -23.499
s-13.667 -9.5 -23 -9.5s-17.166 3.16699 -23.499 9.5s-9.5 14.166 -9.5 23.499s3.16699 17.166 9.5 23.499s14.166 9.5 23.499 9.5s17 -3.16699 23 -9.5zM363.001 767h-209v37h209v-37z" />
    <glyph glyph-name="uni01D7" unicode="&#x1d7;" horiz-adv-x="582" 
d="M490 192c0 -60.667 -17 -109.666 -51 -146.999s-83.333 -56 -148 -56c-65.333 0 -114.833 18.667 -148.5 56s-50.5 86.333 -50.5 147v492h47v-488c0 -52 12.5 -92.5 37.5 -121.5s63.167 -43.5 114.5 -43.5c52 0 90.333 14.667 115 44s37 69.666 37 120.999v488h47v-492z
M364 954.001l33 -28l-107 -120l-22 19zM232 799.501c6 -6.33301 9 -14.166 9 -23.499s-3 -17.166 -9 -23.499s-14 -9.5 -24 -9.5c-9.33301 0 -17 3.16699 -23 9.5s-9 14.166 -9 23.499s3 17.166 9 23.499s13.667 9.5 23 9.5c10 0 18 -3.16699 24 -9.5zM397 799.501
c6 -6.33301 9 -14.166 9 -23.499s-3 -17.166 -9 -23.499s-13.667 -9.5 -23 -9.5s-17.166 3.16699 -23.499 9.5s-9.5 14.166 -9.5 23.499s3.16699 17.166 9.5 23.499s14.166 9.5 23.499 9.5s17 -3.16699 23 -9.5z" />
    <glyph glyph-name="uni01D8" unicode="&#x1d8;" horiz-adv-x="521" 
d="M423 0h-38.999l-2 94c-38 -70 -89.333 -105 -154 -105c-42.667 0 -75.834 13.333 -99.501 40s-35.5 63.667 -35.5 111v382h45v-378c0 -77.333 32.333 -116 97 -116c30.667 0 57.5 9.83301 80.5 29.5s43.833 47.5 62.5 83.5v381h45v-522zM330.001 848l33 -28l-107 -120
l-22 19zM198.001 692.5c6 -6.33301 9 -14.166 9 -23.499s-3 -17.166 -9 -23.499s-14 -9.5 -24 -9.5c-9.33301 0 -17 3.16699 -23 9.5s-9 14.166 -9 23.499s3 17.166 9 23.499s13.667 9.5 23 9.5c10 0 18 -3.16699 24 -9.5zM363.001 692.5c6 -6.33301 9 -14.166 9 -23.499
s-3 -17.166 -9 -23.499s-13.667 -9.5 -23 -9.5s-17.166 3.16699 -23.499 9.5s-9.5 14.166 -9.5 23.499s3.16699 17.166 9.5 23.499s14.166 9.5 23.499 9.5s17 -3.16699 23 -9.5z" />
    <glyph glyph-name="uni01D9" unicode="&#x1d9;" horiz-adv-x="582" 
d="M490 192c0 -60.667 -17 -109.666 -51 -146.999s-83.333 -56 -148 -56c-65.333 0 -114.833 18.667 -148.5 56s-50.5 86.333 -50.5 147v492h47v-488c0 -52 12.5 -92.5 37.5 -121.5s63.167 -43.5 114.5 -43.5c52 0 90.333 14.667 115 44s37 69.666 37 120.999v488h47v-492z
M398 938.001l19 -22l-115 -100h-27l-115 100l20 22l109 -80zM232 799.501c6 -6.33301 9 -14.166 9 -23.499s-3 -17.166 -9 -23.499s-14 -9.5 -24 -9.5c-9.33301 0 -17 3.16699 -23 9.5s-9 14.166 -9 23.499s3 17.166 9 23.499s13.667 9.5 23 9.5c10 0 18 -3.16699 24 -9.5z
M397 799.501c6 -6.33301 9 -14.166 9 -23.499s-3 -17.166 -9 -23.499s-13.667 -9.5 -23 -9.5c-10 0 -18 3.16699 -24 9.5s-9 14.166 -9 23.499s3 17.166 9 23.499s14 9.5 24 9.5c9.33301 0 17 -3.16699 23 -9.5z" />
    </font>
</defs>
</svg>
