<?xml version="1.0" standalone="no"?>
<!DOCTYPE svg PUBLIC "-//W3C//DTD SVG 1.1//EN" "http://www.w3.org/Graphics/SVG/1.1/DTD/svg11.dtd" >
<svg>
<metadata>
Created by FontForge 20090914 at Tue Dec 27 13:54:05 2022
 By www-data
Digitized data copyright 2012-2016, The Mozilla Foundation and Telefonica S.A.
</metadata>
<defs>
<font id="FiraSansCondensed-Bold" horiz-adv-x="504" >
  <font-face 
    font-family="Fira Sans Condensed"
    font-weight="700"
    font-stretch="condensed"
    units-per-em="1000"
    panose-1="2 11 8 3 5 0 0 2 0 4"
    ascent="800"
    descent="-200"
    x-height="531"
    cap-height="693"
    bbox="-713 -354 1360 1185"
    underline-thickness="50"
    underline-position="-50"
    unicode-range="U+000D-U+FEFF"
  />
<missing-glyph horiz-adv-x="666" 
d="M543 1050v-1400h-420v1400h420zM489 998h-311v-1296h311v1296zM409.5 419c17 -21.333 25.4961 -49.002 25.4961 -83.002c0 -35.333 -7.5 -62.666 -22.5 -81.999s-39.167 -31.333 -72.5 -36v-45c0 -7.33301 -2.5 -13.166 -7.5 -17.499s-10.833 -6.5 -17.5 -6.5
s-12.5 2.16699 -17.5 6.5s-7.5 10.166 -7.5 17.499v84c35.333 2 59.333 8.5 72 19.5s19 30.167 19 57.5c0 22 -4.33301 39 -13 51s-24.667 18 -48 18c-19.333 0 -36.666 -3.66699 -51.999 -11c-5.33301 -2 -9.66602 -3 -12.999 -3c-7.33301 0 -13.166 2.16699 -17.499 6.5
s-6.5 9.83301 -6.5 16.5c0 12.667 9.83301 22.334 29.5 29.001s40.834 10 63.501 10c40 0 68.5 -10.667 85.5 -32zM339.996 109.998c6.66699 -6.66699 10 -15 10 -25c0 -10.667 -3.33301 -19.5 -10 -26.5s-15 -10.5 -25 -10.5s-18.333 3.5 -25 10.5s-10 15.833 -10 26.5
c0 10 3.33301 18.333 10 25s15 10 25 10s18.333 -3.33301 25 -10z" />
    <glyph glyph-name="fi" unicode="fi" horiz-adv-x="548" 
d="M446 719l-42 -97.999c-33.333 15.333 -68 23 -104 23c-26 0 -44.167 -5 -54.5 -15s-15.5 -27 -15.5 -51v-47h265v-531h-154v424h-111v-424h-154v424h-73v107h73v53c0 51.333 16.833 93.166 50.5 125.499s85.167 48.5 154.5 48.5c62 0 117 -13 165 -39z" />
    <glyph glyph-name="fl" unicode="fl" horiz-adv-x="580" 
d="M583 2c-26.667 -12.667 -57.333 -19 -92 -19c-42.667 0 -76 12.5 -100 37.5s-36 60.167 -36 105.5v512c-24 6 -45 9 -63 9c-23.333 0 -39.5 -5 -48.5 -15s-13.5 -26.667 -13.5 -50v-51h86l-17 -107h-69v-424h-154v424h-73v107h73v54c0 50.667 16.5 92.167 49.5 124.5
s80.5 48.5 142.5 48.5c34 0 68.667 -5.66699 104 -17l137 14v-618c0 -21.333 7.66699 -32 23 -32c6.66699 0 14 1.33301 22 4z" />
    <glyph glyph-name=".notdef" horiz-adv-x="666" 
d="M543 1050v-1400h-420v1400h420zM489 998h-311v-1296h311v1296zM409.5 419c17 -21.333 25.4961 -49.002 25.4961 -83.002c0 -35.333 -7.5 -62.666 -22.5 -81.999s-39.167 -31.333 -72.5 -36v-45c0 -7.33301 -2.5 -13.166 -7.5 -17.499s-10.833 -6.5 -17.5 -6.5
s-12.5 2.16699 -17.5 6.5s-7.5 10.166 -7.5 17.499v84c35.333 2 59.333 8.5 72 19.5s19 30.167 19 57.5c0 22 -4.33301 39 -13 51s-24.667 18 -48 18c-19.333 0 -36.666 -3.66699 -51.999 -11c-5.33301 -2 -9.66602 -3 -12.999 -3c-7.33301 0 -13.166 2.16699 -17.499 6.5
s-6.5 9.83301 -6.5 16.5c0 12.667 9.83301 22.334 29.5 29.001s40.834 10 63.501 10c40 0 68.5 -10.667 85.5 -32zM339.996 109.998c6.66699 -6.66699 10 -15 10 -25c0 -10.667 -3.33301 -19.5 -10 -26.5s-15 -10.5 -25 -10.5s-18.333 3.5 -25 10.5s-10 15.833 -10 26.5
c0 10 3.33301 18.333 10 25s15 10 25 10s18.333 -3.33301 25 -10z" />
    <glyph glyph-name="nonmarkingreturn" unicode="&#xd;" horiz-adv-x="208" 
 />
    <glyph glyph-name="space" unicode=" " horiz-adv-x="208" 
 />
    <glyph glyph-name="exclam" unicode="!" horiz-adv-x="230" 
d="M196 693l-21 -439h-121l-21 439h163zM177 134c16.667 -17.333 24.998 -38 24.998 -62c0 -24.667 -8.16699 -45.667 -24.5 -63s-37.166 -26 -62.499 -26s-46.333 8.66699 -63 26s-25 38.333 -25 63c0 24 8.33301 44.667 25 62s37.667 26 63 26
c24.667 0 45.334 -8.66699 62.001 -26z" />
    <glyph glyph-name="quotedbl" unicode="&#x22;" horiz-adv-x="425" 
d="M62 415l-18 278h135l-17 -278h-100zM263 415l-18 278h135l-17 -278h-100z" />
    <glyph glyph-name="numbersign" unicode="#" horiz-adv-x="508" 
d="M494 441h-60l-25 -194h52v-102h-66l-19 -145h-123l19 145h-88l-19 -145h-124l19 145h-47v102h61l26 194h-54v101h67l18 134h123l-18 -134h88l18 134h123l-18 -134h47v-101zM286 247l25 194h-88l-25 -194h88z" />
    <glyph glyph-name="dollar" unicode="$" horiz-adv-x="498" 
d="M434 69.5c-29.333 -35.667 -70.3301 -59.832 -122.997 -72.499v-158h-109v151c-79.333 7.33301 -145 38.666 -197 93.999l75 83c23.333 -20.667 47 -36.5 71 -47.5s49.667 -16.5 77 -16.5c29.333 0 52 7.5 68 22.5s24 35.833 24 62.5c0 24 -7.5 43.5 -22.5 58.5
s-43.167 29.833 -84.5 44.5c-66.667 24 -113.834 51.667 -141.501 83s-41.5 71.333 -41.5 120c0 49.333 15.833 90.833 47.5 124.5s73.167 54.834 124.5 63.501v148h109v-149c58 -9.33301 108.333 -36 151 -80l-69 -81c-20.667 18 -41.334 31.5 -62.001 40.5
s-42.667 13.5 -66 13.5c-24.667 0 -44 -6 -58 -18s-21 -28.667 -21 -50c0 -14 3.33301 -26 10 -36s18 -19.333 34 -28s39.667 -19 71 -31c61.333 -23.333 106.166 -50.5 134.499 -81.5s42.5 -74.5 42.5 -130.5c0 -50.667 -14.667 -93.834 -44 -129.501z" />
    <glyph glyph-name="percent" unicode="%" horiz-adv-x="788" 
d="M558 719l93 -55l-419 -703l-92 55zM308 642c30.667 -32 46 -76 46 -132s-15.333 -99.833 -46 -131.5s-69.667 -47.5 -117 -47.5c-46.667 0 -85.334 15.833 -116.001 47.5s-46 75.5 -46 131.5s15.333 100 46 132s69.334 48 116.001 48c47.333 0 86.333 -16 117 -48z
M148.5 576c-8.33301 -15.333 -12.5 -37.333 -12.5 -66s4.16699 -50.667 12.5 -66s22.5 -23 42.5 -23s34.167 7.66699 42.5 23s12.5 37.333 12.5 66s-4.16699 50.667 -12.5 66s-22.5 23 -42.5 23s-34.167 -7.66699 -42.5 -23zM714 294
c30.667 -32 45.999 -75.999 45.999 -131.999s-15.167 -99.833 -45.5 -131.5s-69.5 -47.5 -117.5 -47.5c-46.667 0 -85.5 15.833 -116.5 47.5s-46.5 75.5 -46.5 131.5c0 37.333 7.16699 69.666 21.5 96.999s33.833 48 58.5 62s52.334 21 83.001 21
c47.333 0 86.333 -16 117 -48zM553.999 228.501c-8 -15 -12 -37.167 -12 -66.5c0 -28.667 4.16699 -50.5 12.5 -65.5s22.5 -22.5 42.5 -22.5c20.667 0 35 7.33301 43 22s12 36.667 12 66s-4 51.5 -12 66.5s-22.333 22.5 -43 22.5s-35 -7.5 -43 -22.5z" />
    <glyph glyph-name="ampersand" unicode="&#x26;" horiz-adv-x="692" 
d="M432 665c35.333 -30 52.999 -69 52.999 -117c0 -38.667 -10.167 -72.5 -30.5 -101.5s-50.166 -57.833 -89.499 -86.5l120 -129c16 40.667 29.333 88 40 142l124 -34c-22 -72.667 -49.667 -135 -83 -187l111 -106l-129 -63l-71 77c-57.333 -51.333 -124.333 -77 -201 -77
c-43.333 0 -82 8.16699 -116 24.5s-60.333 39.166 -79 68.499s-28 63 -28 101c0 40 9.83301 74.833 29.5 104.5s51.167 59.834 94.5 90.501c-34 34 -57.333 63.167 -70 87.5s-19 52.5 -19 84.5c0 30 7.33301 57.667 22 83s37 45.5 67 60.5s66.333 22.5 109 22.5
c62 0 110.667 -15 146 -45zM247.999 593.5c-9.33301 -11 -14.002 -27.499 -14.002 -49.499c0 -20 3.5 -37.333 10.5 -52s19.833 -33 38.5 -55c20.667 19.333 35.334 36.666 44.001 51.999s13 34 13 56c0 43.333 -17.333 65 -52 65c-17.333 0 -30.666 -5.5 -39.999 -16.5z
M225.497 241.001c-7.66699 -16.667 -11.499 -35.666 -11.499 -56.999c0 -29.333 8.16699 -51.833 24.5 -67.5s38.5 -23.5 66.5 -23.5c36 0 68.333 13.667 97 41l-140 154c-16.667 -14.667 -28.834 -30.334 -36.501 -47.001z" />
    <glyph glyph-name="quotesingle" unicode="'" horiz-adv-x="224" 
d="M62 415l-18 278h135l-17 -278h-100z" />
    <glyph glyph-name="parenleft" unicode="(" horiz-adv-x="300" 
d="M288 792c-42.667 -68 -73.167 -135.165 -91.5 -201.498s-27.5 -146.5 -27.5 -240.5s9.16699 -174.167 27.5 -240.5s48.833 -133.5 91.5 -201.5l-99 -66c-37.333 54.667 -68 104.667 -92 150s-43.833 97.666 -59.5 156.999s-23.5 126.333 -23.5 201
s7.83301 141.667 23.5 201s35.5 111.666 59.5 156.999s54.667 95.333 92 150z" />
    <glyph glyph-name="parenright" unicode=")" horiz-adv-x="300" 
d="M203.5 704c23.667 -44 43.334 -95.5 59.001 -154.5s23.5 -125.5 23.5 -199.5s-7.83301 -140.5 -23.5 -199.5s-35.334 -110.5 -59.001 -154.5s-54.834 -95.333 -93.501 -154l-98 66c42 68 72.333 135.5 91 202.5s28 146.833 28 239.5s-9.16699 172.5 -27.5 239.5
s-48.833 134.5 -91.5 202.5l98 66c38.667 -58.667 69.834 -110 93.501 -154z" />
    <glyph glyph-name="asterisk" unicode="*" horiz-adv-x="417" 
d="M407 537l-126 -24l94 -103l-107 -73l-59 124l-59 -124l-106 72l92 104l-126 23l41 118l113 -59l-20 147h129l-19 -147l112 60z" />
    <glyph glyph-name="plus" unicode="+" horiz-adv-x="483" 
d="M305 545v-154h137v-119h-137v-154h-126v154h-138v119h138v154h126z" />
    <glyph glyph-name="comma" unicode="," horiz-adv-x="226" 
d="M174.5 136c16.333 -16.667 24.5 -37.667 24.5 -63c0 -12.667 -2.16699 -26 -6.5 -40s-12.5 -35.667 -24.5 -65l-58 -144h-83l39 174c-26 18.667 -39 43.667 -39 75c0 25.333 8.16699 46.333 24.5 63s36.833 25 61.5 25s45.167 -8.33301 61.5 -25z" />
    <glyph glyph-name="hyphen" unicode="-" horiz-adv-x="375" 
d="M41 253v120h293v-120h-293z" />
    <glyph glyph-name="period" unicode="." horiz-adv-x="229" 
d="M177 134c16.667 -17.333 24.998 -38 24.998 -62c0 -24.667 -8.33301 -45.667 -25 -63s-37.667 -26 -63 -26s-46.166 8.66699 -62.499 26s-24.5 38.333 -24.5 63c0 24 8.33301 44.667 25 62s37.334 26 62.001 26c25.333 0 46.333 -8.66699 63 -26z" />
    <glyph glyph-name="slash" unicode="/" horiz-adv-x="468" 
d="M276 816l132 -30l-215 -897l-133 30z" />
    <glyph glyph-name="zero" unicode="0" horiz-adv-x="546" 
d="M447.5 600c40.333 -60 60.5 -147.667 60.5 -263c0 -116.667 -20 -204.834 -60 -264.501s-98.333 -89.5 -175 -89.5s-135 29.833 -175 89.5s-60 147.834 -60 264.501s20 204.667 60 264s98.333 89 175 89c76 0 134.167 -30 174.5 -90zM227.5 555
c-11 -14 -19.166 -38.165 -24.499 -72.498s-8 -82.833 -8 -145.5c0 -63.333 2.66699 -112.333 8 -147s13.5 -58.834 24.5 -72.501s26.167 -20.5 45.5 -20.5s34.666 6.83301 45.999 20.5s19.5 37.667 24.5 72s7.5 83.5 7.5 147.5c0 63.333 -2.66699 112.166 -8 146.499
s-13.5 58.333 -24.5 72s-26.167 20.5 -45.5 20.5s-34.5 -7 -45.5 -21z" />
    <glyph glyph-name="one" unicode="1" horiz-adv-x="423" 
d="M353 675v-675h-151v525l-128 -87l-68 100l209 137h138z" />
    <glyph glyph-name="two" unicode="2" horiz-adv-x="463" 
d="M328.5 664.5c32.333 -17 56.8359 -39.832 73.5029 -68.499s25 -60.667 25 -96c0 -36 -6.66699 -70.5 -20 -103.5s-36.833 -70.833 -70.5 -113.5s-82.834 -97.334 -147.501 -164.001h251l-16 -119h-404v110c70.667 78 123.167 138.5 157.5 181.5s58.166 79 71.499 108
s20 58.5 20 88.5c0 26.667 -6.5 47.167 -19.5 61.5s-31.167 21.5 -54.5 21.5c-20.667 0 -39 -5.16699 -55 -15.5s-33.667 -27.5 -53 -51.5l-89 70c54.667 77.333 126 116 214 116c45.333 0 84.166 -8.5 116.499 -25.5z" />
    <glyph glyph-name="three" unicode="3" horiz-adv-x="473" 
d="M328.5 667c31.667 -15.333 55.665 -36.168 71.998 -62.501s24.5 -55.5 24.5 -87.5c0 -82 -43.333 -135.333 -130 -160c46 -5.33301 82.5 -21.5 109.5 -48.5s40.5 -65.833 40.5 -116.5c0 -38 -9.16699 -72.833 -27.5 -104.5s-45.333 -57 -81 -76
s-78.167 -28.5 -127.5 -28.5c-46 0 -86.667 8.66699 -122 26s-66.666 42.666 -93.999 75.999l83 77c21.333 -22 41.166 -37.833 59.499 -47.5s38.833 -14.5 61.5 -14.5c27.333 0 49.333 8.83301 66 26.5s25 42.5 25 74.5c0 34.667 -8.5 59.834 -25.5 75.501
s-42.167 23.5 -75.5 23.5h-49l17 106h33c27.333 0 49 7.83301 65 23.5s24 37.834 24 66.501c0 25.333 -7 45 -21 59s-33.333 21 -58 21c-41.333 0 -80 -19 -116 -57l-77 80c60.667 60.667 131.334 91 212.001 91c42.667 0 79.834 -7.66699 111.501 -23z" />
    <glyph glyph-name="four" unicode="4" horiz-adv-x="514" 
d="M497 263v-116h-66v-147h-147l-1 147h-261v103l172 443l130 -47l-146 -383h107l17 161h129v-161h66z" />
    <glyph glyph-name="five" unicode="5" horiz-adv-x="491" 
d="M416 565l-219.997 -0.00195312v-147c29.333 16 60 24 92 24c51.333 0 93.166 -19.167 125.499 -57.5s48.5 -92.166 48.5 -161.499c0 -47.333 -10 -89.166 -30 -125.499s-48.5 -64.5 -85.5 -84.5s-80.167 -30 -129.5 -30c-83.333 0 -152.333 33.667 -207 101l85 77
c17.333 -20 35.166 -35.333 53.499 -46s39.166 -16 62.499 -16c30.667 0 54.167 10.333 70.5 31s24.5 51.334 24.5 92.001c0 41.333 -7 70.666 -21 87.999s-33.667 26 -59 26c-12.667 0 -24.5 -1.66699 -35.5 -5s-23.167 -9.33301 -36.5 -18h-103v363h382z" />
    <glyph glyph-name="six" unicode="6" horiz-adv-x="523" 
d="M415.5 428c26.333 -17.333 47.0029 -42.8311 62.0029 -76.498s22.5 -73.834 22.5 -120.501c0 -48 -9 -90.833 -27 -128.5s-43.833 -67 -77.5 -88s-73.834 -31.5 -120.501 -31.5c-80 0 -139.5 28.333 -178.5 85s-58.5 137 -58.5 241c0 76.667 11 143.667 33 201
s53.5 101.666 94.5 132.999s89.5 47 145.5 47c52.667 0 99.667 -15 141 -45l-56 -90c-26.667 16.667 -53.334 25 -80.001 25c-33.333 0 -60.5 -16 -81.5 -48s-33.833 -79.333 -38.5 -142c34.667 42.667 78 64 130 64c33.333 0 63.166 -8.66699 89.499 -26zM347.003 229.002
c0 44.667 -5.33301 75.833 -16 93.5s-27 26.5 -49 26.5c-30 0 -58.667 -19 -86 -57c0.666992 -50 3.66699 -89.167 9 -117.5s13.5 -48.833 24.5 -61.5s26.167 -19 45.5 -19c46.667 0 70.667 45 72 135z" />
    <glyph glyph-name="seven" unicode="7" horiz-adv-x="426" 
d="M412 676v-105l-223 -587l-138 46l204 530h-246v116h403z" />
    <glyph glyph-name="eight" unicode="8" horiz-adv-x="528" 
d="M474.5 285c20.333 -29.333 30.5 -63.333 30.5 -102c0 -38 -9.5 -72.167 -28.5 -102.5s-47 -54.166 -84 -71.499s-80.833 -26 -131.5 -26c-49.333 0 -91.833 8.5 -127.5 25.5s-62.834 40.5 -81.501 70.5s-28 63.667 -28 101c0 75.333 39 131.333 117 168
c-33.333 21.333 -57.166 45.166 -71.499 71.499s-21.5 55.833 -21.5 88.5c0 36.667 9 68.667 27 96s43.333 48.5 76 63.5s70 22.5 112 22.5c65.333 0 118 -15.5 158 -46.5s60 -73.5 60 -127.5c0 -64 -34.333 -115 -103 -153c44 -22.667 76.167 -48.667 96.5 -78zM195 506
c0 -24 5.33398 -43.168 16.001 -57.501s28.667 -27.166 54 -38.499l18 -9c19.333 16 32.666 32.333 39.999 49s11 36 11 58c0 52 -23 78 -69 78c-46.667 0 -70 -26.667 -70 -80zM331.001 117.499c14.667 15.667 21.998 37.833 21.998 66.5c0 27.333 -6.5 48.833 -19.5 64.5
s-36.833 30.834 -71.5 45.501l-29 12c-38 -27.333 -57 -67 -57 -119c0 -30.667 7.83301 -53.834 23.5 -69.501s37.834 -23.5 66.501 -23.5s50.334 7.83301 65.001 23.5z" />
    <glyph glyph-name="nine" unicode="9" horiz-adv-x="517" 
d="M428 619.5c40 -47 60.002 -111.167 60.002 -192.5c0 -91.333 -13.833 -166.833 -41.5 -226.5s-69.834 -107.5 -126.501 -143.5s-130.667 -64.333 -222 -85l-31 108c79.333 21.333 138.833 48.166 178.5 80.499s65.834 77.833 78.501 136.5
c-34.667 -41.333 -76.334 -62 -125.001 -62c-32 0 -61.5 9 -88.5 27s-48.5 43.833 -64.5 77.5s-24 72.834 -24 117.501c0 48 10.167 89.5 30.5 124.5s48.166 61.833 83.499 80.5s75 28 119 28c75.333 0 133 -23.5 173 -70.5zM330.002 400
c0.666992 46.667 -1.33301 83 -6 109s-12.5 44.5 -23.5 55.5s-26.167 16.5 -45.5 16.5c-24.667 0 -44 -9.66699 -58 -29s-21 -49.333 -21 -90c0 -42 6.5 -72.5 19.5 -91.5s30.5 -28.5 52.5 -28.5c32 0 59.333 19.333 82 58z" />
    <glyph glyph-name="colon" unicode=":" horiz-adv-x="229" 
d="M177 134c16.667 -17.333 24.998 -38 24.998 -62c0 -24.667 -8.33301 -45.667 -25 -63s-37.667 -26 -63 -26s-46.166 8.66699 -62.499 26s-24.5 38.333 -24.5 63c0 24 8.33301 44.667 25 62s37.334 26 62.001 26c25.333 0 46.333 -8.66699 63 -26zM176.998 480
c16.667 -17.333 24.998 -38 24.998 -62c0 -24.667 -8.33301 -45.667 -25 -63s-37.667 -26 -63 -26s-46.166 8.66699 -62.499 26s-24.5 38.333 -24.5 63c0 24 8.33301 44.667 25 62s37.334 26 62.001 26c25.333 0 46.333 -8.66699 63 -26z" />
    <glyph glyph-name="semicolon" unicode=";" horiz-adv-x="229" 
d="M174.5 136c16.333 -16.667 24.5 -37.667 24.5 -63c0 -12.667 -2.16699 -26 -6.5 -40s-12.5 -35.667 -24.5 -65l-58 -144h-83l39 174c-26 18.667 -39 43.667 -39 75c0 25.333 8.16699 46.333 24.5 63s36.833 25 61.5 25s45.167 -8.33301 61.5 -25zM177 480
c16.667 -17.333 24.998 -38 24.998 -62c0 -24.667 -8.33301 -45.667 -25 -63s-37.667 -26 -63 -26s-46.166 8.66699 -62.499 26s-24.5 38.333 -24.5 63c0 24 8.33301 44.667 25 62s37.334 26 62.001 26c25.333 0 46.333 -8.66699 63 -26z" />
    <glyph glyph-name="less" unicode="&#x3c;" horiz-adv-x="470" 
d="M393 571l50 -105l-290 -133l290 -129l-50 -110l-366 173v132z" />
    <glyph glyph-name="equal" unicode="=" horiz-adv-x="470" 
d="M41 377v118h388v-118h-388zM41 168v118h388v-118h-388z" />
    <glyph glyph-name="greater" unicode="&#x3e;" horiz-adv-x="470" 
d="M77 571l366 -172v-132l-366 -173l-50 110l290 129l-290 133z" />
    <glyph glyph-name="question" unicode="?" horiz-adv-x="443" 
d="M338.5 687c30.333 -15.333 53.1689 -35.668 68.502 -61.001s23 -52.666 23 -81.999c0 -26 -4.16699 -48.333 -12.5 -67s-18.333 -34 -30 -46s-27.5 -25.667 -47.5 -41c-24.667 -19.333 -42.834 -36.5 -54.501 -51.5s-17.5 -34.5 -17.5 -58.5v-26h-139v31
c0 30.667 4.16699 56.5 12.5 77.5s18.333 37.667 30 50s26.5 25.5 44.5 39.5c19.333 14.667 33.333 27.5 42 38.5s13 25.167 13 42.5c0 18 -5.33301 31.833 -16 41.5s-25.334 14.5 -44.001 14.5c-36 0 -70.667 -19.667 -104 -59l-94 74
c54.667 70.667 126.334 106 215.001 106c43.333 0 80.166 -7.66699 110.499 -23zM263.003 133.998c16.667 -17.333 24.998 -38 24.998 -62c0 -24.667 -8.33301 -45.667 -25 -63s-37.667 -26 -63 -26s-46.166 8.66699 -62.499 26s-24.5 38.333 -24.5 63
c0 24 8.33301 44.667 25 62s37.334 26 62.001 26c25.333 0 46.333 -8.66699 63 -26z" />
    <glyph glyph-name="at" unicode="@" horiz-adv-x="924" 
d="M559 490.5c28 -7.66699 53.6689 -18.833 77.002 -33.5v-247c0 -42.667 2.83301 -71.5 8.5 -86.5s16.167 -22.5 31.5 -22.5c46.667 0 70 70.667 70 212c0 91.333 -22.167 161.666 -66.5 210.999s-111.833 74 -202.5 74c-63.333 0 -117.333 -14.667 -162 -44
s-78.5 -70.833 -101.5 -124.5s-34.5 -116.167 -34.5 -187.5c0 -113.333 25.5 -200.166 76.5 -260.499s125.167 -90.5 222.5 -90.5c30 0 60.667 3.16699 92 9.5s59.666 14.5 84.999 24.5l36 -104c-30 -12.667 -63.833 -22.834 -101.5 -30.501s-75.167 -11.5 -112.5 -11.5
c-88.667 0 -165.667 18.667 -231 56s-115.5 90.833 -150.5 160.5s-52.5 151.834 -52.5 246.501c0 90 18.667 170.5 56 241.5s88.833 126.5 154.5 166.5s140.167 60 223.5 60s155.5 -18 216.5 -54s107.5 -84.167 139.5 -144.5s48 -125.833 48 -196.5
c0 -60 -8.5 -113.5 -25.5 -160.5s-40.667 -83.833 -71 -110.5s-64.833 -40 -103.5 -40c-32.667 0 -59.5 9.83301 -80.5 29.5s-34.167 43.167 -39.5 70.5c-12 -29.333 -28.833 -52.666 -50.5 -69.999s-48.5 -26 -80.5 -26c-54.667 0 -95.834 20.167 -123.501 60.5
s-41.5 95.166 -41.5 164.499c0 84 18.333 149.833 55 197.5s88.667 71.5 156 71.5c27.333 0 55 -3.83301 83 -11.5zM507.002 144.001v255c-10 4.66699 -22.333 7 -37 7c-23.333 0 -40.5 -12.667 -51.5 -38s-16.5 -70.666 -16.5 -135.999
c0 -48.667 3.83301 -82.334 11.5 -101.001s20.5 -28 38.5 -28c22.667 0 41 13.667 55 41z" />
    <glyph glyph-name="A" unicode="A" horiz-adv-x="543" 
d="M389 0l-31 151h-176l-31 -151h-162l187 693h192l186 -693h-165zM206 266h128l-64 310z" />
    <glyph glyph-name="B" unicode="B" horiz-adv-x="559" 
d="M498.5 315c27 -25.333 40.5 -63.001 40.5 -113.001c0 -134.667 -93 -202 -279 -202h-205v693h181c88.667 0 157 -14.5 205 -43.5s72 -73.5 72 -133.5c0 -40 -11.333 -72.5 -34 -97.5s-51.667 -42.167 -87 -51.5c44 -9.33301 79.5 -26.666 106.5 -51.999zM215 579.999
v-165h44c61.333 0 92 28.333 92 85c0 27.333 -8 47.5 -24 60.5s-41.333 19.5 -76 19.5h-36zM346 136.999c19.333 14 29.001 38.333 29.001 73c0 65.333 -35.333 98 -106 98h-54v-192h46c37.333 0 65.666 7 84.999 21z" />
    <glyph glyph-name="C" unicode="C" horiz-adv-x="524" 
d="M424 691c31.333 -12.667 60.998 -31.666 88.998 -56.999l-76 -89c-18 15.333 -35.833 26.833 -53.5 34.5s-36.5 11.5 -56.5 11.5c-86.667 0 -130 -81 -130 -243c0 -160.667 43.667 -241 131 -241c22.667 0 42.834 4.5 60.501 13.5s37.5 22.167 59.5 39.5l72 -88
c-24.667 -26 -54.167 -47.333 -88.5 -64s-72.166 -25 -113.499 -25c-58 0 -108.5 13.667 -151.5 41s-76.5 68.333 -100.5 123s-36 121.667 -36 201c0 77.333 12.333 143.166 37 197.499s58.5 95.333 101.5 123s92.5 41.5 148.5 41.5c40 0 75.667 -6.33301 107 -19z" />
    <glyph glyph-name="D" unicode="D" horiz-adv-x="595" 
d="M404.5 666c47.667 -18 86.167 -52.333 115.5 -103s44 -121.667 44 -213c0 -129.333 -28.667 -220 -86 -272s-133.333 -78 -228 -78h-195v693h182c64 0 119.833 -9 167.5 -27zM215 577l-0.000976562 -460.999h45c30.667 0 56 6.66699 76 20s35.5 37.166 46.5 71.499
s16.5 81.833 16.5 142.5s-5.66699 107.667 -17 141s-27.166 56 -47.499 68s-45.5 18 -75.5 18h-44z" />
    <glyph glyph-name="E" unicode="E" horiz-adv-x="474" 
d="M447 693l-17 -114h-215v-171h188v-112h-188v-180h230v-116h-390v693h392z" />
    <glyph glyph-name="F" unicode="F" horiz-adv-x="441" 
d="M55 0v693h380l-17 -114h-203v-188h178v-114h-178v-277h-160z" />
    <glyph glyph-name="G" unicode="G" horiz-adv-x="590" 
d="M547 625l-78 -81.999c-22.667 18 -43.5 31 -62.5 39s-40.5 12 -64.5 12c-46.667 0 -82.667 -19.167 -108 -57.5s-38 -101.5 -38 -189.5c0 -63.333 4.33301 -112.833 13 -148.5s21.667 -60.834 39 -75.501s40.333 -22 69 -22c30 0 56.667 7.33301 80 22v162h-77l-15 113
h244v-343c-32.667 -22.667 -69 -40.334 -109 -53.001s-80 -19 -120 -19c-98 0 -170.833 30.167 -218.5 90.5s-71.5 151.5 -71.5 273.5c0 78.667 13.333 145.334 40 200.001s63 95.5 109 122.5s98 40.5 156 40.5c81.333 0 152 -28.333 212 -85z" />
    <glyph glyph-name="H" unicode="H" horiz-adv-x="602" 
d="M388 0v298h-173v-298h-160v693h160v-270h173v270h160v-693h-160z" />
    <glyph glyph-name="I" unicode="I" horiz-adv-x="269" 
d="M215 693v-693h-160v693h160z" />
    <glyph glyph-name="J" unicode="J" horiz-adv-x="290" 
d="M238 105c0 -78.667 -18.667 -138 -56 -178s-88.333 -71.333 -153 -94l-42 113c26 11.333 45.5 24 58.5 38s21.667 30.667 26 50s6.5 45 6.5 77v582h160v-588z" />
    <glyph glyph-name="K" unicode="K" horiz-adv-x="581" 
d="M215 693v-693h-160v693h160zM577 693l-194 -311l210 -382h-179l-194 370l194 323h163z" />
    <glyph glyph-name="L" unicode="L" horiz-adv-x="465" 
d="M215 693v-566h241l-17 -127h-384v693h160z" />
    <glyph glyph-name="M" unicode="M" horiz-adv-x="720" 
d="M690 0l-153 0.000976562l-9 274c-2.66699 80 -4 139 -4 177c0 46.667 0.666992 81 2 103l-91 -481h-150l-96 481c2.66699 -50.667 4 -104.334 4 -161.001c0 -25.333 -0.666992 -66 -2 -122l-9 -271h-152l46 693h200l87 -472l80 472h201z" />
    <glyph glyph-name="N" unicode="N" horiz-adv-x="599" 
d="M544 0h-200l-170 544c1.33301 -8 2 -14.667 2 -20c6 -48 10.667 -91.5 14 -130.5s5 -84.167 5 -135.5v-258h-140v693h198l173 -545c-14.667 86.667 -22 173 -22 259v286h140v-693z" />
    <glyph glyph-name="O" unicode="O" horiz-adv-x="630" 
d="M526 617.5c49.333 -61.667 74.002 -151.834 74.002 -270.501c0 -117.333 -24.833 -207.333 -74.5 -270s-119.834 -94 -210.501 -94s-160.834 31 -210.501 93s-74.5 152.333 -74.5 271c0 116.667 24.833 206.334 74.5 269.001s119.834 94 210.501 94
c91.333 0 161.666 -30.833 210.999 -92.5zM225.502 536c-19 -38 -28.5 -101 -28.5 -189c0 -89.333 9.66699 -152.833 29 -190.5s49 -56.5 89 -56.5c40.667 0 70.5 18.833 89.5 56.5s28.5 101.167 28.5 190.5c0 88 -9.5 151 -28.5 189s-48.833 57 -89.5 57
s-70.5 -19 -89.5 -57z" />
    <glyph glyph-name="P" unicode="P" horiz-adv-x="544" 
d="M457.5 636c47.667 -38 71.498 -94 71.498 -168c0 -78 -23.167 -136.833 -69.5 -176.5s-110.166 -59.5 -191.499 -59.5h-53v-232h-160v693h198c88.667 0 156.834 -19 204.501 -57zM337.998 375.5c18 18.333 27 48.833 27 91.5c0 38 -8.83301 66.167 -26.5 84.5
s-45.5 27.5 -83.5 27.5h-40v-231h40c37.333 0 65 9.16699 83 27.5z" />
    <glyph glyph-name="Q" unicode="Q" horiz-adv-x="630" 
d="M555.5 28c29.667 -10.667 58.166 -27.333 85.499 -50l-96 -122c-32.667 41.333 -67.334 73.333 -104.001 96s-82 34 -136 34c-86 0 -153.333 31.167 -202 93.5s-73 151.5 -73 267.5s24.833 205.5 74.5 268.5s119.834 94.5 210.501 94.5s160.834 -31 210.501 -93
s74.5 -152 74.5 -270c0 -80 -13.667 -143.5 -41 -190.5s-64 -84.5 -110 -112.5c41.333 0 76.833 -5.33301 106.5 -16zM225.999 157.501c19.333 -37.667 49 -56.498 89 -56.498c41.333 0 71.333 18.667 90 56s28 100.666 28 189.999c0 88.667 -9.5 151.834 -28.5 189.501
s-48.833 56.5 -89.5 56.5s-70.5 -18.833 -89.5 -56.5s-28.5 -100.834 -28.5 -189.501s9.66699 -151.834 29 -189.501z" />
    <glyph glyph-name="R" unicode="R" horiz-adv-x="562" 
d="M267 266h-52.001v-266h-160v693h203c90.667 0 158.334 -17.5 203.001 -52.5s67 -87.5 67 -157.5c0 -88.667 -39 -151 -117 -187l157 -296h-175zM214.999 377h48.999c34.667 0 60 8.5 76 25.5s24 43.833 24 80.5c0 33.333 -8.66699 57.833 -26 73.5
s-44.666 23.5 -81.999 23.5h-41v-203z" />
    <glyph glyph-name="S" unicode="S" horiz-adv-x="519" 
d="M385.5 687.5c35.667 -15 68.1592 -37.167 97.4922 -66.5l-73 -84c-43.333 37.333 -87.666 56 -132.999 56c-25.333 0 -45.333 -6.33301 -60 -19s-22 -30 -22 -52c0 -14.667 3.33301 -27 10 -37s18.334 -19.667 35.001 -29s41.334 -20 74.001 -32
c42.667 -16 77.167 -33.167 103.5 -51.5s46.5 -41.166 60.5 -68.499s21 -61.333 21 -102c0 -42.667 -10.167 -80.5 -30.5 -113.5s-49.666 -58.833 -87.999 -77.5s-83.166 -28 -134.499 -28c-96.667 0 -177 32.667 -241 98l78 87c24.667 -21.333 49.5 -37.666 74.5 -48.999
s51.5 -17 79.5 -17c30.667 0 54.334 8 71.001 24s25 37.333 25 64c0 25.333 -7.66699 45.666 -23 60.999s-44.333 30.666 -87 45.999c-69.333 26 -118.666 55.333 -147.999 88s-44 74.334 -44 125.001c0 39.333 10 74.166 30 104.499s47.5 53.833 82.5 70.5
s74.5 25 118.5 25c46.667 0 87.834 -7.5 123.501 -22.5z" />
    <glyph glyph-name="T" unicode="T" horiz-adv-x="490" 
d="M491 693l-17 -122h-149v-571h-160v571h-158v122h484z" />
    <glyph glyph-name="U" unicode="U" horiz-adv-x="587" 
d="M543 214c0 -44 -9.33398 -83.5 -28.001 -118.5s-46.667 -62.5 -84 -82.5s-83 -30 -137 -30c-81.333 0 -143.166 21 -185.499 63s-63.5 98 -63.5 168v479h160v-473c0 -40 7 -69.5 21 -88.5s36.667 -28.5 68 -28.5s53.833 9.5 67.5 28.5s20.5 48.5 20.5 88.5v473h161v-479z
" />
    <glyph glyph-name="V" unicode="V" horiz-adv-x="525" 
d="M536 693l-169 -693h-202l-176 693h164l116 -567l107 567h160z" />
    <glyph glyph-name="W" unicode="W" horiz-adv-x="772" 
d="M763 693l-100 -693h-208l-70 534l-76 -534h-203l-97 693h155l59 -572l81 572h166l76 -572l68 572h149z" />
    <glyph glyph-name="X" unicode="X" horiz-adv-x="530" 
d="M357 374l179 -374h-171l-104 267l-100 -267h-167l173 368l-160 325h170l86 -225l92 225h166z" />
    <glyph glyph-name="Y" unicode="Y" horiz-adv-x="542" 
d="M551 693l-200 -433v-260h-160v259l-200 434h171l111 -308l113 308h165z" />
    <glyph glyph-name="Z" unicode="Z" horiz-adv-x="492" 
d="M467 693v-121l-273 -444h279l-16 -128h-443v120l275 449h-249v124h427z" />
    <glyph glyph-name="bracketleft" unicode="[" horiz-adv-x="295" 
d="M275 822v-114h-103v-717h103v-113h-248v944h248z" />
    <glyph glyph-name="backslash" unicode="\" horiz-adv-x="468" 
d="M192 815l216 -896l-133 -30l-215 896z" />
    <glyph glyph-name="bracketright" unicode="]" horiz-adv-x="295" 
d="M267 822v-944h-248v114h104v716h-104v114h248z" />
    <glyph glyph-name="asciicircum" unicode="^" horiz-adv-x="510" 
d="M325 844l170 -317h-149l-93 201l-87 -201h-152l170 317h141z" />
    <glyph glyph-name="underscore" unicode="_" horiz-adv-x="471" 
d="M9 -169v121h453v-121h-453z" />
    <glyph glyph-name="grave" unicode="`" horiz-adv-x="319" 
d="M93 830l199 -131l-42 -76l-217 94z" />
    <glyph glyph-name="a" unicode="a" horiz-adv-x="497" 
d="M450 107c4.66699 -8.66699 12.6689 -15.332 24.002 -19.999l-32 -101c-30.667 2.66699 -55.667 9.66699 -75 21s-34.333 29 -45 53c-32.667 -51.333 -80.334 -77 -143.001 -77c-48 0 -86.167 15.167 -114.5 45.5s-42.5 70.5 -42.5 120.5c0 58 19.5 102.333 58.5 133
s95.5 46 169.5 46h42v25c0 31.333 -5.66699 53.166 -17 65.499s-31.333 18.5 -60 18.5c-32.667 0 -74.334 -9 -125.001 -27l-35 99c29.333 12.667 60.666 22.334 93.999 29.001s64.333 10 93 10c68.667 0 119.334 -15.333 152.001 -46s49 -77.334 49 -140.001v-215
c0 -18 2.33301 -31.333 7 -40zM263.502 106.002c11.667 8.66699 21.167 21.001 28.5 37.001v99h-28c-31.333 0 -54.333 -6.5 -69 -19.5s-22 -33.167 -22 -60.5c0 -22.667 4.5 -39.834 13.5 -51.501s21.833 -17.5 38.5 -17.5c14 0 26.833 4.33301 38.5 13z" />
    <glyph glyph-name="b" unicode="b" horiz-adv-x="543" 
d="M466.5 475.5c30.333 -48.333 45.4961 -118.499 45.4961 -210.499c0 -56 -7.66699 -105.333 -23 -148s-37.333 -75.667 -66 -99s-62.667 -35 -102 -35c-25.333 0 -48.666 5.83301 -69.999 17.5s-39.666 28.167 -54.999 49.5l-7 -50h-137v742l154 16v-279
c14.667 21.333 33.334 38.166 56.001 50.499s47.334 18.5 74.001 18.5c56.667 0 100.167 -24.167 130.5 -72.5zM332.996 133.501c13.333 25.667 20 69.501 20 131.501c0 66 -6 110.833 -18 134.5s-29.333 35.5 -52 35.5c-14.667 0 -28.5 -5.33301 -41.5 -16
s-24.833 -25.334 -35.5 -44.001v-230c18.667 -33.333 42 -50 70 -50c24.667 0 43.667 12.833 57 38.5z" />
    <glyph glyph-name="c" unicode="c" horiz-adv-x="436" 
d="M360 532c26.667 -10.667 51.667 -27 75 -49l-64 -88c-15.333 12 -30 20.833 -44 26.5s-29 8.5 -45 8.5c-30.667 0 -53.667 -12.667 -69 -38s-23 -68.666 -23 -129.999c0 -58.667 7.83301 -99.667 23.5 -123s38.167 -35 67.5 -35c15.333 0 29.333 2.5 42 7.5
s27.667 13.5 45 25.5l67 -91c-46 -42 -100.333 -63 -163 -63c-76 0 -135.5 24.333 -178.5 73s-64.5 117 -64.5 205c0 58 9.83301 108.667 29.5 152s47.667 76.666 84 99.999s78.833 35 127.5 35c33.333 0 63.333 -5.33301 90 -16z" />
    <glyph glyph-name="d" unicode="d" horiz-adv-x="545" 
d="M492 742l-0.00195312 -742h-136l-7 59c-34 -50.667 -79 -76 -135 -76c-59.333 0 -104.666 24.833 -135.999 74.5s-47 119.167 -47 208.5c0 56 8.16699 105.333 24.5 148s39.333 75.667 69 99s63.834 35 102.501 35c44.667 0 81.667 -16.333 111 -49v259zM303.998 109.5
c12 9 23.333 22.833 34 41.5v241c-10.667 14.667 -21.167 25.5 -31.5 32.5s-22.5 10.5 -36.5 10.5c-53.333 0 -80 -56.333 -80 -169c0 -63.333 6.33301 -107.5 19 -132.5s30.667 -37.5 54 -37.5c15.333 0 29 4.5 41 13.5z" />
    <glyph glyph-name="e" unicode="e" horiz-adv-x="507" 
d="M480 220l-296 0.00195312c4 -46.667 14.333 -79 31 -97s40.334 -27 71.001 -27c20 0 39 3.66699 57 11s37.667 18.666 59 33.999l63 -85c-54.667 -48.667 -118.334 -73 -191.001 -73c-80 0 -140.833 24.833 -182.5 74.5s-62.5 118.167 -62.5 205.5
c0 85.333 20 154.166 60 206.499s96.333 78.5 169 78.5c70 0 125 -23.5 165 -70.5s60 -114.167 60 -201.5c0 -21.333 -1 -40 -3 -56zM332 320.002c0 42 -5.49902 73.5 -16.499 94.5s-29.5 31.5 -55.5 31.5c-23.333 0 -41.333 -9.83301 -54 -29.5
s-20.334 -54.167 -23.001 -103.5h149v7z" />
    <glyph glyph-name="f" unicode="f" horiz-adv-x="329" 
d="M240 630.5c-8.66699 -9.66699 -13 -25.5 -13 -47.5v-52h109l-17 -107h-92v-424h-154v424h-70v107h70v51c0 52.667 16.167 95.167 48.5 127.5s78.833 48.5 139.5 48.5c49.333 0 94.333 -10.667 135 -32l-41 -99c-24 12 -48 18 -72 18c-20 0 -34.333 -4.83301 -43 -14.5z
" />
    <glyph glyph-name="g" unicode="g" horiz-adv-x="497" 
d="M500 500c-30.667 -13.333 -76.3369 -19.9971 -137.004 -19.9971c32 -14.667 55.5 -32.834 70.5 -54.501s22.5 -49.5 22.5 -83.5s-8.33301 -64.5 -25 -91.5s-40.5 -48 -71.5 -63s-67.5 -22.5 -109.5 -22.5c-20 0 -38 2 -54 6c-11.333 -7.33301 -17 -18 -17 -32
c0 -10.667 3.83301 -19 11.5 -25s21.834 -9 42.501 -9h65c58.667 0 105.334 -14.167 140.001 -42.5s52 -64.833 52 -109.5c0 -54 -22 -96.5 -66 -127.5s-107 -46.5 -189 -46.5c-88 0 -149 14.333 -183 43s-51 71 -51 127h138c0 -24.667 6.66699 -42.334 20 -53.001
s39.333 -16 78 -16c36.667 0 62.334 5.5 77.001 16.5s22 26.167 22 45.5c0 37.333 -23.667 56 -71 56h-57c-53.333 0 -92.666 9.5 -117.999 28.5s-38 44.167 -38 75.5c0 19.333 5.33301 37.666 16 54.999s25 32.333 43 45c-30.667 18 -52.834 39 -66.501 63
s-20.5 53.667 -20.5 89c0 60 19.833 107.333 59.5 142s92.834 51.667 159.501 51c46.667 -0.666992 85.667 4.5 117 15.5s66 27.5 104 49.5zM175.997 356.003c0 -30.667 5.83301 -53.667 17.5 -69s28.167 -23 49.5 -23c22 0 38.667 7.5 50 22.5s17 38.833 17 71.5
c0 30.667 -5.5 53 -16.5 67s-27.833 21 -50.5 21c-44.667 0 -67 -30 -67 -90z" />
    <glyph glyph-name="h" unicode="h" horiz-adv-x="524" 
d="M439.5 506.5c23.667 -27.667 35.498 -65.499 35.498 -113.499v-393h-154v372c0 22 -3.33301 37.5 -10 46.5s-16 13.5 -28 13.5c-13.333 0 -26.166 -5.5 -38.499 -16.5s-25.166 -27.167 -38.499 -48.5v-367h-154v742l154 16v-285c18.667 25.333 39 44.166 61 56.499
s47 18.5 75 18.5c41.333 0 73.833 -13.833 97.5 -41.5z" />
    <glyph glyph-name="i" unicode="i" horiz-adv-x="259" 
d="M206 531v-531h-154v531h154zM192.5 783c17 -16.667 25.5 -37.334 25.5 -62.001c0 -25.333 -8.5 -46.333 -25.5 -63s-38.5 -25 -64.5 -25s-47.333 8.33301 -64 25s-25 37.667 -25 63c0 24.667 8.33301 45.334 25 62.001s38 25 64 25s47.5 -8.33301 64.5 -25z" />
    <glyph glyph-name="j" unicode="j" horiz-adv-x="259" 
d="M206 48c0 -51.333 -8.33203 -94.167 -24.999 -128.5s-39.5 -62 -68.5 -83s-64.833 -40.167 -107.5 -57.5l-51 112c23.333 12.667 41.666 24.667 54.999 36s23.833 26 31.5 44s11.5 41.667 11.5 71v489h154v-483zM192.501 782.999c17 -16.667 25.5 -37.334 25.5 -62.001
c0 -25.333 -8.5 -46.333 -25.5 -63s-38.5 -25 -64.5 -25s-47.333 8.33301 -64 25s-25 37.667 -25 63c0 24.667 8.33301 45.334 25 62.001s38 25 64 25s47.5 -8.33301 64.5 -25z" />
    <glyph glyph-name="k" unicode="k" horiz-adv-x="509" 
d="M206 758v-758h-154v742zM506 531l-142 -233l153 -298h-168l-138 290l144 241h151z" />
    <glyph glyph-name="l" unicode="l" horiz-adv-x="273" 
d="M84 21c-24.667 25.333 -36.999 60.667 -36.999 106v615l154 16v-624c0 -19.333 8 -29 24 -29c6.66699 0 14 1.33301 22 4l29 -107c-26.667 -12.667 -56.334 -19 -89.001 -19c-44 0 -78.333 12.667 -103 38z" />
    <glyph glyph-name="m" unicode="m" horiz-adv-x="763" 
d="M680.5 506c23 -28 34.501 -65.667 34.501 -113v-393h-152v373c0 40 -12 60 -36 60c-23.333 0 -45.666 -21 -66.999 -63v-370h-152v373c0 40 -11.667 60 -35 60c-13.333 0 -25.333 -5.33301 -36 -16s-21.334 -26.334 -32.001 -47.001v-370h-153v531h135l10 -63
c36.667 53.333 82.667 80 138 80c26.667 0 49.667 -7.16699 69 -21.5s33.666 -35.166 42.999 -62.499c19.333 28 40.5 49 63.5 63s49.167 21 78.5 21c38 0 68.5 -14 91.5 -42z" />
    <glyph glyph-name="n" unicode="n" horiz-adv-x="524" 
d="M439.5 506.5c23.667 -27.667 35.499 -65.5 35.499 -113.5v-393h-154v372c0 22 -3.16699 37.5 -9.5 46.5s-15.833 13.5 -28.5 13.5c-13.333 0 -26.166 -5.5 -38.499 -16.5s-25.166 -27.167 -38.499 -48.5v-367h-154v531h135l11 -63c19.333 26.667 40.666 46.667 63.999 60
s50 20 80 20c41.333 0 73.833 -13.833 97.5 -41.5z" />
    <glyph glyph-name="o" unicode="o" horiz-adv-x="534" 
d="M442.5 475.5c42.333 -48.333 63.5 -118.501 63.5 -210.501c0 -88 -21.333 -157 -64 -207s-101 -75 -175 -75c-74.667 0 -133 24.333 -175 73s-63 118.667 -63 210c0 88.667 21.167 157.834 63.5 207.501s100.5 74.5 174.5 74.5c74.667 0 133.167 -24.167 175.5 -72.5z
M207 394.999c-12.667 -26 -19 -69 -19 -129c0 -61.333 6.33301 -105 19 -131s32.667 -39 60 -39s47.5 13.167 60.5 39.5s19.5 69.5 19.5 129.5c0 61.333 -6.33301 104.833 -19 130.5s-33 38.5 -61 38.5c-27.333 0 -47.333 -13 -60 -39z" />
    <glyph glyph-name="p" unicode="p" horiz-adv-x="543" 
d="M467.5 475c29.667 -48.667 44.501 -118 44.501 -208c0 -56 -7.83301 -105.5 -23.5 -148.5s-37.834 -76.333 -66.501 -100s-62.334 -35.5 -101.001 -35.5c-46 0 -84.333 18.333 -115 55v-243l-154 -16v752h137l7 -58c36 50 82.333 75 139 75
c58.667 0 102.834 -24.333 132.501 -73zM353.001 265c0 64.667 -5.83203 109.167 -17.499 133.5s-28.834 36.5 -51.501 36.5c-30 0 -56 -19.667 -78 -59v-235c19.333 -29.333 42.333 -44 69 -44c52 0 78 56 78 168z" />
    <glyph glyph-name="q" unicode="q" horiz-adv-x="545" 
d="M492 531l-0.00195312 -752l-154 16v252c-31.333 -42.667 -72.666 -64 -123.999 -64c-59.333 0 -104.666 24.833 -135.999 74.5s-47 119.167 -47 208.5c0 56 8.16699 105.333 24.5 148s39.333 75.667 69 99s64.167 35 103.5 35c48 0 89 -20.667 123 -62l7 45h134z
M303.998 110c12 9.33301 23.333 23.333 34 42v239c-10.667 14.667 -21.167 25.667 -31.5 33s-22.5 11 -36.5 11c-24.667 0 -44.167 -13.333 -58.5 -40s-21.5 -69.667 -21.5 -129c0 -64.667 6.33301 -109.167 19 -133.5s30.667 -36.5 54 -36.5c15.333 0 29 4.66699 41 14z
" />
    <glyph glyph-name="r" unicode="r" horiz-adv-x="366" 
d="M370 538l-24.999 -148.001c-14 4 -28 6 -42 6c-27.333 0 -48.333 -10.5 -63 -31.5s-26 -52.167 -34 -93.5v-271h-154v531h135l12 -93c12 34.667 28.667 61.334 50 80.001s46.333 28 75 28c17.333 0 32.666 -2.66699 45.999 -8z" />
    <glyph glyph-name="s" unicode="s" horiz-adv-x="438" 
d="M324 531c30.667 -11.333 57.668 -27.3369 81.001 -48.0039l-56 -84c-40 26 -77.667 39 -113 39c-18.667 0 -33 -3.83301 -43 -11.5s-15 -18.167 -15 -31.5c0 -10 2.5 -18.5 7.5 -25.5s14.5 -14 28.5 -21s35 -15.5 63 -25.5c49.333 -16.667 85.833 -37.667 109.5 -63
s35.5 -59.666 35.5 -102.999c0 -53.333 -20.333 -95.666 -61 -126.999s-92.667 -47 -156 -47c-40.667 0 -78.5 7 -113.5 21s-64.833 33 -89.5 57l73 82c41.333 -33.333 82.666 -50 123.999 -50c20.667 0 36.834 4.5 48.501 13.5s17.5 21.5 17.5 37.5
c0 12.667 -2.5 23 -7.5 31s-14.333 15.667 -28 23s-34.834 16 -63.501 26c-48.667 16.667 -84.167 37.834 -106.5 63.501s-33.5 58.167 -33.5 97.5c0 30.667 8 58.334 24 83.001s39 44.167 69 58.5s65.333 21.5 106 21.5c35.333 0 68.333 -5.66699 99 -17z" />
    <glyph glyph-name="t" unicode="t" horiz-adv-x="352" 
d="M362 25c-18 -13.333 -38.833 -23.667 -62.5 -31s-47.5 -11 -71.5 -11c-54 0 -94.667 15.333 -122 46s-41 73.667 -41 129v266h-64v107h64v115l154 18v-133h109l-16 -107h-93v-264c0 -36.667 14 -55 42 -55c15.333 0 32 5 50 15z" />
    <glyph glyph-name="u" unicode="u" horiz-adv-x="519" 
d="M466 0l-134 -0.000976562l-7 64c-34.667 -54 -81.667 -81 -141 -81c-43.333 0 -76.833 14.333 -100.5 43s-35.5 67.334 -35.5 116.001v389h154v-377c0 -38 13.333 -57 40 -57c26 0 49.333 19.333 70 58v376h154v-531z" />
    <glyph glyph-name="v" unicode="v" horiz-adv-x="470" 
d="M476 531l-148 -531h-182l-151 531h161l82 -414l85 414h153z" />
    <glyph glyph-name="w" unicode="w" horiz-adv-x="687" 
d="M682 531l-97 -531h-182l-59 393l-59 -393h-180l-100 531h151l48 -415l70 415h147l63 -415l53 415h145z" />
    <glyph glyph-name="x" unicode="x" horiz-adv-x="469" 
d="M326 284l153 -284h-167l-82 201l-78 -201h-162l152 279l-138 252h165l65 -172l62 172h159z" />
    <glyph glyph-name="y" unicode="y" horiz-adv-x="476" 
d="M330 -1c-38 -138 -130.667 -211.667 -278 -221l-17 107c46 6.66699 80.333 18.5 103 35.5s40.667 43.5 54 79.5h-55l-142 531h158l82 -433l91 433h155z" />
    <glyph glyph-name="z" unicode="z" horiz-adv-x="418" 
d="M400 531v-109l-217 -305h222l-14 -117h-380v109l217 306h-199v116h371z" />
    <glyph glyph-name="braceleft" unicode="{" horiz-adv-x="293" 
d="M274 732c-26 0 -43.666 -4.16699 -52.999 -12.5s-14 -23.833 -14 -46.5v-190c0 -42 -7.66699 -72.5 -23 -91.5s-40 -33.167 -74 -42.5c33.333 -7.33301 58 -20.833 74 -40.5s24 -50.167 24 -91.5v-190c0 -22.667 4.66699 -38.167 14 -46.5s26.666 -12.5 51.999 -12.5
v-108c-54.667 0 -97.167 6 -127.5 18s-51.333 29.833 -63 53.5s-17.5 54.5 -17.5 92.5v187c0 28 -4 47.5 -12 58.5s-23.333 16.5 -46 16.5v127c22.667 0 38 5.66699 46 17s12 31 12 59v187c0 38 5.83301 68.833 17.5 92.5s32.5 41.5 62.5 53.5s72.667 18 128 18v-108z" />
    <glyph glyph-name="bar" unicode="|" horiz-adv-x="333" 
d="M239 810v-915h-144v915h144z" />
    <glyph glyph-name="braceright" unicode="}" horiz-adv-x="293" 
d="M147 822c30 -12 50.833 -29.832 62.5 -53.499s17.5 -54.5 17.5 -92.5v-187c0 -28 4 -47.667 12 -59s23 -17 45 -17v-127c-22.667 0 -37.834 -5.5 -45.501 -16.5s-11.5 -30.5 -11.5 -58.5v-187c0 -38 -5.83301 -68.833 -17.5 -92.5s-32.667 -41.5 -63 -53.5
s-72.833 -18 -127.5 -18v108c25.333 0 42.5 4.16699 51.5 12.5s13.5 23.833 13.5 46.5v190c0 41.333 8 71.666 24 90.999s41 33 75 41c-34.667 9.33301 -59.667 23.5 -75 42.5s-23 49.5 -23 91.5v190c0 22.667 -4.66699 38.167 -14 46.5s-26.666 12.5 -51.999 12.5v108
c55.333 0 98 -6 128 -18z" />
    <glyph glyph-name="asciitilde" unicode="~" horiz-adv-x="474" 
d="M260.5 244.5c-15 6.33301 -30.833 15.167 -47.5 26.5c-14 8 -24.667 13.833 -32 17.5s-15.333 5.5 -24 5.5c-14 0 -25.333 -4.16699 -34 -12.5s-18.667 -21.166 -30 -38.499l-78 40c17.333 37.333 37.666 67.166 60.999 89.499s52.333 33.5 87 33.5
c19.333 0 36.333 -3 51 -9s30 -14.667 46 -26c14 -8 24.833 -13.833 32.5 -17.5s15.834 -5.5 24.501 -5.5c13.333 0 24.333 4 33 12s18.667 20 30 36l79 -40c-17.333 -36.667 -37.5 -66 -60.5 -88s-51.5 -33 -85.5 -33c-20 0 -37.5 3.16699 -52.5 9.5z" />
    <glyph glyph-name="uni00A0" unicode="&#xa0;" horiz-adv-x="208" 
 />
    <glyph glyph-name="exclamdown" unicode="&#xa1;" horiz-adv-x="230" 
d="M177 482c16.667 -17.333 24.998 -38 24.998 -62c0 -24.667 -8.16699 -45.667 -24.5 -63s-37.166 -26 -62.499 -26s-46.333 8.66699 -63 26s-25 38.333 -25 63c0 24 8.33301 44.667 25 62s37.667 26 63 26c24.667 0 45.334 -8.66699 62.001 -26zM175.998 237l21 -447h-163
l20 447h122z" />
    <glyph glyph-name="cent" unicode="&#xa2;" horiz-adv-x="436" 
d="M435 46c-37.333 -32.667 -77.666 -52.668 -120.999 -60.001v-147h-109v151c-56 13.333 -99.333 43.333 -130 90s-46 107 -46 181s15.667 135.5 47 184.5s74.666 80.5 129.999 94.5v151h108v-146c44.667 -7.33301 85 -28 121 -62l-64 -88c-15.333 12 -30 20.833 -44 26.5
s-29 8.5 -45 8.5c-30.667 0 -53.667 -12.667 -69 -38s-23 -68.666 -23 -129.999c0 -58.667 7.83301 -99.667 23.5 -123s38.167 -35 67.5 -35c15.333 0 29.333 2.5 42 7.5s27.667 13.5 45 25.5z" />
    <glyph glyph-name="sterling" unicode="&#xa3;" horiz-adv-x="491" 
d="M236 166.5c-8.66699 -18.333 -25.6699 -34.834 -51.0029 -49.501h279l-17 -117h-424v111c22.667 7.33301 39.334 16.166 50.001 26.499s17.5 22.333 20.5 36s4.5 32.834 4.5 57.501v80h-62v81h62v96c0 60 17 108.667 51 146s82.667 56 146 56
c40.667 0 76.334 -8.16699 107.001 -24.5s57.334 -41.166 80.001 -74.499l-92 -66c-12.667 17.333 -25 29.833 -37 37.5s-26 11.5 -42 11.5c-21.333 0 -37 -7 -47 -21s-15 -35.333 -15 -64v-97h162v-81h-162v-71c0 -30.667 -4.33301 -55.167 -13 -73.5z" />
    <glyph glyph-name="currency" unicode="&#xa4;" 
d="M425 78l-67.999 76.001c-30.667 -19.333 -65.667 -29 -105 -29c-38.667 0 -73.667 10 -105 30l-70 -77l-68 64l73 81c-19.333 33.333 -29 73 -29 119c0 44.667 9.66699 83.667 29 117l-73 83l71 63l67 -76c30.667 19.333 65.667 29 105 29s74.666 -10 105.999 -30l69 77
l68 -63l-72 -81c19.333 -36.667 29 -76.334 29 -119.001c0 -46 -9.66699 -85.667 -29 -119l73 -81zM314.501 256.001c13.667 18.667 20.5 47.332 20.5 85.999s-6.83301 67.334 -20.5 86.001s-34.5 28 -62.5 28c-54.667 0 -82 -38 -82 -114s27.333 -114 82 -114
c28 0 48.833 9.33301 62.5 28z" />
    <glyph glyph-name="yen" unicode="&#xa5;" horiz-adv-x="517" 
d="M526 676l-159 -324h88v-81h-119v-73h119v-81h-119v-117h-153v117h-118v81h118v73h-118v81h86l-160 324h158l112 -283l111 283h154z" />
    <glyph glyph-name="brokenbar" unicode="&#xa6;" horiz-adv-x="333" 
d="M239 810v-367h-144v367h144zM239 262v-367h-144v367h144z" />
    <glyph glyph-name="section" unicode="&#xa7;" horiz-adv-x="498" 
d="M421 137c8 -16 11.999 -35.6699 11.999 -59.0029c0 -48 -18.667 -86.833 -56 -116.5s-86.666 -44.5 -147.999 -44.5c-67.333 0 -126.333 18 -177 54l50 89c20 -12.667 39.5 -21.834 58.5 -27.501s38.833 -8.5 59.5 -8.5c22 0 39 4 51 12s18 19.333 18 34
c0 12 -2.5 21.667 -7.5 29s-15.167 14.833 -30.5 22.5s-38.666 17.167 -69.999 28.5c-47.333 16 -82 34.833 -104 56.5s-33 51.834 -33 90.501c0 26.667 6.66699 50.5 20 71.5s31.666 38.5 54.999 52.5c-18 14.667 -31.167 30.5 -39.5 47.5s-12.5 37.167 -12.5 60.5
c0 30.667 8.16699 58.167 24.5 82.5s39.5 43.333 69.5 57s65 20.5 105 20.5c66.667 0 125.667 -18.667 177 -56l-51 -86c-36.667 23.333 -75 35 -115 35c-22 0 -38.5 -4.16699 -49.5 -12.5s-16.5 -19.833 -16.5 -34.5c0 -12 2.5 -21.667 7.5 -29
s14.833 -14.666 29.5 -21.999s37.667 -16.666 69 -27.999c45.333 -16.667 79.5 -36.167 102.5 -58.5s34.5 -52.166 34.5 -89.499c0 -52 -24.333 -94.333 -73 -127c18.667 -13.333 32 -28 40 -44zM300.999 223.997c14.667 21.333 22 41.333 22 60
c0 18 -6.16699 32.833 -18.5 44.5s-35.833 23.5 -70.5 35.5c-16 5.33301 -29.333 10.666 -40 15.999c-12.667 -18.667 -19 -37.667 -19 -57c0 -18.667 4.83301 -33.167 14.5 -43.5s28.5 -21.166 56.5 -32.499c30 -12 48.333 -19.667 55 -23z" />
    <glyph glyph-name="dieresis" unicode="&#xa8;" horiz-adv-x="427" 
d="M164 775c14.667 -14.667 22 -33 22 -55s-7.33301 -40.5 -22 -55.5s-33 -22.5 -55 -22.5c-21.333 0 -39.5 7.5 -54.5 22.5s-22.5 33.5 -22.5 55.5c0 21.333 7.5 39.5 22.5 54.5s33.167 22.5 54.5 22.5c22 0 40.333 -7.33301 55 -22zM376.5 775
c15 -14.667 22.501 -33 22.501 -55s-7.33301 -40.5 -22 -55.5s-33.334 -22.5 -56.001 -22.5c-21.333 0 -39.5 7.5 -54.5 22.5s-22.5 33.5 -22.5 55.5c0 21.333 7.5 39.5 22.5 54.5s33.167 22.5 54.5 22.5c22 0 40.5 -7.33301 55.5 -22z" />
    <glyph glyph-name="copyright" unicode="&#xa9;" horiz-adv-x="729" 
d="M521 723c46.667 -28 83.667 -67.167 111 -117.5s41 -108.166 41 -173.499c0 -64.667 -13.5 -122.167 -40.5 -172.5s-64 -89.333 -111 -117s-99.167 -41.5 -156.5 -41.5c-56.667 0 -108.667 13.833 -156 41.5s-84.666 66.667 -111.999 117s-41 107.833 -41 172.5
c0 65.333 13.667 123.166 41 173.499s64.666 89.5 111.999 117.5s99.333 42 156 42c57.333 0 109.333 -14 156 -42zM251.5 656c-33.667 -20.667 -60 -50.334 -79 -89.001s-28.5 -83.667 -28.5 -135c0 -50.667 9.5 -95.167 28.5 -133.5s45.333 -67.833 79 -88.5
s71.5 -31 113.5 -31s79.667 10.333 113 31s59.5 50.167 78.5 88.5s28.5 82.833 28.5 133.5c0 51.333 -9.5 96.333 -28.5 135s-45.167 68.334 -78.5 89.001s-71 31 -113 31s-79.833 -10.333 -113.5 -31zM487 580l-45.002 -59c-12 8.66699 -22.667 14.834 -32 18.501
s-19.666 5.5 -30.999 5.5c-19.333 0 -35 -8.83301 -47 -26.5s-18 -46.167 -18 -85.5c0 -73.333 22 -110 66 -110c12.667 0 24.167 2.16699 34.5 6.5s21.5 11.166 33.5 20.499l43 -61c-16.667 -16.667 -35.5 -29.667 -56.5 -39s-43.167 -14 -66.5 -14
c-50 0 -89.333 17 -118 51s-43 82.667 -43 146c0 60.667 14.833 108.5 44.5 143.5s68.834 52.5 117.501 52.5c44.667 0 84 -16.333 118 -49z" />
    <glyph glyph-name="ordfeminine" unicode="&#xaa;" horiz-adv-x="454" 
d="M253 528l0.000976562 14.001c0 20.667 -4 34.667 -12 42s-22.667 11 -44 11c-26 0 -59.333 -7 -100 -21l-31 89c23.333 10 48.666 17.5 75.999 22.5s53.333 7.5 78 7.5c57.333 0 99.5 -11.833 126.5 -35.5s40.5 -58.5 40.5 -104.5v-155c0 -12 1.66699 -21.167 5 -27.5
s9.33301 -10.833 18 -13.5l-28 -90c-48.667 4 -82.667 22 -102 54c-25.333 -37.333 -62.666 -56 -111.999 -56c-38.667 0 -69.834 11.667 -93.501 35s-35.5 53.666 -35.5 90.999c0 44.667 15.833 78.667 47.5 102s77.167 35 136.5 35h30zM253.001 387.001v68h-18
c-22 0 -37.667 -4.16699 -47 -12.5s-14 -21.5 -14 -39.5c0 -28 11.667 -42 35 -42c18 0 32.667 8.66699 44 26zM43.001 119.001h376v-118h-376v118z" />
    <glyph glyph-name="guillemotleft" unicode="&#xab;" horiz-adv-x="589" 
d="M206 555l96 -63l-118 -207l118 -208l-96 -63l-172 221v98zM459 555l96 -63l-118 -207l118 -208l-96 -63l-172 221v98z" />
    <glyph glyph-name="logicalnot" unicode="&#xac;" horiz-adv-x="484" 
d="M443 387v-272h-126v154h-276v118h402z" />
    <glyph glyph-name="uni00AD" unicode="&#xad;" horiz-adv-x="375" 
d="M41 253v120h293v-120h-293z" />
    <glyph glyph-name="registered" unicode="&#xae;" horiz-adv-x="573" 
d="M415 723.5c38 -23 67.833 -55.167 89.5 -96.5s32.5 -88.666 32.5 -141.999c0 -52.667 -10.833 -99.667 -32.5 -141s-51.5 -73.5 -89.5 -96.5s-80.667 -34.5 -128 -34.5s-90.166 11.5 -128.499 34.5s-68.333 55.167 -90 96.5s-32.5 88.333 -32.5 141
c0 53.333 10.833 100.666 32.5 141.999s51.667 73.5 90 96.5s81.166 34.5 128.499 34.5s90 -11.5 128 -34.5zM414.5 334.5c32.333 37 48.5 87.167 48.5 150.5c0 64 -16.167 114.667 -48.5 152s-74.833 56 -127.5 56c-34.667 0 -65.334 -8.5 -92.001 -25.5
s-47.667 -41.167 -63 -72.5s-23 -68 -23 -110s7.66699 -78.5 23 -109.5s36.333 -54.833 63 -71.5s57.334 -25 92.001 -25c52.667 0 95.167 18.5 127.5 55.5zM376 500.5c-9.33301 -13 -21.667 -23.167 -37 -30.5l66 -118h-76l-51 103h-20v-103h-67v282h77
c40 0 70.333 -7.5 91 -22.5s31 -37.167 31 -66.5c0 -16.667 -4.66699 -31.5 -14 -44.5zM257.999 512l26 -0.000976562c11.333 0 20.333 2.83301 27 8.5s10 14.834 10 27.501c0 22 -12.667 33 -38 33h-25v-69z" />
    <glyph glyph-name="macron" unicode="&#xaf;" horiz-adv-x="340" 
d="M313 657h-280v105h280v-105z" />
    <glyph glyph-name="degree" unicode="&#xb0;" horiz-adv-x="468" 
d="M116 390.5c-24.667 13.667 -44.667 33.3311 -60 58.998s-23 56.167 -23 91.5s7.66699 65.833 23 91.5s35.333 45 60 58s51.334 19.5 80.001 19.5s55.334 -6.66699 80.001 -20s44.667 -32.666 60 -57.999s23 -55.666 23 -90.999s-7.66699 -66 -23 -92
s-35.333 -45.667 -60 -59s-51.334 -20 -80.001 -20s-55.334 6.83301 -80.001 20.5zM239.5 480.497c10.333 13.667 15.5 33.834 15.5 60.501s-5.16699 46.667 -15.5 60s-24.833 20 -43.5 20s-33.334 -6.66699 -44.001 -20s-16 -33.333 -16 -60s5.33301 -46.834 16 -60.501
s25.334 -20.5 44.001 -20.5s33.167 6.83301 43.5 20.5z" />
    <glyph glyph-name="plusminus" unicode="&#xb1;" horiz-adv-x="484" 
d="M48 0v118h388v-118h-388zM305 618v-154h137v-119h-137v-154h-126v154h-138v119h138v154h126z" />
    <glyph glyph-name="uni00B2" unicode="&#xb2;" horiz-adv-x="365" 
d="M283.5 715c25.667 -24 38.5 -53.666 38.5 -88.999c0 -21.333 -4 -41.333 -12 -60s-22.833 -40.167 -44.5 -64.5s-53.834 -55.5 -96.501 -93.5h162l-12 -87h-273v81c46 46.667 79.833 82.167 101.5 106.5s36.834 44.666 45.501 60.999s13 32.5 13 48.5
c0 14.667 -3.83301 26.167 -11.5 34.5s-18.167 12.5 -31.5 12.5s-25.333 -3.16699 -36 -9.5s-22 -16.5 -34 -30.5l-63 50c17.333 24 38.333 42.667 63 56s52.667 20 84 20c45.333 0 80.833 -12 106.5 -36z" />
    <glyph glyph-name="uni00B3" unicode="&#xb3;" horiz-adv-x="365" 
d="M282.5 720.5c25 -21 37.498 -47.501 37.498 -79.501c0 -50 -29.667 -82.667 -89 -98c32 -2 57.167 -11.5 75.5 -28.5s27.5 -41.5 27.5 -73.5c0 -37.333 -14 -68.666 -42 -93.999s-67.667 -38 -119 -38c-62 0 -111 22.333 -147 67l60 57
c13.333 -13.333 25.833 -22.833 37.5 -28.5s24.834 -8.5 39.501 -8.5c16.667 0 30 4.5 40 13.5s15 22.167 15 39.5c0 18.667 -5.16699 32.167 -15.5 40.5s-26.166 12.5 -47.499 12.5h-31l13 77h21c35.333 0 53 15.333 53 46c0 14 -4.16699 24.667 -12.5 32
s-19.833 11 -34.5 11c-26.667 0 -52 -11.333 -76 -34l-55 58c41.333 40 90 60 146 60c44 0 78.5 -10.5 103.5 -31.5z" />
    <glyph glyph-name="acute" unicode="&#xb4;" horiz-adv-x="319" 
d="M232 830l60 -113l-217 -94l-42 76z" />
    <glyph glyph-name="uni00B5" unicode="&#xb5;" horiz-adv-x="527" 
d="M349 -17c-5.33301 14 -9.33105 26.833 -11.998 38.5s-5.33398 26.5 -8.00098 44.5c-27.333 -49.333 -59.333 -74 -96 -74c-15.333 0 -29 3.16699 -41 9.5s-23.333 17.5 -34 33.5c13.333 -24.667 23.166 -47.5 29.499 -68.5s9.5 -48.167 9.5 -81.5v-90l-145 -15v751h154
v-372c0 -36.667 13.333 -55 40 -55c27.333 0 50.333 20.667 69 62v365h154v-349c0 -68 7 -128.667 21 -182z" />
    <glyph glyph-name="paragraph" unicode="&#xb6;" horiz-adv-x="719" 
d="M620 693v-898l-134 -17v808h-80v-791l-134 -17v486c-70 2 -123.833 22.5 -161.5 61.5s-56.5 90.167 -56.5 153.5c0 67.333 21.167 119.833 63.5 157.5s102.5 56.5 180.5 56.5h322z" />
    <glyph glyph-name="periodcentered" unicode="&#xb7;" horiz-adv-x="229" 
d="M177 370c16.667 -17.333 24.998 -38 24.998 -62c0 -24.667 -8.33301 -45.667 -25 -63s-37.667 -26 -63 -26s-46.166 8.66699 -62.499 26s-24.5 38.333 -24.5 63c0 24 8.33301 44.667 25 62s37.334 26 62.001 26c25.333 0 46.333 -8.66699 63 -26z" />
    <glyph glyph-name="cedilla" unicode="&#xb8;" horiz-adv-x="303" 
d="M181 -51c31.333 -4 55.002 -14.168 71.002 -30.501s24 -38.166 24 -65.499c0 -34 -12.333 -61.5 -37 -82.5s-58.334 -31.5 -101.001 -31.5c-40.667 0 -75.667 10 -105 30l35 69c18.667 -10 38 -15 58 -15c27.333 0 41 10.333 41 31c0 12 -6.83301 20.833 -20.5 26.5
s-34.834 8.5 -63.501 8.5l15 127h83v-67z" />
    <glyph glyph-name="uni00B9" unicode="&#xb9;" horiz-adv-x="365" 
d="M274 742v-421h-111v313l-82 -54l-50 73l141 89h102z" />
    <glyph glyph-name="ordmasculine" unicode="&#xba;" horiz-adv-x="456" 
d="M372 638.5c34.667 -36.333 52.001 -89.499 52.001 -159.499c0 -67.333 -17.333 -119.833 -52 -157.5s-82.334 -56.5 -143.001 -56.5c-61.333 0 -109.5 18.167 -144.5 54.5s-52.5 89.833 -52.5 160.5c0 67.333 17.5 119.666 52.5 156.999s82.833 56 143.5 56
c61.333 0 109.333 -18.167 144 -54.5zM185.501 568.501c-9 -17 -13.5 -46.5 -13.5 -88.5c0 -44 4.33301 -74.333 13 -91s23 -25 43 -25s34.5 8.5 43.5 25.5s13.5 46.833 13.5 89.5c0 43.333 -4.5 73.333 -13.5 90s-23.5 25 -43.5 25c-19.333 0 -33.5 -8.5 -42.5 -25.5z
M34.001 0.000976562v118h388v-118h-388z" />
    <glyph glyph-name="guillemotright" unicode="&#xbb;" horiz-adv-x="587" 
d="M129 555l173 -222v-98l-173 -221l-95 63l118 208l-118 207zM381 555l173 -222v-98l-173 -221l-95 63l118 208l-118 207z" />
    <glyph glyph-name="onequarter" unicode="&#xbc;" horiz-adv-x="888" 
d="M274 693v-421h-111v313l-82 -54l-50 73l141 89h102zM584 758l90 -41l-370 -802l-89 41zM866 168v-83h-42v-85h-104l-1 85h-175v76l108 270l95 -35l-89 -228h63l22 97h81v-97h42z" />
    <glyph glyph-name="onehalf" unicode="&#xbd;" horiz-adv-x="888" 
d="M274 693v-421h-111v313l-82 -54l-50 73l141 89h102zM584 758l90 -41l-370 -802l-89 41zM806.5 394c25.667 -24 38.5 -53.666 38.5 -88.999c0 -21.333 -4 -41.333 -12 -60s-22.833 -40.167 -44.5 -64.5s-53.834 -55.5 -96.501 -93.5h162l-12 -87h-273v81
c46 46.667 79.833 82.167 101.5 106.5s36.834 44.666 45.501 60.999s13 32.5 13 48.5c0 14.667 -3.83301 26.167 -11.5 34.5s-18.167 12.5 -31.5 12.5s-25.333 -3.16699 -36 -9.5s-22 -16.5 -34 -30.5l-63 50c17.333 24 38.333 42.667 63 56s52.667 20 84 20
c45.333 0 80.833 -12 106.5 -36z" />
    <glyph glyph-name="threequarters" unicode="&#xbe;" horiz-adv-x="888" 
d="M282.5 671.5c25 -21 37.498 -47.501 37.498 -79.501c0 -50 -29.667 -82.667 -89 -98c32 -2 57.167 -11.5 75.5 -28.5s27.5 -41.5 27.5 -73.5c0 -37.333 -14 -68.666 -42 -93.999s-67.667 -38 -119 -38c-62 0 -111 22.333 -147 67l60 57
c13.333 -13.333 25.833 -22.833 37.5 -28.5s24.834 -8.5 39.501 -8.5c16.667 0 30 4.5 40 13.5s15 22.167 15 39.5c0 18.667 -5.16699 32.167 -15.5 40.5s-26.166 12.5 -47.499 12.5h-31l13 77h21c35.333 0 53 15.333 53 46c0 14 -4.16699 24.667 -12.5 32
s-19.833 11 -34.5 11c-26.667 0 -52 -11.333 -76 -34l-55 58c41.333 40 90 60 146 60c44 0 78.5 -10.5 103.5 -31.5zM583.998 757.999l90 -41l-370 -802l-89 41zM865.998 167.999v-83h-42v-85h-104l-1 85h-175v76l108 270l95 -35l-89 -228h63l22 97h81v-97h42z" />
    <glyph glyph-name="questiondown" unicode="&#xbf;" horiz-adv-x="443" 
d="M180 357c-16.667 17.333 -24.998 38 -24.998 62c0 24.667 8.33301 45.667 25 63s37.667 26 63 26s46.166 -8.66699 62.499 -26s24.5 -38.333 24.5 -63c0 -24 -8.33301 -44.667 -25 -62s-37.334 -26 -62.001 -26c-25.333 0 -46.333 8.66699 -63 26zM104.502 -200
c-30.333 15.333 -53.168 35.668 -68.501 61.001s-23 53 -23 83c0 26.667 4.16699 49.5 12.5 68.5s18.5 34.5 30.5 46.5s28 25.667 48 41c24 18.667 41.833 35.667 53.5 51s17.5 34.666 17.5 57.999v27h139v-32c0 -30 -4.16699 -55.5 -12.5 -76.5s-18.333 -37.667 -30 -50
s-26.5 -25.5 -44.5 -39.5c-19.333 -15.333 -33.333 -28.5 -42 -39.5s-13 -25.5 -13 -43.5s5.16699 -31.833 15.5 -41.5s25.166 -14.5 44.499 -14.5c36.667 0 71.334 19.333 104.001 58l94 -73c-55.333 -71.333 -127 -107 -215 -107c-43.333 0 -80.166 7.66699 -110.499 23z
" />
    <glyph glyph-name="Agrave" unicode="&#xc0;" horiz-adv-x="543" 
d="M389 0l-31 151h-176l-31 -151h-162l187 693h192l186 -693h-165zM206 266h128l-64 310zM199 949l200 -122l-39 -76l-219 85z" />
    <glyph glyph-name="Aacute" unicode="&#xc1;" horiz-adv-x="543" 
d="M389 0l-31 151h-176l-31 -151h-162l187 693h192l186 -693h-165zM206 266h128l-64 310zM343 950l58 -113l-219 -86l-39 77z" />
    <glyph glyph-name="Acircumflex" unicode="&#xc2;" horiz-adv-x="543" 
d="M389 0l-31 151h-176l-31 -151h-162l187 693h192l186 -693h-165zM206 266h128l-64 310zM151 758l-54 58l129 131h92l128 -131l-53 -58l-121 83z" />
    <glyph glyph-name="Atilde" unicode="&#xc3;" horiz-adv-x="543" 
d="M389 0l-31 151h-176l-31 -151h-162l187 693h192l186 -693h-165zM206 266h128l-64 310zM292.5 771c-9 4 -20.4971 10.332 -34.4971 18.999c-8.66699 6 -15.5 10.333 -20.5 13s-10.5 4 -16.5 4c-10 0 -18.333 -3.16699 -25 -9.5s-14.334 -17.166 -23.001 -32.499l-74 35
c12 34 28.333 61.5 49 82.5s44 31.5 70 31.5c13.333 0 25 -2.16699 35 -6.5s21.333 -10.833 34 -19.5c1.33301 -0.666992 4.66602 -2.66699 9.99902 -6s10.166 -5.83301 14.499 -7.5s8.5 -2.5 12.5 -2.5c9.33301 0 17.5 3.16699 24.5 9.5s14.5 16.833 22.5 31.5l74 -35
c-12 -34.667 -28.333 -62.167 -49 -82.5s-44 -30.5 -70 -30.5c-13.333 0 -24.5 2 -33.5 6z" />
    <glyph glyph-name="Adieresis" unicode="&#xc4;" horiz-adv-x="543" 
d="M389 0l-31 151h-176l-31 -151h-162l187 693h192l186 -693h-165zM206 266h128l-64 310zM222 901c14.667 -14.667 22 -33 22 -55s-7.33301 -40.5 -22 -55.5s-33 -22.5 -55 -22.5c-21.333 0 -39.5 7.5 -54.5 22.5s-22.5 33.5 -22.5 55.5c0 21.333 7.5 39.5 22.5 54.5
s33.167 22.5 54.5 22.5c22 0 40.333 -7.33301 55 -22zM434.5 901c15 -14.667 22.501 -33 22.501 -55s-7.33301 -40.5 -22 -55.5s-33.334 -22.5 -56.001 -22.5c-21.333 0 -39.5 7.5 -54.5 22.5s-22.5 33.5 -22.5 55.5c0 21.333 7.5 39.5 22.5 54.5s33.167 22.5 54.5 22.5
c22 0 40.5 -7.33301 55.5 -22z" />
    <glyph glyph-name="Aring" unicode="&#xc5;" horiz-adv-x="543" 
d="M389 0l-31 151h-176l-31 -151h-162l187 693h192l186 -693h-165zM206 266h128l-64 310zM367 954.5c23.333 -24.333 35 -55.166 35 -92.499s-11.667 -68.333 -35 -93s-54.666 -37 -93.999 -37s-70.833 12.333 -94.5 37s-35.5 55.667 -35.5 93s11.833 68.166 35.5 92.499
s55.167 36.5 94.5 36.5s70.666 -12.167 93.999 -36.5zM233 862c0 -34.667 13.333 -52 40 -52c26 0 39 17.333 39 52c0 34 -13 51 -39 51c-26.667 0 -40 -17 -40 -51z" />
    <glyph glyph-name="AE" unicode="&#xc6;" horiz-adv-x="766" 
d="M533 116h209v-116h-343l-21 151h-185l-44 -151h-171l245 693h486l-17 -114h-237l29 -172h216v-113h-197zM227 267h134l-44 309z" />
    <glyph glyph-name="Ccedilla" unicode="&#xc7;" horiz-adv-x="524" 
d="M446 15c-28.667 -16 -60.3311 -26 -94.998 -30v-36c31.333 -4 55 -14.167 71 -30.5s24 -38.166 24 -65.499c0 -34 -12.333 -61.5 -37 -82.5s-58.334 -31.5 -101.001 -31.5c-40.667 0 -75.667 10 -105 30l35 69c18.667 -10 38 -15 58 -15c27.333 0 41 10.333 41 31
c0 12 -6.83301 20.833 -20.5 26.5s-34.834 8.5 -63.501 8.5l12 98c-73.333 12.667 -130.833 49.5 -172.5 110.5s-62.5 144.5 -62.5 250.5c0 77.333 12.333 143.166 37 197.499s58.5 95.333 101.5 123s92.5 41.5 148.5 41.5c40 0 75.667 -6.33301 107 -19s61 -31.667 89 -57
l-76 -89c-18 15.333 -35.833 26.833 -53.5 34.5s-36.5 11.5 -56.5 11.5c-86.667 0 -130 -81 -130 -243c0 -160.667 43.667 -241 131 -241c22.667 0 42.834 4.5 60.501 13.5s37.5 22.167 59.5 39.5l72 -88c-20.667 -22 -45.334 -41 -74.001 -57z" />
    <glyph glyph-name="Egrave" unicode="&#xc8;" horiz-adv-x="474" 
d="M447 693l-17 -114h-215v-171h188v-112h-188v-180h230v-116h-390v693h392zM179 949l200 -122l-39 -76l-219 85z" />
    <glyph glyph-name="Eacute" unicode="&#xc9;" horiz-adv-x="474" 
d="M447 693l-17 -114h-215v-171h188v-112h-188v-180h230v-116h-390v693h392zM323 950l58 -113l-219 -86l-39 77z" />
    <glyph glyph-name="Ecircumflex" unicode="&#xca;" horiz-adv-x="474" 
d="M447 693l-17 -114h-215v-171h188v-112h-188v-180h230v-116h-390v693h392zM131 758l-54 58l129 131h92l128 -131l-53 -58l-121 83z" />
    <glyph glyph-name="Edieresis" unicode="&#xcb;" horiz-adv-x="474" 
d="M447 693l-17 -114h-215v-171h188v-112h-188v-180h230v-116h-390v693h392zM202 901c14.667 -14.667 22 -33 22 -55s-7.33301 -40.5 -22 -55.5s-33 -22.5 -55 -22.5c-21.333 0 -39.5 7.5 -54.5 22.5s-22.5 33.5 -22.5 55.5c0 21.333 7.5 39.5 22.5 54.5
s33.167 22.5 54.5 22.5c22 0 40.333 -7.33301 55 -22zM414.5 901c15 -14.667 22.501 -33 22.501 -55s-7.33301 -40.5 -22 -55.5s-33.334 -22.5 -56.001 -22.5c-21.333 0 -39.5 7.5 -54.5 22.5s-22.5 33.5 -22.5 55.5c0 21.333 7.5 39.5 22.5 54.5s33.167 22.5 54.5 22.5
c22 0 40.5 -7.33301 55.5 -22z" />
    <glyph glyph-name="Igrave" unicode="&#xcc;" horiz-adv-x="269" 
d="M215 693v-693h-160v693h160zM61 949l200 -122l-39 -76l-219 85z" />
    <glyph glyph-name="Iacute" unicode="&#xcd;" horiz-adv-x="269" 
d="M215 693v-693h-160v693h160zM205 950l58 -113l-219 -86l-39 77z" />
    <glyph glyph-name="Icircumflex" unicode="&#xce;" horiz-adv-x="269" 
d="M215 693v-693h-160v693h160zM13 758l-54 58l129 131h92l128 -131l-53 -58l-121 83z" />
    <glyph glyph-name="Idieresis" unicode="&#xcf;" horiz-adv-x="269" 
d="M215 693v-693h-160v693h160zM84 901c14.667 -14.667 22 -33 22 -55s-7.33301 -40.5 -22 -55.5s-33 -22.5 -55 -22.5c-21.333 0 -39.5 7.5 -54.5 22.5s-22.5 33.5 -22.5 55.5c0 21.333 7.5 39.5 22.5 54.5s33.167 22.5 54.5 22.5c22 0 40.333 -7.33301 55 -22zM296.5 901
c15 -14.667 22.501 -33 22.501 -55s-7.33301 -40.5 -22 -55.5s-33.334 -22.5 -56.001 -22.5c-21.333 0 -39.5 7.5 -54.5 22.5s-22.5 33.5 -22.5 55.5c0 21.333 7.5 39.5 22.5 54.5s33.167 22.5 54.5 22.5c22 0 40.5 -7.33301 55.5 -22z" />
    <glyph glyph-name="Eth" unicode="&#xd0;" horiz-adv-x="611" 
d="M420.5 666c47.667 -18 86.167 -52.333 115.5 -103s44 -121.667 44 -213c0 -129.333 -28.667 -220 -86 -272s-133.333 -78 -228 -78h-195v305h-57v96h57v292h182c64 0 119.833 -9 167.5 -27zM352 136c20 13.333 35.499 37.167 46.499 71.5s16.5 81.833 16.5 142.5
s-5.66699 107.667 -17 141s-27.166 56 -47.499 68s-45.5 18 -75.5 18h-44v-176h106v-96h-106v-189h45c30.667 0 56 6.66699 76 20z" />
    <glyph glyph-name="Ntilde" unicode="&#xd1;" horiz-adv-x="599" 
d="M544 0h-200l-170 544c1.33301 -8 2 -14.667 2 -20c6 -48 10.667 -91.5 14 -130.5s5 -84.167 5 -135.5v-258h-140v693h198l173 -545c-14.667 86.667 -22 173 -22 259v286h140v-693zM322.5 771c-9 4 -20.4971 10.332 -34.4971 18.999c-8.66699 6 -15.5 10.333 -20.5 13
s-10.5 4 -16.5 4c-10 0 -18.333 -3.16699 -25 -9.5s-14.334 -17.166 -23.001 -32.499l-74 35c12 34 28.333 61.5 49 82.5s44 31.5 70 31.5c13.333 0 25 -2.16699 35 -6.5s21.333 -10.833 34 -19.5c1.33301 -0.666992 4.66602 -2.66699 9.99902 -6
s10.166 -5.83301 14.499 -7.5s8.5 -2.5 12.5 -2.5c9.33301 0 17.5 3.16699 24.5 9.5s14.5 16.833 22.5 31.5l74 -35c-12 -34.667 -28.333 -62.167 -49 -82.5s-44 -30.5 -70 -30.5c-13.333 0 -24.5 2 -33.5 6z" />
    <glyph glyph-name="Ograve" unicode="&#xd2;" horiz-adv-x="630" 
d="M526 617.5c49.333 -61.667 74.002 -151.834 74.002 -270.501c0 -117.333 -24.833 -207.333 -74.5 -270s-119.834 -94 -210.501 -94s-160.834 31 -210.501 93s-74.5 152.333 -74.5 271c0 116.667 24.833 206.334 74.5 269.001s119.834 94 210.501 94
c91.333 0 161.666 -30.833 210.999 -92.5zM225.502 536c-19 -38 -28.5 -101 -28.5 -189c0 -89.333 9.66699 -152.833 29 -190.5s49 -56.5 89 -56.5c40.667 0 70.5 18.833 89.5 56.5s28.5 101.167 28.5 190.5c0 88 -9.5 151 -28.5 189s-48.833 57 -89.5 57
s-70.5 -19 -89.5 -57zM242.002 949l200 -122l-39 -76l-219 85z" />
    <glyph glyph-name="Oacute" unicode="&#xd3;" horiz-adv-x="630" 
d="M526 617.5c49.333 -61.667 74.002 -151.834 74.002 -270.501c0 -117.333 -24.833 -207.333 -74.5 -270s-119.834 -94 -210.501 -94s-160.834 31 -210.501 93s-74.5 152.333 -74.5 271c0 116.667 24.833 206.334 74.5 269.001s119.834 94 210.501 94
c91.333 0 161.666 -30.833 210.999 -92.5zM225.502 536c-19 -38 -28.5 -101 -28.5 -189c0 -89.333 9.66699 -152.833 29 -190.5s49 -56.5 89 -56.5c40.667 0 70.5 18.833 89.5 56.5s28.5 101.167 28.5 190.5c0 88 -9.5 151 -28.5 189s-48.833 57 -89.5 57
s-70.5 -19 -89.5 -57zM386.002 950l58 -113l-219 -86l-39 77z" />
    <glyph glyph-name="Ocircumflex" unicode="&#xd4;" horiz-adv-x="630" 
d="M526 617.5c49.333 -61.667 74.002 -151.834 74.002 -270.501c0 -117.333 -24.833 -207.333 -74.5 -270s-119.834 -94 -210.501 -94s-160.834 31 -210.501 93s-74.5 152.333 -74.5 271c0 116.667 24.833 206.334 74.5 269.001s119.834 94 210.501 94
c91.333 0 161.666 -30.833 210.999 -92.5zM225.502 536c-19 -38 -28.5 -101 -28.5 -189c0 -89.333 9.66699 -152.833 29 -190.5s49 -56.5 89 -56.5c40.667 0 70.5 18.833 89.5 56.5s28.5 101.167 28.5 190.5c0 88 -9.5 151 -28.5 189s-48.833 57 -89.5 57
s-70.5 -19 -89.5 -57zM194.002 758l-54 58l129 131h92l128 -131l-53 -58l-121 83z" />
    <glyph glyph-name="Otilde" unicode="&#xd5;" horiz-adv-x="630" 
d="M526 617.5c49.333 -61.667 74.002 -151.834 74.002 -270.501c0 -117.333 -24.833 -207.333 -74.5 -270s-119.834 -94 -210.501 -94s-160.834 31 -210.501 93s-74.5 152.333 -74.5 271c0 116.667 24.833 206.334 74.5 269.001s119.834 94 210.501 94
c91.333 0 161.666 -30.833 210.999 -92.5zM225.502 536c-19 -38 -28.5 -101 -28.5 -189c0 -89.333 9.66699 -152.833 29 -190.5s49 -56.5 89 -56.5c40.667 0 70.5 18.833 89.5 56.5s28.5 101.167 28.5 190.5c0 88 -9.5 151 -28.5 189s-48.833 57 -89.5 57
s-70.5 -19 -89.5 -57zM335.502 771c-9 4 -20.4971 10.332 -34.4971 18.999c-8.66699 6 -15.5 10.333 -20.5 13s-10.5 4 -16.5 4c-10 0 -18.333 -3.16699 -25 -9.5s-14.334 -17.166 -23.001 -32.499l-74 35c12 34 28.333 61.5 49 82.5s44 31.5 70 31.5
c13.333 0 25 -2.16699 35 -6.5s21.333 -10.833 34 -19.5c1.33301 -0.666992 4.66602 -2.66699 9.99902 -6s10.166 -5.83301 14.499 -7.5s8.5 -2.5 12.5 -2.5c9.33301 0 17.5 3.16699 24.5 9.5s14.5 16.833 22.5 31.5l74 -35c-12 -34.667 -28.333 -62.167 -49 -82.5
s-44 -30.5 -70 -30.5c-13.333 0 -24.5 2 -33.5 6z" />
    <glyph glyph-name="Odieresis" unicode="&#xd6;" horiz-adv-x="630" 
d="M526 617.5c49.333 -61.667 74.002 -151.834 74.002 -270.501c0 -117.333 -24.833 -207.333 -74.5 -270s-119.834 -94 -210.501 -94s-160.834 31 -210.501 93s-74.5 152.333 -74.5 271c0 116.667 24.833 206.334 74.5 269.001s119.834 94 210.501 94
c91.333 0 161.666 -30.833 210.999 -92.5zM225.502 536c-19 -38 -28.5 -101 -28.5 -189c0 -89.333 9.66699 -152.833 29 -190.5s49 -56.5 89 -56.5c40.667 0 70.5 18.833 89.5 56.5s28.5 101.167 28.5 190.5c0 88 -9.5 151 -28.5 189s-48.833 57 -89.5 57
s-70.5 -19 -89.5 -57zM265.002 901c14.667 -14.667 22 -33 22 -55s-7.33301 -40.5 -22 -55.5s-33 -22.5 -55 -22.5c-21.333 0 -39.5 7.5 -54.5 22.5s-22.5 33.5 -22.5 55.5c0 21.333 7.5 39.5 22.5 54.5s33.167 22.5 54.5 22.5c22 0 40.333 -7.33301 55 -22zM477.502 901
c15 -14.667 22.501 -33 22.501 -55s-7.33301 -40.5 -22 -55.5s-33.334 -22.5 -56.001 -22.5c-21.333 0 -39.5 7.5 -54.5 22.5s-22.5 33.5 -22.5 55.5c0 21.333 7.5 39.5 22.5 54.5s33.167 22.5 54.5 22.5c22 0 40.5 -7.33301 55.5 -22z" />
    <glyph glyph-name="multiply" unicode="&#xd7;" horiz-adv-x="470" 
d="M340 509l88 -78l-110 -123l110 -126l-88 -78l-104 124l-106 -124l-88 78l110 123l-110 126l88 78l104 -124z" />
    <glyph glyph-name="Oslash" unicode="&#xd8;" horiz-adv-x="630" 
d="M566.5 547c22.333 -54 33.5 -120.668 33.5 -200.001c0 -116.667 -24.833 -206.5 -74.5 -269.5s-119.834 -94.5 -210.501 -94.5c-10 0 -23 0.666992 -39 2l-33 -119l-118 32l36 126c-42.667 28 -75.167 69 -97.5 123s-33.5 120.667 -33.5 200
c0 116.667 24.833 206.334 74.5 269.001s119.834 94 210.501 94c10 0 23 -0.666992 39 -2l33 119l119 -32l-37 -126c42.667 -27.333 75.167 -68 97.5 -122zM221.5 537.499c-19.667 -37.667 -29.499 -101.167 -29.499 -190.5c0 -98.667 10.667 -166.667 32 -204l115 449
c-9.33301 1.33301 -17.333 2 -24 2c-42.667 0 -73.834 -18.833 -93.501 -56.5zM385.501 122.999c17.667 16 30.667 41.999 39 77.999s12.833 84.667 13.5 146c0 96.667 -10.667 163.334 -32 200.001l-115 -447c5.33301 -0.666992 13.333 -1 24 -1c29.333 0 52.833 8 70.5 24
z" />
    <glyph glyph-name="Ugrave" unicode="&#xd9;" horiz-adv-x="587" 
d="M543 214c0 -44 -9.33398 -83.5 -28.001 -118.5s-46.667 -62.5 -84 -82.5s-83 -30 -137 -30c-81.333 0 -143.166 21 -185.499 63s-63.5 98 -63.5 168v479h160v-473c0 -40 7 -69.5 21 -88.5s36.667 -28.5 68 -28.5s53.833 9.5 67.5 28.5s20.5 48.5 20.5 88.5v473h161v-479z
M220.999 949l200 -122l-39 -76l-219 85z" />
    <glyph glyph-name="Uacute" unicode="&#xda;" horiz-adv-x="587" 
d="M543 214c0 -44 -9.33398 -83.5 -28.001 -118.5s-46.667 -62.5 -84 -82.5s-83 -30 -137 -30c-81.333 0 -143.166 21 -185.499 63s-63.5 98 -63.5 168v479h160v-473c0 -40 7 -69.5 21 -88.5s36.667 -28.5 68 -28.5s53.833 9.5 67.5 28.5s20.5 48.5 20.5 88.5v473h161v-479z
M364.999 950l58 -113l-219 -86l-39 77z" />
    <glyph glyph-name="Ucircumflex" unicode="&#xdb;" horiz-adv-x="587" 
d="M543 214c0 -44 -9.33398 -83.5 -28.001 -118.5s-46.667 -62.5 -84 -82.5s-83 -30 -137 -30c-81.333 0 -143.166 21 -185.499 63s-63.5 98 -63.5 168v479h160v-473c0 -40 7 -69.5 21 -88.5s36.667 -28.5 68 -28.5s53.833 9.5 67.5 28.5s20.5 48.5 20.5 88.5v473h161v-479z
M172.999 758l-54 58l129 131h92l128 -131l-53 -58l-121 83z" />
    <glyph glyph-name="Udieresis" unicode="&#xdc;" horiz-adv-x="587" 
d="M543 214c0 -44 -9.33398 -83.5 -28.001 -118.5s-46.667 -62.5 -84 -82.5s-83 -30 -137 -30c-81.333 0 -143.166 21 -185.499 63s-63.5 98 -63.5 168v479h160v-473c0 -40 7 -69.5 21 -88.5s36.667 -28.5 68 -28.5s53.833 9.5 67.5 28.5s20.5 48.5 20.5 88.5v473h161v-479z
M243.999 901c14.667 -14.667 22 -33 22 -55s-7.33301 -40.5 -22 -55.5s-33 -22.5 -55 -22.5c-21.333 0 -39.5 7.5 -54.5 22.5s-22.5 33.5 -22.5 55.5c0 21.333 7.5 39.5 22.5 54.5s33.167 22.5 54.5 22.5c22 0 40.333 -7.33301 55 -22zM456.499 901
c15 -14.667 22.501 -33 22.501 -55s-7.33301 -40.5 -22 -55.5s-33.334 -22.5 -56.001 -22.5c-21.333 0 -39.5 7.5 -54.5 22.5s-22.5 33.5 -22.5 55.5c0 21.333 7.5 39.5 22.5 54.5s33.167 22.5 54.5 22.5c22 0 40.5 -7.33301 55.5 -22z" />
    <glyph glyph-name="Yacute" unicode="&#xdd;" horiz-adv-x="542" 
d="M551 693l-200 -433v-260h-160v259l-200 434h171l111 -308l113 308h165zM342 950l58 -113l-219 -86l-39 77z" />
    <glyph glyph-name="Thorn" unicode="&#xde;" horiz-adv-x="544" 
d="M459 526.5c46.667 -38.333 70 -95.167 70 -170.5c0 -80.667 -22.833 -141 -68.5 -181s-108.167 -60 -187.5 -60h-58v-115h-160v693h160v-109h46c85.333 0 151.333 -19.167 198 -57.5zM339.5 258.999c17.667 19.333 26.5 51.667 26.5 97c0 40 -9 69 -27 87
s-45.333 27 -82 27h-42v-240h44c36 0 62.833 9.66699 80.5 29z" />
    <glyph glyph-name="germandbls" unicode="&#xdf;" horiz-adv-x="552" 
d="M374.5 738c29 -13.333 50.8359 -31.165 65.5029 -53.498s22 -47.166 22 -74.499c0 -23.333 -4.16699 -42.833 -12.5 -58.5s-20.166 -32.5 -35.499 -50.5c-12 -14.667 -20.833 -26.834 -26.5 -36.501s-8.5 -20.834 -8.5 -33.501c0 -13.333 4.5 -25.333 13.5 -36
s23.167 -24.334 42.5 -41.001c20.667 -17.333 38 -33.5 52 -48.5s26 -34.167 36 -57.5s15 -50.666 15 -81.999c0 -37.333 -8 -69.833 -24 -97.5s-38 -48.834 -66 -63.501s-59.333 -22 -94 -22c-40.667 0 -77.334 8.66699 -110.001 26l46 102c13.333 -6 26.666 -9 39.999 -9
c15.333 0 27.666 5.5 36.999 16.5s14 27.5 14 49.5c0 23.333 -5.33301 42.833 -16 58.5s-26.667 33.5 -48 53.5c-23.333 21.333 -40.833 40.833 -52.5 58.5s-17.5 40.167 -17.5 67.5c0 22 3.16699 40 9.5 54s15.833 29.333 28.5 46c11.333 15.333 19.833 29 25.5 41
s8.5 26.667 8.5 44c0 19.333 -4.66699 34 -14 44s-22 15 -38 15c-40.667 0 -61 -32 -61 -96v-554h-154v547c0 64.667 19.167 116 57.5 154s92.166 57 161.499 57c40 0 74.5 -6.66699 103.5 -20z" />
    <glyph glyph-name="agrave" unicode="&#xe0;" horiz-adv-x="497" 
d="M450 107c4.66699 -8.66699 12.6689 -15.332 24.002 -19.999l-32 -101c-30.667 2.66699 -55.667 9.66699 -75 21s-34.333 29 -45 53c-32.667 -51.333 -80.334 -77 -143.001 -77c-48 0 -86.167 15.167 -114.5 45.5s-42.5 70.5 -42.5 120.5c0 58 19.5 102.333 58.5 133
s95.5 46 169.5 46h42v25c0 31.333 -5.66699 53.166 -17 65.499s-31.333 18.5 -60 18.5c-32.667 0 -74.334 -9 -125.001 -27l-35 99c29.333 12.667 60.666 22.334 93.999 29.001s64.333 10 93 10c68.667 0 119.334 -15.333 152.001 -46s49 -77.334 49 -140.001v-215
c0 -18 2.33301 -31.333 7 -40zM263.502 106.002c11.667 8.66699 21.167 21.001 28.5 37.001v99h-28c-31.333 0 -54.333 -6.5 -69 -19.5s-22 -33.167 -22 -60.5c0 -22.667 4.5 -39.834 13.5 -51.501s21.833 -17.5 38.5 -17.5c14 0 26.833 4.33301 38.5 13zM185.002 830.003
l199 -131l-42 -76l-217 94z" />
    <glyph glyph-name="aacute" unicode="&#xe1;" horiz-adv-x="497" 
d="M450 107c4.66699 -8.66699 12.6689 -15.332 24.002 -19.999l-32 -101c-30.667 2.66699 -55.667 9.66699 -75 21s-34.333 29 -45 53c-32.667 -51.333 -80.334 -77 -143.001 -77c-48 0 -86.167 15.167 -114.5 45.5s-42.5 70.5 -42.5 120.5c0 58 19.5 102.333 58.5 133
s95.5 46 169.5 46h42v25c0 31.333 -5.66699 53.166 -17 65.499s-31.333 18.5 -60 18.5c-32.667 0 -74.334 -9 -125.001 -27l-35 99c29.333 12.667 60.666 22.334 93.999 29.001s64.333 10 93 10c68.667 0 119.334 -15.333 152.001 -46s49 -77.334 49 -140.001v-215
c0 -18 2.33301 -31.333 7 -40zM263.502 106.002c11.667 8.66699 21.167 21.001 28.5 37.001v99h-28c-31.333 0 -54.333 -6.5 -69 -19.5s-22 -33.167 -22 -60.5c0 -22.667 4.5 -39.834 13.5 -51.501s21.833 -17.5 38.5 -17.5c14 0 26.833 4.33301 38.5 13zM309.002 830.003
l60 -113l-217 -94l-42 76z" />
    <glyph glyph-name="acircumflex" unicode="&#xe2;" horiz-adv-x="497" 
d="M450 107c4.66699 -8.66699 12.6689 -15.332 24.002 -19.999l-32 -101c-30.667 2.66699 -55.667 9.66699 -75 21s-34.333 29 -45 53c-32.667 -51.333 -80.334 -77 -143.001 -77c-48 0 -86.167 15.167 -114.5 45.5s-42.5 70.5 -42.5 120.5c0 58 19.5 102.333 58.5 133
s95.5 46 169.5 46h42v25c0 31.333 -5.66699 53.166 -17 65.499s-31.333 18.5 -60 18.5c-32.667 0 -74.334 -9 -125.001 -27l-35 99c29.333 12.667 60.666 22.334 93.999 29.001s64.333 10 93 10c68.667 0 119.334 -15.333 152.001 -46s49 -77.334 49 -140.001v-215
c0 -18 2.33301 -31.333 7 -40zM263.502 106.002c11.667 8.66699 21.167 21.001 28.5 37.001v99h-28c-31.333 0 -54.333 -6.5 -69 -19.5s-22 -33.167 -22 -60.5c0 -22.667 4.5 -39.834 13.5 -51.501s21.833 -17.5 38.5 -17.5c14 0 26.833 4.33301 38.5 13zM125.002 623.003
l-54 59l128 138h93l128 -138l-54 -59l-120 92z" />
    <glyph glyph-name="atilde" unicode="&#xe3;" horiz-adv-x="497" 
d="M450 107c4.66699 -8.66699 12.6689 -15.332 24.002 -19.999l-32 -101c-30.667 2.66699 -55.667 9.66699 -75 21s-34.333 29 -45 53c-32.667 -51.333 -80.334 -77 -143.001 -77c-48 0 -86.167 15.167 -114.5 45.5s-42.5 70.5 -42.5 120.5c0 58 19.5 102.333 58.5 133
s95.5 46 169.5 46h42v25c0 31.333 -5.66699 53.166 -17 65.499s-31.333 18.5 -60 18.5c-32.667 0 -74.334 -9 -125.001 -27l-35 99c29.333 12.667 60.666 22.334 93.999 29.001s64.333 10 93 10c68.667 0 119.334 -15.333 152.001 -46s49 -77.334 49 -140.001v-215
c0 -18 2.33301 -31.333 7 -40zM263.502 106.002c11.667 8.66699 21.167 21.001 28.5 37.001v99h-28c-31.333 0 -54.333 -6.5 -69 -19.5s-22 -33.167 -22 -60.5c0 -22.667 4.5 -39.834 13.5 -51.501s21.833 -17.5 38.5 -17.5c14 0 26.833 4.33301 38.5 13zM266.502 645.003
c-9 4 -20.4971 10.332 -34.4971 18.999c-8.66699 6 -15.5 10.333 -20.5 13s-10.5 4 -16.5 4c-10 0 -18.333 -3.16699 -25 -9.5s-14.334 -17.166 -23.001 -32.499l-74 35c12 34 28.333 61.5 49 82.5s44 31.5 70 31.5c13.333 0 25 -2.16699 35 -6.5s21.333 -10.833 34 -19.5
c1.33301 -0.666992 4.66602 -2.66699 9.99902 -6s10.166 -5.83301 14.499 -7.5s8.5 -2.5 12.5 -2.5c9.33301 0 17.5 3.16699 24.5 9.5s14.5 16.833 22.5 31.5l74 -35c-12 -34.667 -28.333 -62.167 -49 -82.5s-44 -30.5 -70 -30.5c-13.333 0 -24.5 2 -33.5 6z" />
    <glyph glyph-name="adieresis" unicode="&#xe4;" horiz-adv-x="497" 
d="M450 107c4.66699 -8.66699 12.6689 -15.332 24.002 -19.999l-32 -101c-30.667 2.66699 -55.667 9.66699 -75 21s-34.333 29 -45 53c-32.667 -51.333 -80.334 -77 -143.001 -77c-48 0 -86.167 15.167 -114.5 45.5s-42.5 70.5 -42.5 120.5c0 58 19.5 102.333 58.5 133
s95.5 46 169.5 46h42v25c0 31.333 -5.66699 53.166 -17 65.499s-31.333 18.5 -60 18.5c-32.667 0 -74.334 -9 -125.001 -27l-35 99c29.333 12.667 60.666 22.334 93.999 29.001s64.333 10 93 10c68.667 0 119.334 -15.333 152.001 -46s49 -77.334 49 -140.001v-215
c0 -18 2.33301 -31.333 7 -40zM263.502 106.002c11.667 8.66699 21.167 21.001 28.5 37.001v99h-28c-31.333 0 -54.333 -6.5 -69 -19.5s-22 -33.167 -22 -60.5c0 -22.667 4.5 -39.834 13.5 -51.501s21.833 -17.5 38.5 -17.5c14 0 26.833 4.33301 38.5 13zM194.002 775.003
c14.667 -14.667 22 -33 22 -55s-7.33301 -40.5 -22 -55.5s-33 -22.5 -55 -22.5c-21.333 0 -39.5 7.5 -54.5 22.5s-22.5 33.5 -22.5 55.5c0 21.333 7.5 39.5 22.5 54.5s33.167 22.5 54.5 22.5c22 0 40.333 -7.33301 55 -22zM406.502 775.003
c15 -14.667 22.501 -33 22.501 -55s-7.33301 -40.5 -22 -55.5s-33.334 -22.5 -56.001 -22.5c-21.333 0 -39.5 7.5 -54.5 22.5s-22.5 33.5 -22.5 55.5c0 21.333 7.5 39.5 22.5 54.5s33.167 22.5 54.5 22.5c22 0 40.5 -7.33301 55.5 -22z" />
    <glyph glyph-name="aring" unicode="&#xe5;" horiz-adv-x="497" 
d="M450 107c4.66699 -8.66699 12.6689 -15.332 24.002 -19.999l-32 -101c-30.667 2.66699 -55.667 9.66699 -75 21s-34.333 29 -45 53c-32.667 -51.333 -80.334 -77 -143.001 -77c-48 0 -86.167 15.167 -114.5 45.5s-42.5 70.5 -42.5 120.5c0 58 19.5 102.333 58.5 133
s95.5 46 169.5 46h42v25c0 31.333 -5.66699 53.166 -17 65.499s-31.333 18.5 -60 18.5c-32.667 0 -74.334 -9 -125.001 -27l-35 99c29.333 12.667 60.666 22.334 93.999 29.001s64.333 10 93 10c68.667 0 119.334 -15.333 152.001 -46s49 -77.334 49 -140.001v-215
c0 -18 2.33301 -31.333 7 -40zM263.502 106.002c11.667 8.66699 21.167 21.001 28.5 37.001v99h-28c-31.333 0 -54.333 -6.5 -69 -19.5s-22 -33.167 -22 -60.5c0 -22.667 4.5 -39.834 13.5 -51.501s21.833 -17.5 38.5 -17.5c14 0 26.833 4.33301 38.5 13zM340.002 828.503
c23.333 -24.333 35 -55.166 35 -92.499s-11.667 -68.333 -35 -93s-54.666 -37 -93.999 -37s-70.833 12.333 -94.5 37s-35.5 55.667 -35.5 93s11.833 68.166 35.5 92.499s55.167 36.5 94.5 36.5s70.666 -12.167 93.999 -36.5zM206.002 736.003c0 -34.667 13.333 -52 40 -52
c26 0 39 17.333 39 52c0 34 -13 51 -39 51c-26.667 0 -40 -17 -40 -51z" />
    <glyph glyph-name="ae" unicode="&#xe6;" horiz-adv-x="776" 
d="M749 220l-294.998 0.000976562c4 -46 14.667 -78.167 32 -96.5s41.666 -27.5 72.999 -27.5c18 0 35.833 3.66699 53.5 11s37.167 18.666 58.5 33.999l63 -84c-54 -49.333 -117 -74 -189 -74c-42.667 0 -80.167 7.83301 -112.5 23.5s-58.833 37.5 -79.5 65.5
c-41.333 -59.333 -97.333 -89 -168 -89c-50 0 -89.667 15.333 -119 46s-44 70.667 -44 120c0 56.667 20 100.167 60 130.5s98 45.5 174 45.5h42v26c0 32 -5.66699 54.167 -17 66.5s-31.333 18.5 -60 18.5c-32.667 0 -74.334 -9 -125.001 -27l-34 100
c62.667 26 123.667 39 183 39c36 0 65.667 -5.66699 89 -17s42.333 -28 57 -50c38 44.667 87.667 67 149 67c64.667 0 116.167 -23.667 154.5 -71s57.5 -114.333 57.5 -201c0 -21.333 -1 -40 -3 -56zM603.002 320.001c0 83.333 -24.332 125 -72.999 125
c-23.333 0 -41.333 -10 -54 -30s-20.334 -54 -23.001 -102h150v7zM313.003 158.001c-7.33301 25.333 -11.332 51.667 -11.999 79v1h-30c-30.667 0 -53.334 -6.33301 -68.001 -19s-22 -32.667 -22 -60c0 -44 17 -66 51 -66c30 0 57 21.667 81 65z" />
    <glyph glyph-name="ccedilla" unicode="&#xe7;" horiz-adv-x="436" 
d="M298 -16l0.00292969 -35.001c31.333 -4 55 -14.167 71 -30.5s24 -38.166 24 -65.499c0 -34 -12.333 -61.5 -37 -82.5s-58.334 -31.5 -101.001 -31.5c-40.667 0 -75.667 10 -105 30l35 69c18.667 -10 38 -15 58 -15c27.333 0 41 10.333 41 31
c0 12 -6.83301 20.833 -20.5 26.5s-34.834 8.5 -63.501 8.5l12 100c-58 12 -103 41.5 -135 88.5s-48 108.167 -48 183.5c0 58 9.83301 108.667 29.5 152s47.667 76.666 84 99.999s78.833 35 127.5 35c33.333 0 63.333 -5.33301 90 -16s51.667 -27 75 -49l-64 -88
c-15.333 12 -30 20.833 -44 26.5s-29 8.5 -45 8.5c-30.667 0 -53.667 -12.667 -69 -38s-23 -68.666 -23 -129.999c0 -58.667 7.83301 -99.667 23.5 -123s38.167 -35 67.5 -35c15.333 0 29.333 2.5 42 7.5s27.667 13.5 45 25.5l67 -91
c-38.667 -35.333 -84.334 -56 -137.001 -62z" />
    <glyph glyph-name="egrave" unicode="&#xe8;" horiz-adv-x="507" 
d="M480 220l-296 0.00195312c4 -46.667 14.333 -79 31 -97s40.334 -27 71.001 -27c20 0 39 3.66699 57 11s37.667 18.666 59 33.999l63 -85c-54.667 -48.667 -118.334 -73 -191.001 -73c-80 0 -140.833 24.833 -182.5 74.5s-62.5 118.167 -62.5 205.5
c0 85.333 20 154.166 60 206.499s96.333 78.5 169 78.5c70 0 125 -23.5 165 -70.5s60 -114.167 60 -201.5c0 -21.333 -1 -40 -3 -56zM332 320.002c0 42 -5.49902 73.5 -16.499 94.5s-29.5 31.5 -55.5 31.5c-23.333 0 -41.333 -9.83301 -54 -29.5
s-20.334 -54.167 -23.001 -103.5h149v7zM199.001 830.002l199 -131l-42 -76l-217 94z" />
    <glyph glyph-name="eacute" unicode="&#xe9;" horiz-adv-x="507" 
d="M480 220l-296 0.00195312c4 -46.667 14.333 -79 31 -97s40.334 -27 71.001 -27c20 0 39 3.66699 57 11s37.667 18.666 59 33.999l63 -85c-54.667 -48.667 -118.334 -73 -191.001 -73c-80 0 -140.833 24.833 -182.5 74.5s-62.5 118.167 -62.5 205.5
c0 85.333 20 154.166 60 206.499s96.333 78.5 169 78.5c70 0 125 -23.5 165 -70.5s60 -114.167 60 -201.5c0 -21.333 -1 -40 -3 -56zM332 320.002c0 42 -5.49902 73.5 -16.499 94.5s-29.5 31.5 -55.5 31.5c-23.333 0 -41.333 -9.83301 -54 -29.5
s-20.334 -54.167 -23.001 -103.5h149v7zM323.001 830.002l60 -113l-217 -94l-42 76z" />
    <glyph glyph-name="ecircumflex" unicode="&#xea;" horiz-adv-x="507" 
d="M480 220l-296 0.00195312c4 -46.667 14.333 -79 31 -97s40.334 -27 71.001 -27c20 0 39 3.66699 57 11s37.667 18.666 59 33.999l63 -85c-54.667 -48.667 -118.334 -73 -191.001 -73c-80 0 -140.833 24.833 -182.5 74.5s-62.5 118.167 -62.5 205.5
c0 85.333 20 154.166 60 206.499s96.333 78.5 169 78.5c70 0 125 -23.5 165 -70.5s60 -114.167 60 -201.5c0 -21.333 -1 -40 -3 -56zM332 320.002c0 42 -5.49902 73.5 -16.499 94.5s-29.5 31.5 -55.5 31.5c-23.333 0 -41.333 -9.83301 -54 -29.5
s-20.334 -54.167 -23.001 -103.5h149v7zM139.001 623.002l-54 59l128 138h93l128 -138l-54 -59l-120 92z" />
    <glyph glyph-name="edieresis" unicode="&#xeb;" horiz-adv-x="507" 
d="M480 220l-296 0.00195312c4 -46.667 14.333 -79 31 -97s40.334 -27 71.001 -27c20 0 39 3.66699 57 11s37.667 18.666 59 33.999l63 -85c-54.667 -48.667 -118.334 -73 -191.001 -73c-80 0 -140.833 24.833 -182.5 74.5s-62.5 118.167 -62.5 205.5
c0 85.333 20 154.166 60 206.499s96.333 78.5 169 78.5c70 0 125 -23.5 165 -70.5s60 -114.167 60 -201.5c0 -21.333 -1 -40 -3 -56zM332 320.002c0 42 -5.49902 73.5 -16.499 94.5s-29.5 31.5 -55.5 31.5c-23.333 0 -41.333 -9.83301 -54 -29.5
s-20.334 -54.167 -23.001 -103.5h149v7zM208.001 775.002c14.667 -14.667 22 -33 22 -55s-7.33301 -40.5 -22 -55.5s-33 -22.5 -55 -22.5c-21.333 0 -39.5 7.5 -54.5 22.5s-22.5 33.5 -22.5 55.5c0 21.333 7.5 39.5 22.5 54.5s33.167 22.5 54.5 22.5
c22 0 40.333 -7.33301 55 -22zM420.501 775.002c15 -14.667 22.501 -33 22.501 -55s-7.33301 -40.5 -22 -55.5s-33.334 -22.5 -56.001 -22.5c-21.333 0 -39.5 7.5 -54.5 22.5s-22.5 33.5 -22.5 55.5c0 21.333 7.5 39.5 22.5 54.5s33.167 22.5 54.5 22.5
c22 0 40.5 -7.33301 55.5 -22z" />
    <glyph glyph-name="igrave" unicode="&#xec;" horiz-adv-x="259" 
d="M206 531v-531h-154v531h154zM68 830l199 -131l-42 -76l-217 94z" />
    <glyph glyph-name="iacute" unicode="&#xed;" horiz-adv-x="259" 
d="M206 531v-531h-154v531h154zM192 830l60 -113l-217 -94l-42 76z" />
    <glyph glyph-name="icircumflex" unicode="&#xee;" horiz-adv-x="259" 
d="M206 531v-531h-154v531h154zM8 623l-54 59l128 138h93l128 -138l-54 -59l-120 92z" />
    <glyph glyph-name="idieresis" unicode="&#xef;" horiz-adv-x="259" 
d="M206 531v-531h-154v531h154zM77 775c14.667 -14.667 22 -33 22 -55s-7.33301 -40.5 -22 -55.5s-33 -22.5 -55 -22.5c-21.333 0 -39.5 7.5 -54.5 22.5s-22.5 33.5 -22.5 55.5c0 21.333 7.5 39.5 22.5 54.5s33.167 22.5 54.5 22.5c22 0 40.333 -7.33301 55 -22zM289.5 775
c15 -14.667 22.501 -33 22.501 -55s-7.33301 -40.5 -22 -55.5s-33.334 -22.5 -56.001 -22.5c-21.333 0 -39.5 7.5 -54.5 22.5s-22.5 33.5 -22.5 55.5c0 21.333 7.5 39.5 22.5 54.5s33.167 22.5 54.5 22.5c22 0 40.5 -7.33301 55.5 -22z" />
    <glyph glyph-name="eth" unicode="&#xf0;" horiz-adv-x="532" 
d="M459 504c26 -63.333 39 -139 39 -227c0 -56 -9.33301 -106.333 -28 -151s-45.834 -79.667 -81.501 -105s-78.5 -38 -128.5 -38c-44 0 -83.5 9.83301 -118.5 29.5s-62.5 48.5 -82.5 86.5s-30 83 -30 135c0 46.667 8.33301 88.667 25 126s39.167 66.5 67.5 87.5
s59.833 31.5 94.5 31.5c24.667 0 46.334 -4 65.001 -12s36.334 -19.667 53.001 -35c-8.66699 32.667 -19.834 61 -33.501 85s-32.5 46.333 -56.5 67l-50 -56l-95 45l57 62c-24 8 -51.667 15.667 -83 23l29 99c42.667 -6.66699 87 -19 133 -37l67 76l80 -64l-54 -63
c61.333 -46.667 105 -101.667 131 -165zM322.5 133c13 24.667 19.501 63.668 19.501 117.001l-1 78c-21.333 28.667 -48 43 -80 43c-26.667 0 -46.167 -11.333 -58.5 -34s-18.5 -56.334 -18.5 -101.001c0 -50 6.66699 -85.833 20 -107.5s32.666 -32.5 57.999 -32.5
c27.333 0 47.5 12.333 60.5 37z" />
    <glyph glyph-name="ntilde" unicode="&#xf1;" horiz-adv-x="524" 
d="M439.5 506.5c23.667 -27.667 35.499 -65.5 35.499 -113.5v-393h-154v372c0 22 -3.16699 37.5 -9.5 46.5s-15.833 13.5 -28.5 13.5c-13.333 0 -26.166 -5.5 -38.499 -16.5s-25.166 -27.167 -38.499 -48.5v-367h-154v531h135l11 -63c19.333 26.667 40.666 46.667 63.999 60
s50 20 80 20c41.333 0 73.833 -13.833 97.5 -41.5zM286.499 645c-9 4 -20.4971 10.332 -34.4971 18.999c-8.66699 6 -15.5 10.333 -20.5 13s-10.5 4 -16.5 4c-10 0 -18.333 -3.16699 -25 -9.5s-14.334 -17.166 -23.001 -32.499l-74 35c12 34 28.333 61.5 49 82.5
s44 31.5 70 31.5c13.333 0 25 -2.16699 35 -6.5s21.333 -10.833 34 -19.5c1.33301 -0.666992 4.66602 -2.66699 9.99902 -6s10.166 -5.83301 14.499 -7.5s8.5 -2.5 12.5 -2.5c9.33301 0 17.5 3.16699 24.5 9.5s14.5 16.833 22.5 31.5l74 -35
c-12 -34.667 -28.333 -62.167 -49 -82.5s-44 -30.5 -70 -30.5c-13.333 0 -24.5 2 -33.5 6z" />
    <glyph glyph-name="ograve" unicode="&#xf2;" horiz-adv-x="534" 
d="M442.5 475.5c42.333 -48.333 63.5 -118.501 63.5 -210.501c0 -88 -21.333 -157 -64 -207s-101 -75 -175 -75c-74.667 0 -133 24.333 -175 73s-63 118.667 -63 210c0 88.667 21.167 157.834 63.5 207.501s100.5 74.5 174.5 74.5c74.667 0 133.167 -24.167 175.5 -72.5z
M207 394.999c-12.667 -26 -19 -69 -19 -129c0 -61.333 6.33301 -105 19 -131s32.667 -39 60 -39s47.5 13.167 60.5 39.5s19.5 69.5 19.5 129.5c0 61.333 -6.33301 104.833 -19 130.5s-33 38.5 -61 38.5c-27.333 0 -47.333 -13 -60 -39zM206 829.999l199 -131l-42 -76
l-217 94z" />
    <glyph glyph-name="oacute" unicode="&#xf3;" horiz-adv-x="534" 
d="M442.5 475.5c42.333 -48.333 63.5 -118.501 63.5 -210.501c0 -88 -21.333 -157 -64 -207s-101 -75 -175 -75c-74.667 0 -133 24.333 -175 73s-63 118.667 -63 210c0 88.667 21.167 157.834 63.5 207.501s100.5 74.5 174.5 74.5c74.667 0 133.167 -24.167 175.5 -72.5z
M207 394.999c-12.667 -26 -19 -69 -19 -129c0 -61.333 6.33301 -105 19 -131s32.667 -39 60 -39s47.5 13.167 60.5 39.5s19.5 69.5 19.5 129.5c0 61.333 -6.33301 104.833 -19 130.5s-33 38.5 -61 38.5c-27.333 0 -47.333 -13 -60 -39zM330 829.999l60 -113l-217 -94l-42 76
z" />
    <glyph glyph-name="ocircumflex" unicode="&#xf4;" horiz-adv-x="534" 
d="M442.5 475.5c42.333 -48.333 63.5 -118.501 63.5 -210.501c0 -88 -21.333 -157 -64 -207s-101 -75 -175 -75c-74.667 0 -133 24.333 -175 73s-63 118.667 -63 210c0 88.667 21.167 157.834 63.5 207.501s100.5 74.5 174.5 74.5c74.667 0 133.167 -24.167 175.5 -72.5z
M207 394.999c-12.667 -26 -19 -69 -19 -129c0 -61.333 6.33301 -105 19 -131s32.667 -39 60 -39s47.5 13.167 60.5 39.5s19.5 69.5 19.5 129.5c0 61.333 -6.33301 104.833 -19 130.5s-33 38.5 -61 38.5c-27.333 0 -47.333 -13 -60 -39zM146 622.999l-54 59l128 138h93
l128 -138l-54 -59l-120 92z" />
    <glyph glyph-name="otilde" unicode="&#xf5;" horiz-adv-x="534" 
d="M442.5 475.5c42.333 -48.333 63.5 -118.501 63.5 -210.501c0 -88 -21.333 -157 -64 -207s-101 -75 -175 -75c-74.667 0 -133 24.333 -175 73s-63 118.667 -63 210c0 88.667 21.167 157.834 63.5 207.501s100.5 74.5 174.5 74.5c74.667 0 133.167 -24.167 175.5 -72.5z
M207 394.999c-12.667 -26 -19 -69 -19 -129c0 -61.333 6.33301 -105 19 -131s32.667 -39 60 -39s47.5 13.167 60.5 39.5s19.5 69.5 19.5 129.5c0 61.333 -6.33301 104.833 -19 130.5s-33 38.5 -61 38.5c-27.333 0 -47.333 -13 -60 -39zM287.5 644.999
c-9 4 -20.4971 10.332 -34.4971 18.999c-8.66699 6 -15.5 10.333 -20.5 13s-10.5 4 -16.5 4c-10 0 -18.333 -3.16699 -25 -9.5s-14.334 -17.166 -23.001 -32.499l-74 35c12 34 28.333 61.5 49 82.5s44 31.5 70 31.5c13.333 0 25 -2.16699 35 -6.5s21.333 -10.833 34 -19.5
c1.33301 -0.666992 4.66602 -2.66699 9.99902 -6s10.166 -5.83301 14.499 -7.5s8.5 -2.5 12.5 -2.5c9.33301 0 17.5 3.16699 24.5 9.5s14.5 16.833 22.5 31.5l74 -35c-12 -34.667 -28.333 -62.167 -49 -82.5s-44 -30.5 -70 -30.5c-13.333 0 -24.5 2 -33.5 6z" />
    <glyph glyph-name="odieresis" unicode="&#xf6;" horiz-adv-x="534" 
d="M442.5 475.5c42.333 -48.333 63.5 -118.501 63.5 -210.501c0 -88 -21.333 -157 -64 -207s-101 -75 -175 -75c-74.667 0 -133 24.333 -175 73s-63 118.667 -63 210c0 88.667 21.167 157.834 63.5 207.501s100.5 74.5 174.5 74.5c74.667 0 133.167 -24.167 175.5 -72.5z
M207 394.999c-12.667 -26 -19 -69 -19 -129c0 -61.333 6.33301 -105 19 -131s32.667 -39 60 -39s47.5 13.167 60.5 39.5s19.5 69.5 19.5 129.5c0 61.333 -6.33301 104.833 -19 130.5s-33 38.5 -61 38.5c-27.333 0 -47.333 -13 -60 -39zM215 774.999
c14.667 -14.667 22 -33 22 -55s-7.33301 -40.5 -22 -55.5s-33 -22.5 -55 -22.5c-21.333 0 -39.5 7.5 -54.5 22.5s-22.5 33.5 -22.5 55.5c0 21.333 7.5 39.5 22.5 54.5s33.167 22.5 54.5 22.5c22 0 40.333 -7.33301 55 -22zM427.5 774.999c15 -14.667 22.501 -33 22.501 -55
s-7.33301 -40.5 -22 -55.5s-33.334 -22.5 -56.001 -22.5c-21.333 0 -39.5 7.5 -54.5 22.5s-22.5 33.5 -22.5 55.5c0 21.333 7.5 39.5 22.5 54.5s33.167 22.5 54.5 22.5c22 0 40.5 -7.33301 55.5 -22z" />
    <glyph glyph-name="divide" unicode="&#xf7;" horiz-adv-x="470" 
d="M298 154c16.667 -17.333 24.998 -38 24.998 -62c0 -24.667 -8.33301 -45.667 -25 -63s-37.667 -26 -63 -26s-46.166 8.66699 -62.499 26s-24.5 38.333 -24.5 63c0 24 8.33301 44.667 25 62s37.334 26 62.001 26c25.333 0 46.333 -8.66699 63 -26zM297.998 634
c16.667 -17.333 24.998 -38 24.998 -62c0 -24.667 -8.33301 -45.667 -25 -63s-37.667 -26 -63 -26s-46.166 8.66699 -62.499 26s-24.5 38.333 -24.5 63c0 24 8.33301 44.667 25 62s37.334 26 62.001 26c25.333 0 46.333 -8.66699 63 -26zM40.9961 273v118h388v-118h-388z
" />
    <glyph glyph-name="oslash" unicode="&#xf8;" horiz-adv-x="534" 
d="M479 414.5c18 -41 27 -90.834 27 -149.501c0 -88 -21.333 -157 -64 -207s-101 -75 -175 -75c-11.333 0 -20 0.333008 -26 1l-33 -118l-111 31l36 124c-33.333 22.667 -59 54.667 -77 96s-27 91 -27 149c0 88.667 21.167 157.834 63.5 207.501s100.5 74.5 174.5 74.5
c12.667 0 22 -0.333008 28 -1l35 119l111 -32l-39 -124c33.333 -22.667 59 -54.5 77 -95.5zM194.5 396.499c-15.667 -26.333 -23.499 -69.833 -23.499 -130.5c0 -66.667 7.33301 -112.667 22 -138l86 308h-12c-32.667 0 -56.834 -13.167 -72.501 -39.5zM340.001 133.999
c16 26.667 24 70.334 24 131.001c0 65.333 -7.33301 110.666 -22 135.999l-86 -307h11c32.667 0 57 13.333 73 40z" />
    <glyph glyph-name="ugrave" unicode="&#xf9;" horiz-adv-x="519" 
d="M466 0l-134 -0.000976562l-7 64c-34.667 -54 -81.667 -81 -141 -81c-43.333 0 -76.833 14.333 -100.5 43s-35.5 67.334 -35.5 116.001v389h154v-377c0 -38 13.333 -57 40 -57c26 0 49.333 19.333 70 58v376h154v-531zM197 829.999l199 -131l-42 -76l-217 94z" />
    <glyph glyph-name="uacute" unicode="&#xfa;" horiz-adv-x="519" 
d="M466 0l-134 -0.000976562l-7 64c-34.667 -54 -81.667 -81 -141 -81c-43.333 0 -76.833 14.333 -100.5 43s-35.5 67.334 -35.5 116.001v389h154v-377c0 -38 13.333 -57 40 -57c26 0 49.333 19.333 70 58v376h154v-531zM321 829.999l60 -113l-217 -94l-42 76z" />
    <glyph glyph-name="ucircumflex" unicode="&#xfb;" horiz-adv-x="519" 
d="M466 0l-134 -0.000976562l-7 64c-34.667 -54 -81.667 -81 -141 -81c-43.333 0 -76.833 14.333 -100.5 43s-35.5 67.334 -35.5 116.001v389h154v-377c0 -38 13.333 -57 40 -57c26 0 49.333 19.333 70 58v376h154v-531zM137 622.999l-54 59l128 138h93l128 -138l-54 -59
l-120 92z" />
    <glyph glyph-name="udieresis" unicode="&#xfc;" horiz-adv-x="519" 
d="M466 0l-134 -0.000976562l-7 64c-34.667 -54 -81.667 -81 -141 -81c-43.333 0 -76.833 14.333 -100.5 43s-35.5 67.334 -35.5 116.001v389h154v-377c0 -38 13.333 -57 40 -57c26 0 49.333 19.333 70 58v376h154v-531zM206 774.999c14.667 -14.667 22 -33 22 -55
s-7.33301 -40.5 -22 -55.5s-33 -22.5 -55 -22.5c-21.333 0 -39.5 7.5 -54.5 22.5s-22.5 33.5 -22.5 55.5c0 21.333 7.5 39.5 22.5 54.5s33.167 22.5 54.5 22.5c22 0 40.333 -7.33301 55 -22zM418.5 774.999c15 -14.667 22.501 -33 22.501 -55s-7.33301 -40.5 -22 -55.5
s-33.334 -22.5 -56.001 -22.5c-21.333 0 -39.5 7.5 -54.5 22.5s-22.5 33.5 -22.5 55.5c0 21.333 7.5 39.5 22.5 54.5s33.167 22.5 54.5 22.5c22 0 40.5 -7.33301 55.5 -22z" />
    <glyph glyph-name="yacute" unicode="&#xfd;" horiz-adv-x="476" 
d="M330 -1c-38 -138 -130.667 -211.667 -278 -221l-17 107c46 6.66699 80.333 18.5 103 35.5s40.667 43.5 54 79.5h-55l-142 531h158l82 -433l91 433h155zM301 830l60 -113l-217 -94l-42 76z" />
    <glyph glyph-name="thorn" unicode="&#xfe;" horiz-adv-x="543" 
d="M467.5 475c29.667 -48.667 44.501 -118 44.501 -208c0 -56 -7.83301 -105.5 -23.5 -148.5s-37.834 -76.333 -66.501 -100s-62.334 -35.5 -101.001 -35.5c-47.333 0 -85.666 19.667 -114.999 59v-245l-154 -18v963l154 16v-277c34 44.667 76.667 67 128 67
c59.333 0 103.833 -24.333 133.5 -73zM353.001 265c0 64.667 -5.83301 109.167 -17.5 133.5s-29.5 36.5 -53.5 36.5c-28.667 0 -54 -19.667 -76 -59v-235c19.333 -29.333 42.333 -44 69 -44c52 0 78 56 78 168z" />
    <glyph glyph-name="ydieresis" unicode="&#xff;" horiz-adv-x="476" 
d="M330 -1c-38 -138 -130.667 -211.667 -278 -221l-17 107c46 6.66699 80.333 18.5 103 35.5s40.667 43.5 54 79.5h-55l-142 531h158l82 -433l91 433h155zM186 775c14.667 -14.667 22 -33 22 -55s-7.33301 -40.5 -22 -55.5s-33 -22.5 -55 -22.5
c-21.333 0 -39.5 7.5 -54.5 22.5s-22.5 33.5 -22.5 55.5c0 21.333 7.5 39.5 22.5 54.5s33.167 22.5 54.5 22.5c22 0 40.333 -7.33301 55 -22zM398.5 775c15 -14.667 22.501 -33 22.501 -55s-7.33301 -40.5 -22 -55.5s-33.334 -22.5 -56.001 -22.5
c-21.333 0 -39.5 7.5 -54.5 22.5s-22.5 33.5 -22.5 55.5c0 21.333 7.5 39.5 22.5 54.5s33.167 22.5 54.5 22.5c22 0 40.5 -7.33301 55.5 -22z" />
    <glyph glyph-name="Amacron" unicode="&#x100;" horiz-adv-x="543" 
d="M389 0l-31 151h-176l-31 -151h-162l187 693h192l186 -693h-165zM206 266h128l-64 310zM412 783h-280v105h280v-105z" />
    <glyph glyph-name="amacron" unicode="&#x101;" horiz-adv-x="497" 
d="M450 107c4.66699 -8.66699 12.6689 -15.332 24.002 -19.999l-32 -101c-30.667 2.66699 -55.667 9.66699 -75 21s-34.333 29 -45 53c-32.667 -51.333 -80.334 -77 -143.001 -77c-48 0 -86.167 15.167 -114.5 45.5s-42.5 70.5 -42.5 120.5c0 58 19.5 102.333 58.5 133
s95.5 46 169.5 46h42v25c0 31.333 -5.66699 53.166 -17 65.499s-31.333 18.5 -60 18.5c-32.667 0 -74.334 -9 -125.001 -27l-35 99c29.333 12.667 60.666 22.334 93.999 29.001s64.333 10 93 10c68.667 0 119.334 -15.333 152.001 -46s49 -77.334 49 -140.001v-215
c0 -18 2.33301 -31.333 7 -40zM263.502 106.002c11.667 8.66699 21.167 21.001 28.5 37.001v99h-28c-31.333 0 -54.333 -6.5 -69 -19.5s-22 -33.167 -22 -60.5c0 -22.667 4.5 -39.834 13.5 -51.501s21.833 -17.5 38.5 -17.5c14 0 26.833 4.33301 38.5 13zM386.002 657.003
h-280v105h280v-105z" />
    <glyph glyph-name="Abreve" unicode="&#x102;" horiz-adv-x="543" 
d="M389 0l-31 151h-176l-31 -151h-162l187 693h192l186 -693h-165zM206 266h128l-64 310zM159.5 795.5c-27 29.667 -42.5 68.167 -46.5 115.5l83 15c5.33301 -21.333 14.166 -38 26.499 -50s28.5 -18 48.5 -18s36.333 6.16699 49 18.5s21.667 28.833 27 49.5l83 -15
c-4 -46.667 -19.667 -85 -47 -115s-64.666 -45 -111.999 -45s-84.5 14.833 -111.5 44.5z" />
    <glyph glyph-name="abreve" unicode="&#x103;" horiz-adv-x="497" 
d="M450 107c4.66699 -8.66699 12.6689 -15.332 24.002 -19.999l-32 -101c-30.667 2.66699 -55.667 9.66699 -75 21s-34.333 29 -45 53c-32.667 -51.333 -80.334 -77 -143.001 -77c-48 0 -86.167 15.167 -114.5 45.5s-42.5 70.5 -42.5 120.5c0 58 19.5 102.333 58.5 133
s95.5 46 169.5 46h42v25c0 31.333 -5.66699 53.166 -17 65.499s-31.333 18.5 -60 18.5c-32.667 0 -74.334 -9 -125.001 -27l-35 99c29.333 12.667 60.666 22.334 93.999 29.001s64.333 10 93 10c68.667 0 119.334 -15.333 152.001 -46s49 -77.334 49 -140.001v-215
c0 -18 2.33301 -31.333 7 -40zM263.502 106.002c11.667 8.66699 21.167 21.001 28.5 37.001v99h-28c-31.333 0 -54.333 -6.5 -69 -19.5s-22 -33.167 -22 -60.5c0 -22.667 4.5 -39.834 13.5 -51.501s21.833 -17.5 38.5 -17.5c14 0 26.833 4.33301 38.5 13zM132.502 679.503
c-27 31 -42.168 72.167 -45.501 123.5l83 15c12 -52.667 37 -79 75 -79c20 0 36.333 6.83301 49 20.5s21.667 33.167 27 58.5l83 -15c-3.33301 -51.333 -18.666 -92.5 -45.999 -123.5s-65 -46.5 -113 -46.5s-85.5 15.5 -112.5 46.5z" />
    <glyph glyph-name="Aogonek" unicode="&#x104;" horiz-adv-x="543" 
d="M388.5 -50.5c-15 -17 -22.499 -34.499 -22.499 -52.499c0 -30.667 15.667 -46 47 -46c12.667 0 30.667 2.33301 54 7l-10 -95c-20 -5.33301 -41 -8 -63 -8c-40.667 0 -73.834 10.333 -99.501 31s-38.5 48.667 -38.5 84s11.167 65.666 33.5 90.999s53.833 47 94.5 65
l-26 125h-176l-31 -151h-162l187 693h192l186 -693h-83c-40 -16.667 -67.5 -33.5 -82.5 -50.5zM206.001 266.001h128l-64 310z" />
    <glyph glyph-name="aogonek" unicode="&#x105;" horiz-adv-x="497" 
d="M359.5 -64.5c-15 -17 -22.4971 -34.498 -22.4971 -52.498c0 -30.667 15.667 -46 47 -46c12.667 0 30.667 2.33301 54 7l-10 -95c-20 -5.33301 -41 -8 -63 -8c-40.667 0 -73.834 10.333 -99.501 31s-38.5 48.667 -38.5 84c0 36 11.333 66.667 34 92s55 47 97 65
c-15.333 11.333 -27.333 27 -36 47c-32.667 -51.333 -80.334 -77 -143.001 -77c-48 0 -86.167 15.167 -114.5 45.5s-42.5 70.5 -42.5 120.5c0 58 19.5 102.333 58.5 133s95.5 46 169.5 46h42v25c0 31.333 -5.66699 53.166 -17 65.499s-31.333 18.5 -60 18.5
c-32.667 0 -74.334 -9 -125.001 -27l-35 99c29.333 12.667 60.666 22.334 93.999 29.001s64.333 10 93 10c68.667 0 119.334 -15.333 152.001 -46s49 -77.334 49 -140.001v-215c0 -18 2.33301 -31.333 7 -40s12.667 -15.334 24 -20.001l-32 -101
c-40 -16.667 -67.5 -33.5 -82.5 -50.5zM263.503 106.002c11.667 8.66699 21.167 21.001 28.5 37.001v99h-28c-31.333 0 -54.333 -6.5 -69 -19.5s-22 -33.167 -22 -60.5c0 -22.667 4.5 -39.834 13.5 -51.501s21.833 -17.5 38.5 -17.5c14 0 26.833 4.33301 38.5 13z" />
    <glyph glyph-name="Cacute" unicode="&#x106;" horiz-adv-x="524" 
d="M424 691c31.333 -12.667 60.998 -31.666 88.998 -56.999l-76 -89c-18 15.333 -35.833 26.833 -53.5 34.5s-36.5 11.5 -56.5 11.5c-86.667 0 -130 -81 -130 -243c0 -160.667 43.667 -241 131 -241c22.667 0 42.834 4.5 60.501 13.5s37.5 22.167 59.5 39.5l72 -88
c-24.667 -26 -54.167 -47.333 -88.5 -64s-72.166 -25 -113.499 -25c-58 0 -108.5 13.667 -151.5 41s-76.5 68.333 -100.5 123s-36 121.667 -36 201c0 77.333 12.333 143.166 37 197.499s58.5 95.333 101.5 123s92.5 41.5 148.5 41.5c40 0 75.667 -6.33301 107 -19z
M394.998 950.001l58 -113l-219 -86l-39 77z" />
    <glyph glyph-name="cacute" unicode="&#x107;" horiz-adv-x="436" 
d="M360 532c26.667 -10.667 51.667 -27 75 -49l-64 -88c-15.333 12 -30 20.833 -44 26.5s-29 8.5 -45 8.5c-30.667 0 -53.667 -12.667 -69 -38s-23 -68.666 -23 -129.999c0 -58.667 7.83301 -99.667 23.5 -123s38.167 -35 67.5 -35c15.333 0 29.333 2.5 42 7.5
s27.667 13.5 45 25.5l67 -91c-46 -42 -100.333 -63 -163 -63c-76 0 -135.5 24.333 -178.5 73s-64.5 117 -64.5 205c0 58 9.83301 108.667 29.5 152s47.667 76.666 84 99.999s78.833 35 127.5 35c33.333 0 63.333 -5.33301 90 -16zM331 830l60 -113l-217 -94l-42 76z" />
    <glyph glyph-name="Ccircumflex" unicode="&#x108;" horiz-adv-x="524" 
d="M424 691c31.333 -12.667 60.998 -31.666 88.998 -56.999l-76 -89c-18 15.333 -35.833 26.833 -53.5 34.5s-36.5 11.5 -56.5 11.5c-86.667 0 -130 -81 -130 -243c0 -160.667 43.667 -241 131 -241c22.667 0 42.834 4.5 60.501 13.5s37.5 22.167 59.5 39.5l72 -88
c-24.667 -26 -54.167 -47.333 -88.5 -64s-72.166 -25 -113.499 -25c-58 0 -108.5 13.667 -151.5 41s-76.5 68.333 -100.5 123s-36 121.667 -36 201c0 77.333 12.333 143.166 37 197.499s58.5 95.333 101.5 123s92.5 41.5 148.5 41.5c40 0 75.667 -6.33301 107 -19z
M202.998 758.001l-54 58l129 131h92l128 -131l-53 -58l-121 83z" />
    <glyph glyph-name="ccircumflex" unicode="&#x109;" horiz-adv-x="436" 
d="M360 532c26.667 -10.667 51.667 -27 75 -49l-64 -88c-15.333 12 -30 20.833 -44 26.5s-29 8.5 -45 8.5c-30.667 0 -53.667 -12.667 -69 -38s-23 -68.666 -23 -129.999c0 -58.667 7.83301 -99.667 23.5 -123s38.167 -35 67.5 -35c15.333 0 29.333 2.5 42 7.5
s27.667 13.5 45 25.5l67 -91c-46 -42 -100.333 -63 -163 -63c-76 0 -135.5 24.333 -178.5 73s-64.5 117 -64.5 205c0 58 9.83301 108.667 29.5 152s47.667 76.666 84 99.999s78.833 35 127.5 35c33.333 0 63.333 -5.33301 90 -16zM147 623l-54 59l128 138h93l128 -138
l-54 -59l-120 92z" />
    <glyph glyph-name="Cdotaccent" unicode="&#x10a;" horiz-adv-x="524" 
d="M424 691c31.333 -12.667 60.998 -31.666 88.998 -56.999l-76 -89c-18 15.333 -35.833 26.833 -53.5 34.5s-36.5 11.5 -56.5 11.5c-86.667 0 -130 -81 -130 -243c0 -160.667 43.667 -241 131 -241c22.667 0 42.834 4.5 60.501 13.5s37.5 22.167 59.5 39.5l72 -88
c-24.667 -26 -54.167 -47.333 -88.5 -64s-72.166 -25 -113.499 -25c-58 0 -108.5 13.667 -151.5 41s-76.5 68.333 -100.5 123s-36 121.667 -36 201c0 77.333 12.333 143.166 37 197.499s58.5 95.333 101.5 123s92.5 41.5 148.5 41.5c40 0 75.667 -6.33301 107 -19z
M387.498 909.001c17 -16.667 25.5 -37.334 25.5 -62.001c0 -25.333 -8.5 -46.333 -25.5 -63s-38.5 -25 -64.5 -25s-47.333 8.33301 -64 25s-25 37.667 -25 63c0 24.667 8.33301 45.334 25 62.001s38 25 64 25s47.5 -8.33301 64.5 -25z" />
    <glyph glyph-name="cdotaccent" unicode="&#x10b;" horiz-adv-x="436" 
d="M360 532c26.667 -10.667 51.667 -27 75 -49l-64 -88c-15.333 12 -30 20.833 -44 26.5s-29 8.5 -45 8.5c-30.667 0 -53.667 -12.667 -69 -38s-23 -68.666 -23 -129.999c0 -58.667 7.83301 -99.667 23.5 -123s38.167 -35 67.5 -35c15.333 0 29.333 2.5 42 7.5
s27.667 13.5 45 25.5l67 -91c-46 -42 -100.333 -63 -163 -63c-76 0 -135.5 24.333 -178.5 73s-64.5 117 -64.5 205c0 58 9.83301 108.667 29.5 152s47.667 76.666 84 99.999s78.833 35 127.5 35c33.333 0 63.333 -5.33301 90 -16zM331.5 783
c17 -16.667 25.5 -37.334 25.5 -62.001c0 -25.333 -8.5 -46.333 -25.5 -63s-38.5 -25 -64.5 -25s-47.333 8.33301 -64 25s-25 37.667 -25 63c0 24.667 8.33301 45.334 25 62.001s38 25 64 25s47.5 -8.33301 64.5 -25z" />
    <glyph glyph-name="Ccaron" unicode="&#x10c;" horiz-adv-x="524" 
d="M424 691c31.333 -12.667 60.998 -31.666 88.998 -56.999l-76 -89c-18 15.333 -35.833 26.833 -53.5 34.5s-36.5 11.5 -56.5 11.5c-86.667 0 -130 -81 -130 -243c0 -160.667 43.667 -241 131 -241c22.667 0 42.834 4.5 60.501 13.5s37.5 22.167 59.5 39.5l72 -88
c-24.667 -26 -54.167 -47.333 -88.5 -64s-72.166 -25 -113.499 -25c-58 0 -108.5 13.667 -151.5 41s-76.5 68.333 -100.5 123s-36 121.667 -36 201c0 77.333 12.333 143.166 37 197.499s58.5 95.333 101.5 123s92.5 41.5 148.5 41.5c40 0 75.667 -6.33301 107 -19z
M444.998 939.001l53 -59l-128 -130h-93l-128 130l54 59l121 -83z" />
    <glyph glyph-name="ccaron" unicode="&#x10d;" horiz-adv-x="436" 
d="M360 532c26.667 -10.667 51.667 -27 75 -49l-64 -88c-15.333 12 -30 20.833 -44 26.5s-29 8.5 -45 8.5c-30.667 0 -53.667 -12.667 -69 -38s-23 -68.666 -23 -129.999c0 -58.667 7.83301 -99.667 23.5 -123s38.167 -35 67.5 -35c15.333 0 29.333 2.5 42 7.5
s27.667 13.5 45 25.5l67 -91c-46 -42 -100.333 -63 -163 -63c-76 0 -135.5 24.333 -178.5 73s-64.5 117 -64.5 205c0 58 9.83301 108.667 29.5 152s47.667 76.666 84 99.999s78.833 35 127.5 35c33.333 0 63.333 -5.33301 90 -16zM389 810l53 -60l-128 -138h-93l-128 138
l54 60l121 -92z" />
    <glyph glyph-name="Dcaron" unicode="&#x10e;" horiz-adv-x="595" 
d="M404.5 666c47.667 -18 86.167 -52.333 115.5 -103s44 -121.667 44 -213c0 -129.333 -28.667 -220 -86 -272s-133.333 -78 -228 -78h-195v693h182c64 0 119.833 -9 167.5 -27zM215 577l-0.000976562 -460.999h45c30.667 0 56 6.66699 76 20s35.5 37.166 46.5 71.499
s16.5 81.833 16.5 142.5s-5.66699 107.667 -17 141s-27.166 56 -47.499 68s-45.5 18 -75.5 18h-44zM388.999 939.001l53 -59l-128 -130h-93l-128 130l54 59l121 -83z" />
    <glyph glyph-name="dcaron" unicode="&#x10f;" horiz-adv-x="635" 
d="M492 742l-0.00195312 -742h-136l-7 59c-34 -50.667 -79 -76 -135 -76c-59.333 0 -104.666 24.833 -135.999 74.5s-47 119.167 -47 208.5c0 56 8.16699 105.333 24.5 148s39.333 75.667 69 99s63.834 35 102.501 35c44.667 0 81.667 -16.333 111 -49v259zM303.998 109.5
c12 9 23.333 22.833 34 41.5v241c-10.667 14.667 -21.167 25.5 -31.5 32.5s-22.5 10.5 -36.5 10.5c-53.333 0 -80 -56.333 -80 -169c0 -63.333 6.33301 -107.5 19 -132.5s30.667 -37.5 54 -37.5c15.333 0 29 4.5 41 13.5zM610.998 528l50 214l-113 16l-22 -217z" />
    <glyph glyph-name="Dcroat" unicode="&#x110;" horiz-adv-x="611" 
d="M420.5 666c47.667 -18 86.167 -52.333 115.5 -103s44 -121.667 44 -213c0 -129.333 -28.667 -220 -86 -272s-133.333 -78 -228 -78h-195v305h-57v96h57v292h182c64 0 119.833 -9 167.5 -27zM352 136c20 13.333 35.499 37.167 46.499 71.5s16.5 81.833 16.5 142.5
s-5.66699 107.667 -17 141s-27.166 56 -47.499 68s-45.5 18 -75.5 18h-44v-176h106v-96h-106v-189h45c30.667 0 56 6.66699 76 20z" />
    <glyph glyph-name="dcroat" unicode="&#x111;" horiz-adv-x="551" 
d="M545 688l-0.00195312 -91h-53v-597h-136l-7 59c-34 -50.667 -79 -76 -135 -76c-59.333 0 -104.666 24.833 -135.999 74.5s-47 119.167 -47 208.5c0 56 8.16699 105.333 24.5 148s39.333 75.667 69 99s63.834 35 102.501 35c44.667 0 81.667 -16.333 111 -49v98h-119v91
h119v70l154 -16v-54h53zM303.998 109.5c12 9 23.333 22.833 34 41.5v241c-10.667 14.667 -21.167 25.5 -31.5 32.5s-22.5 10.5 -36.5 10.5c-53.333 0 -80 -56.333 -80 -169c0 -63.333 6.33301 -107.5 19 -132.5s30.667 -37.5 54 -37.5c15.333 0 29 4.5 41 13.5z" />
    <glyph glyph-name="Emacron" unicode="&#x112;" horiz-adv-x="474" 
d="M447 693l-17 -114h-215v-171h188v-112h-188v-180h230v-116h-390v693h392zM392 783h-280v105h280v-105z" />
    <glyph glyph-name="emacron" unicode="&#x113;" horiz-adv-x="507" 
d="M480 220l-296 0.00195312c4 -46.667 14.333 -79 31 -97s40.334 -27 71.001 -27c20 0 39 3.66699 57 11s37.667 18.666 59 33.999l63 -85c-54.667 -48.667 -118.334 -73 -191.001 -73c-80 0 -140.833 24.833 -182.5 74.5s-62.5 118.167 -62.5 205.5
c0 85.333 20 154.166 60 206.499s96.333 78.5 169 78.5c70 0 125 -23.5 165 -70.5s60 -114.167 60 -201.5c0 -21.333 -1 -40 -3 -56zM332 320.002c0 42 -5.49902 73.5 -16.499 94.5s-29.5 31.5 -55.5 31.5c-23.333 0 -41.333 -9.83301 -54 -29.5
s-20.334 -54.167 -23.001 -103.5h149v7zM400.001 657.002h-280v105h280v-105z" />
    <glyph glyph-name="Ebreve" unicode="&#x114;" horiz-adv-x="474" 
d="M447 693l-17 -114h-215v-171h188v-112h-188v-180h230v-116h-390v693h392zM139.5 795.5c-27 29.667 -42.5 68.167 -46.5 115.5l83 15c5.33301 -21.333 14.166 -38 26.499 -50s28.5 -18 48.5 -18s36.333 6.16699 49 18.5s21.667 28.833 27 49.5l83 -15
c-4 -46.667 -19.667 -85 -47 -115s-64.666 -45 -111.999 -45s-84.5 14.833 -111.5 44.5z" />
    <glyph glyph-name="ebreve" unicode="&#x115;" horiz-adv-x="507" 
d="M480 220l-296 0.00195312c4 -46.667 14.333 -79 31 -97s40.334 -27 71.001 -27c20 0 39 3.66699 57 11s37.667 18.666 59 33.999l63 -85c-54.667 -48.667 -118.334 -73 -191.001 -73c-80 0 -140.833 24.833 -182.5 74.5s-62.5 118.167 -62.5 205.5
c0 85.333 20 154.166 60 206.499s96.333 78.5 169 78.5c70 0 125 -23.5 165 -70.5s60 -114.167 60 -201.5c0 -21.333 -1 -40 -3 -56zM332 320.002c0 42 -5.49902 73.5 -16.499 94.5s-29.5 31.5 -55.5 31.5c-23.333 0 -41.333 -9.83301 -54 -29.5
s-20.334 -54.167 -23.001 -103.5h149v7zM146.501 679.502c-27 31 -42.168 72.167 -45.501 123.5l83 15c12 -52.667 37 -79 75 -79c20 0 36.333 6.83301 49 20.5s21.667 33.167 27 58.5l83 -15c-3.33301 -51.333 -18.666 -92.5 -45.999 -123.5s-65 -46.5 -113 -46.5
s-85.5 15.5 -112.5 46.5z" />
    <glyph glyph-name="Edotaccent" unicode="&#x116;" horiz-adv-x="474" 
d="M447 693l-17 -114h-215v-171h188v-112h-188v-180h230v-116h-390v693h392zM315.5 909c17 -16.667 25.5 -37.334 25.5 -62.001c0 -25.333 -8.5 -46.333 -25.5 -63s-38.5 -25 -64.5 -25s-47.333 8.33301 -64 25s-25 37.667 -25 63c0 24.667 8.33301 45.334 25 62.001
s38 25 64 25s47.5 -8.33301 64.5 -25z" />
    <glyph glyph-name="edotaccent" unicode="&#x117;" horiz-adv-x="507" 
d="M480 220l-296 0.00195312c4 -46.667 14.333 -79 31 -97s40.334 -27 71.001 -27c20 0 39 3.66699 57 11s37.667 18.666 59 33.999l63 -85c-54.667 -48.667 -118.334 -73 -191.001 -73c-80 0 -140.833 24.833 -182.5 74.5s-62.5 118.167 -62.5 205.5
c0 85.333 20 154.166 60 206.499s96.333 78.5 169 78.5c70 0 125 -23.5 165 -70.5s60 -114.167 60 -201.5c0 -21.333 -1 -40 -3 -56zM332 320.002c0 42 -5.49902 73.5 -16.499 94.5s-29.5 31.5 -55.5 31.5c-23.333 0 -41.333 -9.83301 -54 -29.5
s-20.334 -54.167 -23.001 -103.5h149v7zM323.501 783.002c17 -16.667 25.5 -37.334 25.5 -62.001c0 -25.333 -8.5 -46.333 -25.5 -63s-38.5 -25 -64.5 -25s-47.333 8.33301 -64 25s-25 37.667 -25 63c0 24.667 8.33301 45.334 25 62.001s38 25 64 25s47.5 -8.33301 64.5 -25
z" />
    <glyph glyph-name="Eogonek" unicode="&#x118;" horiz-adv-x="474" 
d="M215 116l230.001 0.000976562v-116h-35c-40 -16.667 -67.5 -33.5 -82.5 -50.5s-22.5 -34.5 -22.5 -52.5c0 -30.667 15.667 -46 47 -46c12.667 0 30.667 2.33301 54 7l-10 -95c-20 -5.33301 -41 -8 -63 -8c-40.667 0 -73.834 10.333 -99.501 31s-38.5 48.667 -38.5 84
c0 53.333 26.333 96.666 79 129.999h-219v693h392l-17 -114h-215v-171h188v-112h-188v-180z" />
    <glyph glyph-name="eogonek" unicode="&#x119;" horiz-adv-x="507" 
d="M480 220l-296 0.00195312c4 -46.667 14.333 -79 31 -97s40.334 -27 71.001 -27c20 0 39 3.66699 57 11s37.667 18.666 59 33.999l63 -85c-28 -24.667 -59.333 -43.667 -94 -57c-56 -26.667 -84 -57.667 -84 -93c0 -14.667 4 -26 12 -34s19.667 -12 35 -12
s33.666 2.66699 54.999 8l-10 -96c-20 -5.33301 -41.333 -8 -64 -8c-39.333 0 -71.833 10.667 -97.5 32s-38.5 49.333 -38.5 84c0 43.333 21.333 78 64 104c-70 6.66699 -123.167 34.5 -159.5 83.5s-54.5 114.167 -54.5 195.5c0 85.333 20 154.166 60 206.499
s96.333 78.5 169 78.5c70 0 125 -23.5 165 -70.5s60 -114.167 60 -201.5c0 -21.333 -1 -40 -3 -56zM332 320.002c0 42 -5.49902 73.5 -16.499 94.5s-29.5 31.5 -55.5 31.5c-23.333 0 -41.333 -9.83301 -54 -29.5s-20.334 -54.167 -23.001 -103.5h149v7z" />
    <glyph glyph-name="Ecaron" unicode="&#x11a;" horiz-adv-x="474" 
d="M447 693l-17 -114h-215v-171h188v-112h-188v-180h230v-116h-390v693h392zM373 939l53 -59l-128 -130h-93l-128 130l54 59l121 -83z" />
    <glyph glyph-name="ecaron" unicode="&#x11b;" horiz-adv-x="507" 
d="M480 220l-296 0.00195312c4 -46.667 14.333 -79 31 -97s40.334 -27 71.001 -27c20 0 39 3.66699 57 11s37.667 18.666 59 33.999l63 -85c-54.667 -48.667 -118.334 -73 -191.001 -73c-80 0 -140.833 24.833 -182.5 74.5s-62.5 118.167 -62.5 205.5
c0 85.333 20 154.166 60 206.499s96.333 78.5 169 78.5c70 0 125 -23.5 165 -70.5s60 -114.167 60 -201.5c0 -21.333 -1 -40 -3 -56zM332 320.002c0 42 -5.49902 73.5 -16.499 94.5s-29.5 31.5 -55.5 31.5c-23.333 0 -41.333 -9.83301 -54 -29.5
s-20.334 -54.167 -23.001 -103.5h149v7zM381.001 810.002l53 -60l-128 -138h-93l-128 138l54 60l121 -92z" />
    <glyph glyph-name="Gcircumflex" unicode="&#x11c;" horiz-adv-x="590" 
d="M547 625l-78 -81.999c-22.667 18 -43.5 31 -62.5 39s-40.5 12 -64.5 12c-46.667 0 -82.667 -19.167 -108 -57.5s-38 -101.5 -38 -189.5c0 -63.333 4.33301 -112.833 13 -148.5s21.667 -60.834 39 -75.501s40.333 -22 69 -22c30 0 56.667 7.33301 80 22v162h-77l-15 113
h244v-343c-32.667 -22.667 -69 -40.334 -109 -53.001s-80 -19 -120 -19c-98 0 -170.833 30.167 -218.5 90.5s-71.5 151.5 -71.5 273.5c0 78.667 13.333 145.334 40 200.001s63 95.5 109 122.5s98 40.5 156 40.5c81.333 0 152 -28.333 212 -85zM199 758.001l-54 58l129 131
h92l128 -131l-53 -58l-121 83z" />
    <glyph glyph-name="gcircumflex" unicode="&#x11d;" horiz-adv-x="497" 
d="M500 500c-30.667 -13.333 -76.3369 -19.9971 -137.004 -19.9971c32 -14.667 55.5 -32.834 70.5 -54.501s22.5 -49.5 22.5 -83.5s-8.33301 -64.5 -25 -91.5s-40.5 -48 -71.5 -63s-67.5 -22.5 -109.5 -22.5c-20 0 -38 2 -54 6c-11.333 -7.33301 -17 -18 -17 -32
c0 -10.667 3.83301 -19 11.5 -25s21.834 -9 42.501 -9h65c58.667 0 105.334 -14.167 140.001 -42.5s52 -64.833 52 -109.5c0 -54 -22 -96.5 -66 -127.5s-107 -46.5 -189 -46.5c-88 0 -149 14.333 -183 43s-51 71 -51 127h138c0 -24.667 6.66699 -42.334 20 -53.001
s39.333 -16 78 -16c36.667 0 62.334 5.5 77.001 16.5s22 26.167 22 45.5c0 37.333 -23.667 56 -71 56h-57c-53.333 0 -92.666 9.5 -117.999 28.5s-38 44.167 -38 75.5c0 19.333 5.33301 37.666 16 54.999s25 32.333 43 45c-30.667 18 -52.834 39 -66.501 63
s-20.5 53.667 -20.5 89c0 60 19.833 107.333 59.5 142s92.834 51.667 159.501 51c46.667 -0.666992 85.667 4.5 117 15.5s66 27.5 104 49.5zM175.997 356.003c0 -30.667 5.83301 -53.667 17.5 -69s28.167 -23 49.5 -23c22 0 38.667 7.5 50 22.5s17 38.833 17 71.5
c0 30.667 -5.5 53 -16.5 67s-27.833 21 -50.5 21c-44.667 0 -67 -30 -67 -90zM128.997 623.003l-54 59l128 138h93l128 -138l-54 -59l-120 92z" />
    <glyph glyph-name="Gbreve" unicode="&#x11e;" horiz-adv-x="590" 
d="M547 625l-78 -81.999c-22.667 18 -43.5 31 -62.5 39s-40.5 12 -64.5 12c-46.667 0 -82.667 -19.167 -108 -57.5s-38 -101.5 -38 -189.5c0 -63.333 4.33301 -112.833 13 -148.5s21.667 -60.834 39 -75.501s40.333 -22 69 -22c30 0 56.667 7.33301 80 22v162h-77l-15 113
h244v-343c-32.667 -22.667 -69 -40.334 -109 -53.001s-80 -19 -120 -19c-98 0 -170.833 30.167 -218.5 90.5s-71.5 151.5 -71.5 273.5c0 78.667 13.333 145.334 40 200.001s63 95.5 109 122.5s98 40.5 156 40.5c81.333 0 152 -28.333 212 -85zM207.5 795.501
c-27 29.667 -42.5 68.167 -46.5 115.5l83 15c5.33301 -21.333 14.166 -38 26.499 -50s28.5 -18 48.5 -18s36.333 6.16699 49 18.5s21.667 28.833 27 49.5l83 -15c-4 -46.667 -19.667 -85 -47 -115s-64.666 -45 -111.999 -45s-84.5 14.833 -111.5 44.5z" />
    <glyph glyph-name="gbreve" unicode="&#x11f;" horiz-adv-x="497" 
d="M500 500c-30.667 -13.333 -76.3369 -19.9971 -137.004 -19.9971c32 -14.667 55.5 -32.834 70.5 -54.501s22.5 -49.5 22.5 -83.5s-8.33301 -64.5 -25 -91.5s-40.5 -48 -71.5 -63s-67.5 -22.5 -109.5 -22.5c-20 0 -38 2 -54 6c-11.333 -7.33301 -17 -18 -17 -32
c0 -10.667 3.83301 -19 11.5 -25s21.834 -9 42.501 -9h65c58.667 0 105.334 -14.167 140.001 -42.5s52 -64.833 52 -109.5c0 -54 -22 -96.5 -66 -127.5s-107 -46.5 -189 -46.5c-88 0 -149 14.333 -183 43s-51 71 -51 127h138c0 -24.667 6.66699 -42.334 20 -53.001
s39.333 -16 78 -16c36.667 0 62.334 5.5 77.001 16.5s22 26.167 22 45.5c0 37.333 -23.667 56 -71 56h-57c-53.333 0 -92.666 9.5 -117.999 28.5s-38 44.167 -38 75.5c0 19.333 5.33301 37.666 16 54.999s25 32.333 43 45c-30.667 18 -52.834 39 -66.501 63
s-20.5 53.667 -20.5 89c0 60 19.833 107.333 59.5 142s92.834 51.667 159.501 51c46.667 -0.666992 85.667 4.5 117 15.5s66 27.5 104 49.5zM175.997 356.003c0 -30.667 5.83301 -53.667 17.5 -69s28.167 -23 49.5 -23c22 0 38.667 7.5 50 22.5s17 38.833 17 71.5
c0 30.667 -5.5 53 -16.5 67s-27.833 21 -50.5 21c-44.667 0 -67 -30 -67 -90zM136.497 679.503c-27 31 -42.168 72.167 -45.501 123.5l83 15c12 -52.667 37 -79 75 -79c20 0 36.333 6.83301 49 20.5s21.667 33.167 27 58.5l83 -15
c-3.33301 -51.333 -18.666 -92.5 -45.999 -123.5s-65 -46.5 -113 -46.5s-85.5 15.5 -112.5 46.5z" />
    <glyph glyph-name="Gdotaccent" unicode="&#x120;" horiz-adv-x="590" 
d="M547 625l-78 -81.999c-22.667 18 -43.5 31 -62.5 39s-40.5 12 -64.5 12c-46.667 0 -82.667 -19.167 -108 -57.5s-38 -101.5 -38 -189.5c0 -63.333 4.33301 -112.833 13 -148.5s21.667 -60.834 39 -75.501s40.333 -22 69 -22c30 0 56.667 7.33301 80 22v162h-77l-15 113
h244v-343c-32.667 -22.667 -69 -40.334 -109 -53.001s-80 -19 -120 -19c-98 0 -170.833 30.167 -218.5 90.5s-71.5 151.5 -71.5 273.5c0 78.667 13.333 145.334 40 200.001s63 95.5 109 122.5s98 40.5 156 40.5c81.333 0 152 -28.333 212 -85zM383.5 909.001
c17 -16.667 25.5 -37.334 25.5 -62.001c0 -25.333 -8.5 -46.333 -25.5 -63s-38.5 -25 -64.5 -25s-47.333 8.33301 -64 25s-25 37.667 -25 63c0 24.667 8.33301 45.334 25 62.001s38 25 64 25s47.5 -8.33301 64.5 -25z" />
    <glyph glyph-name="gdotaccent" unicode="&#x121;" horiz-adv-x="497" 
d="M500 500c-30.667 -13.333 -76.3369 -19.9971 -137.004 -19.9971c32 -14.667 55.5 -32.834 70.5 -54.501s22.5 -49.5 22.5 -83.5s-8.33301 -64.5 -25 -91.5s-40.5 -48 -71.5 -63s-67.5 -22.5 -109.5 -22.5c-20 0 -38 2 -54 6c-11.333 -7.33301 -17 -18 -17 -32
c0 -10.667 3.83301 -19 11.5 -25s21.834 -9 42.501 -9h65c58.667 0 105.334 -14.167 140.001 -42.5s52 -64.833 52 -109.5c0 -54 -22 -96.5 -66 -127.5s-107 -46.5 -189 -46.5c-88 0 -149 14.333 -183 43s-51 71 -51 127h138c0 -24.667 6.66699 -42.334 20 -53.001
s39.333 -16 78 -16c36.667 0 62.334 5.5 77.001 16.5s22 26.167 22 45.5c0 37.333 -23.667 56 -71 56h-57c-53.333 0 -92.666 9.5 -117.999 28.5s-38 44.167 -38 75.5c0 19.333 5.33301 37.666 16 54.999s25 32.333 43 45c-30.667 18 -52.834 39 -66.501 63
s-20.5 53.667 -20.5 89c0 60 19.833 107.333 59.5 142s92.834 51.667 159.501 51c46.667 -0.666992 85.667 4.5 117 15.5s66 27.5 104 49.5zM175.997 356.003c0 -30.667 5.83301 -53.667 17.5 -69s28.167 -23 49.5 -23c22 0 38.667 7.5 50 22.5s17 38.833 17 71.5
c0 30.667 -5.5 53 -16.5 67s-27.833 21 -50.5 21c-44.667 0 -67 -30 -67 -90zM313.497 783.003c17 -16.667 25.5 -37.334 25.5 -62.001c0 -25.333 -8.5 -46.333 -25.5 -63s-38.5 -25 -64.5 -25s-47.333 8.33301 -64 25s-25 37.667 -25 63c0 24.667 8.33301 45.334 25 62.001
s38 25 64 25s47.5 -8.33301 64.5 -25z" />
    <glyph glyph-name="Gcommaaccent" unicode="&#x122;" horiz-adv-x="590" 
d="M547 625l-78 -81.999c-22.667 18 -43.5 31 -62.5 39s-40.5 12 -64.5 12c-46.667 0 -82.667 -19.167 -108 -57.5s-38 -101.5 -38 -189.5c0 -63.333 4.33301 -112.833 13 -148.5s21.667 -60.834 39 -75.501s40.333 -22 69 -22c30 0 56.667 7.33301 80 22v162h-77l-15 113
h244v-343c-32.667 -22.667 -69 -40.334 -109 -53.001s-80 -19 -120 -19c-98 0 -170.833 30.167 -218.5 90.5s-71.5 151.5 -71.5 273.5c0 78.667 13.333 145.334 40 200.001s63 95.5 109 122.5s98 40.5 156 40.5c81.333 0 152 -28.333 212 -85zM372 -89.499
c14 -14.333 21 -32.499 21 -54.499c0 -12.667 -1.66699 -24.834 -5 -36.501s-9.66602 -27.5 -18.999 -47.5l-42 -95h-76l26 115c-22.667 16 -34 37.333 -34 64c0 20.667 7.16699 38.5 21.5 53.5s32.166 22.5 53.499 22.5c22 0 40 -7.16699 54 -21.5z" />
    <glyph glyph-name="gcommaaccent" unicode="&#x123;" horiz-adv-x="497" 
d="M500 500c-30.667 -13.333 -76.3369 -19.9971 -137.004 -19.9971c32 -14.667 55.5 -32.834 70.5 -54.501s22.5 -49.5 22.5 -83.5s-8.33301 -64.5 -25 -91.5s-40.5 -48 -71.5 -63s-67.5 -22.5 -109.5 -22.5c-20 0 -38 2 -54 6c-11.333 -7.33301 -17 -18 -17 -32
c0 -10.667 3.83301 -19 11.5 -25s21.834 -9 42.501 -9h65c58.667 0 105.334 -14.167 140.001 -42.5s52 -64.833 52 -109.5c0 -54 -22 -96.5 -66 -127.5s-107 -46.5 -189 -46.5c-88 0 -149 14.333 -183 43s-51 71 -51 127h138c0 -24.667 6.66699 -42.334 20 -53.001
s39.333 -16 78 -16c36.667 0 62.334 5.5 77.001 16.5s22 26.167 22 45.5c0 37.333 -23.667 56 -71 56h-57c-53.333 0 -92.666 9.5 -117.999 28.5s-38 44.167 -38 75.5c0 19.333 5.33301 37.666 16 54.999s25 32.333 43 45c-30.667 18 -52.834 39 -66.501 63
s-20.5 53.667 -20.5 89c0 60 19.833 107.333 59.5 142s92.834 51.667 159.501 51c46.667 -0.666992 85.667 4.5 117 15.5s66 27.5 104 49.5zM175.997 356.003c0 -30.667 5.83301 -53.667 17.5 -69s28.167 -23 49.5 -23c22 0 38.667 7.5 50 22.5s17 38.833 17 71.5
c0 30.667 -5.5 53 -16.5 67s-27.833 21 -50.5 21c-44.667 0 -67 -30 -67 -90zM192.997 598.503c-14 14.333 -21 32.499 -21 54.499c0 12.667 1.66699 24.834 5 36.501s9.66602 27.5 18.999 47.5l42 95h76l-26 -115c22.667 -16 34 -37.333 34 -64
c0 -20.667 -7.16699 -38.5 -21.5 -53.5s-32.166 -22.5 -53.499 -22.5c-22 0 -40 7.16699 -54 21.5z" />
    <glyph glyph-name="Hcircumflex" unicode="&#x124;" horiz-adv-x="602" 
d="M388 0v298h-173v-298h-160v693h160v-270h173v270h160v-693h-160zM181 758l-54 58l129 131h92l128 -131l-53 -58l-121 83z" />
    <glyph glyph-name="hcircumflex" unicode="&#x125;" horiz-adv-x="524" 
d="M439.5 506.5c23.667 -27.667 35.498 -65.499 35.498 -113.499v-393h-154v372c0 22 -3.33301 37.5 -10 46.5s-16 13.5 -28 13.5c-13.333 0 -26.166 -5.5 -38.499 -16.5s-25.166 -27.167 -38.499 -48.5v-367h-154v742l154 16v-285c18.667 25.333 39 44.166 61 56.499
s47 18.5 75 18.5c41.333 0 73.833 -13.833 97.5 -41.5zM139.998 807.001l-54 58l129 131h92l128 -131l-53 -58l-121 83z" />
    <glyph glyph-name="Hbar" unicode="&#x126;" horiz-adv-x="613" 
d="M602 591v-90h-48v-501h-160v298h-173v-298h-160v501h-50v90h50v102h160v-102h173v102h160v-102h48zM394 423v78h-173v-78h173z" />
    <glyph glyph-name="hbar" unicode="&#x127;" horiz-adv-x="530" 
d="M445.5 506.5c23.667 -27.667 35.498 -65.499 35.498 -113.499v-393h-154v372c0 22 -3.33301 37.5 -10 46.5s-16 13.5 -28 13.5c-13.333 0 -26.166 -5.5 -38.499 -16.5s-25.166 -27.167 -38.499 -48.5v-367h-154v598h-52v90h52v54l154 16v-70h117v-90h-117v-125
c18.667 25.333 39 44.166 61 56.499s47 18.5 75 18.5c41.333 0 73.833 -13.833 97.5 -41.5z" />
    <glyph glyph-name="Itilde" unicode="&#x128;" horiz-adv-x="269" 
d="M215 693v-693h-160v693h160zM154.5 771c-9 4 -20.4971 10.332 -34.4971 18.999c-8.66699 6 -15.5 10.333 -20.5 13s-10.5 4 -16.5 4c-10 0 -18.333 -3.16699 -25 -9.5s-14.334 -17.166 -23.001 -32.499l-74 35c12 34 28.333 61.5 49 82.5s44 31.5 70 31.5
c13.333 0 25 -2.16699 35 -6.5s21.333 -10.833 34 -19.5c1.33301 -0.666992 4.66602 -2.66699 9.99902 -6s10.166 -5.83301 14.499 -7.5s8.5 -2.5 12.5 -2.5c9.33301 0 17.5 3.16699 24.5 9.5s14.5 16.833 22.5 31.5l74 -35c-12 -34.667 -28.333 -62.167 -49 -82.5
s-44 -30.5 -70 -30.5c-13.333 0 -24.5 2 -33.5 6z" />
    <glyph glyph-name="itilde" unicode="&#x129;" horiz-adv-x="259" 
d="M206 531v-531h-154v531h154zM149.5 645c-9 4 -20.4971 10.332 -34.4971 18.999c-8.66699 6 -15.5 10.333 -20.5 13s-10.5 4 -16.5 4c-10 0 -18.333 -3.16699 -25 -9.5s-14.334 -17.166 -23.001 -32.499l-74 35c12 34 28.333 61.5 49 82.5s44 31.5 70 31.5
c13.333 0 25 -2.16699 35 -6.5s21.333 -10.833 34 -19.5c1.33301 -0.666992 4.66602 -2.66699 9.99902 -6s10.166 -5.83301 14.499 -7.5s8.5 -2.5 12.5 -2.5c9.33301 0 17.5 3.16699 24.5 9.5s14.5 16.833 22.5 31.5l74 -35c-12 -34.667 -28.333 -62.167 -49 -82.5
s-44 -30.5 -70 -30.5c-13.333 0 -24.5 2 -33.5 6z" />
    <glyph glyph-name="Imacron" unicode="&#x12a;" horiz-adv-x="269" 
d="M215 693v-693h-160v693h160zM274 783h-280v105h280v-105z" />
    <glyph glyph-name="imacron" unicode="&#x12b;" horiz-adv-x="259" 
d="M206 531v-531h-154v531h154zM269 657h-280v105h280v-105z" />
    <glyph glyph-name="Ibreve" unicode="&#x12c;" horiz-adv-x="269" 
d="M215 693v-693h-160v693h160zM21.5 795.5c-27 29.667 -42.5 68.167 -46.5 115.5l83 15c5.33301 -21.333 14.166 -38 26.499 -50s28.5 -18 48.5 -18s36.333 6.16699 49 18.5s21.667 28.833 27 49.5l83 -15c-4 -46.667 -19.667 -85 -47 -115s-64.666 -45 -111.999 -45
s-84.5 14.833 -111.5 44.5z" />
    <glyph glyph-name="ibreve" unicode="&#x12d;" horiz-adv-x="259" 
d="M206 531v-531h-154v531h154zM15.5 679.5c-27 31 -42.168 72.167 -45.501 123.5l83 15c12 -52.667 37 -79 75 -79c20 0 36.333 6.83301 49 20.5s21.667 33.167 27 58.5l83 -15c-3.33301 -51.333 -18.666 -92.5 -45.999 -123.5s-65 -46.5 -113 -46.5
s-85.5 15.5 -112.5 46.5z" />
    <glyph glyph-name="Iogonek" unicode="&#x12e;" horiz-adv-x="269" 
d="M215 693l0.000976562 -693h-34c-40 -16.667 -67.5 -33.5 -82.5 -50.5s-22.5 -34.5 -22.5 -52.5c0 -30.667 15.667 -46 47 -46c12.667 0 30.667 2.33301 54 7l-10 -95c-20 -5.33301 -41 -8 -63 -8c-40.667 0 -73.834 10.333 -99.501 31s-38.5 48.667 -38.5 84
c0 56 29.667 101.333 89 136v687h160z" />
    <glyph glyph-name="iogonek" unicode="&#x12f;" horiz-adv-x="259" 
d="M64 658c-16.667 16.667 -25 37.667 -25 63c0 24.667 8.33301 45.334 25 62.001s38 25 64 25s47.5 -8.33301 64.5 -25s25.5 -37.334 25.5 -62.001c0 -25.333 -8.5 -46.333 -25.5 -63s-38.5 -25 -64.5 -25s-47.333 8.33301 -64 25zM52 531h154.001v-531h-26
c-40 -16.667 -67.5 -33.5 -82.5 -50.5s-22.5 -34.5 -22.5 -52.5c0 -30.667 15.667 -46 47 -46c12.667 0 30.667 2.33301 54 7l-10 -95c-20 -5.33301 -41 -8 -63 -8c-40.667 0 -73.834 10.333 -99.501 31s-38.5 48.667 -38.5 84c0 55.333 29 100.333 87 135v526z" />
    <glyph glyph-name="Idotaccent" unicode="&#x130;" horiz-adv-x="269" 
d="M215 693v-693h-160v693h160zM197.5 909c17 -16.667 25.5 -37.334 25.5 -62.001c0 -25.333 -8.5 -46.333 -25.5 -63s-38.5 -25 -64.5 -25s-47.333 8.33301 -64 25s-25 37.667 -25 63c0 24.667 8.33301 45.334 25 62.001s38 25 64 25s47.5 -8.33301 64.5 -25z" />
    <glyph glyph-name="dotlessi" unicode="&#x131;" horiz-adv-x="259" 
d="M206 531v-531h-154v531h154z" />
    <glyph glyph-name="IJ" unicode="&#x132;" horiz-adv-x="559" 
d="M215 693v-693h-160v693h160zM507 105c0 -78.667 -18.667 -138 -56 -178s-88.333 -71.333 -153 -94l-42 113c26 11.333 45.5 24 58.5 38s21.667 30.667 26 50s6.5 45 6.5 77v582h160v-588z" />
    <glyph glyph-name="ij" unicode="&#x133;" horiz-adv-x="518" 
d="M206 531v-531h-154v531h154zM192.5 783c17 -16.667 25.5 -37.334 25.5 -62.001c0 -25.333 -8.5 -46.333 -25.5 -63s-38.5 -25 -64.5 -25s-47.333 8.33301 -64 25s-25 37.667 -25 63c0 24.667 8.33301 45.334 25 62.001s38 25 64 25s47.5 -8.33301 64.5 -25zM465 48
c0 -51.333 -8.33203 -94.167 -24.999 -128.5s-39.5 -62 -68.5 -83s-64.833 -40.167 -107.5 -57.5l-51 112c23.333 12.667 41.666 24.667 54.999 36s23.833 26 31.5 44s11.5 41.667 11.5 71v489h154v-483zM451.501 782.999c17 -16.667 25.5 -37.334 25.5 -62.001
c0 -25.333 -8.5 -46.333 -25.5 -63s-38.5 -25 -64.5 -25s-47.333 8.33301 -64 25s-25 37.667 -25 63c0 24.667 8.33301 45.334 25 62.001s38 25 64 25s47.5 -8.33301 64.5 -25z" />
    <glyph glyph-name="Jcircumflex" unicode="&#x134;" horiz-adv-x="290" 
d="M238 105c0 -78.667 -18.667 -138 -56 -178s-88.333 -71.333 -153 -94l-42 113c26 11.333 45.5 24 58.5 38s21.667 30.667 26 50s6.5 45 6.5 77v582h160v-588zM37 758l-54 58l129 131h92l128 -131l-53 -58l-121 83z" />
    <glyph glyph-name="jcircumflex" unicode="&#x135;" horiz-adv-x="259" 
d="M206 48c0 -51.333 -8.33203 -94.167 -24.999 -128.5s-39.5 -62 -68.5 -83s-64.833 -40.167 -107.5 -57.5l-51 112c23.333 12.667 41.666 24.667 54.999 36s23.833 26 31.5 44s11.5 41.667 11.5 71v489h154v-483zM8.00098 622.999l-54 59l128 138h93l128 -138l-54 -59
l-120 92z" />
    <glyph glyph-name="Kcommaaccent" unicode="&#x136;" horiz-adv-x="581" 
d="M215 693v-693h-160v693h160zM577 693l-194 -311l210 -382h-179l-194 370l194 323h163zM350 -89.5c14 -14.333 21 -32.499 21 -54.499c0 -12.667 -1.66699 -24.834 -5 -36.501s-9.66602 -27.5 -18.999 -47.5l-42 -95h-76l26 115c-22.667 16 -34 37.333 -34 64
c0 20.667 7.16699 38.5 21.5 53.5s32.166 22.5 53.499 22.5c22 0 40 -7.16699 54 -21.5z" />
    <glyph glyph-name="kcommaaccent" unicode="&#x137;" horiz-adv-x="509" 
d="M206 758v-758h-154v742zM506 531l-142 -233l153 -298h-168l-138 290l144 241h151zM309 -89.5c14 -14.333 21 -32.499 21 -54.499c0 -12.667 -1.66699 -24.834 -5 -36.501s-9.66602 -27.5 -18.999 -47.5l-42 -95h-76l26 115c-22.667 16 -34 37.333 -34 64
c0 20.667 7.16699 38.5 21.5 53.5s32.166 22.5 53.499 22.5c22 0 40 -7.16699 54 -21.5z" />
    <glyph glyph-name="kgreenlandic" unicode="&#x138;" horiz-adv-x="508" 
d="M206 531v-531h-154v531h154zM506 531l-142 -240l152 -291h-167l-139 284l144 247h152z" />
    <glyph glyph-name="Lacute" unicode="&#x139;" horiz-adv-x="465" 
d="M215 693v-566h241l-17 -127h-384v693h160zM206 950l58 -113l-219 -86l-39 77z" />
    <glyph glyph-name="lacute" unicode="&#x13a;" horiz-adv-x="273" 
d="M84 21c-24.667 25.333 -36.999 60.667 -36.999 106v615l154 16v-624c0 -19.333 8 -29 24 -29c6.66699 0 14 1.33301 22 4l29 -107c-26.667 -12.667 -56.334 -19 -89.001 -19c-44 0 -78.333 12.667 -103 38zM195.001 999.001l58 -113l-219 -86l-39 77z" />
    <glyph glyph-name="Lcommaaccent" unicode="&#x13b;" horiz-adv-x="465" 
d="M215 693v-566h241l-17 -127h-384v693h160zM301 -89.5c14 -14.333 21 -32.499 21 -54.499c0 -12.667 -1.66699 -24.834 -5 -36.501s-9.66602 -27.5 -18.999 -47.5l-42 -95h-76l26 115c-22.667 16 -34 37.333 -34 64c0 20.667 7.16699 38.5 21.5 53.5
s32.166 22.5 53.499 22.5c22 0 40 -7.16699 54 -21.5z" />
    <glyph glyph-name="lcommaaccent" unicode="&#x13c;" horiz-adv-x="273" 
d="M84 21c-24.667 25.333 -36.999 60.667 -36.999 106v615l154 16v-624c0 -19.333 8 -29 24 -29c6.66699 0 14 1.33301 22 4l29 -107c-26.667 -12.667 -56.334 -19 -89.001 -19c-44 0 -78.333 12.667 -103 38zM222.001 -89.499c14 -14.333 21 -32.499 21 -54.499
c0 -12.667 -1.66699 -24.834 -5 -36.501s-9.66602 -27.5 -18.999 -47.5l-42 -95h-76l26 115c-22.667 16 -34 37.333 -34 64c0 20.667 7.16699 38.5 21.5 53.5s32.166 22.5 53.499 22.5c22 0 40 -7.16699 54 -21.5z" />
    <glyph glyph-name="Lcaron" unicode="&#x13d;" horiz-adv-x="465" 
d="M215 693v-566h241l-17 -127h-384v693h160zM335 479l50 214l-113 16l-22 -217z" />
    <glyph glyph-name="lcaron" unicode="&#x13e;" horiz-adv-x="345" 
d="M84 21c-24.667 25.333 -36.999 60.667 -36.999 106v615l154 16v-624c0 -19.333 8 -29 24 -29c6.66699 0 14 1.33301 22 4l29 -107c-26.667 -12.667 -56.334 -19 -89.001 -19c-44 0 -78.333 12.667 -103 38zM320.001 528.001l50 214l-113 16l-22 -217z" />
    <glyph glyph-name="Ldot" unicode="&#x13f;" horiz-adv-x="465" 
d="M215 693v-566h241l-17 -127h-384v693h160zM426.5 461c17 -16.667 25.5 -37.334 25.5 -62.001c0 -25.333 -8.5 -46.333 -25.5 -63s-38.5 -25 -64.5 -25s-47.333 8.33301 -64 25s-25 37.667 -25 63c0 24.667 8.33301 45.334 25 62.001s38 25 64 25s47.5 -8.33301 64.5 -25z
" />
    <glyph glyph-name="ldot" unicode="&#x140;" horiz-adv-x="416" 
d="M84 21c-24.667 25.333 -36.999 60.667 -36.999 106v615l154 16v-624c0 -19.333 8 -29 24 -29c6.66699 0 14 1.33301 22 4l29 -107c-26.667 -12.667 -56.334 -19 -89.001 -19c-44 0 -78.333 12.667 -103 38zM395.501 439.001c17 -16.667 25.5 -37.334 25.5 -62.001
c0 -25.333 -8.5 -46.333 -25.5 -63s-38.5 -25 -64.5 -25s-47.333 8.33301 -64 25s-25 37.667 -25 63c0 24.667 8.33301 45.334 25 62.001s38 25 64 25s47.5 -8.33301 64.5 -25z" />
    <glyph glyph-name="Lslash" unicode="&#x141;" horiz-adv-x="505" 
d="M255 127h241l-17 -127h-384v226l-39 -26l-51 85l86 59l4 3v346h160v-240l106 70l51 -84l-157 -105v-207z" />
    <glyph glyph-name="lslash" unicode="&#x142;" horiz-adv-x="332" 
d="M278 109l29.001 -106.999c-26.667 -12.667 -56.334 -19 -89.001 -19c-44 0 -78.333 12.667 -103 38s-37 60.666 -37 105.999v142l-35 -23l-50 83l85 57v356l154 16v-273l56 36l50 -82l-106 -69v-236c0 -19.333 8 -29 24 -29c6.66699 0 14 1.33301 22 4z" />
    <glyph glyph-name="Nacute" unicode="&#x143;" horiz-adv-x="599" 
d="M544 0h-200l-170 544c1.33301 -8 2 -14.667 2 -20c6 -48 10.667 -91.5 14 -130.5s5 -84.167 5 -135.5v-258h-140v693h198l173 -545c-14.667 86.667 -22 173 -22 259v286h140v-693zM373 950l58 -113l-219 -86l-39 77z" />
    <glyph glyph-name="nacute" unicode="&#x144;" horiz-adv-x="524" 
d="M439.5 506.5c23.667 -27.667 35.499 -65.5 35.499 -113.5v-393h-154v372c0 22 -3.16699 37.5 -9.5 46.5s-15.833 13.5 -28.5 13.5c-13.333 0 -26.166 -5.5 -38.499 -16.5s-25.166 -27.167 -38.499 -48.5v-367h-154v531h135l11 -63c19.333 26.667 40.666 46.667 63.999 60
s50 20 80 20c41.333 0 73.833 -13.833 97.5 -41.5zM328.999 830l60 -113l-217 -94l-42 76z" />
    <glyph glyph-name="Ncommaaccent" unicode="&#x145;" horiz-adv-x="599" 
d="M544 0h-200l-170 544c1.33301 -8 2 -14.667 2 -20c6 -48 10.667 -91.5 14 -130.5s5 -84.167 5 -135.5v-258h-140v693h198l173 -545c-14.667 86.667 -22 173 -22 259v286h140v-693zM354 -89.5c14 -14.333 21 -32.499 21 -54.499c0 -12.667 -1.66699 -24.834 -5 -36.501
s-9.66602 -27.5 -18.999 -47.5l-42 -95h-76l26 115c-22.667 16 -34 37.333 -34 64c0 20.667 7.16699 38.5 21.5 53.5s32.166 22.5 53.499 22.5c22 0 40 -7.16699 54 -21.5z" />
    <glyph glyph-name="ncommaaccent" unicode="&#x146;" horiz-adv-x="524" 
d="M439.5 506.5c23.667 -27.667 35.499 -65.5 35.499 -113.5v-393h-154v372c0 22 -3.16699 37.5 -9.5 46.5s-15.833 13.5 -28.5 13.5c-13.333 0 -26.166 -5.5 -38.499 -16.5s-25.166 -27.167 -38.499 -48.5v-367h-154v531h135l11 -63c19.333 26.667 40.666 46.667 63.999 60
s50 20 80 20c41.333 0 73.833 -13.833 97.5 -41.5zM315.999 -89.5c14 -14.333 21 -32.499 21 -54.499c0 -12.667 -1.66699 -24.834 -5 -36.501s-9.66602 -27.5 -18.999 -47.5l-42 -95h-76l26 115c-22.667 16 -34 37.333 -34 64c0 20.667 7.16699 38.5 21.5 53.5
s32.166 22.5 53.499 22.5c22 0 40 -7.16699 54 -21.5z" />
    <glyph glyph-name="Ncaron" unicode="&#x147;" horiz-adv-x="599" 
d="M544 0h-200l-170 544c1.33301 -8 2 -14.667 2 -20c6 -48 10.667 -91.5 14 -130.5s5 -84.167 5 -135.5v-258h-140v693h198l173 -545c-14.667 86.667 -22 173 -22 259v286h140v-693zM423 939l53 -59l-128 -130h-93l-128 130l54 59l121 -83z" />
    <glyph glyph-name="ncaron" unicode="&#x148;" horiz-adv-x="524" 
d="M439.5 506.5c23.667 -27.667 35.499 -65.5 35.499 -113.5v-393h-154v372c0 22 -3.16699 37.5 -9.5 46.5s-15.833 13.5 -28.5 13.5c-13.333 0 -26.166 -5.5 -38.499 -16.5s-25.166 -27.167 -38.499 -48.5v-367h-154v531h135l11 -63c19.333 26.667 40.666 46.667 63.999 60
s50 20 80 20c41.333 0 73.833 -13.833 97.5 -41.5zM386.999 810l53 -60l-128 -138h-93l-128 138l54 60l121 -92z" />
    <glyph glyph-name="napostrophe" unicode="&#x149;" horiz-adv-x="643" 
d="M145 740.5c12 -12.333 18.001 -28.167 18.001 -47.5c0 -10.667 -1.5 -20.834 -4.5 -30.501s-8.83301 -24.5 -17.5 -44.5l-36 -83h-66l21 101c-19.333 14.667 -29 33.667 -29 57c0 18.667 6.16699 34.334 18.5 47.001s28.166 19 47.499 19c20 0 36 -6.16699 48 -18.5z
M559.501 506.499c23.667 -27.667 35.499 -65.5 35.499 -113.5v-393h-154v372c0 22 -3.16699 37.5 -9.5 46.5s-15.833 13.5 -28.5 13.5c-13.333 0 -26.166 -5.5 -38.499 -16.5s-25.166 -27.167 -38.499 -48.5v-367h-154v531h135l11 -63
c19.333 26.667 40.666 46.667 63.999 60s50 20 80 20c41.333 0 73.833 -13.833 97.5 -41.5z" />
    <glyph glyph-name="Eng" unicode="&#x14a;" horiz-adv-x="599" 
d="M544 693v-734c0 -59.333 -17 -104.166 -51 -134.499s-79.667 -45.5 -137 -45.5c-52 0 -96.333 14 -133 42l53 92c12 -6.66699 22.333 -11.334 31 -14.001s18.667 -4 30 -4c31.333 0 47 18.333 47 55v50h-40l-170 544c1.33301 -8 2 -14.667 2 -20
c6 -48 10.667 -91.5 14 -130.5s5 -84.167 5 -135.5v-258h-140v693h198l173 -545c-14.667 86.667 -22 173 -22 259v286h140z" />
    <glyph glyph-name="eng" unicode="&#x14b;" horiz-adv-x="524" 
d="M439.5 506.5c23.667 -27.667 35.498 -65.5 35.498 -113.5v-437c0 -57.333 -16.667 -101.166 -50 -131.499s-77.666 -45.5 -132.999 -45.5c-54 0 -99 14 -135 42l53 88c12 -6.66699 22.333 -11.334 31 -14.001s19 -4 31 -4c15.333 0 27.333 4.5 36 13.5s13 22.833 13 41.5
v426c0 22 -3.16699 37.5 -9.5 46.5s-15.833 13.5 -28.5 13.5c-13.333 0 -26.166 -5.5 -38.499 -16.5s-25.166 -27.167 -38.499 -48.5v-367h-154v531h135l11 -63c19.333 26.667 40.666 46.667 63.999 60s50 20 80 20c41.333 0 73.833 -13.833 97.5 -41.5z" />
    <glyph glyph-name="Omacron" unicode="&#x14c;" horiz-adv-x="630" 
d="M526 617.5c49.333 -61.667 74.002 -151.834 74.002 -270.501c0 -117.333 -24.833 -207.333 -74.5 -270s-119.834 -94 -210.501 -94s-160.834 31 -210.501 93s-74.5 152.333 -74.5 271c0 116.667 24.833 206.334 74.5 269.001s119.834 94 210.501 94
c91.333 0 161.666 -30.833 210.999 -92.5zM225.502 536c-19 -38 -28.5 -101 -28.5 -189c0 -89.333 9.66699 -152.833 29 -190.5s49 -56.5 89 -56.5c40.667 0 70.5 18.833 89.5 56.5s28.5 101.167 28.5 190.5c0 88 -9.5 151 -28.5 189s-48.833 57 -89.5 57
s-70.5 -19 -89.5 -57zM455.002 783h-280v105h280v-105z" />
    <glyph glyph-name="omacron" unicode="&#x14d;" horiz-adv-x="534" 
d="M442.5 475.5c42.333 -48.333 63.5 -118.501 63.5 -210.501c0 -88 -21.333 -157 -64 -207s-101 -75 -175 -75c-74.667 0 -133 24.333 -175 73s-63 118.667 -63 210c0 88.667 21.167 157.834 63.5 207.501s100.5 74.5 174.5 74.5c74.667 0 133.167 -24.167 175.5 -72.5z
M207 394.999c-12.667 -26 -19 -69 -19 -129c0 -61.333 6.33301 -105 19 -131s32.667 -39 60 -39s47.5 13.167 60.5 39.5s19.5 69.5 19.5 129.5c0 61.333 -6.33301 104.833 -19 130.5s-33 38.5 -61 38.5c-27.333 0 -47.333 -13 -60 -39zM407 656.999h-280v105h280v-105z" />
    <glyph glyph-name="Obreve" unicode="&#x14e;" horiz-adv-x="630" 
d="M526 617.5c49.333 -61.667 74.002 -151.834 74.002 -270.501c0 -117.333 -24.833 -207.333 -74.5 -270s-119.834 -94 -210.501 -94s-160.834 31 -210.501 93s-74.5 152.333 -74.5 271c0 116.667 24.833 206.334 74.5 269.001s119.834 94 210.501 94
c91.333 0 161.666 -30.833 210.999 -92.5zM225.502 536c-19 -38 -28.5 -101 -28.5 -189c0 -89.333 9.66699 -152.833 29 -190.5s49 -56.5 89 -56.5c40.667 0 70.5 18.833 89.5 56.5s28.5 101.167 28.5 190.5c0 88 -9.5 151 -28.5 189s-48.833 57 -89.5 57
s-70.5 -19 -89.5 -57zM202.502 795.5c-27 29.667 -42.5 68.167 -46.5 115.5l83 15c5.33301 -21.333 14.166 -38 26.499 -50s28.5 -18 48.5 -18s36.333 6.16699 49 18.5s21.667 28.833 27 49.5l83 -15c-4 -46.667 -19.667 -85 -47 -115s-64.666 -45 -111.999 -45
s-84.5 14.833 -111.5 44.5z" />
    <glyph glyph-name="obreve" unicode="&#x14f;" horiz-adv-x="534" 
d="M442.5 475.5c42.333 -48.333 63.5 -118.501 63.5 -210.501c0 -88 -21.333 -157 -64 -207s-101 -75 -175 -75c-74.667 0 -133 24.333 -175 73s-63 118.667 -63 210c0 88.667 21.167 157.834 63.5 207.501s100.5 74.5 174.5 74.5c74.667 0 133.167 -24.167 175.5 -72.5z
M207 394.999c-12.667 -26 -19 -69 -19 -129c0 -61.333 6.33301 -105 19 -131s32.667 -39 60 -39s47.5 13.167 60.5 39.5s19.5 69.5 19.5 129.5c0 61.333 -6.33301 104.833 -19 130.5s-33 38.5 -61 38.5c-27.333 0 -47.333 -13 -60 -39zM153.5 679.499
c-27 31 -42.168 72.167 -45.501 123.5l83 15c12 -52.667 37 -79 75 -79c20 0 36.333 6.83301 49 20.5s21.667 33.167 27 58.5l83 -15c-3.33301 -51.333 -18.666 -92.5 -45.999 -123.5s-65 -46.5 -113 -46.5s-85.5 15.5 -112.5 46.5z" />
    <glyph glyph-name="Ohungarumlaut" unicode="&#x150;" horiz-adv-x="630" 
d="M526 617.5c49.333 -61.667 74.002 -151.834 74.002 -270.501c0 -117.333 -24.833 -207.333 -74.5 -270s-119.834 -94 -210.501 -94s-160.834 31 -210.501 93s-74.5 152.333 -74.5 271c0 116.667 24.833 206.334 74.5 269.001s119.834 94 210.501 94
c91.333 0 161.666 -30.833 210.999 -92.5zM225.502 536c-19 -38 -28.5 -101 -28.5 -189c0 -89.333 9.66699 -152.833 29 -190.5s49 -56.5 89 -56.5c40.667 0 70.5 18.833 89.5 56.5s28.5 101.167 28.5 190.5c0 88 -9.5 151 -28.5 189s-48.833 57 -89.5 57
s-70.5 -19 -89.5 -57zM275.002 983l101 -48l-105 -179l-77 32zM437.002 983l99 -51l-112 -180l-75 36z" />
    <glyph glyph-name="ohungarumlaut" unicode="&#x151;" horiz-adv-x="534" 
d="M442.5 475.5c42.333 -48.333 63.5 -118.501 63.5 -210.501c0 -88 -21.333 -157 -64 -207s-101 -75 -175 -75c-74.667 0 -133 24.333 -175 73s-63 118.667 -63 210c0 88.667 21.167 157.834 63.5 207.501s100.5 74.5 174.5 74.5c74.667 0 133.167 -24.167 175.5 -72.5z
M207 394.999c-12.667 -26 -19 -69 -19 -129c0 -61.333 6.33301 -105 19 -131s32.667 -39 60 -39s47.5 13.167 60.5 39.5s19.5 69.5 19.5 129.5c0 61.333 -6.33301 104.833 -19 130.5s-33 38.5 -61 38.5c-27.333 0 -47.333 -13 -60 -39zM221 856.999l101 -48l-105 -179
l-77 32zM383 856.999l99 -51l-112 -180l-75 36z" />
    <glyph glyph-name="OE" unicode="&#x152;" horiz-adv-x="820" 
d="M517 116l273.999 0.00292969v-116h-402c-26.667 -11.333 -56.334 -17 -89.001 -17c-55.333 0 -103.166 14.167 -143.499 42.5s-71.5 69.666 -93.5 123.999s-33 120.166 -33 197.499c0 76 11 141.167 33 195.5s53.333 95.833 94 124.5s88.334 43 143.001 43
c33.333 0 64 -5.66699 92 -17h401l-17 -114h-259c32 -44.667 52.333 -101.334 61 -170.001h171v-113h-170c-7.33301 -72 -28 -132 -62 -180zM387.999 157.003c18 38 27 101.333 27 190c0 88 -9 151 -27 189s-45.333 57 -82 57s-64 -19 -82 -57s-27 -101 -27 -189
s9.16699 -151.167 27.5 -189.5s45.5 -57.5 81.5 -57.5c36.667 0 64 19 82 57z" />
    <glyph glyph-name="oe" unicode="&#x153;" horiz-adv-x="824" 
d="M796 220l-294.001 0.00195312c4 -46 14.5 -78.167 31.5 -96.5s40.833 -27.5 71.5 -27.5c20 0 39 3.66699 57 11s37.667 18.666 59 33.999l63 -84c-55.333 -49.333 -119 -74 -191 -74c-70.667 0 -127 26.333 -169 79c-41.333 -52.667 -94.666 -79 -159.999 -79
c-73.333 0 -130.833 24.5 -172.5 73.5s-62.5 118.833 -62.5 209.5c0 57.333 9.5 107.166 28.5 149.499s46.333 75 82 98s77.5 34.5 125.5 34.5c64.667 0 118 -25.667 160 -77c39.333 51.333 91 77 155 77c67.333 0 120.833 -23.667 160.5 -71s59.5 -114.333 59.5 -201
c0 -16 -1.33301 -34.667 -4 -56zM648.999 320.002c0 42 -5.33203 73.332 -15.999 93.999s-28.667 31 -54 31c-24 0 -42.333 -10.167 -55 -30.5s-20.334 -54.166 -23.001 -101.499h148v7zM326 136.001c12.667 26.667 19 70.001 19 130.001
c0 59.333 -6.33301 102.166 -19 128.499s-32.334 39.5 -59.001 39.5c-27.333 0 -47.333 -13 -60 -39s-19 -69 -19 -129c0 -61.333 6.33301 -105 19 -131s32.334 -39 59.001 -39c27.333 0 47.333 13.333 60 40z" />
    <glyph glyph-name="Racute" unicode="&#x154;" horiz-adv-x="562" 
d="M267 266h-52.001v-266h-160v693h203c90.667 0 158.334 -17.5 203.001 -52.5s67 -87.5 67 -157.5c0 -88.667 -39 -151 -117 -187l157 -296h-175zM214.999 377h48.999c34.667 0 60 8.5 76 25.5s24 43.833 24 80.5c0 33.333 -8.66699 57.833 -26 73.5
s-44.666 23.5 -81.999 23.5h-41v-203zM345.998 950l58 -113l-219 -86l-39 77z" />
    <glyph glyph-name="racute" unicode="&#x155;" horiz-adv-x="366" 
d="M370 538l-24.999 -148.001c-14 4 -28 6 -42 6c-27.333 0 -48.333 -10.5 -63 -31.5s-26 -52.167 -34 -93.5v-271h-154v531h135l12 -93c12 34.667 28.667 61.334 50 80.001s46.333 28 75 28c17.333 0 32.666 -2.66699 45.999 -8zM275.001 829.999l60 -113l-217 -94l-42 76z
" />
    <glyph glyph-name="Rcommaaccent" unicode="&#x156;" horiz-adv-x="562" 
d="M267 266h-52.001v-266h-160v693h203c90.667 0 158.334 -17.5 203.001 -52.5s67 -87.5 67 -157.5c0 -88.667 -39 -151 -117 -187l157 -296h-175zM214.999 377h48.999c34.667 0 60 8.5 76 25.5s24 43.833 24 80.5c0 33.333 -8.66699 57.833 -26 73.5
s-44.666 23.5 -81.999 23.5h-41v-203zM336.998 -89.5c14 -14.333 21 -32.499 21 -54.499c0 -12.667 -1.66699 -24.834 -5 -36.501s-9.66602 -27.5 -18.999 -47.5l-42 -95h-76l26 115c-22.667 16 -34 37.333 -34 64c0 20.667 7.16699 38.5 21.5 53.5s32.166 22.5 53.499 22.5
c22 0 40 -7.16699 54 -21.5z" />
    <glyph glyph-name="rcommaaccent" unicode="&#x157;" horiz-adv-x="366" 
d="M370 538l-24.999 -148.001c-14 4 -28 6 -42 6c-27.333 0 -48.333 -10.5 -63 -31.5s-26 -52.167 -34 -93.5v-271h-154v531h135l12 -93c12 34.667 28.667 61.334 50 80.001s46.333 28 75 28c17.333 0 32.666 -2.66699 45.999 -8zM183.001 -89.501
c14 -14.333 21 -32.499 21 -54.499c0 -12.667 -1.66699 -24.834 -5 -36.501s-9.66602 -27.5 -18.999 -47.5l-42 -95h-76l26 115c-22.667 16 -34 37.333 -34 64c0 20.667 7.16699 38.5 21.5 53.5s32.166 22.5 53.499 22.5c22 0 40 -7.16699 54 -21.5z" />
    <glyph glyph-name="Rcaron" unicode="&#x158;" horiz-adv-x="562" 
d="M267 266h-52.001v-266h-160v693h203c90.667 0 158.334 -17.5 203.001 -52.5s67 -87.5 67 -157.5c0 -88.667 -39 -151 -117 -187l157 -296h-175zM214.999 377h48.999c34.667 0 60 8.5 76 25.5s24 43.833 24 80.5c0 33.333 -8.66699 57.833 -26 73.5
s-44.666 23.5 -81.999 23.5h-41v-203zM395.998 939l53 -59l-128 -130h-93l-128 130l54 59l121 -83z" />
    <glyph glyph-name="rcaron" unicode="&#x159;" horiz-adv-x="366" 
d="M370 538l-24.999 -148.001c-14 4 -28 6 -42 6c-27.333 0 -48.333 -10.5 -63 -31.5s-26 -52.167 -34 -93.5v-271h-154v531h135l12 -93c12 34.667 28.667 61.334 50 80.001s46.333 28 75 28c17.333 0 32.666 -2.66699 45.999 -8zM333.001 809.999l53 -60l-128 -138h-93
l-128 138l54 60l121 -92z" />
    <glyph glyph-name="Sacute" unicode="&#x15a;" horiz-adv-x="519" 
d="M385.5 687.5c35.667 -15 68.1592 -37.167 97.4922 -66.5l-73 -84c-43.333 37.333 -87.666 56 -132.999 56c-25.333 0 -45.333 -6.33301 -60 -19s-22 -30 -22 -52c0 -14.667 3.33301 -27 10 -37s18.334 -19.667 35.001 -29s41.334 -20 74.001 -32
c42.667 -16 77.167 -33.167 103.5 -51.5s46.5 -41.166 60.5 -68.499s21 -61.333 21 -102c0 -42.667 -10.167 -80.5 -30.5 -113.5s-49.666 -58.833 -87.999 -77.5s-83.166 -28 -134.499 -28c-96.667 0 -177 32.667 -241 98l78 87c24.667 -21.333 49.5 -37.666 74.5 -48.999
s51.5 -17 79.5 -17c30.667 0 54.334 8 71.001 24s25 37.333 25 64c0 25.333 -7.66699 45.666 -23 60.999s-44.333 30.666 -87 45.999c-69.333 26 -118.666 55.333 -147.999 88s-44 74.334 -44 125.001c0 39.333 10 74.166 30 104.499s47.5 53.833 82.5 70.5
s74.5 25 118.5 25c46.667 0 87.834 -7.5 123.501 -22.5zM338.992 950l58 -113l-219 -86l-39 77z" />
    <glyph glyph-name="sacute" unicode="&#x15b;" horiz-adv-x="438" 
d="M324 531c30.667 -11.333 57.668 -27.3369 81.001 -48.0039l-56 -84c-40 26 -77.667 39 -113 39c-18.667 0 -33 -3.83301 -43 -11.5s-15 -18.167 -15 -31.5c0 -10 2.5 -18.5 7.5 -25.5s14.5 -14 28.5 -21s35 -15.5 63 -25.5c49.333 -16.667 85.833 -37.667 109.5 -63
s35.5 -59.666 35.5 -102.999c0 -53.333 -20.333 -95.666 -61 -126.999s-92.667 -47 -156 -47c-40.667 0 -78.5 7 -113.5 21s-64.833 33 -89.5 57l73 82c41.333 -33.333 82.666 -50 123.999 -50c20.667 0 36.834 4.5 48.501 13.5s17.5 21.5 17.5 37.5
c0 12.667 -2.5 23 -7.5 31s-14.333 15.667 -28 23s-34.834 16 -63.501 26c-48.667 16.667 -84.167 37.834 -106.5 63.501s-33.5 58.167 -33.5 97.5c0 30.667 8 58.334 24 83.001s39 44.167 69 58.5s65.333 21.5 106 21.5c35.333 0 68.333 -5.66699 99 -17zM287.001 829.996
l60 -113l-217 -94l-42 76z" />
    <glyph glyph-name="Scircumflex" unicode="&#x15c;" horiz-adv-x="519" 
d="M385.5 687.5c35.667 -15 68.1592 -37.167 97.4922 -66.5l-73 -84c-43.333 37.333 -87.666 56 -132.999 56c-25.333 0 -45.333 -6.33301 -60 -19s-22 -30 -22 -52c0 -14.667 3.33301 -27 10 -37s18.334 -19.667 35.001 -29s41.334 -20 74.001 -32
c42.667 -16 77.167 -33.167 103.5 -51.5s46.5 -41.166 60.5 -68.499s21 -61.333 21 -102c0 -42.667 -10.167 -80.5 -30.5 -113.5s-49.666 -58.833 -87.999 -77.5s-83.166 -28 -134.499 -28c-96.667 0 -177 32.667 -241 98l78 87c24.667 -21.333 49.5 -37.666 74.5 -48.999
s51.5 -17 79.5 -17c30.667 0 54.334 8 71.001 24s25 37.333 25 64c0 25.333 -7.66699 45.666 -23 60.999s-44.333 30.666 -87 45.999c-69.333 26 -118.666 55.333 -147.999 88s-44 74.334 -44 125.001c0 39.333 10 74.166 30 104.499s47.5 53.833 82.5 70.5
s74.5 25 118.5 25c46.667 0 87.834 -7.5 123.501 -22.5zM146.992 758l-54 58l129 131h92l128 -131l-53 -58l-121 83z" />
    <glyph glyph-name="scircumflex" unicode="&#x15d;" horiz-adv-x="438" 
d="M324 531c30.667 -11.333 57.668 -27.3369 81.001 -48.0039l-56 -84c-40 26 -77.667 39 -113 39c-18.667 0 -33 -3.83301 -43 -11.5s-15 -18.167 -15 -31.5c0 -10 2.5 -18.5 7.5 -25.5s14.5 -14 28.5 -21s35 -15.5 63 -25.5c49.333 -16.667 85.833 -37.667 109.5 -63
s35.5 -59.666 35.5 -102.999c0 -53.333 -20.333 -95.666 -61 -126.999s-92.667 -47 -156 -47c-40.667 0 -78.5 7 -113.5 21s-64.833 33 -89.5 57l73 82c41.333 -33.333 82.666 -50 123.999 -50c20.667 0 36.834 4.5 48.501 13.5s17.5 21.5 17.5 37.5
c0 12.667 -2.5 23 -7.5 31s-14.333 15.667 -28 23s-34.834 16 -63.501 26c-48.667 16.667 -84.167 37.834 -106.5 63.501s-33.5 58.167 -33.5 97.5c0 30.667 8 58.334 24 83.001s39 44.167 69 58.5s65.333 21.5 106 21.5c35.333 0 68.333 -5.66699 99 -17zM103.001 622.996
l-54 59l128 138h93l128 -138l-54 -59l-120 92z" />
    <glyph glyph-name="Scedilla" unicode="&#x15e;" horiz-adv-x="519" 
d="M445 57.5c-36 -39 -85.3369 -62.834 -148.004 -71.501v-37c31.333 -4 55 -14.167 71 -30.5s24 -38.166 24 -65.499c0 -34 -12.333 -61.5 -37 -82.5s-58.334 -31.5 -101.001 -31.5c-40.667 0 -75.667 10 -105 30l35 69c18.667 -10 38 -15 58 -15c27.333 0 41 10.333 41 31
c0 12 -6.83301 20.833 -20.5 26.5s-34.834 8.5 -63.501 8.5l11 96c-80.667 7.33301 -149 39.333 -205 96l78 87c24.667 -21.333 49.5 -37.666 74.5 -48.999s51.5 -17 79.5 -17c30.667 0 54.334 8 71.001 24s25 37.333 25 64c0 25.333 -7.66699 45.666 -23 60.999
s-44.333 30.666 -87 45.999c-69.333 26 -118.666 55.333 -147.999 88s-44 74.334 -44 125.001c0 39.333 10 74.166 30 104.499s47.5 53.833 82.5 70.5s74.5 25 118.5 25c46.667 0 87.834 -7.5 123.501 -22.5s68.167 -37.167 97.5 -66.5l-73 -84
c-43.333 37.333 -87.666 56 -132.999 56c-25.333 0 -45.333 -6.33301 -60 -19s-22 -30 -22 -52c0 -14.667 3.33301 -27 10 -37s18.334 -19.667 35.001 -29s41.334 -20 74.001 -32c42.667 -16 77.167 -33.167 103.5 -51.5s46.5 -41.166 60.5 -68.499s21 -61.333 21 -102
c0 -57.333 -18 -105.5 -54 -144.5z" />
    <glyph glyph-name="scedilla" unicode="&#x15f;" horiz-adv-x="438" 
d="M378.5 45.5c-29 -29.667 -67.8291 -48.8369 -116.496 -57.5039v-39c31.333 -4 55 -14.167 71 -30.5s24 -38.166 24 -65.499c0 -34 -12.333 -61.5 -37 -82.5s-58.334 -31.5 -101.001 -31.5c-40.667 0 -75.667 10 -105 30l35 69c18.667 -10 38 -15 58 -15
c27.333 0 41 10.333 41 31c0 12 -6.83301 20.833 -20.5 26.5s-34.834 8.5 -63.501 8.5l11 95c-34.667 3.33301 -66.834 11.833 -96.501 25.5s-55.167 30.834 -76.5 51.501l73 82c41.333 -33.333 82.666 -50 123.999 -50c20.667 0 36.834 4.5 48.501 13.5
s17.5 21.5 17.5 37.5c0 12.667 -2.5 23 -7.5 31s-14.333 15.667 -28 23s-34.834 16 -63.501 26c-48.667 16.667 -84.167 37.834 -106.5 63.501s-33.5 58.167 -33.5 97.5c0 30.667 8 58.334 24 83.001s39 44.167 69 58.5s65.333 21.5 106 21.5
c35.333 0 68.333 -5.66699 99 -17s57.667 -27.333 81 -48l-56 -84c-40 26 -77.667 39 -113 39c-18.667 0 -33 -3.83301 -43 -11.5s-15 -18.167 -15 -31.5c0 -10 2.5 -18.5 7.5 -25.5s14.5 -14 28.5 -21s35 -15.5 63 -25.5c49.333 -16.667 85.833 -37.667 109.5 -63
s35.5 -59.666 35.5 -102.999c0 -44.667 -14.5 -81.834 -43.5 -111.501z" />
    <glyph glyph-name="Scaron" unicode="&#x160;" horiz-adv-x="519" 
d="M385.5 687.5c35.667 -15 68.1592 -37.167 97.4922 -66.5l-73 -84c-43.333 37.333 -87.666 56 -132.999 56c-25.333 0 -45.333 -6.33301 -60 -19s-22 -30 -22 -52c0 -14.667 3.33301 -27 10 -37s18.334 -19.667 35.001 -29s41.334 -20 74.001 -32
c42.667 -16 77.167 -33.167 103.5 -51.5s46.5 -41.166 60.5 -68.499s21 -61.333 21 -102c0 -42.667 -10.167 -80.5 -30.5 -113.5s-49.666 -58.833 -87.999 -77.5s-83.166 -28 -134.499 -28c-96.667 0 -177 32.667 -241 98l78 87c24.667 -21.333 49.5 -37.666 74.5 -48.999
s51.5 -17 79.5 -17c30.667 0 54.334 8 71.001 24s25 37.333 25 64c0 25.333 -7.66699 45.666 -23 60.999s-44.333 30.666 -87 45.999c-69.333 26 -118.666 55.333 -147.999 88s-44 74.334 -44 125.001c0 39.333 10 74.166 30 104.499s47.5 53.833 82.5 70.5
s74.5 25 118.5 25c46.667 0 87.834 -7.5 123.501 -22.5zM388.992 939l53 -59l-128 -130h-93l-128 130l54 59l121 -83z" />
    <glyph glyph-name="scaron" unicode="&#x161;" horiz-adv-x="438" 
d="M324 531c30.667 -11.333 57.668 -27.3369 81.001 -48.0039l-56 -84c-40 26 -77.667 39 -113 39c-18.667 0 -33 -3.83301 -43 -11.5s-15 -18.167 -15 -31.5c0 -10 2.5 -18.5 7.5 -25.5s14.5 -14 28.5 -21s35 -15.5 63 -25.5c49.333 -16.667 85.833 -37.667 109.5 -63
s35.5 -59.666 35.5 -102.999c0 -53.333 -20.333 -95.666 -61 -126.999s-92.667 -47 -156 -47c-40.667 0 -78.5 7 -113.5 21s-64.833 33 -89.5 57l73 82c41.333 -33.333 82.666 -50 123.999 -50c20.667 0 36.834 4.5 48.501 13.5s17.5 21.5 17.5 37.5
c0 12.667 -2.5 23 -7.5 31s-14.333 15.667 -28 23s-34.834 16 -63.501 26c-48.667 16.667 -84.167 37.834 -106.5 63.501s-33.5 58.167 -33.5 97.5c0 30.667 8 58.334 24 83.001s39 44.167 69 58.5s65.333 21.5 106 21.5c35.333 0 68.333 -5.66699 99 -17zM345.001 809.996
l53 -60l-128 -138h-93l-128 138l54 60l121 -92z" />
    <glyph glyph-name="uni0162" unicode="&#x162;" horiz-adv-x="490" 
d="M397 -80c16 -17.333 24 -39.6689 24 -67.002c0 -34 -12.5 -61.5 -37.5 -82.5s-58.833 -31.5 -101.5 -31.5c-20 0 -39.167 2.83301 -57.5 8.5s-33.833 12.834 -46.5 21.501l35 72c19.333 -12 37.666 -18 54.999 -18c29.333 0 44 10.667 44 32
c0 11.333 -6.66699 19.833 -20 25.5s-34.666 8.5 -63.999 8.5l13 111h-76v571h-158v122h484l-17 -122h-149v-620c32 -3.33301 56 -13.666 72 -30.999z" />
    <glyph glyph-name="uni0163" unicode="&#x163;" horiz-adv-x="352" 
d="M325 -81.5c16 -16.333 24.002 -38.167 24.002 -65.5c0 -34 -12.333 -61.5 -37 -82.5s-58.334 -31.5 -101.001 -31.5c-40.667 0 -75.667 10 -105 30l35 69c18.667 -10 38 -15 58 -15c27.333 0 41 10.333 41 31c0 12 -6.83301 20.833 -20.5 26.5s-34.834 8.5 -63.501 8.5
l12 102c-34.667 10 -60.5 29.333 -77.5 58s-25.5 65 -25.5 109v266h-64v107h64v115l154 18v-133h109l-16 -107h-93v-264c0 -36.667 14 -55 42 -55c15.333 0 32 5 50 15l51 -95c-28 -21.333 -64 -35 -108 -41v-35c31.333 -4 55 -14.167 71 -30.5z" />
    <glyph glyph-name="Tcaron" unicode="&#x164;" horiz-adv-x="490" 
d="M491 693l-17 -122h-149v-571h-160v571h-158v122h484zM366 939l53 -59l-128 -130h-93l-128 130l54 59l121 -83z" />
    <glyph glyph-name="tcaron" unicode="&#x165;" horiz-adv-x="352" 
d="M373 778l-50 -214l-85 13l22 217zM311 120l51 -95.001c-18 -13.333 -38.833 -23.666 -62.5 -30.999s-47.5 -11 -71.5 -11c-54 0 -94.667 15.333 -122 46s-41 73.667 -41 129v266h-64v107h64v115l154 18v-133h109l-16 -107h-93v-264c0 -36.667 14 -55 42 -55
c15.333 0 32 5 50 15z" />
    <glyph glyph-name="Tbar" unicode="&#x166;" horiz-adv-x="490" 
d="M474 570h-149v-181h101v-91h-101v-299h-160v299h-102v91h102v181h-158v122h484z" />
    <glyph glyph-name="tbar" unicode="&#x167;" horiz-adv-x="352" 
d="M362 25c-18 -13.333 -38.833 -23.667 -62.5 -31s-47.5 -11 -71.5 -11c-54 0 -94.667 15.333 -122 46s-41 73.667 -41 129v101h-57v102h57v63h-64v107h64v115l154 18v-133h109l-16 -107h-93v-63h92v-102h-92v-99c0 -36.667 14 -55 42 -55c15.333 0 32 5 50 15z" />
    <glyph glyph-name="Utilde" unicode="&#x168;" horiz-adv-x="587" 
d="M543 214c0 -44 -9.33398 -83.5 -28.001 -118.5s-46.667 -62.5 -84 -82.5s-83 -30 -137 -30c-81.333 0 -143.166 21 -185.499 63s-63.5 98 -63.5 168v479h160v-473c0 -40 7 -69.5 21 -88.5s36.667 -28.5 68 -28.5s53.833 9.5 67.5 28.5s20.5 48.5 20.5 88.5v473h161v-479z
M314.499 771c-9 4 -20.4971 10.332 -34.4971 18.999c-8.66699 6 -15.5 10.333 -20.5 13s-10.5 4 -16.5 4c-10 0 -18.333 -3.16699 -25 -9.5s-14.334 -17.166 -23.001 -32.499l-74 35c12 34 28.333 61.5 49 82.5s44 31.5 70 31.5c13.333 0 25 -2.16699 35 -6.5
s21.333 -10.833 34 -19.5c1.33301 -0.666992 4.66602 -2.66699 9.99902 -6s10.166 -5.83301 14.499 -7.5s8.5 -2.5 12.5 -2.5c9.33301 0 17.5 3.16699 24.5 9.5s14.5 16.833 22.5 31.5l74 -35c-12 -34.667 -28.333 -62.167 -49 -82.5s-44 -30.5 -70 -30.5
c-13.333 0 -24.5 2 -33.5 6z" />
    <glyph glyph-name="utilde" unicode="&#x169;" horiz-adv-x="519" 
d="M466 0l-134 -0.000976562l-7 64c-34.667 -54 -81.667 -81 -141 -81c-43.333 0 -76.833 14.333 -100.5 43s-35.5 67.334 -35.5 116.001v389h154v-377c0 -38 13.333 -57 40 -57c26 0 49.333 19.333 70 58v376h154v-531zM278.5 644.999
c-9 4 -20.4971 10.332 -34.4971 18.999c-8.66699 6 -15.5 10.333 -20.5 13s-10.5 4 -16.5 4c-10 0 -18.333 -3.16699 -25 -9.5s-14.334 -17.166 -23.001 -32.499l-74 35c12 34 28.333 61.5 49 82.5s44 31.5 70 31.5c13.333 0 25 -2.16699 35 -6.5s21.333 -10.833 34 -19.5
c1.33301 -0.666992 4.66602 -2.66699 9.99902 -6s10.166 -5.83301 14.499 -7.5s8.5 -2.5 12.5 -2.5c9.33301 0 17.5 3.16699 24.5 9.5s14.5 16.833 22.5 31.5l74 -35c-12 -34.667 -28.333 -62.167 -49 -82.5s-44 -30.5 -70 -30.5c-13.333 0 -24.5 2 -33.5 6z" />
    <glyph glyph-name="Umacron" unicode="&#x16a;" horiz-adv-x="587" 
d="M543 214c0 -44 -9.33398 -83.5 -28.001 -118.5s-46.667 -62.5 -84 -82.5s-83 -30 -137 -30c-81.333 0 -143.166 21 -185.499 63s-63.5 98 -63.5 168v479h160v-473c0 -40 7 -69.5 21 -88.5s36.667 -28.5 68 -28.5s53.833 9.5 67.5 28.5s20.5 48.5 20.5 88.5v473h161v-479z
M433.999 783h-280v105h280v-105z" />
    <glyph glyph-name="umacron" unicode="&#x16b;" horiz-adv-x="519" 
d="M466 0l-134 -0.000976562l-7 64c-34.667 -54 -81.667 -81 -141 -81c-43.333 0 -76.833 14.333 -100.5 43s-35.5 67.334 -35.5 116.001v389h154v-377c0 -38 13.333 -57 40 -57c26 0 49.333 19.333 70 58v376h154v-531zM398 656.999h-280v105h280v-105z" />
    <glyph glyph-name="Ubreve" unicode="&#x16c;" horiz-adv-x="587" 
d="M543 214c0 -44 -9.33398 -83.5 -28.001 -118.5s-46.667 -62.5 -84 -82.5s-83 -30 -137 -30c-81.333 0 -143.166 21 -185.499 63s-63.5 98 -63.5 168v479h160v-473c0 -40 7 -69.5 21 -88.5s36.667 -28.5 68 -28.5s53.833 9.5 67.5 28.5s20.5 48.5 20.5 88.5v473h161v-479z
M181.499 795.5c-27 29.667 -42.5 68.167 -46.5 115.5l83 15c5.33301 -21.333 14.166 -38 26.499 -50s28.5 -18 48.5 -18s36.333 6.16699 49 18.5s21.667 28.833 27 49.5l83 -15c-4 -46.667 -19.667 -85 -47 -115s-64.666 -45 -111.999 -45s-84.5 14.833 -111.5 44.5z" />
    <glyph glyph-name="ubreve" unicode="&#x16d;" horiz-adv-x="519" 
d="M466 0l-134 -0.000976562l-7 64c-34.667 -54 -81.667 -81 -141 -81c-43.333 0 -76.833 14.333 -100.5 43s-35.5 67.334 -35.5 116.001v389h154v-377c0 -38 13.333 -57 40 -57c26 0 49.333 19.333 70 58v376h154v-531zM144.5 679.499c-27 31 -42.168 72.167 -45.501 123.5
l83 15c12 -52.667 37 -79 75 -79c20 0 36.333 6.83301 49 20.5s21.667 33.167 27 58.5l83 -15c-3.33301 -51.333 -18.666 -92.5 -45.999 -123.5s-65 -46.5 -113 -46.5s-85.5 15.5 -112.5 46.5z" />
    <glyph glyph-name="Uring" unicode="&#x16e;" horiz-adv-x="587" 
d="M543 214c0 -44 -9.33398 -83.5 -28.001 -118.5s-46.667 -62.5 -84 -82.5s-83 -30 -137 -30c-81.333 0 -143.166 21 -185.499 63s-63.5 98 -63.5 168v479h160v-473c0 -40 7 -69.5 21 -88.5s36.667 -28.5 68 -28.5s53.833 9.5 67.5 28.5s20.5 48.5 20.5 88.5v473h161v-479z
M388.999 954.5c23.333 -24.333 35 -55.166 35 -92.499s-11.667 -68.333 -35 -93s-54.666 -37 -93.999 -37s-70.833 12.333 -94.5 37s-35.5 55.667 -35.5 93s11.833 68.166 35.5 92.499s55.167 36.5 94.5 36.5s70.666 -12.167 93.999 -36.5zM254.999 862
c0 -34.667 13.333 -52 40 -52c26 0 39 17.333 39 52c0 34 -13 51 -39 51c-26.667 0 -40 -17 -40 -51z" />
    <glyph glyph-name="uring" unicode="&#x16f;" horiz-adv-x="519" 
d="M466 0l-134 -0.000976562l-7 64c-34.667 -54 -81.667 -81 -141 -81c-43.333 0 -76.833 14.333 -100.5 43s-35.5 67.334 -35.5 116.001v389h154v-377c0 -38 13.333 -57 40 -57c26 0 49.333 19.333 70 58v376h154v-531zM352 828.499c23.333 -24.333 35 -55.166 35 -92.499
s-11.667 -68.333 -35 -93s-54.666 -37 -93.999 -37s-70.833 12.333 -94.5 37s-35.5 55.667 -35.5 93s11.833 68.166 35.5 92.499s55.167 36.5 94.5 36.5s70.666 -12.167 93.999 -36.5zM218 735.999c0 -34.667 13.333 -52 40 -52c26 0 39 17.333 39 52c0 34 -13 51 -39 51
c-26.667 0 -40 -17 -40 -51z" />
    <glyph glyph-name="Uhungarumlaut" unicode="&#x170;" horiz-adv-x="587" 
d="M543 214c0 -44 -9.33398 -83.5 -28.001 -118.5s-46.667 -62.5 -84 -82.5s-83 -30 -137 -30c-81.333 0 -143.166 21 -185.499 63s-63.5 98 -63.5 168v479h160v-473c0 -40 7 -69.5 21 -88.5s36.667 -28.5 68 -28.5s53.833 9.5 67.5 28.5s20.5 48.5 20.5 88.5v473h161v-479z
M253.999 983l101 -48l-105 -179l-77 32zM415.999 983l99 -51l-112 -180l-75 36z" />
    <glyph glyph-name="uhungarumlaut" unicode="&#x171;" horiz-adv-x="519" 
d="M466 0l-134 -0.000976562l-7 64c-34.667 -54 -81.667 -81 -141 -81c-43.333 0 -76.833 14.333 -100.5 43s-35.5 67.334 -35.5 116.001v389h154v-377c0 -38 13.333 -57 40 -57c26 0 49.333 19.333 70 58v376h154v-531zM212 856.999l101 -48l-105 -179l-77 32zM374 856.999
l99 -51l-112 -180l-75 36z" />
    <glyph glyph-name="Uogonek" unicode="&#x172;" horiz-adv-x="587" 
d="M543 693l0.00195312 -479.001c0 -51.333 -12.333 -96 -37 -134s-61 -65 -109 -81c-68 -30 -102 -64 -102 -102c0 -14.667 4 -26 12 -34s19.667 -12 35 -12s33.666 2.66699 54.999 8l-10 -96c-20 -5.33301 -41.333 -8 -64 -8c-39.333 0 -71.833 10.667 -97.5 32
s-38.5 49.333 -38.5 84c0 48.667 26.667 86.334 80 113.001c-72.667 4.66699 -127.834 27.667 -165.501 69s-56.5 95 -56.5 161v479h160v-473c0 -40 7 -69.5 21 -88.5s36.667 -28.5 68 -28.5s53.833 9.5 67.5 28.5s20.5 48.5 20.5 88.5v473h161z" />
    <glyph glyph-name="uogonek" unicode="&#x173;" horiz-adv-x="519" 
d="M383.5 -50.5c-15 -17 -22.499 -34.502 -22.499 -52.502c0 -30.667 15.667 -46 47 -46c12.667 0 30.667 2.33301 54 7l-10 -95c-20 -5.33301 -41 -8 -63 -8c-40.667 0 -73.834 10.333 -99.501 31s-38.5 48.667 -38.5 84c0 52.667 27 96.334 81 131.001l-7 63
c-34.667 -54 -81.667 -81 -141 -81c-43.333 0 -76.833 14.333 -100.5 43s-35.5 67.334 -35.5 116.001v389h154v-377c0 -38 13.333 -57 40 -57c26 0 49.333 19.333 70 58v376h154v-531c-40 -16.667 -67.5 -33.5 -82.5 -50.5z" />
    <glyph glyph-name="Wcircumflex" unicode="&#x174;" horiz-adv-x="772" 
d="M763 693l-100 -693h-208l-70 534l-76 -534h-203l-97 693h155l59 -572l81 572h166l76 -572l68 572h149zM267 758l-54 58l129 131h92l128 -131l-53 -58l-121 83z" />
    <glyph glyph-name="wcircumflex" unicode="&#x175;" horiz-adv-x="687" 
d="M682 531l-97 -531h-182l-59 393l-59 -393h-180l-100 531h151l48 -415l70 415h147l63 -415l53 415h145zM223 623l-54 59l128 138h93l128 -138l-54 -59l-120 92z" />
    <glyph glyph-name="Ycircumflex" unicode="&#x176;" horiz-adv-x="542" 
d="M551 693l-200 -433v-260h-160v259l-200 434h171l111 -308l113 308h165zM150 758l-54 58l129 131h92l128 -131l-53 -58l-121 83z" />
    <glyph glyph-name="ycircumflex" unicode="&#x177;" horiz-adv-x="476" 
d="M330 -1c-38 -138 -130.667 -211.667 -278 -221l-17 107c46 6.66699 80.333 18.5 103 35.5s40.667 43.5 54 79.5h-55l-142 531h158l82 -433l91 433h155zM117 623l-54 59l128 138h93l128 -138l-54 -59l-120 92z" />
    <glyph glyph-name="Ydieresis" unicode="&#x178;" horiz-adv-x="542" 
d="M551 693l-200 -433v-260h-160v259l-200 434h171l111 -308l113 308h165zM221 901c14.667 -14.667 22 -33 22 -55s-7.33301 -40.5 -22 -55.5s-33 -22.5 -55 -22.5c-21.333 0 -39.5 7.5 -54.5 22.5s-22.5 33.5 -22.5 55.5c0 21.333 7.5 39.5 22.5 54.5
s33.167 22.5 54.5 22.5c22 0 40.333 -7.33301 55 -22zM433.5 901c15 -14.667 22.501 -33 22.501 -55s-7.33301 -40.5 -22 -55.5s-33.334 -22.5 -56.001 -22.5c-21.333 0 -39.5 7.5 -54.5 22.5s-22.5 33.5 -22.5 55.5c0 21.333 7.5 39.5 22.5 54.5s33.167 22.5 54.5 22.5
c22 0 40.5 -7.33301 55.5 -22z" />
    <glyph glyph-name="Zacute" unicode="&#x179;" horiz-adv-x="492" 
d="M467 693v-121l-273 -444h279l-16 -128h-443v120l275 449h-249v124h427zM320 950l58 -113l-219 -86l-39 77z" />
    <glyph glyph-name="zacute" unicode="&#x17a;" horiz-adv-x="418" 
d="M400 531v-109l-217 -305h222l-14 -117h-380v109l217 306h-199v116h371zM276 830l60 -113l-217 -94l-42 76z" />
    <glyph glyph-name="Zdotaccent" unicode="&#x17b;" horiz-adv-x="492" 
d="M467 693v-121l-273 -444h279l-16 -128h-443v120l275 449h-249v124h427zM312.5 909c17 -16.667 25.5 -37.334 25.5 -62.001c0 -25.333 -8.5 -46.333 -25.5 -63s-38.5 -25 -64.5 -25s-47.333 8.33301 -64 25s-25 37.667 -25 63c0 24.667 8.33301 45.334 25 62.001
s38 25 64 25s47.5 -8.33301 64.5 -25z" />
    <glyph glyph-name="zdotaccent" unicode="&#x17c;" horiz-adv-x="418" 
d="M400 531v-109l-217 -305h222l-14 -117h-380v109l217 306h-199v116h371zM276.5 783c17 -16.667 25.5 -37.334 25.5 -62.001c0 -25.333 -8.5 -46.333 -25.5 -63s-38.5 -25 -64.5 -25s-47.333 8.33301 -64 25s-25 37.667 -25 63c0 24.667 8.33301 45.334 25 62.001
s38 25 64 25s47.5 -8.33301 64.5 -25z" />
    <glyph glyph-name="Zcaron" unicode="&#x17d;" horiz-adv-x="492" 
d="M467 693v-121l-273 -444h279l-16 -128h-443v120l275 449h-249v124h427zM370 939l53 -59l-128 -130h-93l-128 130l54 59l121 -83z" />
    <glyph glyph-name="zcaron" unicode="&#x17e;" horiz-adv-x="418" 
d="M400 531v-109l-217 -305h222l-14 -117h-380v109l217 306h-199v116h371zM334 810l53 -60l-128 -138h-93l-128 138l54 60l121 -92z" />
    <glyph glyph-name="longs" unicode="&#x17f;" horiz-adv-x="329" 
d="M396 726l-41 -99c-24 12 -48 18 -72 18c-20 0 -34.333 -4.83301 -43 -14.5s-13 -25.5 -13 -47.5v-583h-154v424h-70v107h70v51c0 52.667 16.167 95.167 48.5 127.5s78.833 48.5 139.5 48.5c49.333 0 94.333 -10.667 135 -32z" />
    <glyph glyph-name="uni0180" unicode="&#x180;" horiz-adv-x="549" 
d="M472.5 475.5c30.333 -48.333 45.4961 -118.499 45.4961 -210.499c0 -56 -7.66699 -105.333 -23 -148s-37.333 -75.667 -66 -99s-62.667 -35 -102 -35c-25.333 0 -48.666 5.83301 -69.999 17.5s-39.666 28.167 -54.999 49.5l-7 -50h-137v597h-52v91h52v54l154 16v-70h117
v-91h-117v-118c14.667 21.333 33.334 38.166 56.001 50.499s47.334 18.5 74.001 18.5c56.667 0 100.167 -24.167 130.5 -72.5zM338.996 133.501c13.333 25.667 20 69.501 20 131.501c0 66 -6 110.833 -18 134.5s-29.333 35.5 -52 35.5c-14.667 0 -28.5 -5.33301 -41.5 -16
s-24.833 -25.334 -35.5 -44.001v-230c18.667 -33.333 42 -50 70 -50c24.667 0 43.667 12.833 57 38.5z" />
    <glyph glyph-name="uni0181" unicode="&#x181;" horiz-adv-x="695" 
d="M634.5 315c27 -25.333 40.499 -63 40.499 -113c0 -134.667 -93 -202 -279 -202h-205v579h-24c-27.333 0 -41 -14 -41 -42c0 -18 5.66699 -40.667 17 -68l-98 -43c-13.333 20.667 -23.666 40.667 -30.999 60s-11 40.666 -11 63.999c0 44 15.167 78.833 45.5 104.5
s72.5 38.5 126.5 38.5h197c88.667 0 157 -14.5 205 -43.5s72 -73.5 72 -133.5c0 -40 -11.333 -72.5 -34 -97.5s-51.667 -42.167 -87 -51.5c44 -9.33301 79.5 -26.666 106.5 -51.999zM350.999 580v-165h44c61.333 0 92 28.333 92 85c0 27.333 -8 47.5 -24 60.5
s-41.333 19.5 -76 19.5h-36zM481.999 137c19.333 14 29.001 38.333 29.001 73c0 65.333 -35.333 98 -106 98h-54v-192h46c37.333 0 65.666 7 84.999 21z" />
    <glyph glyph-name="uni0182" unicode="&#x182;" horiz-adv-x="543" 
d="M463.5 390.5c43.667 -36.333 65.5 -90.167 65.5 -161.5c0 -76 -22.667 -133.167 -68 -171.5s-108 -57.5 -188 -57.5h-218v693h400l-16 -121h-224v-127h61c81.333 0 143.833 -18.167 187.5 -54.5zM338 142.499c16 17.667 23.999 45.833 23.999 84.5
c0 36 -8.16699 62.833 -24.5 80.5s-42.166 26.5 -77.499 26.5h-45v-218h48c34 0 59 8.83301 75 26.5z" />
    <glyph glyph-name="uni0183" unicode="&#x183;" horiz-adv-x="543" 
d="M466.5 471c30.333 -48 45.498 -117.334 45.498 -208.001c0 -55.333 -7.66699 -104.166 -23 -146.499s-37.333 -75.166 -66 -98.499s-62.667 -35 -102 -35c-25.333 0 -48.666 5.83301 -69.999 17.5s-39.666 28.167 -54.999 49.5l-7 -50h-137v742h350l-17 -110h-179v-158
c14.667 21.333 33.334 38.166 56.001 50.499s47 18.5 73 18.5c57.333 0 101.166 -24 131.499 -72zM332.998 133.499c13.333 25.667 20 68.834 20 129.501c0 64 -6 107.833 -18 131.5s-29.333 35.5 -52 35.5c-14.667 0 -28.5 -5.33301 -41.5 -16
s-24.833 -25.334 -35.5 -44.001v-225c18.667 -33.333 42 -50 70 -50c24.667 0 43.667 12.833 57 38.5z" />
    <glyph glyph-name="uni0184" unicode="&#x184;" horiz-adv-x="561" 
d="M482.5 400c43.667 -36.667 65.501 -91.999 65.501 -165.999c0 -78.667 -22.333 -137.334 -67 -176.001s-107 -58 -187 -58h-220v494l-67 50c35.333 38 66.666 87.667 93.999 149h133v-238h60c82 0 144.833 -18.333 188.5 -55zM357.501 143.501
c16.333 18.333 24.5 47.833 24.5 88.5c0 38.667 -8.16699 67 -24.5 85s-42.5 27 -78.5 27h-45v-228h50c32.667 0 57.167 9.16699 73.5 27.5z" />
    <glyph glyph-name="uni0185" unicode="&#x185;" horiz-adv-x="492" 
d="M424.5 319c37 -30.667 55.499 -76.333 55.499 -137c0 -61.333 -19 -107 -57 -137s-90.667 -45 -158 -45h-195v341l-69 51c36.667 38.667 68.334 85 95.001 139h128v-166h26c79.333 0 137.5 -15.333 174.5 -46zM307.499 121.001c11 12.667 16.501 34 16.501 64
s-5.33301 51.333 -16 64s-29.334 19 -56.001 19h-28v-166h33c22.667 0 39.5 6.33301 50.5 19z" />
    <glyph glyph-name="uni0186" unicode="&#x186;" horiz-adv-x="524" 
d="M419.5 617.5c49.667 -61.667 74.499 -151.5 74.499 -269.5c0 -79.333 -11.833 -146.333 -35.5 -201s-57 -95.667 -100 -123s-93.5 -41 -151.5 -41c-42 0 -80 8.33301 -114 25s-63.333 38 -88 64l72 88c22.667 -18 42.834 -31.333 60.501 -40s38.167 -13 61.5 -13
c40.667 0 72.167 18.667 94.5 56s33.5 99 33.5 185c0 88 -10.167 150.5 -30.5 187.5s-49.833 55.5 -88.5 55.5c-22.667 0 -43.334 -4 -62.001 -12s-37.667 -19.667 -57 -35l-77 90c28.667 25.333 59.5 44.333 92.5 57s70.833 19 113.5 19
c84.667 0 151.834 -30.833 201.501 -92.5z" />
    <glyph glyph-name="uni0187" unicode="&#x187;" horiz-adv-x="524" 
d="M660 814l-44 -94.001c-10.667 6 -20.5 10.333 -29.5 13s-18.833 4 -29.5 4c-15.333 0 -26.5 -4.33301 -33.5 -13s-10.5 -23 -10.5 -43v-47l-70 -82c-39.333 26 -78 39 -116 39c-86.667 0 -130 -81 -130 -243c0 -160.667 44 -241 132 -241c22 0 41.667 4.5 59 13.5
s37.333 22.5 60 40.5l72 -89c-24.667 -26 -54.167 -47.333 -88.5 -64s-72.5 -25 -114.5 -25c-57.333 0 -107.5 13.667 -150.5 41s-76.5 68.333 -100.5 123s-36 121.667 -36 201c0 76.667 12.167 142.334 36.5 197.001s57 95.834 98 123.501s86.167 41.5 135.5 41.5
c28 0 54.333 -5 79 -15c0.666992 49.333 14.5 87.666 41.5 114.999s64.833 41 113.5 41c46.667 0 88.667 -12.333 126 -37z" />
    <glyph glyph-name="uni0188" unicode="&#x188;" horiz-adv-x="436" 
d="M582 721l-43.002 -94c-11.333 6 -21.333 10.333 -30 13s-18.334 4 -29.001 4c-15.333 0 -26.666 -4.33301 -33.999 -13s-11 -23 -11 -43v-105l-60 -82c-29.333 19.333 -60 29 -92 29c-31.333 0 -54.666 -12.667 -69.999 -38s-23 -68.666 -23 -129.999
c0 -58.667 7.83301 -99.667 23.5 -123s38.167 -35 67.5 -35c15.333 0 29.333 2.5 42 7.5s27.667 13.5 45 25.5l67 -91c-46 -42 -100.333 -63 -163 -63c-76 0 -135.5 24.333 -178.5 73s-64.5 117 -64.5 205c0 57.333 9.5 107.666 28.5 150.999s45.333 76.833 79 100.5
s71.834 35.5 114.501 35.5c14.667 0 31.334 -2.33301 50.001 -7v59c0 50.667 13.667 89.667 41 117s65.666 41 114.999 41c46 0 87.667 -12.333 125 -37z" />
    <glyph glyph-name="uni0189" unicode="&#x189;" horiz-adv-x="611" 
d="M420.5 666c47.667 -18 86.167 -52.333 115.5 -103s44 -121.667 44 -213c0 -129.333 -28.667 -220 -86 -272s-133.333 -78 -228 -78h-195v305h-57v96h57v292h182c64 0 119.833 -9 167.5 -27zM352 136c20 13.333 35.499 37.167 46.499 71.5s16.5 81.833 16.5 142.5
s-5.66699 107.667 -17 141s-27.166 56 -47.499 68s-45.5 18 -75.5 18h-44v-176h106v-96h-106v-189h45c30.667 0 56 6.66699 76 20z" />
    <glyph glyph-name="uni018A" unicode="&#x18a;" horiz-adv-x="730" 
d="M540.5 666c47.667 -18 86.166 -52.332 115.499 -102.999s44 -121.667 44 -213c0 -129.333 -28.667 -220 -86 -272s-133.333 -78 -228 -78h-195v579h-24c-27.333 0 -41 -14 -41 -42c0 -18 5.66699 -40.667 17 -68l-98 -43c-13.333 20.667 -23.666 40.667 -30.999 60
s-11 40.666 -11 63.999c0 44 15.167 78.833 45.5 104.5s72.5 38.5 126.5 38.5h198c64 0 119.833 -9 167.5 -27zM471.999 136.001c20 13.333 35.499 37.167 46.499 71.5s16.5 81.833 16.5 142.5s-5.66699 107.667 -17 141s-27.166 56 -47.499 68s-45.5 18 -75.5 18h-44v-461
h45c30.667 0 56 6.66699 76 20z" />
    <glyph glyph-name="uni018B" unicode="&#x18b;" horiz-adv-x="543" 
d="M489 0l-218 0.000976562c-80.667 0 -143.5 18.333 -188.5 55s-67.5 92.667 -67.5 168c0 71.333 22.167 126.166 66.5 164.499s107.5 57.5 189.5 57.5h58v127h-234v121h394v-693zM329 116.001v218h-43c-36.667 0 -63.167 -9 -79.5 -27s-24.5 -46 -24.5 -84
s8.16699 -65.333 24.5 -82s41.833 -25 76.5 -25h46z" />
    <glyph glyph-name="uni018C" unicode="&#x18c;" horiz-adv-x="545" 
d="M492 0h-135.999l-7 59c-34 -50.667 -79 -76 -135 -76c-60 0 -105.5 24.5 -136.5 73.5s-46.5 116.833 -46.5 203.5c0 54 8.16699 101.833 24.5 143.5s39.5 74.167 69.5 97.5s64.667 35 104 35c43.333 0 79.666 -16.333 108.999 -49v145h-186v110h340v-742zM304.001 109.5
c12 9 23.3311 22.833 33.998 41.5v229c-10.667 14.667 -21.167 25.5 -31.5 32.5s-22.166 10.5 -35.499 10.5c-25.333 0 -45.166 -13 -59.499 -39s-21.5 -67.333 -21.5 -124c0 -60.667 6.33301 -103.167 19 -127.5s30.667 -36.5 54 -36.5c15.333 0 29 4.5 41 13.5z" />
    <glyph glyph-name="uni018D" unicode="&#x18d;" horiz-adv-x="528" 
d="M360 73c35.333 -20.667 59.333 -41.833 72 -63.5s19 -47.5 19 -77.5c0 -44.667 -16.833 -81.667 -50.5 -111s-83.5 -44 -149.5 -44c-35.333 0 -67.833 5.5 -97.5 16.5s-55.5 25.5 -77.5 43.5l67 80c16.667 -10.667 32.667 -18.667 48 -24s32 -8 50 -8
c21.333 0 37.166 4.5 47.499 13.5s15.5 20.833 15.5 35.5c0 12 -2 21.833 -6 29.5s-12.167 15.5 -24.5 23.5s-31.166 18 -56.499 30c-67.333 30.667 -115.5 65.667 -144.5 105s-43.5 92 -43.5 158c0 84 21 149.667 63 197s99.333 71 172 71c74 0 131.667 -21.833 173 -65.5
s62 -106.834 62 -189.501c0 -101.333 -46.333 -174.666 -139 -219.999zM195.5 204.001c5 -18.667 14.167 -34.999 27.5 -48.999s33.333 -28 60 -42c22 20.667 37.167 44.667 45.5 72s12.833 61.666 13.5 102.999c0 53.333 -6 91.166 -18 113.499s-31.667 33.5 -59 33.5
c-26.667 0 -46.167 -11.667 -58.5 -35s-18.5 -63.666 -18.5 -120.999c0 -31.333 2.5 -56.333 7.5 -75z" />
    <glyph glyph-name="uni018E" unicode="&#x18e;" horiz-adv-x="474" 
d="M34 693h385v-693h-390v116h230v180h-189v112h189v171h-225v114z" />
    <glyph glyph-name="uni018F" unicode="&#x18f;" horiz-adv-x="582" 
d="M481.5 622c46.333 -58.667 69.501 -148.667 69.501 -270c0 -124 -23.5 -216.5 -70.5 -277.5s-112.833 -91.5 -197.5 -91.5c-175.333 0 -263 118.333 -263 355c0 10.667 1.66699 32.667 5 66h365c-2 68 -13.333 116.5 -34 145.5s-51 43.5 -91 43.5
c-27.333 0 -51.833 -5 -73.5 -15s-43.5 -23.667 -65.5 -41l-71 85c32 30 66.167 52.167 102.5 66.5s77.166 21.5 122.499 21.5c88 0 155.167 -29.333 201.5 -88zM360.001 143c17.333 28.667 27.332 78.667 29.999 150h-216c0 -70 9.33301 -119.667 28 -149
s45.334 -44 80.001 -44s60.667 14.333 78 43z" />
    <glyph glyph-name="uni0190" unicode="&#x190;" horiz-adv-x="491" 
d="M379.5 687.5c34.333 -15 66.1699 -37.835 95.5029 -68.502l-75 -80c-38.667 36.667 -77.334 55 -116.001 55c-28 0 -48.667 -7.66699 -62 -23s-20 -35.333 -20 -60c0 -28 8 -49.667 24 -65s39 -23 69 -23h65l-18 -115h-48c-35.333 0 -62 -9 -80 -27s-27 -43.333 -27 -76
c0 -34 8.66699 -59.667 26 -77s41.666 -26 72.999 -26c24 0 45.667 4.83301 65 14.5s39.333 24.5 60 44.5l84 -81c-56 -64.667 -131 -97 -225 -97c-48.667 0 -91.834 8.66699 -129.501 26s-67.167 42 -88.5 74s-32 69.333 -32 112c0 51.333 14.167 91.5 42.5 120.5
s67.833 46.5 118.5 52.5c-47.333 10 -82.833 28.833 -106.5 56.5s-35.5 62.167 -35.5 103.5c0 34.667 9.33301 65.834 28 93.501s45.167 49.334 79.5 65.001s73.5 23.5 117.5 23.5c42.667 0 81.167 -7.5 115.5 -22.5z" />
    <glyph glyph-name="uni0191" unicode="&#x191;" horiz-adv-x="441" 
d="M215 579v-188h178v-114h-178v-277h-1v-41c0 -59.333 -17 -104.166 -51 -134.499s-79.667 -45.5 -137 -45.5c-52 0 -96.333 14 -133 42l53 92c12 -6.66699 22.333 -11.334 31 -14.001s18.667 -4 30 -4c31.333 0 47 18.333 47 55v51h1v692h380l-17 -114h-203z" />
    <glyph glyph-name="florin" unicode="&#x192;" horiz-adv-x="343" 
d="M243.5 630.5c-9 -9.66699 -13.5 -25.4971 -13.5 -47.4971v-52h112l-17 -107h-95v-366c0 -54 -8.5 -98.833 -25.5 -134.5s-39.833 -64.334 -68.5 -86.001s-64.334 -41.167 -107.001 -58.5l-52 112c23.333 12.667 41.833 24.667 55.5 36s24.334 26.666 32.001 45.999
s11.5 44.666 11.5 75.999v375h-70v107h70v51c0 53.333 16.167 96 48.5 128s79.5 48 141.5 48c50.667 0 99 -10.667 145 -32l-42 -99c-28 12 -54.333 18 -79 18c-22 0 -37.5 -4.83301 -46.5 -14.5z" />
    <glyph glyph-name="uni0193" unicode="&#x193;" horiz-adv-x="559" 
d="M695 814l-44 -93.9971c-11.333 6 -21.333 10.333 -30 13s-18.334 4 -29.001 4c-15.333 0 -26.666 -4.33301 -33.999 -13s-11 -23 -11 -43v-56l-72 -76c-23.333 15.333 -45.333 26.666 -66 33.999s-43 11 -67 11c-46.667 0 -82.667 -19.167 -108 -57.5
s-38 -101.5 -38 -189.5c0 -63.333 4.33301 -112.833 13 -148.5s21.667 -60.834 39 -75.501s40.333 -22 69 -22c30 0 56.667 7.33301 80 22v162h-77l-15 113h244v-343c-32.667 -22.667 -69.167 -40.334 -109.5 -53.001s-80.833 -19 -121.5 -19
c-96.667 0 -168.834 30.167 -216.501 90.5s-71.5 151.5 -71.5 273.5c0 78 13.167 144.333 39.5 199s61.333 95.667 105 123s91.834 41 144.501 41c36 0 67.667 -6.33301 95 -19v2c0 50 13.5 88.833 40.5 116.5s65.167 41.5 114.5 41.5c45.333 0 87.333 -12.333 126 -37z" />
    <glyph glyph-name="uni0194" unicode="&#x194;" horiz-adv-x="524" 
d="M345 91c21.333 -38 36.834 -71.499 46.501 -100.499s14.5 -58.5 14.5 -88.5c0 -38.667 -11.333 -68.834 -34 -90.501s-58.334 -32.5 -107.001 -32.5s-84.5 10.667 -107.5 32s-34.5 51.333 -34.5 90c0 26.667 4.66699 54 14 82s25.333 64 48 108l-196 602h164l112 -500
l111 500h159zM284.001 -48.499c-4 14.333 -10.333 32.833 -19 55.5c-17.333 -42 -26 -74 -26 -96c0 -20.667 8.66699 -31 26 -31c16.667 0 25 10.333 25 31c0 12.667 -2 26.167 -6 40.5z" />
    <glyph glyph-name="uni0195" unicode="&#x195;" horiz-adv-x="786" 
d="M751 252c0 -63.333 -11.167 -115.167 -33.5 -155.5s-51.333 -69.333 -87 -87s-74.834 -26.5 -117.501 -26.5c-56.667 0 -102.834 15.833 -138.501 47.5s-53.5 77.834 -53.5 138.501v203c0 22 -3.33301 37.5 -10 46.5s-16 13.5 -28 13.5
c-13.333 0 -26.166 -5.5 -38.499 -16.5s-25.166 -27.167 -38.499 -48.5v-367h-154v742l154 16v-285c18.667 25.333 39 44.166 61 56.499s47 18.5 75 18.5c41.333 0 73.833 -13.833 97.5 -41.5s35.5 -65.5 35.5 -113.5v-226c0 -25.333 4 -43.333 12 -54s20 -16 36 -16
c49.333 0 74 54.667 74 164c0 74 -8 164 -24 270h151c18 -104 27 -197 27 -279z" />
    <glyph glyph-name="uni0196" unicode="&#x196;" horiz-adv-x="359" 
d="M366 26c-36.667 -28 -81 -42 -133 -42c-57.333 0 -103 15.167 -137 45.5s-51 75.166 -51 134.499v529h160v-538c0 -36.667 15.667 -55 47 -55c11.333 0 21.333 1.33301 30 4s19 7.33398 31 14.001z" />
    <glyph glyph-name="uni0197" unicode="&#x197;" horiz-adv-x="303" 
d="M298 419v-118h-66v-301h-160v301h-67v118h67v274h160v-274h66z" />
    <glyph glyph-name="uni0198" unicode="&#x198;" horiz-adv-x="596" 
d="M220 370l111 213c22.667 46 46 78.667 70 98s56.667 29 98 29c40 0 76.333 -12 109 -36l-41 -91c-13.333 8.66699 -27.333 13 -42 13c-12.667 0 -23 -3.33301 -31 -10s-17.333 -19.667 -28 -39l-86 -166l213 -381h-179zM215 693v-693h-160v693h160z" />
    <glyph glyph-name="uni0199" unicode="&#x199;" horiz-adv-x="509" 
d="M219 629c-8.66699 -10 -13 -26.333 -13 -49v-580h-154v585c0 50.667 16.333 92.167 49 124.5s79.667 48.5 141 48.5c50 0 94.667 -11 134 -33l-43 -98c-23.333 11.333 -47 17 -71 17c-20 0 -34.333 -5 -43 -15zM364 298l153 -298h-168l-138 290l144 241h151z" />
    <glyph glyph-name="uni019A" unicode="&#x19a;" horiz-adv-x="309" 
d="M303 2c-26.667 -12.667 -56.333 -18.999 -89 -18.999c-44 0 -78.333 12.667 -103 38s-37 60.666 -37 105.999v191h-69v108h69v316l154 16v-332h70v-108h-70v-184c0 -19.333 8 -29 24 -29c6.66699 0 14 1.33301 22 4z" />
    <glyph glyph-name="uni019B" unicode="&#x19b;" horiz-adv-x="484" 
d="M426.5 192c19 -59.333 44.166 -112.334 75.499 -159.001l-147 -50c-27.333 52 -49.166 106.333 -65.499 163s-32.166 135.334 -47.499 236.001l-84 -399l-151 33l143 478h72c-7.33301 34.667 -15.333 61 -24 79l-52 -52l-78 51l69 66c-22.667 10 -49.334 18 -80.001 24
l17 96c64 -10.667 114 -27 150 -49l67 61l62 -68l-62 -56c30.667 -42.667 53.667 -102 69 -178c25.333 -124.667 47.5 -216.667 66.5 -276z" />
    <glyph glyph-name="uni019C" unicode="&#x19c;" horiz-adv-x="825" 
d="M770 693l-0.00195312 -693.001h-140l-11 61c-21.333 -27.333 -43.166 -47.166 -65.499 -59.499s-47.5 -18.5 -75.5 -18.5c-30.667 0 -57.334 8 -80.001 24s-40 38 -52 66c-24 -31.333 -47.667 -54.166 -71 -68.499s-49.666 -21.5 -78.999 -21.5
c-46.667 0 -83.5 17.167 -110.5 51.5s-40.5 78.166 -40.5 131.499v527h160v-519c0 -23.333 4 -41 12 -53s19.667 -18 35 -18c14 0 26.667 5 38 15s24 25.667 38 47v1v527h159v-519c0 -22 4 -39.333 12 -52s19.333 -19 34 -19c15.333 0 28.833 5 40.5 15
s23.834 26.333 36.501 49v526h160z" />
    <glyph glyph-name="uni019D" unicode="&#x19d;" horiz-adv-x="599" 
d="M544 693v-693h-200l-170 544c1.33301 -8 2 -14.667 2 -20c6 -48 10.667 -91.5 14 -130.5s5 -84.167 5 -135.5v-299c0 -58 -15.833 -102.5 -47.5 -133.5s-73.834 -46.5 -126.501 -46.5c-50 0 -93.333 14 -130 42l53 86c14.667 -7.33301 25.834 -12.333 33.501 -15
s17.167 -4 28.5 -4c32.667 0 49 19.667 49 59v746h198l173 -545c-14.667 86.667 -22 173 -22 259v286h140z" />
    <glyph glyph-name="uni019E" unicode="&#x19e;" horiz-adv-x="524" 
d="M439.5 506.5c23.667 -27.667 35.499 -65.5 35.499 -113.5v-614l-154 16v577c0 22 -3.16699 37.5 -9.5 46.5s-15.833 13.5 -28.5 13.5c-13.333 0 -26.166 -5.5 -38.499 -16.5s-25.166 -27.167 -38.499 -48.5v-367h-154v531h135l11 -63
c19.333 26.667 40.666 46.667 63.999 60s50 20 80 20c41.333 0 73.833 -13.833 97.5 -41.5z" />
    <glyph glyph-name="uni019F" unicode="&#x19f;" horiz-adv-x="630" 
d="M526 617.5c49.333 -61.667 74.002 -151.834 74.002 -270.501c0 -117.333 -24.833 -207.333 -74.5 -270s-119.834 -94 -210.501 -94s-160.834 31 -210.501 93s-74.5 152.333 -74.5 271c0 116.667 24.833 206.334 74.5 269.001s119.834 94 210.501 94
c91.333 0 161.666 -30.833 210.999 -92.5zM228.502 547c-20.333 -30.667 -32.501 -80.667 -36.501 -150h246c-4 69.333 -16 119.333 -36 150s-49 46 -87 46c-37.333 0 -66.166 -15.333 -86.499 -46zM404.001 147.5c20 31.667 31.333 84.167 34 157.5h-246
c2.66699 -73.333 14.167 -125.833 34.5 -157.5s49.833 -47.5 88.5 -47.5c39.333 0 69 15.833 89 47.5z" />
    <glyph glyph-name="Ohorn" unicode="&#x1a0;" horiz-adv-x="661" 
d="M629 604c-16.667 -20 -39.999 -33.333 -69.999 -40c27.333 -56.667 41 -129 41 -217c0 -117.333 -24.833 -207.333 -74.5 -270s-119.834 -94 -210.501 -94s-160.834 31 -210.501 93s-74.5 152.333 -74.5 271c0 116.667 24.833 206.334 74.5 269.001
s119.834 94 210.501 94c82.667 0 148 -25.333 196 -76c14 2 24.167 7.16699 30.5 15.5s9.5 20.5 9.5 36.5c0 15.333 -0.833008 28 -2.5 38s-4.5 21.333 -8.5 34l97 15c11.333 -26.667 17 -56.334 17 -89.001c0 -33.333 -8.33301 -60 -25 -80zM404.501 156.5
c19 37.667 28.5 101.167 28.5 190.5c0 88 -9.5 151 -28.5 189s-48.833 57 -89.5 57s-70.5 -19 -89.5 -57s-28.5 -101 -28.5 -189c0 -89.333 9.66699 -152.833 29 -190.5s49 -56.5 89 -56.5c40.667 0 70.5 18.833 89.5 56.5z" />
    <glyph glyph-name="ohorn" unicode="&#x1a1;" horiz-adv-x="575" 
d="M558 439.5c-17.333 -20.333 -41.667 -33.501 -73 -39.501c14 -38 21 -83 21 -135c0 -88 -21.333 -157 -64 -207s-101 -75 -175 -75c-74.667 0 -133 24.333 -175 73s-63 118.667 -63 210c0 88.667 21.167 157.834 63.5 207.501s100.5 74.5 174.5 74.5
c78 0 137.333 -25.333 178 -76c13.333 2.66699 22.833 8 28.5 16s8.5 19.667 8.5 35c0 25.333 -4 49.333 -12 72l97 15c11.333 -28 17 -57.667 17 -89c0 -34 -8.66699 -61.167 -26 -81.5zM327.499 135.499c13 26.333 19.5 69.5 19.5 129.5
c0 61.333 -6.33301 104.833 -19 130.5s-33 38.5 -61 38.5c-27.333 0 -47.333 -13 -60 -39s-19 -69 -19 -129c0 -61.333 6.33301 -105 19 -131s32.667 -39 60 -39s47.5 13.167 60.5 39.5z" />
    <glyph glyph-name="uni01A2" unicode="&#x1a2;" horiz-adv-x="873" 
d="M768 662c34 -32 51 -77.335 51 -136.002v-735h-161v743c0 42.667 -16.667 64 -50 64c-11.333 0 -21.5 -1.16699 -30.5 -3.5s-18.833 -6.16602 -29.5 -11.499c34.667 -60 52 -138.667 52 -236c0 -117.333 -24.833 -207.333 -74.5 -270s-119.834 -94 -210.501 -94
s-160.834 31 -210.501 93s-74.5 152.333 -74.5 271c0 116.667 24.833 206.334 74.5 269.001s119.834 94 210.501 94c64.667 0 119.334 -16.333 164.001 -49c44 32.667 94.333 49 151 49c58 0 104 -16 138 -48zM404.5 156.498c19 37.667 28.5 101.167 28.5 190.5
c0 88 -9.5 151 -28.5 189s-48.833 57 -89.5 57s-70.5 -19 -89.5 -57s-28.5 -101 -28.5 -189c0 -89.333 9.66699 -152.833 29 -190.5s49 -56.5 89 -56.5c40.667 0 70.5 18.833 89.5 56.5z" />
    <glyph glyph-name="uni01A3" unicode="&#x1a3;" horiz-adv-x="755" 
d="M654.5 501.5c31.667 -31 47.499 -76.835 47.499 -137.502v-585l-154 16v583c0 20 -3.83301 34.667 -11.5 44s-19.5 14 -35.5 14c-10 0 -21 -1.66699 -33 -5c22.667 -45.333 34 -100.666 34 -165.999c0 -88 -21.167 -157 -63.5 -207s-100.166 -75 -173.499 -75
s-131 24.333 -173 73s-63 118.667 -63 210c0 88.667 21 157.834 63 207.501s100 74.5 174 74.5c50 0 92.667 -11.333 128 -34c20 12 40.333 20.667 61 26s43.667 8 69 8c55.333 0 98.833 -15.5 130.5 -46.5zM323.999 135.498c12.667 26.333 19 69.5 19 129.5
c0 61.333 -6.16699 104.833 -18.5 130.5s-31.833 38.5 -58.5 38.5s-46.334 -13 -59.001 -39s-19 -69 -19 -129c0 -61.333 6.16699 -105 18.5 -131s31.833 -39 58.5 -39s46.334 13.167 59.001 39.5z" />
    <glyph glyph-name="uni01A4" unicode="&#x1a4;" horiz-adv-x="680" 
d="M593.5 636c47.667 -38 71.4971 -93.999 71.4971 -167.999c0 -78 -23.167 -136.833 -69.5 -176.5s-110.166 -59.5 -191.499 -59.5h-53v-232h-160v579h-24c-27.333 0 -41 -14 -41 -42c0 -18 5.66699 -40.667 17 -68l-98 -43c-13.333 20.667 -23.666 40.667 -30.999 60
s-11 40.666 -11 63.999c0 44 15.167 78.833 45.5 104.5s72.5 38.5 126.5 38.5h214c88.667 0 156.834 -19 204.501 -57zM473.997 375.501c18 18.333 27 48.833 27 91.5c0 38 -8.83301 66.167 -26.5 84.5s-45.5 27.5 -83.5 27.5h-40v-231h40c37.333 0 65 9.16699 83 27.5z" />
    <glyph glyph-name="uni01A5" unicode="&#x1a5;" horiz-adv-x="543" 
d="M467.5 475c29.667 -48.667 44.502 -118 44.502 -208c0 -56 -7.83301 -105.5 -23.5 -148.5s-37.834 -76.333 -66.501 -100s-62.334 -35.5 -101.001 -35.5c-46 0 -84.333 18.333 -115 55v-243l-154 -16v806c0 50.667 16.333 92.167 49 124.5s79.667 48.5 141 48.5
c50 0 94.667 -11 134 -33l-43 -98c-23.333 11.333 -47 17 -71 17c-20 0 -34.333 -5 -43 -15s-13 -26.333 -13 -49v-97c34 43.333 76.667 65 128 65c59.333 0 103.833 -24.333 133.5 -73zM353.002 265c0 64.667 -5.83301 109.167 -17.5 133.5s-29.167 36.5 -52.5 36.5
c-29.333 0 -55 -19.667 -77 -59v-235c19.333 -29.333 42.333 -44 69 -44c52 0 78 56 78 168z" />
    <glyph glyph-name="uni01A6" unicode="&#x1a6;" horiz-adv-x="565" 
d="M271 151h-56v-151h-160v693h160v-115h46c180 0 270 -70.333 270 -211c0 -88.667 -39 -150.667 -117 -186l157 -296h-174zM215 262l52 -0.000976562c34.667 0 60 8.33301 76 25s24 43.334 24 80.001c0 34 -8.5 58.833 -25.5 74.5s-44.167 23.5 -81.5 23.5h-45v-203z" />
    <glyph glyph-name="uni01A7" unicode="&#x1a7;" horiz-adv-x="511" 
d="M384.5 686c34.333 -16 60.832 -38.832 79.499 -68.499s28 -63.834 28 -102.501c0 -51.333 -15 -93 -45 -125s-80 -60.333 -150 -85c-42.667 -14.667 -71.834 -30.667 -87.501 -48s-23.5 -40 -23.5 -68c0 -27.333 8 -48.333 24 -63s38.333 -22 67 -22
c26.667 0 52.167 5.5 76.5 16.5s48.833 26.833 73.5 47.5l79 -86c-29.333 -30 -64.166 -54 -104.499 -72s-86.166 -27 -137.499 -27c-49.333 0 -92.333 9 -129 27s-65 43.333 -85 76s-30 70 -30 112c0 57.333 14.833 102.166 44.5 134.499s76.5 59.833 140.5 82.5
c32.667 11.333 57.5 22 74.5 32s29.167 21 36.5 33s11 26.667 11 44c0 22.667 -6.5 39.834 -19.5 51.501s-31.833 17.5 -56.5 17.5c-25.333 0 -49.166 -4.5 -71.499 -13.5s-44.5 -22.833 -66.5 -41.5l-73 83c62.667 59.333 137.667 89 225 89
c45.333 0 85.166 -8 119.499 -24z" />
    <glyph glyph-name="uni01A8" unicode="&#x1a8;" horiz-adv-x="430" 
d="M323 527c28.667 -14 50.6689 -33.1709 66.002 -57.5039s23 -51.833 23 -82.5c0 -42 -11.833 -75 -35.5 -99s-59.834 -44 -108.501 -60c-27.333 -9.33301 -47.833 -17.666 -61.5 -24.999s-22.667 -15.166 -27 -23.499s-6.5 -19.166 -6.5 -32.499
c0 -17.333 5.66699 -30.666 17 -39.999s26.666 -14 45.999 -14c38.667 0 78.334 16.333 119.001 49l73 -80c-24 -24 -53.833 -43.167 -89.5 -57.5s-73.834 -21.5 -114.501 -21.5c-61.333 0 -111.333 15.333 -150 46s-58 72 -58 124c0 44 12.167 78.5 36.5 103.5
s61.166 45.167 110.499 60.5c27.333 8.66699 47.833 16.667 61.5 24s22.834 15 27.501 23s7 18.333 7 31c0 13.333 -4.66699 24 -14 32s-22.666 12 -39.999 12c-36.667 0 -75 -13 -115 -39l-56 83c55.333 43.333 117.666 65 186.999 65c39.333 0 73.333 -7 102 -21z" />
    <glyph glyph-name="uni01A9" unicode="&#x1a9;" horiz-adv-x="453" 
d="M437 693v-116h-253l153 -203v-65l-157 -190h257v-119h-421v116l178 224l-178 237v116h421z" />
    <glyph glyph-name="uni01AA" unicode="&#x1aa;" horiz-adv-x="383" 
d="M494 -179c-36 -28 -80.999 -42 -134.999 -42c-54.667 0 -98.834 15.167 -132.501 45.5s-50.5 74.166 -50.5 131.499v476c-16.667 -7.33301 -35 -11 -55 -11c-44.667 0 -80.667 15.167 -108 45.5s-41 70.833 -41 121.5c0 51.333 15.5 92.5 46.5 123.5
s73.5 46.5 127.5 46.5c57.333 0 102.333 -16 135 -48s49 -74 49 -126v-638c0 -18.667 4.33301 -32.5 13 -41.5s20.667 -13.5 36 -13.5c12 0 22.333 1.33301 31 4s19 7.33398 31 14.001zM176.001 532l0.000976562 66.001c0 18.667 -2.83301 32.167 -8.5 40.5
s-14.5 12.5 -26.5 12.5c-25.333 0 -38 -20 -38 -60c0 -22.667 3.66699 -38.834 11 -48.501s18.666 -14.5 33.999 -14.5c6.66699 0 16 1.33301 28 4z" />
    <glyph glyph-name="uni01AB" unicode="&#x1ab;" horiz-adv-x="352" 
d="M362 25l0.000976562 -68.001c0 -58 -16.333 -102.167 -49 -132.5s-76.667 -45.5 -132 -45.5c-52.667 0 -98 14 -136 42l53 88c12 -6.66699 23.333 -11.5 34 -14.5s23 -4.5 37 -4.5c40 0 60 20 60 60v33h-5c-52.667 0 -92.334 15.333 -119.001 46s-40 73.334 -40 128.001
v267h-64v107h64v115l154 18v-133h109l-16 -107h-93v-273c0 -35.333 15 -53 45 -53c16 0 34 3.33301 54 10z" />
    <glyph glyph-name="uni01AC" unicode="&#x1ac;" horiz-adv-x="543" 
d="M528 570h-150v-570h-160v570h-48c-28.667 0 -43 -13.333 -43 -40c0 -18.667 4.66699 -38.334 14 -59.001l-103 -45c-23.333 40.667 -35 80.334 -35 119.001c0 46 16 82.167 48 108.5s76 39.5 132 39.5h361z" />
    <glyph glyph-name="uni01AD" unicode="&#x1ad;" horiz-adv-x="352" 
d="M362 25c-18 -13.333 -38.833 -23.6689 -62.5 -31.002s-47.5 -11 -71.5 -11c-54 0 -94.667 15.333 -122 46s-41 73.667 -41 129v266h-64v107h64v56c0 50.667 15 91.834 45 123.501s72.667 47.5 128 47.5c46 0 87 -12.333 123 -37l-43 -88
c-11.333 6.66699 -21.166 11.334 -29.499 14.001s-17.5 4 -27.5 4c-28 0 -42 -17.667 -42 -53v-67h109l-16 -107h-93v-264c0 -36.667 14.333 -55 43 -55c15.333 0 31.666 5.33301 48.999 16z" />
    <glyph glyph-name="uni01AE" unicode="&#x1ae;" horiz-adv-x="495" 
d="M402 -101c8.66699 2.66699 19 7.33398 31 14.001l53 -92c-36.667 -28 -81 -42 -133 -42c-57.333 0 -103 15.167 -137 45.5s-51 75.166 -51 134.499v612h-158v122h484l-17 -122h-149v-621c0 -36.667 15.667 -55 47 -55c11.333 0 21.333 1.33301 30 4z" />
    <glyph glyph-name="Uhorn" unicode="&#x1af;" horiz-adv-x="666" 
d="M644 592c-24 -20.667 -57.668 -31.665 -101.001 -32.998v-345c0 -44 -9.33301 -83.5 -28 -118.5s-46.667 -62.5 -84 -82.5s-83 -30 -137 -30c-81.333 0 -143.166 21 -185.499 63s-63.5 98 -63.5 168v479h160v-473c0 -40 7 -69.5 21 -88.5s36.667 -28.5 68 -28.5
s53.833 9.5 67.5 28.5s20.5 48.5 20.5 88.5v473h161v-57c12 2.66699 20.667 8 26 16s8 19.333 8 34c0 15.333 -0.833008 28 -2.5 38s-4.5 21.333 -8.5 34l97 15c11.333 -26.667 17 -56.334 17 -89.001c0 -40.667 -12 -71.334 -36 -92.001z" />
    <glyph glyph-name="uhorn" unicode="&#x1b0;" horiz-adv-x="589" 
d="M604 521c0 -40.667 -12.1689 -71.334 -36.502 -92.001s-58.166 -31.667 -101.499 -33v-396h-134l-7 64c-34.667 -54 -81.667 -81 -141 -81c-43.333 0 -76.833 14.333 -100.5 43s-35.5 67.334 -35.5 116.001v389h154v-377c0 -38 13.333 -57 40 -57
c26 0 49.333 19.333 70 58v376h154v-59c12.667 2.66699 21.834 8 27.501 16s8.5 19.667 8.5 35c0 25.333 -4 49.333 -12 72l97 15c11.333 -28 17 -57.667 17 -89z" />
    <glyph glyph-name="uni01B1" unicode="&#x1b1;" horiz-adv-x="621" 
d="M157.5 22c-43 26 -75.665 63.001 -97.998 111.001s-33.5 104 -33.5 168c0 67.333 10.333 123 31 167s50 80.667 88 110h-100v115h218v-109c-24.667 -33.333 -42.5 -70.833 -53.5 -112.5s-16.5 -98.5 -16.5 -170.5c0 -70 9.5 -120.833 28.5 -152.5
s48.833 -47.5 89.5 -47.5c40 0 69.667 15.833 89 47.5s29 82.5 29 152.5c0 71.333 -5.66699 127.833 -17 169.5s-29 79.5 -53 113.5v109h218v-115h-101c38.667 -28 68.167 -64 88.5 -108s30.5 -100.333 30.5 -169c0 -63.333 -11.333 -118.833 -34 -166.5
s-55.334 -84.834 -98.001 -111.501s-93.334 -40 -152.001 -40c-59.333 0 -110.5 13 -153.5 39z" />
    <glyph glyph-name="uni01B2" unicode="&#x1b2;" horiz-adv-x="587" 
d="M506 671c24.667 -26 36.998 -64.333 36.998 -115v-277c0 -61.333 -11.167 -114.333 -33.5 -159s-53.666 -78.667 -93.999 -102s-87.166 -35 -140.499 -35c-47.333 0 -88.333 9.33301 -123 28s-61.167 44.5 -79.5 77.5s-27.5 70.5 -27.5 112.5v492h160v-495
c0 -30.667 6.33301 -54.167 19 -70.5s31 -24.5 55 -24.5c31.333 0 56.333 14.167 75 42.5s28 70.833 28 127.5v286c0 23.333 -8.33301 35 -25 35c-7.33301 0 -15 -1.66699 -23 -5l-24 104c26.667 11.333 56.667 17 90 17c46 0 81.333 -13 106 -39z" />
    <glyph glyph-name="uni01B3" unicode="&#x1b3;" horiz-adv-x="576" 
d="M191 259l-200.002 433.999h171l112 -307l61 183c16 50.667 36.333 86.834 61 108.501s58.334 32.5 101.001 32.5c22.667 0 42.834 -3.16699 60.501 -9.5s35.167 -15.166 52.5 -26.499l-43 -91c-14 9.33301 -29.667 14 -47 14c-13.333 0 -24 -3.83301 -32 -11.5
s-16.333 -21.834 -25 -42.501l-112 -283v-260h-160v259z" />
    <glyph glyph-name="uni01B4" unicode="&#x1b4;" horiz-adv-x="480" 
d="M35 -115c46 6.66699 80.335 18.501 103.002 35.501s40.667 43.5 54 79.5h-55l-142 531h158l82 -433l66 350c8 48 22.333 82.667 43 104s51 32 91 32c27.333 0 53.666 -5 78.999 -15l-25 -100c-8 3.33301 -16.333 5 -25 5c-9.33301 0 -16.833 -2.66699 -22.5 -8
s-9.83398 -14 -12.501 -26l-94 -429c-16 -72.667 -47.833 -128.334 -95.5 -167.001s-110.167 -60.667 -187.5 -66z" />
    <glyph glyph-name="uni01B5" unicode="&#x1b5;" horiz-adv-x="492" 
d="M181 128h292l-16 -128h-443v114l114 180h-72v103h137l109 172h-262v124h427v-115l-115 -181h73v-103h-138z" />
    <glyph glyph-name="uni01B6" unicode="&#x1b6;" horiz-adv-x="418" 
d="M172 111h232l-13 -111h-380v103l86 120h-59v93h126l75 105h-210v110h371v-102l-81 -113h59v-93h-126z" />
    <glyph glyph-name="uni01B7" unicode="&#x1b7;" horiz-adv-x="495" 
d="M425.5 347c33.667 -34 50.502 -81.333 50.502 -142c0 -42.667 -10 -80.667 -30 -114s-49 -59.666 -87 -78.999s-83.333 -29 -136 -29c-50 0 -92.833 8.66699 -128.5 26s-66.5 42.666 -92.5 75.999l83 76c20.667 -20.667 40.667 -35.667 60 -45s41.666 -14 66.999 -14
c31.333 0 55.666 9.5 72.999 28.5s26 45.833 26 80.5s-9.16699 59.667 -27.5 75s-45.833 23 -82.5 23h-87v90l161 178h-236v116h404v-113l-164 -178c64 -2.66699 112.833 -21 146.5 -55z" />
    <glyph glyph-name="uni01B8" unicode="&#x1b8;" horiz-adv-x="495" 
d="M493 85c-26.667 -33.333 -58.334 -58.667 -95.001 -76s-80 -26 -130 -26c-51.333 0 -95.666 9.33301 -132.999 28s-66 44.667 -86 78s-30 71 -30 113c0 59.333 17 106.5 51 141.5s82.667 54.5 146 58.5l-164 178v113h404v-116h-235l160 -178v-90h-87
c-36.667 0 -64.167 -8.5 -82.5 -25.5s-27.5 -43.167 -27.5 -78.5c0 -32.667 8.33301 -58 25 -76s40 -27 70 -27c26 0 49 4.66699 69 14s40.667 24.333 62 45z" />
    <glyph glyph-name="uni01B9" unicode="&#x1b9;" horiz-adv-x="463" 
d="M477 -120c-25.333 -32.667 -55.833 -57.665 -91.5 -74.998s-78.167 -26 -127.5 -26c-50 0 -93.333 9.66699 -130 29s-64.834 46.166 -84.501 80.499s-29.5 73.166 -29.5 116.499c0 63.333 17 112.333 51 147s82.333 54.334 145 59.001l-166 214v106h396v-115h-230
l155 -206v-89h-82c-37.333 0 -65.166 -8.83301 -83.499 -26.5s-27.5 -45.5 -27.5 -83.5s8.5 -66.667 25.5 -86s40.833 -29 71.5 -29c24 0 45.667 4.66699 65 14s40.333 24.666 63 45.999z" />
    <glyph glyph-name="uni01BA" unicode="&#x1ba;" horiz-adv-x="465" 
d="M64.5 -160.5c-26.333 25.667 -39.5029 55.4971 -39.5029 89.4971c0 36 12.333 64.333 37 85s63 36.334 115 47.001c42 8.66699 71 18.334 87 29.001s24 27 24 49c0 17.333 -5.66699 30.166 -17 38.499s-29.666 12.5 -54.999 12.5h-115v84l144 148h-226v109h395v-100
l-155 -151h21c50.667 0 90.834 -12.667 120.501 -38s44.5 -60.333 44.5 -105c0 -51.333 -15.833 -90.166 -47.5 -116.499s-75.167 -45.166 -130.5 -56.499c-28.667 -6 -50.167 -11.333 -64.5 -16s-24.166 -9.66699 -29.499 -15s-8 -12.333 -8 -21c0 -16 14.333 -32 43 -48
l-35 -86c-46 15.333 -82.167 35.833 -108.5 61.5z" />
    <glyph glyph-name="uni01BB" unicode="&#x1bb;" horiz-adv-x="469" 
d="M440 119l-16 -119.002h-404v110c58.667 64.667 97.334 108.334 116.001 131.001h-83v103h163c20 28.667 33.833 54 41.5 76s11.5 44.667 11.5 68c0 26.667 -6.5 47.167 -19.5 61.5s-31.167 21.5 -54.5 21.5c-20.667 0 -39 -5.16699 -55 -15.5s-33.667 -27.5 -53 -51.5
l-89 70c54.667 77.333 126 116 214 116c45.333 0 84.166 -8.5 116.499 -25.5s56.833 -39.833 73.5 -68.5s25 -60.667 25 -96c0 -27.333 -3.5 -53.166 -10.5 -77.499s-19.167 -50.5 -36.5 -78.5h54v-103h-132c-22 -25.333 -59.667 -66 -113 -122h251z" />
    <glyph glyph-name="uni01BC" unicode="&#x1bc;" horiz-adv-x="496" 
d="M422 583h-224.999v-155c31.333 16.667 63 25 95 25c52 0 94.333 -19.667 127 -59s49 -94.666 49 -165.999c0 -48.667 -10.167 -91.5 -30.5 -128.5s-49.166 -65.667 -86.499 -86s-81 -30.5 -131 -30.5c-84.667 0 -154.334 33.667 -209.001 101l84 77
c17.333 -20 35.5 -35.333 54.5 -46s40.5 -16 64.5 -16c31.333 0 55.5 10.667 72.5 32s25.5 53.333 25.5 96c0 44 -7.16699 75 -21.5 93s-34.5 27 -60.5 27c-12.667 0 -24.834 -1.83301 -36.501 -5.5s-24.5 -9.83398 -38.5 -18.501h-104v370h388z" />
    <glyph glyph-name="uni01BD" unicode="&#x1bd;" horiz-adv-x="438" 
d="M363 419l-176 0.00195312v-86c24 10 49 15 75 15c28 0 53.5 -6.66699 76.5 -20s41.333 -33 55 -59s20.5 -57.333 20.5 -94c0 -58.667 -19.667 -105.334 -59 -140.001s-91 -52 -155 -52c-40.667 0 -75.5 6.83301 -104.5 20.5s-56.167 33.5 -81.5 59.5l78 81
c20.667 -16.667 38.167 -28.334 52.5 -35.001s30.833 -10 49.5 -10c45.333 0 68 25.333 68 76c0 46 -17.667 69 -53 69c-17.333 0 -36 -5 -56 -15h-100v302h331z" />
    <glyph glyph-name="uni01BE" unicode="&#x1be;" horiz-adv-x="466" 
d="M401.5 359.5c23.667 -33 35.502 -79.1689 35.502 -138.502c0 -74 -20.833 -132 -62.5 -174s-97.5 -63 -167.5 -63c-41.333 0 -78.833 7.5 -112.5 22.5s-64.834 37.833 -93.501 68.5l75 76c18.667 -18.667 36.667 -32.167 54 -40.5s36.666 -12.5 57.999 -12.5
c28.667 0 51 10.333 67 31s24 51.667 24 93c0 44.667 -8.5 78.834 -25.5 102.501s-44.833 40.834 -83.5 51.501l-47 12v142h-63v91h63v121l154 16v-137h84v-91h-84v-92l26 -8c42 -14 74.833 -37.5 98.5 -70.5z" />
    <glyph glyph-name="uni01BF" unicode="&#x1bf;" horiz-adv-x="540" 
d="M431 524.5c25.333 -15.667 45.1699 -38.333 59.5029 -68s21.5 -64.5 21.5 -104.5c0 -56.667 -10.333 -105 -31 -145s-48.334 -74 -83.001 -102s-79.334 -57 -134.001 -87l-58 -32v-191l-154 -16v752h137l7 -60c42.667 51.333 92.667 77 150 77
c31.333 0 59.666 -7.83301 84.999 -23.5zM324.004 221.001c19.333 36.667 29 79.667 29 129c0 58 -19.667 87 -59 87c-16 0 -31 -4.16699 -45 -12.5s-28.333 -20.5 -43 -36.5v-290l32 24c38 29.333 66.667 62.333 86 99z" />
    <glyph glyph-name="uni01C0" unicode="&#x1c0;" horiz-adv-x="242" 
d="M187 756v-756h-132v742z" />
    <glyph glyph-name="uni01C1" unicode="&#x1c1;" horiz-adv-x="433" 
d="M187 756v-756h-132v742zM379 756v-756h-132v742z" />
    <glyph glyph-name="uni01C2" unicode="&#x1c2;" horiz-adv-x="303" 
d="M298 398h-80v-63h80v-88h-80v-247h-132v247h-81v88h81v63h-81v88h81v256l132 14v-270h80v-88z" />
    <glyph glyph-name="uni01C3" unicode="&#x1c3;" horiz-adv-x="284" 
d="M208 756v-522h-132v508zM205 134c16.667 -17.333 24.998 -38 24.998 -62c0 -24.667 -8.33301 -45.667 -25 -63s-37.667 -26 -63 -26s-46.166 8.66699 -62.499 26s-24.5 38.333 -24.5 63c0 24 8.33301 44.667 25 62s37.334 26 62.001 26c25.333 0 46.333 -8.66699 63 -26z
" />
    <glyph glyph-name="uni01C4" unicode="&#x1c4;" horiz-adv-x="1062" 
d="M404.5 666c47.667 -18 86.167 -52.333 115.5 -103s44 -121.667 44 -213c0 -129.333 -28.667 -220 -86 -272s-133.333 -78 -228 -78h-195v693h182c64 0 119.833 -9 167.5 -27zM215 577l-0.000976562 -460.999h45c30.667 0 56 6.66699 76 20s35.5 37.166 46.5 71.499
s16.5 81.833 16.5 142.5s-5.66699 107.667 -17 141s-27.166 56 -47.499 68s-45.5 18 -75.5 18h-44zM1037 693.001v-121l-273 -444h279l-16 -128h-443v120l275 449h-249v124h427zM939.999 939.001l53 -59l-128 -130h-93l-128 130l54 59l121 -83z" />
    <glyph glyph-name="uni01C5" unicode="&#x1c5;" horiz-adv-x="1003" 
d="M404.5 666c47.667 -18 86.167 -52.333 115.5 -103s44 -121.667 44 -213c0 -129.333 -28.667 -220 -86 -272s-133.333 -78 -228 -78h-195v693h182c64 0 119.833 -9 167.5 -27zM215 577l-0.000976562 -460.999h45c30.667 0 56 6.66699 76 20s35.5 37.166 46.5 71.499
s16.5 81.833 16.5 142.5s-5.66699 107.667 -17 141s-27.166 56 -47.499 68s-45.5 18 -75.5 18h-44zM984.999 531.001v-109l-217 -305h222l-14 -117h-380v109l217 306h-199v116h371zM918.999 810.001l53 -60l-128 -138h-93l-128 138l54 60l121 -92z" />
    <glyph glyph-name="uni01C6" unicode="&#x1c6;" horiz-adv-x="963" 
d="M492 742l-0.00195312 -742h-136l-7 59c-34 -50.667 -79 -76 -135 -76c-59.333 0 -104.666 24.833 -135.999 74.5s-47 119.167 -47 208.5c0 56 8.16699 105.333 24.5 148s39.333 75.667 69 99s63.834 35 102.501 35c44.667 0 81.667 -16.333 111 -49v259zM303.998 109.5
c12 9 23.333 22.833 34 41.5v241c-10.667 14.667 -21.167 25.5 -31.5 32.5s-22.5 10.5 -36.5 10.5c-53.333 0 -80 -56.333 -80 -169c0 -63.333 6.33301 -107.5 19 -132.5s30.667 -37.5 54 -37.5c15.333 0 29 4.5 41 13.5zM944.998 531v-109l-217 -305h222l-14 -117h-380v109
l217 306h-199v116h371zM878.998 810l53 -60l-128 -138h-93l-128 138l54 60l121 -92z" />
    <glyph glyph-name="uni01C7" unicode="&#x1c7;" horiz-adv-x="732" 
d="M215 693v-566h241l-17 -127h-384v693h160zM680 105c0 -78.667 -18.667 -138 -56 -178s-88.333 -71.333 -153 -94l-42 113c26 11.333 45.5 24 58.5 38s21.667 30.667 26 50s6.5 45 6.5 77v582h160v-588z" />
    <glyph glyph-name="uni01C8" unicode="&#x1c8;" horiz-adv-x="709" 
d="M215 693v-566h241l-17 -127h-384v693h160zM656 48c0 -51.333 -8.33203 -94.167 -24.999 -128.5s-39.5 -62 -68.5 -83s-64.833 -40.167 -107.5 -57.5l-51 112c23.333 12.667 41.666 24.667 54.999 36s23.833 26 31.5 44s11.5 41.667 11.5 71v489h154v-483z
M642.501 782.999c17 -16.667 25.5 -37.334 25.5 -62.001c0 -25.333 -8.5 -46.333 -25.5 -63s-38.5 -25 -64.5 -25s-47.333 8.33301 -64 25s-25 37.667 -25 63c0 24.667 8.33301 45.334 25 62.001s38 25 64 25s47.5 -8.33301 64.5 -25z" />
    <glyph glyph-name="uni01C9" unicode="&#x1c9;" horiz-adv-x="532" 
d="M84 21c-24.667 25.333 -36.999 60.667 -36.999 106v615l154 16v-624c0 -19.333 8 -29 24 -29c6.66699 0 14 1.33301 22 4l29 -107c-26.667 -12.667 -56.334 -19 -89.001 -19c-44 0 -78.333 12.667 -103 38zM479.001 48.001c0 -51.333 -8.33203 -94.167 -24.999 -128.5
s-39.5 -62 -68.5 -83s-64.833 -40.167 -107.5 -57.5l-51 112c23.333 12.667 41.666 24.667 54.999 36s23.833 26 31.5 44s11.5 41.667 11.5 71v489h154v-483zM465.502 783c17 -16.667 25.5 -37.334 25.5 -62.001c0 -25.333 -8.5 -46.333 -25.5 -63s-38.5 -25 -64.5 -25
s-47.333 8.33301 -64 25s-25 37.667 -25 63c0 24.667 8.33301 45.334 25 62.001s38 25 64 25s47.5 -8.33301 64.5 -25z" />
    <glyph glyph-name="uni01CA" unicode="&#x1ca;" horiz-adv-x="889" 
d="M544 0h-200l-170 544c1.33301 -8 2 -14.667 2 -20c6 -48 10.667 -91.5 14 -130.5s5 -84.167 5 -135.5v-258h-140v693h198l173 -545c-14.667 86.667 -22 173 -22 259v286h140v-693zM837 105c0 -78.667 -18.667 -138 -56 -178s-88.333 -71.333 -153 -94l-42 113
c26 11.333 45.5 24 58.5 38s21.667 30.667 26 50s6.5 45 6.5 77v582h160v-588z" />
    <glyph glyph-name="uni01CB" unicode="&#x1cb;" horiz-adv-x="858" 
d="M544 0h-200l-170 544c1.33301 -8 2 -14.667 2 -20c6 -48 10.667 -91.5 14 -130.5s5 -84.167 5 -135.5v-258h-140v693h198l173 -545c-14.667 86.667 -22 173 -22 259v286h140v-693zM805 48c0 -51.333 -8.33203 -94.167 -24.999 -128.5s-39.5 -62 -68.5 -83
s-64.833 -40.167 -107.5 -57.5l-51 112c23.333 12.667 41.666 24.667 54.999 36s23.833 26 31.5 44s11.5 41.667 11.5 71v489h154v-483zM791.501 782.999c17 -16.667 25.5 -37.334 25.5 -62.001c0 -25.333 -8.5 -46.333 -25.5 -63s-38.5 -25 -64.5 -25
s-47.333 8.33301 -64 25s-25 37.667 -25 63c0 24.667 8.33301 45.334 25 62.001s38 25 64 25s47.5 -8.33301 64.5 -25z" />
    <glyph glyph-name="uni01CC" unicode="&#x1cc;" horiz-adv-x="783" 
d="M439.5 506.5c23.667 -27.667 35.499 -65.5 35.499 -113.5v-393h-154v372c0 22 -3.16699 37.5 -9.5 46.5s-15.833 13.5 -28.5 13.5c-13.333 0 -26.166 -5.5 -38.499 -16.5s-25.166 -27.167 -38.499 -48.5v-367h-154v531h135l11 -63c19.333 26.667 40.666 46.667 63.999 60
s50 20 80 20c41.333 0 73.833 -13.833 97.5 -41.5zM729.999 48c0 -51.333 -8.33203 -94.167 -24.999 -128.5s-39.5 -62 -68.5 -83s-64.833 -40.167 -107.5 -57.5l-51 112c23.333 12.667 41.666 24.667 54.999 36s23.833 26 31.5 44s11.5 41.667 11.5 71v489h154v-483z
M716.5 782.999c17 -16.667 25.5 -37.334 25.5 -62.001c0 -25.333 -8.5 -46.333 -25.5 -63s-38.5 -25 -64.5 -25s-47.333 8.33301 -64 25s-25 37.667 -25 63c0 24.667 8.33301 45.334 25 62.001s38 25 64 25s47.5 -8.33301 64.5 -25z" />
    <glyph glyph-name="uni01CD" unicode="&#x1cd;" horiz-adv-x="543" 
d="M389 0l-31 151h-176l-31 -151h-162l187 693h192l186 -693h-165zM206 266h128l-64 310zM393 939l53 -59l-128 -130h-93l-128 130l54 59l121 -83z" />
    <glyph glyph-name="uni01CE" unicode="&#x1ce;" horiz-adv-x="497" 
d="M450 107c4.66699 -8.66699 12.6689 -15.332 24.002 -19.999l-32 -101c-30.667 2.66699 -55.667 9.66699 -75 21s-34.333 29 -45 53c-32.667 -51.333 -80.334 -77 -143.001 -77c-48 0 -86.167 15.167 -114.5 45.5s-42.5 70.5 -42.5 120.5c0 58 19.5 102.333 58.5 133
s95.5 46 169.5 46h42v25c0 31.333 -5.66699 53.166 -17 65.499s-31.333 18.5 -60 18.5c-32.667 0 -74.334 -9 -125.001 -27l-35 99c29.333 12.667 60.666 22.334 93.999 29.001s64.333 10 93 10c68.667 0 119.334 -15.333 152.001 -46s49 -77.334 49 -140.001v-215
c0 -18 2.33301 -31.333 7 -40zM263.502 106.002c11.667 8.66699 21.167 21.001 28.5 37.001v99h-28c-31.333 0 -54.333 -6.5 -69 -19.5s-22 -33.167 -22 -60.5c0 -22.667 4.5 -39.834 13.5 -51.501s21.833 -17.5 38.5 -17.5c14 0 26.833 4.33301 38.5 13zM367.002 810.003
l53 -60l-128 -138h-93l-128 138l54 60l121 -92z" />
    <glyph glyph-name="uni01CF" unicode="&#x1cf;" horiz-adv-x="269" 
d="M215 693v-693h-160v693h160zM255 939l53 -59l-128 -130h-93l-128 130l54 59l121 -83z" />
    <glyph glyph-name="uni01D0" unicode="&#x1d0;" horiz-adv-x="259" 
d="M206 531v-531h-154v531h154zM250 810l53 -60l-128 -138h-93l-128 138l54 60l121 -92z" />
    <glyph glyph-name="uni01D1" unicode="&#x1d1;" horiz-adv-x="630" 
d="M526 617.5c49.333 -61.667 74.002 -151.834 74.002 -270.501c0 -117.333 -24.833 -207.333 -74.5 -270s-119.834 -94 -210.501 -94s-160.834 31 -210.501 93s-74.5 152.333 -74.5 271c0 116.667 24.833 206.334 74.5 269.001s119.834 94 210.501 94
c91.333 0 161.666 -30.833 210.999 -92.5zM225.502 536c-19 -38 -28.5 -101 -28.5 -189c0 -89.333 9.66699 -152.833 29 -190.5s49 -56.5 89 -56.5c40.667 0 70.5 18.833 89.5 56.5s28.5 101.167 28.5 190.5c0 88 -9.5 151 -28.5 189s-48.833 57 -89.5 57
s-70.5 -19 -89.5 -57zM436.002 939l53 -59l-128 -130h-93l-128 130l54 59l121 -83z" />
    <glyph glyph-name="uni01D2" unicode="&#x1d2;" horiz-adv-x="534" 
d="M442.5 475.5c42.333 -48.333 63.5 -118.501 63.5 -210.501c0 -88 -21.333 -157 -64 -207s-101 -75 -175 -75c-74.667 0 -133 24.333 -175 73s-63 118.667 -63 210c0 88.667 21.167 157.834 63.5 207.501s100.5 74.5 174.5 74.5c74.667 0 133.167 -24.167 175.5 -72.5z
M207 394.999c-12.667 -26 -19 -69 -19 -129c0 -61.333 6.33301 -105 19 -131s32.667 -39 60 -39s47.5 13.167 60.5 39.5s19.5 69.5 19.5 129.5c0 61.333 -6.33301 104.833 -19 130.5s-33 38.5 -61 38.5c-27.333 0 -47.333 -13 -60 -39zM388 809.999l53 -60l-128 -138h-93
l-128 138l54 60l121 -92z" />
    <glyph glyph-name="uni01D3" unicode="&#x1d3;" horiz-adv-x="587" 
d="M543 214c0 -44 -9.33398 -83.5 -28.001 -118.5s-46.667 -62.5 -84 -82.5s-83 -30 -137 -30c-81.333 0 -143.166 21 -185.499 63s-63.5 98 -63.5 168v479h160v-473c0 -40 7 -69.5 21 -88.5s36.667 -28.5 68 -28.5s53.833 9.5 67.5 28.5s20.5 48.5 20.5 88.5v473h161v-479z
M414.999 939l53 -59l-128 -130h-93l-128 130l54 59l121 -83z" />
    <glyph glyph-name="uni01D4" unicode="&#x1d4;" horiz-adv-x="519" 
d="M466 0l-134 -0.000976562l-7 64c-34.667 -54 -81.667 -81 -141 -81c-43.333 0 -76.833 14.333 -100.5 43s-35.5 67.334 -35.5 116.001v389h154v-377c0 -38 13.333 -57 40 -57c26 0 49.333 19.333 70 58v376h154v-531zM379 809.999l53 -60l-128 -138h-93l-128 138l54 60
l121 -92z" />
    <glyph glyph-name="uni01D5" unicode="&#x1d5;" horiz-adv-x="587" 
d="M543 214c0 -44 -9.33398 -83.5 -28.001 -118.5s-46.667 -62.5 -84 -82.5s-83 -30 -137 -30c-81.333 0 -143.166 21 -185.499 63s-63.5 98 -63.5 168v479h160v-473c0 -40 7 -69.5 21 -88.5s36.667 -28.5 68 -28.5s53.833 9.5 67.5 28.5s20.5 48.5 20.5 88.5v473h161v-479z
M241.999 878c14.667 -14.667 22 -33 22 -55s-7.33301 -40.5 -22 -55.5s-33 -22.5 -55 -22.5c-21.333 0 -39.5 7.5 -54.5 22.5s-22.5 33.5 -22.5 55.5c0 21.333 7.5 39.5 22.5 54.5s33.167 22.5 54.5 22.5c22 0 40.333 -7.33301 55 -22zM454.499 878
c15 -14.667 22.501 -33 22.501 -55s-7.33301 -40.5 -22 -55.5s-33.334 -22.5 -56.001 -22.5c-21.333 0 -39.5 7.5 -54.5 22.5s-22.5 33.5 -22.5 55.5c0 21.333 7.5 39.5 22.5 54.5s33.167 22.5 54.5 22.5c22 0 40.5 -7.33301 55.5 -22zM435 942h-280v105h280v-105z" />
    <glyph glyph-name="uni01D6" unicode="&#x1d6;" horiz-adv-x="519" 
d="M466 0l-134 -0.000976562l-7 64c-34.667 -54 -81.667 -81 -141 -81c-43.333 0 -76.833 14.333 -100.5 43s-35.5 67.334 -35.5 116.001v389h154v-377c0 -38 13.333 -57 40 -57c26 0 49.333 19.333 70 58v376h154v-531zM207 735.999c14.667 -14.667 22 -33 22 -55
s-7.33301 -40.5 -22 -55.5s-33 -22.5 -55 -22.5c-21.333 0 -39.5 7.5 -54.5 22.5s-22.5 33.5 -22.5 55.5c0 21.333 7.5 39.5 22.5 54.5s33.167 22.5 54.5 22.5c22 0 40.333 -7.33301 55 -22zM419.5 735.999c15 -14.667 22.501 -33 22.501 -55s-7.33301 -40.5 -22 -55.5
s-33.334 -22.5 -56.001 -22.5c-21.333 0 -39.5 7.5 -54.5 22.5s-22.5 33.5 -22.5 55.5c0 21.333 7.5 39.5 22.5 54.5s33.167 22.5 54.5 22.5c22 0 40.5 -7.33301 55.5 -22zM398.001 802.999h-280v105h280v-105z" />
    <glyph glyph-name="uni01D7" unicode="&#x1d7;" horiz-adv-x="587" 
d="M543 214c0 -44 -9.33398 -83.5 -28.001 -118.5s-46.667 -62.5 -84 -82.5s-83 -30 -137 -30c-81.333 0 -143.166 21 -185.499 63s-63.5 98 -63.5 168v479h160v-473c0 -40 7 -69.5 21 -88.5s36.667 -28.5 68 -28.5s53.833 9.5 67.5 28.5s20.5 48.5 20.5 88.5v473h161v-479z
M360.999 1091l87 -79l-150 -143l-59 51zM235.999 881c14.667 -14.667 22 -33 22 -55s-7.33301 -40.5 -22 -55.5s-33 -22.5 -55 -22.5s-40.333 7.5 -55 22.5s-22 33.5 -22 55.5c0 21.333 7.33301 39.5 22 54.5s33 22.5 55 22.5s40.333 -7.33301 55 -22zM461.999 880.5
c14.667 -15 22 -33.167 22 -54.5c0 -22 -7.33301 -40.5 -22 -55.5s-33 -22.5 -55 -22.5s-40.5 7.5 -55.5 22.5s-22.5 33.5 -22.5 55.5c0 21.333 7.5 39.5 22.5 54.5s33.5 22.5 55.5 22.5s40.333 -7.5 55 -22.5z" />
    </font>
</defs>
</svg>
