<?xml version="1.0" encoding="utf-8"?>
<!-- Generator: Adobe Illustrator 26.0.1, SVG Export Plug-In . SVG Version: 6.00 Build 0)  -->
<svg version="1.1" id="Capa_1" xmlns="http://www.w3.org/2000/svg" xmlns:xlink="http://www.w3.org/1999/xlink" x="0px" y="0px"
	 viewBox="0 0 15 8.6" style="enable-background:new 0 0 15 8.6;" xml:space="preserve">
<style type="text/css">
	.st0{fill:#010101;}
</style>
<path class="st0" d="M7.5,8.5C7.3,8.5,7.1,8.4,7,8.3L0.2,1.1c-0.2-0.3-0.2-0.7,0-0.9C0.3,0.1,0.5,0,0.6,0S1,0.1,1.1,0.2L7.5,7
	l6.4-6.8C14.1,0.1,14.2,0,14.4,0c0.2,0,0.3,0.1,0.4,0.2c0.2,0.3,0.2,0.7,0,0.9L8,8.3C7.9,8.4,7.7,8.5,7.5,8.5
	C7.6,8.5,7.5,8.5,7.5,8.5z"/>
</svg>
